<svg preserveAspectRatio="none" width="100%" height="100%" overflow="visible" style="display: block;" viewBox="0 0 15.2637 13.4023" fill="none" xmlns="http://www.w3.org/2000/svg">
<g id="Vector">
<path fill-rule="evenodd" clip-rule="evenodd" d="M7.63184 0C7.97526 8.14773e-05 8.31302 0.0893999 8.61231 0.257812C8.87444 0.405395 9.09991 0.60971 9.27149 0.855469L9.3418 0.962891L9.34376 0.96582L14.9902 10.3926L14.9951 10.4023C15.1697 10.7047 15.2627 11.0473 15.2637 11.3965C15.2646 11.7456 15.1739 12.0892 15.001 12.3926C14.8281 12.6958 14.5782 12.9489 14.2774 13.126C13.9765 13.3028 13.6341 13.3985 13.2852 13.4023H1.97852C1.62956 13.3985 1.28716 13.3028 0.986336 13.126C0.685453 12.9489 0.435632 12.6958 0.262703 12.3926C0.0898167 12.0892 -0.000948993 11.7456 7.48193e-06 11.3965C0.00101114 11.0473 0.0939855 10.7047 0.268562 10.4023L0.273445 10.3926L5.91993 0.96582L5.92091 0.962891C6.09909 0.669135 6.35106 0.426438 6.6504 0.257812C6.94977 0.0892785 7.2883 8.44137e-05 7.63184 0ZM7.63184 9.40137C7.26377 9.40137 6.96503 9.70032 6.96485 10.0684C6.96485 10.4365 7.26366 10.7353 7.63184 10.7354H7.63868C8.00679 10.7353 8.3047 10.4365 8.3047 10.0684C8.30452 9.70038 8.00668 9.40146 7.63868 9.40137H7.63184ZM7.63184 4.06836C7.26366 4.06836 6.96485 4.36716 6.96485 4.73535V7.40234C6.96503 7.77038 7.26377 8.06836 7.63184 8.06836C7.99992 8.06836 8.29866 7.77038 8.29884 7.40234V4.73535C8.29884 4.36716 8.00003 4.06836 7.63184 4.06836Z" fill="var(--fill-0, #C74F00)"/>
</g>
</svg>
