<svg preserveAspectRatio="none" width="100%" height="100%" overflow="visible" style="display: block;" viewBox="0 0 14.666 14.666" fill="none" xmlns="http://www.w3.org/2000/svg">
<g id="Vector">
<path fill-rule="evenodd" clip-rule="evenodd" d="M7.33301 0C11.3831 0 14.666 3.28293 14.666 7.33301C14.666 11.3831 11.3831 14.666 7.33301 14.666C3.28299 14.6659 0 11.383 0 7.33301C1.10813e-05 3.28298 3.283 8.53037e-05 7.33301 0ZM11.1084 4.39062C10.8644 4.14696 10.4686 4.14688 10.2246 4.39062L6.08301 8.53223L4.44238 6.89062C4.19833 6.64658 3.8017 6.64662 3.55762 6.89062C3.31354 7.1347 3.31354 7.53131 3.55762 7.77539L5.6416 9.8584C5.75871 9.97536 5.91749 10.0409 6.08301 10.041C6.2487 10.041 6.40822 9.97557 6.52539 9.8584L11.1084 5.27539C11.3524 5.03134 11.3523 4.63469 11.1084 4.39062Z" fill="var(--fill-0, #69DB7D)"/>
</g>
</svg>
