<svg preserveAspectRatio="none" width="100%" height="100%" overflow="visible" style="display: block;" viewBox="0 0 14.6667 14.6667" fill="none" xmlns="http://www.w3.org/2000/svg">
<path id="Vector" fill-rule="evenodd" clip-rule="evenodd" d="M14.6667 7.33333C14.6667 11.3834 11.3834 14.6667 7.33333 14.6667C3.28325 14.6667 0 11.3834 0 7.33333C0 3.28325 3.28325 0 7.33333 0C11.3834 0 14.6667 3.28325 14.6667 7.33333ZM6.66667 7.33333V10C6.66667 10.3682 6.96514 10.6667 7.33333 10.6667C7.70152 10.6667 8 10.3682 8 10V7.33333C8 6.96514 7.70152 6.66667 7.33333 6.66667C6.96514 6.66667 6.66667 6.96514 6.66667 7.33333ZM8.00651 4.66667C8.00651 4.29848 7.70803 4 7.33984 4H7.33333C6.96514 4 6.66667 4.29848 6.66667 4.66667C6.66667 5.03486 6.96514 5.33333 7.33333 5.33333H7.33984C7.70803 5.33333 8.00651 5.03486 8.00651 4.66667Z" fill="var(--fill-0, #FFB3A8)"/>
</svg>
