<svg preserveAspectRatio="none" width="100%" height="100%" overflow="visible" style="display: block;" viewBox="0 0 18.3333 18.3333" fill="none" xmlns="http://www.w3.org/2000/svg">
<path id="Vector" d="M16.6667 9.16667C16.6667 5.02453 13.3088 1.66667 9.16667 1.66667C5.02453 1.66667 1.66667 5.02453 1.66667 9.16667C1.66667 13.3088 5.02453 16.6667 9.16667 16.6667C13.3088 16.6667 16.6667 13.3088 16.6667 9.16667ZM9.17481 12.5C9.63504 12.5 10.0081 12.8731 10.0081 13.3333C10.0081 13.7936 9.63504 14.1667 9.17481 14.1667H9.16667C8.70643 14.1667 8.33333 13.7936 8.33333 13.3333C8.33333 12.8731 8.70643 12.5 9.16667 12.5H9.17481ZM7.4113 4.6224C8.08992 4.22363 8.88812 4.07754 9.6639 4.21061C10.4396 4.34375 11.1435 4.74779 11.6504 5.34994C12.1569 5.95179 12.4341 6.71339 12.4333 7.5C12.4333 8.77572 11.4875 9.61814 10.8122 10.0684C10.4492 10.3104 10.0921 10.4886 9.8291 10.6055C9.69655 10.6644 9.58489 10.7091 9.50439 10.7397C9.46419 10.7551 9.43134 10.7671 9.40755 10.7756C9.39566 10.7798 9.38559 10.7828 9.37826 10.7853C9.3747 10.7865 9.37173 10.7878 9.3693 10.7886C9.3682 10.7889 9.36691 10.7891 9.36605 10.7894L9.36442 10.7902C9.36417 10.7903 9.36346 10.7906 9.09994 10L9.36361 10.7902C8.92706 10.9357 8.45536 10.7001 8.30973 10.2637C8.16423 9.82715 8.39984 9.35546 8.83626 9.2098L8.84928 9.20492C8.86214 9.20034 8.88338 9.1927 8.91113 9.18213C8.96731 9.16072 9.05059 9.12711 9.15202 9.08203C9.3577 8.99062 9.62574 8.85628 9.8877 8.68164C10.4624 8.29853 10.7666 7.89095 10.7666 7.5V7.49837C10.7671 7.10504 10.6284 6.72431 10.3752 6.42334C10.1217 6.12223 9.76944 5.92022 9.38151 5.85368C8.99365 5.78721 8.59448 5.86018 8.25521 6.05957C7.91603 6.25901 7.65824 6.57218 7.52767 6.94336C7.37488 7.3774 6.89894 7.60551 6.46484 7.4528C6.03085 7.29998 5.80271 6.82405 5.9554 6.38997C6.21664 5.64742 6.73265 5.02124 7.4113 4.6224ZM18.3333 9.16667C18.3333 14.2293 14.2293 18.3333 9.16667 18.3333C4.10406 18.3333 0 14.2293 0 9.16667C0 4.10406 4.10406 0 9.16667 0C14.2293 0 18.3333 4.10406 18.3333 9.16667Z" fill="var(--fill-0, white)"/>
</svg>
