<svg width="24" height="24" viewBox="0 0 24 24" fill="none" xmlns="http://www.w3.org/2000/svg">
<path d="M17.1429 6.25321C16.9879 6.20561 16.8661 6.08165 16.8183 5.92298C16.1165 3.57671 14.0166 2 11.5932 2C9.20494 2 7.10704 3.55294 6.36912 5.86561C6.29113 6.15022 6.07667 6.23947 5.23735 6.58953C4.98391 6.69464 4.60274 6.85431 4.51111 6.91181C4.50623 6.91578 4.50136 6.91875 4.49551 6.92272C4.01103 7.25196 3.56848 7.6605 3.14247 8.1742C2.40552 9.15199 2 10.3578 2 11.5696C2 14.1459 3.71761 16.3733 6.17599 16.9861C6.19159 16.9901 6.20718 16.995 6.2218 17H8.87828L8.11111 14.5992C8.02825 14.3384 8.16764 14.0587 8.42402 13.9745C8.68038 13.8902 8.95529 14.032 9.03814 14.2928L9.90378 17H11.0121V12.958C11.0121 12.6843 11.2305 12.4621 11.4995 12.4621C11.7686 12.4621 11.9869 12.6843 11.9869 12.958V17H13.0797L13.9551 13.8158C14.0272 13.552 14.2963 13.3983 14.5555 13.4717C14.8148 13.545 14.9659 13.8187 14.8938 14.0825L14.0925 16.9989H16.7792C16.8094 16.988 16.8416 16.9801 16.8737 16.9761C16.8884 16.9702 16.903 16.9652 16.9186 16.9612C19.3215 16.2988 21 14.0814 21 11.5686C20.999 9.14202 19.4133 6.95642 17.1429 6.25321Z" fill="#2E3030"/>
<path d="M6 18V20.6225C6 20.8309 6.2419 21 6.53995 21H16.4601C16.7581 21 17 20.8309 17 20.6225V18H6Z" fill="#2E3030"/>
</svg>
