<svg width="24" height="24" viewBox="0 0 24 24" fill="none" xmlns="http://www.w3.org/2000/svg">
<path d="M5 12H10.9805H11V22H10.9805H5V12Z" fill="#2E3030"/>
<path d="M13 12H13.0205H19V22H13.0205H13V12Z" fill="#2E3030"/>
<path fill-rule="evenodd" clip-rule="evenodd" d="M6.43934 3.43934C6.72064 3.15804 7.10218 3 7.5 3C8.6939 3 9.55732 3.83834 10.1863 4.98192C10.3774 5.32942 10.5319 5.68061 10.654 6H7.5C7.10218 6 6.72064 5.84196 6.43934 5.56066C6.15804 5.27936 6 4.89782 6 4.5C6 4.10218 6.15804 3.72064 6.43934 3.43934ZM11 10.9781V8H3V11H10.9805V12H11V13V21V22H10.9805V23H4C3.44772 23 3 22.5523 3 22V13H2C1.44772 13 1 12.5523 1 12V7C1 6.44772 1.44772 6 2 6H4.33772C4.11743 5.53557 4 5.02384 4 4.5C4 3.57174 4.36875 2.6815 5.02513 2.02513C5.6815 1.36875 6.57174 1 7.5 1C9.8061 1 11.1927 2.66166 11.9387 4.01808C11.9595 4.0559 11.9799 4.09368 12 4.13141C12.0201 4.09368 12.0405 4.0559 12.0613 4.01808C12.8073 2.66166 14.1939 1 16.5 1C17.4283 1 18.3185 1.36875 18.9749 2.02513C19.6313 2.6815 20 3.57174 20 4.5C20 5.02384 19.8826 5.53557 19.6623 6H22C22.5523 6 23 6.44772 23 7V12C23 12.5523 22.5523 13 22 13H21V22C21 22.5523 20.5523 23 20 23H13.0205V22H13V21V13V12H13.0205V11H21V8H13V10.9781H11ZM13 10.9781V11H13.0205V10.9781H13ZM13.0205 23H10.9805V23.0141H13.0205V23ZM11 10.9781V11H10.9805V10.9781H11ZM13.0205 21V13H19V21H13.0205ZM10.9805 13V21H5V13H10.9805ZM17.5607 5.56066C17.2794 5.84196 16.8978 6 16.5 6H13.346C13.4681 5.68061 13.6226 5.32942 13.8137 4.98192C14.4427 3.83834 15.3061 3 16.5 3C16.8978 3 17.2794 3.15804 17.5607 3.43934C17.842 3.72064 18 4.10218 18 4.5C18 4.89782 17.842 5.27936 17.5607 5.56066Z" fill="#2E3030"/>
</svg>
