<svg width="24" height="24" viewBox="0 0 24 24" fill="none" xmlns="http://www.w3.org/2000/svg">
<path d="M21.5 12C21.5006 12.2546 21.4353 12.5051 21.3105 12.727C21.1856 12.949 21.0055 13.1348 20.7875 13.2665L7.28 21.5297C7.05227 21.6691 6.79144 21.7452 6.52445 21.7502C6.25746 21.7551 5.99399 21.6887 5.76125 21.5578C5.53073 21.4289 5.3387 21.2409 5.2049 21.0132C5.07111 20.7855 5.00039 20.5263 5 20.2622V3.73779C5.00039 3.47368 5.07111 3.21445 5.2049 2.98673C5.3387 2.75902 5.53073 2.57106 5.76125 2.44217C5.99399 2.31124 6.25746 2.24482 6.52445 2.24977C6.79144 2.25471 7.05227 2.33084 7.28 2.47029L20.7875 10.7334C21.0055 10.8651 21.1856 11.051 21.3105 11.2729C21.4353 11.4949 21.5006 11.7453 21.5 12Z" fill="#2E3030"/>
</svg>
