<svg width="24" height="24" viewBox="0 0 24 24" fill="none" xmlns="http://www.w3.org/2000/svg">
<path fill-rule="evenodd" clip-rule="evenodd" d="M19.7821 1.05702C21.6669 0.665076 23.3349 2.33307 22.943 4.21796L22.042 8.55359C21.737 10.0209 21.0103 11.367 19.9501 12.4261L17.4347 14.9415L17.4082 17.9938L17.4082 17.9949C17.4036 18.552 17.1791 19.0822 16.7886 19.4728L13.7174 22.544L13.7161 22.5452C12.8547 23.4036 11.3811 22.9887 11.1004 21.8002L10.3996 18.8334C9.32243 18.9157 8.25452 18.6376 7.36062 18.0536L6.14771 19.2665C5.75719 19.657 5.12402 19.657 4.7335 19.2665C4.34297 18.876 4.34297 18.2428 4.7335 17.8523L5.94658 16.6392C5.36227 15.7448 5.08382 14.6769 5.16586 13.5992L2.19979 12.8985C1.01135 12.6178 0.596406 11.1442 1.45476 10.2828L4.52719 7.21033C4.91777 6.81975 5.44803 6.59525 6.00512 6.59073L6.00619 6.59072L9.05889 6.56417L11.5735 4.05039C12.6326 2.98999 13.9789 2.26309 15.4464 1.95805L19.7821 1.05702ZM7.16183 8.58074L6.0214 8.59066C5.99231 8.59088 5.96319 8.60276 5.94141 8.62454L3.4315 11.1344L5.56958 11.6395C5.91764 10.5357 6.4563 9.5001 7.16183 8.58074ZM12.3593 18.4302C13.4633 18.0823 14.4989 17.5435 15.4182 16.838L15.4082 17.9786C15.408 18.0077 15.3961 18.0368 15.3744 18.0586L12.8645 20.5685L12.3593 18.4302ZM20.1 8.06872C18.8733 6.52597 17.474 5.12674 15.9313 3.90001L20.1891 3.01516C20.6639 2.91643 21.0836 3.33599 20.9849 3.81079L20.1 8.06872ZM13.1922 8.94543H13.4182C14.0323 8.94543 14.4688 9.21354 14.7336 9.58127C14.9783 9.92118 15.0545 10.3127 15.0545 10.5818V10.8077L9.28048 16.5818H9.05455C8.60442 16.5818 8.19995 16.3622 7.91885 16.0811C7.63775 15.8 7.41818 15.3956 7.41818 14.9454V14.7195L13.1922 8.94543Z" fill="#2E3030"/>
</svg>
