<svg width="32" height="32" viewBox="0 0 32 32" fill="none" xmlns="http://www.w3.org/2000/svg">
<g clip-path="url(#clip0_15356_6495)">
<path fill-rule="evenodd" clip-rule="evenodd" d="M15.9389 31.9999H15.9532H15.9483H15.9389ZM16.0517 31.9999H16.0468H16.0611H16.0517ZM15.89 31.9996L15.9054 31.9997H15.8965L15.89 31.9996ZM16.1035 31.9997H16.0946L16.11 31.9996L16.1035 31.9997ZM15.8429 31.9993L15.8532 31.9994L15.8449 31.9993H15.8429ZM16.1551 31.9993L16.1468 31.9994L16.1571 31.9993H16.1551ZM16.2067 31.9987H16.2031L16.217 31.9986L16.2067 31.9987ZM15.783 31.9986L15.7969 31.9987H15.7933L15.783 31.9986ZM16.2582 31.998L16.2498 31.9981L16.267 31.9978L16.2582 31.998ZM15.733 31.9978L15.7502 31.9981L15.7418 31.998L15.733 31.9978ZM16.3098 31.997L16.2983 31.9972L16.3142 31.9969L16.3098 31.997ZM15.6858 31.9969L15.7017 31.9972L15.6902 31.997L15.6858 31.9969ZM15.6272 31.9957L15.6413 31.9961H15.6387L15.6272 31.9957ZM16.3613 31.9961H16.3587L16.3728 31.9957L16.3613 31.9961ZM15.5758 31.9945L15.5951 31.995L15.5873 31.9948L15.5758 31.9945ZM16.4127 31.9948L16.4049 31.995L16.4242 31.9945L16.4127 31.9948ZM16.4641 31.9934L16.4515 31.9937L16.4714 31.9932L16.4641 31.9934ZM15.5286 31.9932L15.5485 31.9937L15.5359 31.9934L15.5286 31.9932ZM16.5668 31.9901L16.5598 31.9904L16.5813 31.9897L16.5668 31.9901ZM15.4187 31.9897L15.4402 31.9904L15.4332 31.9901L15.4187 31.9897ZM15.3718 31.9878L15.3945 31.9887L15.3819 31.9883L15.3718 31.9878ZM16.6181 31.9883L16.6055 31.9887L16.6282 31.9878L16.6181 31.9883ZM15.3259 31.986L15.3481 31.987L15.3307 31.9862L15.3259 31.986ZM16.6693 31.9862L16.6519 31.987L16.6741 31.986L16.6693 31.9862ZM15.2615 31.9831L15.2852 31.9842L15.2795 31.9841L15.2615 31.9831ZM16.7205 31.9841L16.7148 31.9842L16.7385 31.9831L16.7205 31.9841ZM15.2154 31.981L15.2399 31.9822L15.2283 31.9817L15.2154 31.981ZM16.7717 31.9817L16.7601 31.9822L16.7846 31.981L16.7717 31.9817ZM15.1698 31.9788L15.1947 31.9799L15.1772 31.9792L15.1698 31.9788ZM16.8228 31.9792L16.8053 31.9799L16.8302 31.9788L16.8228 31.9792ZM16.8739 31.9765L16.8513 31.9777L16.8714 31.9766L16.895 31.9754L16.8739 31.9765ZM15.1286 31.9766L15.1487 31.9777L15.1261 31.9765L15.105 31.9754L15.1286 31.9766ZM16.9249 31.9737L16.915 31.9742L16.9403 31.9728L16.9249 31.9737ZM15.0597 31.9728L15.085 31.9742L15.0751 31.9737L15.0597 31.9728ZM15.0146 31.97L15.0399 31.9715L15.0241 31.9707L15.0146 31.97ZM16.9759 31.9707L16.9601 31.9715L16.9854 31.97L16.9759 31.9707ZM14.9715 31.9674L14.9943 31.9689L14.973 31.9675L14.9517 31.9661L14.9715 31.9674ZM17.027 31.9675L17.0057 31.9689L17.0285 31.9674L17.0483 31.9661L17.027 31.9675ZM17.0778 31.9642L17.0702 31.9647L17.0944 31.9631L17.0778 31.9642ZM14.9056 31.9631L14.9298 31.9647L14.9222 31.9642L14.9056 31.9631ZM14.8606 31.9599L14.8843 31.9616L14.8714 31.9607L14.8606 31.9599ZM17.1286 31.9607L17.1157 31.9616L17.1394 31.9599L17.1286 31.9607ZM14.8156 31.9568L14.8374 31.9583L14.8205 31.9571L14.8156 31.9568ZM17.1795 31.9571L17.1626 31.9583L17.1844 31.9568L17.1795 31.9571ZM14.7552 31.9522L14.7743 31.9536L14.7697 31.9533L14.7552 31.9522ZM17.2303 31.9533L17.2257 31.9536L17.2448 31.9522L17.2303 31.9533ZM17.281 31.9493L17.2719 31.9501L17.2913 31.9485L17.281 31.9493ZM14.7087 31.9485L14.7281 31.9501L14.719 31.9493L14.7087 31.9485ZM14.6634 31.9449L14.6799 31.9462L14.6683 31.9453L14.6634 31.9449ZM17.3317 31.9453L17.3201 31.9462L17.3366 31.9449L17.3317 31.9453ZM17.433 31.9365L17.4285 31.937L17.4398 31.9359L17.433 31.9365ZM14.5602 31.9359L14.5715 31.937L14.567 31.9365L14.5602 31.9359ZM14.5133 31.9317L14.5217 31.9325L14.5165 31.9319L14.5133 31.9317ZM17.4835 31.9319L17.4783 31.9325L17.4867 31.9317L17.4835 31.9319ZM13.4999 31.8054C5.85506 30.6038 0 23.9803 0 16C0 7.16938 7.16938 0 16 0C24.8306 0 32 7.16938 32 16C32 23.9803 26.145 30.6038 18.5001 31.8054V20.625H22.2282L22.9375 16H18.5001V12.9987C18.5001 11.7333 19.1199 10.5 21.1074 10.5H23.125V6.5625C23.125 6.5625 21.294 6.25 19.5435 6.25C15.8886 6.25 13.4999 8.465 13.4999 12.475V16H9.4375V20.625H13.4999V31.8054Z" fill="#2B7A87"/>
</g>
<defs>
<clipPath id="clip0_15356_6495">
<rect width="32" height="32" fill="white"/>
</clipPath>
</defs>
</svg>
