<svg width="32" height="32" viewBox="0 0 32 32" fill="none" xmlns="http://www.w3.org/2000/svg">
<g clip-path="url(#clip0_15356_6494)">
<path fill-rule="evenodd" clip-rule="evenodd" d="M16 0C24.8306 0 32 7.16938 32 16C32 24.8306 24.8306 32 16 32C7.16938 32 0 24.8306 0 16C0 7.16938 7.16938 0 16 0ZM16 6C13.2842 6 12.9436 6.0115 11.877 6.06019C10.8126 6.10875 10.0857 6.27781 9.44956 6.525C8.792 6.78057 8.23431 7.1225 7.67838 7.67844C7.12243 8.23438 6.7805 8.79206 6.52494 9.44962C6.27775 10.0857 6.10875 10.8126 6.06013 11.877C6.0115 12.9436 6 13.2842 6 16C6 18.7158 6.0115 19.0564 6.06013 20.123C6.10875 21.1874 6.27775 21.9143 6.52494 22.5504C6.7805 23.2079 7.12243 23.7657 7.67838 24.3216C8.23431 24.8775 8.792 25.2195 9.44956 25.4751C10.0857 25.7222 10.8126 25.8912 11.877 25.9398C12.9436 25.9885 13.2842 26 16 26C18.7158 26 19.0564 25.9885 20.123 25.9398C21.1874 25.8912 21.9143 25.7222 22.5504 25.4751C23.2079 25.2195 23.7657 24.8775 24.3216 24.3216C24.8775 23.7657 25.2195 23.2079 25.4751 22.5504C25.7222 21.9143 25.8912 21.1874 25.9398 20.123C25.9885 19.0564 26 18.7158 26 16C26 13.2842 25.9885 12.9436 25.9398 11.877C25.8912 10.8126 25.7222 10.0857 25.4751 9.44962C25.2195 8.79206 24.8775 8.23438 24.3216 7.67844C23.7657 7.1225 23.2079 6.78057 22.5504 6.525C21.9143 6.27781 21.1874 6.10875 20.123 6.06019C19.0564 6.0115 18.7158 6 16 6ZM16 7.80181C18.6701 7.80181 18.9863 7.812 20.0409 7.86013C21.0159 7.90463 21.5453 8.0675 21.8977 8.20444C22.3645 8.38581 22.6976 8.60256 23.0475 8.9525C23.3975 9.30238 23.6142 9.63556 23.7955 10.1023C23.9325 10.4547 24.0955 10.9841 24.1398 11.9591C24.1881 13.0137 24.1982 13.3299 24.1982 16C24.1982 18.6701 24.1881 18.9863 24.1398 20.0409C24.0955 21.0159 23.9325 21.5453 23.7955 21.8977C23.6142 22.3645 23.3975 22.6976 23.0475 23.0475C22.6976 23.3975 22.3645 23.6142 21.8977 23.7955C21.5453 23.9325 21.0159 24.0955 20.0409 24.1398C18.9866 24.1881 18.6703 24.1982 16 24.1982C13.3297 24.1982 13.0135 24.1881 11.9591 24.1398C10.9841 24.0955 10.4547 23.9325 10.1023 23.7955C9.6355 23.6142 9.30238 23.3975 8.95244 23.0475C8.6025 22.6976 8.38581 22.3645 8.20444 21.8977C8.0675 21.5453 7.90457 21.0159 7.86006 20.0409C7.81194 18.9863 7.80181 18.6701 7.80181 16C7.80181 13.3299 7.81194 13.0137 7.86006 11.9591C7.90457 10.9841 8.0675 10.4547 8.20444 10.1023C8.38581 9.63556 8.6025 9.30238 8.95244 8.9525C9.30238 8.60256 9.6355 8.38581 10.1023 8.20444C10.4547 8.0675 10.9841 7.90463 11.9591 7.86013C13.0137 7.812 13.3299 7.80181 16 7.80181ZM16 10.8649C13.1639 10.8649 10.8649 13.1639 10.8649 16C10.8649 18.8361 13.1639 21.1351 16 21.1351C18.8361 21.1351 21.1351 18.8361 21.1351 16C21.1351 13.1639 18.8361 10.8649 16 10.8649ZM16 19.3333C14.159 19.3333 12.6667 17.841 12.6667 16C12.6667 14.159 14.159 12.6667 16 12.6667C17.841 12.6667 19.3333 14.159 19.3333 16C19.3333 17.841 17.841 19.3333 16 19.3333ZM22.538 10.662C22.538 11.3248 22.0007 11.862 21.338 11.862C20.6753 11.862 20.138 11.3248 20.138 10.662C20.138 9.99925 20.6753 9.462 21.338 9.462C22.0007 9.462 22.538 9.99925 22.538 10.662Z" fill="#2B7A87"/>
</g>
<defs>
<clipPath id="clip0_15356_6494">
<rect width="32" height="32" fill="white"/>
</clipPath>
</defs>
</svg>
