<svg width="32" height="32" viewBox="0 0 32 32" fill="none" xmlns="http://www.w3.org/2000/svg">
<g clip-path="url(#clip0_15356_6492)">
<path d="M15.9998 0C7.16335 0 0 7.16356 0 15.9999C0 22.7783 4.21717 28.5731 10.1692 30.9043C10.0292 29.6384 9.90285 27.6915 10.2247 26.3094C10.5153 25.0608 12.1009 18.3565 12.1009 18.3565C12.1009 18.3565 11.6221 17.3981 11.6221 15.9809C11.6221 13.7562 12.9116 12.0952 14.5173 12.0952C15.8823 12.0952 16.5417 13.1202 16.5417 14.3491C16.5417 15.7219 15.6678 17.7743 15.2166 19.6763C14.8397 21.2689 16.0153 22.5676 17.5859 22.5676C20.4298 22.5676 22.6157 19.5691 22.6157 15.2407C22.6157 11.4099 19.8629 8.73144 15.9324 8.73144C11.3799 8.73144 8.70766 12.146 8.70766 15.6749C8.70766 17.0501 9.23735 18.5246 9.89841 19.3262C10.029 19.4846 10.0483 19.6236 10.0094 19.7852C9.88784 20.2906 9.61803 21.3773 9.56497 21.5997C9.49516 21.8925 9.33304 21.9547 9.02991 21.8137C7.03154 20.8834 5.78223 17.9619 5.78223 15.6152C5.78223 10.5681 9.44922 5.93307 16.354 5.93307C21.9044 5.93307 26.2177 9.888 26.2177 15.1736C26.2177 20.688 22.7409 25.1257 17.9151 25.1257C16.2939 25.1257 14.7697 24.2834 14.2481 23.2885C14.2481 23.2885 13.4456 26.3435 13.2512 27.0921C12.8898 28.4819 11.9147 30.2239 11.2626 31.2864C12.7597 31.75 14.3506 32 15.9998 32C24.8366 32 32 24.8367 32 15.9999C32 7.16356 24.8366 0 15.9998 0Z" fill="#2B7A87"/>
</g>
<defs>
<clipPath id="clip0_15356_6492">
<rect width="32" height="32" fill="white"/>
</clipPath>
</defs>
</svg>
