<svg width="32" height="32" viewBox="0 0 32 32" fill="none" xmlns="http://www.w3.org/2000/svg">
<g clip-path="url(#clip0_15356_6491)">
<path fill-rule="evenodd" clip-rule="evenodd" d="M16.0048 0C24.8377 0 32.0096 7.16232 32.0096 16.0048C32.0096 24.8377 24.8473 32.0096 16.0048 32.0096C7.17192 32.0096 0 24.8473 0 16.0048C0 7.17192 7.16232 0 16.0048 0ZM19.4707 7.14311C19.7684 9.65857 21.1701 11.1563 23.5992 11.3099V14.1326C22.1878 14.267 20.9493 13.8062 19.5092 12.9421V18.2226C19.5092 24.9433 12.1836 27.0363 9.24572 22.2262C7.35434 19.1347 8.51605 13.691 14.5839 13.4797V16.4656C14.123 16.5425 13.6334 16.6577 13.1821 16.8113C11.8284 17.2625 11.0699 18.1266 11.2811 19.634C11.694 22.5239 16.9937 23.3783 16.5521 17.733V7.15272H19.4803L19.4707 7.14311Z" fill="#2B7A87"/>
</g>
<defs>
<clipPath id="clip0_15356_6491">
<rect width="32" height="32" fill="white"/>
</clipPath>
</defs>
</svg>
