<svg width="32" height="32" viewBox="0 0 32 32" fill="none" xmlns="http://www.w3.org/2000/svg">
<g clip-path="url(#clip0_15426_233)">
<path fill-rule="evenodd" clip-rule="evenodd" d="M16 0C24.8306 0 32 7.16938 32 16C32 24.8306 24.8306 32 16 32C7.16938 32 0 24.8306 0 16C0 7.16938 7.16938 0 16 0ZM17.3035 14.3343L21.9945 21.4699V21.47L23.0001 23.0001H18.8768L18.5987 22.5775L15.0138 17.1238L15.0137 17.1237L15.0137 17.1237L10.1896 23H9L14.4833 16.3176L14.4834 16.3175L10.0218 9.53012L9.01615 8H13.1395L13.4175 8.423L16.7731 13.5273L20.2956 9.23446L21.314 8H22.5036L17.3035 14.3343ZM16.1444 14.2935L12.6493 8.97656H10.7903L15.1121 15.5511L15.1121 15.551L15.6424 16.3575L15.6424 16.3576L15.6424 16.3577L19.3668 22.0234V22.0233H21.2258L16.6747 15.1L16.1444 14.2935Z" fill="#2B7A87"/>
</g>
<defs>
<clipPath id="clip0_15426_233">
<rect width="32" height="32" fill="white"/>
</clipPath>
</defs>
</svg>
