<svg width="16" height="16" viewBox="0 0 16 16" fill="none" xmlns="http://www.w3.org/2000/svg">
<g clip-path="url(#clip0_5811_184092)">
<path fill-rule="evenodd" clip-rule="evenodd" d="M15.3335 8.00002C15.3335 12.0501 12.0502 15.3334 8.00014 15.3334C3.95005 15.3334 0.666809 12.0501 0.666809 8.00002C0.666809 3.94993 3.95005 0.666687 8.00014 0.666687C12.0502 0.666687 15.3335 3.94993 15.3335 8.00002ZM7.33348 8.00002V10.6667C7.33348 11.0349 7.63195 11.3334 8.00014 11.3334C8.36833 11.3334 8.66681 11.0349 8.66681 10.6667V8.00002C8.66681 7.63183 8.36833 7.33335 8.00014 7.33335C7.63195 7.33335 7.33348 7.63183 7.33348 8.00002ZM8.67332 5.33335C8.67332 4.96516 8.37484 4.66669 8.00665 4.66669H8.00014C7.63195 4.66669 7.33348 4.96516 7.33348 5.33335C7.33348 5.70154 7.63195 6.00002 8.00014 6.00002H8.00665C8.37484 6.00002 8.67332 5.70154 8.67332 5.33335Z" fill="#6B6E70"/>
</g>
<defs>
<clipPath id="clip0_5811_184092">
<rect width="16" height="16" fill="white"/>
</clipPath>
</defs>
</svg>
