<svg width="16" height="16" viewBox="0 0 16 16" fill="none" xmlns="http://www.w3.org/2000/svg">
<g clip-path="url(#clip0_5811_184091)">
<path fill-rule="evenodd" clip-rule="evenodd" d="M0.66683 7.99998C0.66683 3.94989 3.95008 0.666645 8.00016 0.666645C12.0503 0.666646 15.3335 3.94989 15.3335 7.99998C15.3335 12.0501 12.0503 15.3333 8.00016 15.3333C3.95007 15.3333 0.666829 12.0501 0.66683 7.99998ZM8.66683 7.99998L8.66683 5.33331C8.66683 4.96512 8.36835 4.66665 8.00016 4.66665C7.63197 4.66665 7.3335 4.96512 7.3335 5.33331L7.3335 7.99998C7.3335 8.36817 7.63197 8.66665 8.00016 8.66665C8.36835 8.66665 8.66683 8.36817 8.66683 7.99998ZM7.32699 10.6666C7.32699 11.0348 7.62546 11.3333 7.99365 11.3333L8.00016 11.3333C8.36835 11.3333 8.66683 11.0348 8.66683 10.6666C8.66683 10.2985 8.36835 9.99998 8.00016 9.99998L7.99365 9.99998C7.62546 9.99998 7.32699 10.2985 7.32699 10.6666Z" fill="#CC1700"/>
</g>
<defs>
<clipPath id="clip0_5811_184091">
<rect width="16" height="16" fill="white"/>
</clipPath>
</defs>
</svg>
