<svg width="16" height="16" viewBox="0 0 16 16" fill="none" xmlns="http://www.w3.org/2000/svg">
<g clip-path="url(#clip0_5811_184090)">
<path fill-rule="evenodd" clip-rule="evenodd" d="M8 0.666992C12.0501 0.666992 15.333 3.94992 15.333 8C15.333 12.0501 12.0501 15.333 8 15.333C3.94998 15.3329 0.666992 12.05 0.666992 8C0.667003 3.94997 3.94999 0.667077 8 0.666992ZM11.7754 5.05762C11.5314 4.81395 11.1356 4.81387 10.8916 5.05762L6.75 9.19922L5.10938 7.55762C4.86532 7.31357 4.46869 7.31362 4.22461 7.55762C3.98053 7.80169 3.98054 8.1983 4.22461 8.44238L6.30859 10.5254C6.4257 10.6424 6.58448 10.7079 6.75 10.708C6.91569 10.708 7.07522 10.6426 7.19238 10.5254L11.7754 5.94238C12.0194 5.69834 12.0193 5.30168 11.7754 5.05762Z" fill="#298538"/>
</g>
<defs>
<clipPath id="clip0_5811_184090">
<rect width="16" height="16" fill="white"/>
</clipPath>
</defs>
</svg>
