<svg width="16" height="16" viewBox="0 0 16 16" fill="none" xmlns="http://www.w3.org/2000/svg">
<path fill-rule="evenodd" clip-rule="evenodd" d="M7.99999 1.26465C8.34341 1.26473 8.68117 1.35405 8.98046 1.52246C9.24259 1.67004 9.46806 1.87436 9.63964 2.12012L9.70995 2.22754L9.71191 2.23047L15.3584 11.6572L15.3633 11.667C15.5379 11.9694 15.6308 12.312 15.6318 12.6611C15.6328 13.0103 15.542 13.3539 15.3691 13.6572C15.1962 13.9605 14.9464 14.2136 14.6455 14.3906C14.3447 14.5675 14.0023 14.6632 13.6533 14.667H2.34667C1.99771 14.6632 1.65531 14.5675 1.35448 14.3906C1.0536 14.2136 0.80378 13.9605 0.630852 13.6572C0.457965 13.3539 0.3672 13.0103 0.368156 12.6611C0.36916 12.312 0.462134 11.9694 0.636711 11.667L0.641594 11.6572L6.28808 2.23047L6.28905 2.22754C6.46724 1.93378 6.71921 1.69109 7.01855 1.52246C7.31792 1.35393 7.65645 1.26473 7.99999 1.26465ZM7.99999 10.666C7.63191 10.666 7.33318 10.965 7.333 11.333C7.333 11.7012 7.63181 12 7.99999 12H8.00683C8.37494 11.9999 8.67284 11.7011 8.67284 11.333C8.67267 10.965 8.37483 10.6661 8.00683 10.666H7.99999ZM7.99999 5.33301C7.63181 5.33301 7.333 5.63181 7.333 6V8.66699C7.33318 9.03503 7.63191 9.333 7.99999 9.33301C8.36807 9.33301 8.66681 9.03503 8.66698 8.66699V6C8.66698 5.63181 8.36818 5.33301 7.99999 5.33301Z" fill="#C74F00"/>
</svg>
