<svg width="24" height="24" viewBox="0 0 24 24" fill="none" xmlns="http://www.w3.org/2000/svg">
<path fill-rule="evenodd" clip-rule="evenodd" d="M12 21C16.9706 21 21 16.9706 21 12C21 7.02945 16.9706 3 12 3C7.02945 3 3 7.02945 3 12C3 16.9706 7.02945 21 12 21ZM12 22C17.5229 22 22 17.5229 22 12C22 6.47715 17.5229 2 12 2C6.47715 2 2 6.47715 2 12C2 17.5229 6.47715 22 12 22Z" fill="#1A5961"/>
<path fill-rule="evenodd" clip-rule="evenodd" d="M13.8334 6.52175L15 11.087V17.7826C15 18.455 14.4776 19 13.8334 19H10.1666C9.52235 19 9 18.455 9 17.7826V11.087L10.1666 6.52175C10.1666 6.52175 9.58335 6.2174 9.58335 5.6087C9.58335 5 9.875 5 10.75 5H13.25C14.125 5 14.4166 5 14.4166 5.6087C14.4166 6.2174 13.8334 6.52175 13.8334 6.52175ZM10.1404 10.6631L11.3317 6.00165L11.3285 6H12.6715L12.6683 6.00165L14 11.2127V11.3989C13.9953 11.3989 13.9864 11.3986 13.9736 11.3982C13.9476 11.3974 13.9061 11.3956 13.8528 11.3918C13.7451 11.3841 13.5963 11.3685 13.4335 11.3382C13.0669 11.2697 12.8016 11.1569 12.6824 11.0456C11.9774 10.3875 11.0421 10.4714 10.5665 10.5602C10.4113 10.5892 10.267 10.6258 10.1404 10.6631ZM14 12.3989V17.5C14 17.7761 13.7761 18 13.5 18H10.5C10.2239 18 10 17.7761 10 17.5V11.7766C10 11.7766 11.3334 11.1543 12 11.7766C12.6666 12.3989 14 12.3989 14 12.3989Z" fill="#1A5961"/>
<path fill-rule="evenodd" clip-rule="evenodd" d="M5.14645 4.89645C5.3417 4.70118 5.6583 4.70118 5.85355 4.89645L8.60355 7.64645C8.7988 7.8417 8.7988 8.1583 8.60355 8.35355C8.4083 8.5488 8.0917 8.5488 7.89645 8.35355L5.14645 5.60355C4.95119 5.4083 4.95119 5.0917 5.14645 4.89645Z" fill="#1A5961"/>
<path fill-rule="evenodd" clip-rule="evenodd" d="M18.6465 19.3535L14.1465 14.8535L14.8535 14.1465L19.3535 18.6465L18.6465 19.3535Z" fill="#1A5961"/>
<path d="M10.5 5.5H13.5V6.5H10.5V5.5Z" fill="#1A5961"/>
</svg>
