<svg width="24" height="24" viewBox="0 0 24 24" fill="none" xmlns="http://www.w3.org/2000/svg">
<path fill-rule="evenodd" clip-rule="evenodd" d="M12 21C16.9706 21 21 16.9706 21 12C21 7.02944 16.9706 3 12 3C7.02944 3 3 7.02944 3 12C3 16.9706 7.02944 21 12 21ZM12 22C17.5228 22 22 17.5228 22 12C22 6.47715 17.5228 2 12 2C6.47715 2 2 6.47715 2 12C2 17.5228 6.47715 22 12 22Z" fill="#1A5961"/>
<path fill-rule="evenodd" clip-rule="evenodd" d="M13.1464 13.1464C13.3417 12.9512 13.6583 12.9512 13.8536 13.1464L19.3536 18.6464L18.6464 19.3536L13.1464 13.8536C12.9512 13.6583 12.9512 13.3417 13.1464 13.1464Z" fill="#1A5961"/>
<path fill-rule="evenodd" clip-rule="evenodd" d="M5.60355 4.64645L9.35355 8.39645C9.54882 8.59171 9.54882 8.90829 9.35355 9.10355C9.15829 9.29882 8.84171 9.29882 8.64645 9.10355L4.89645 5.35355L5.60355 4.64645Z" fill="#1A5961"/>
<path fill-rule="evenodd" clip-rule="evenodd" d="M18.8743 7.55408C19.0419 7.72173 19.0419 7.99352 18.8743 8.16117C18.7066 8.32882 18.4348 8.32882 18.2672 8.16117L17.9635 7.85744L16.446 9.37493L17.6601 10.5891C17.8278 10.7568 17.8278 11.0285 17.6601 11.1962C17.4925 11.3638 17.2207 11.3638 17.0531 11.1962L16.4461 10.5892L11.2859 15.7496C10.6636 16.3719 9.75412 16.5322 8.98395 16.2304L8.55412 16.6603C8.32934 16.8851 8.01096 16.9591 7.72448 16.8825L6.73279 17.8743C6.56517 18.0419 6.29339 18.0419 6.12574 17.8743C5.95809 17.7066 5.95809 17.4348 6.12574 17.2672L7.11758 16.2753C7.04119 15.9889 7.11531 15.6708 7.33995 15.4461L7.76974 15.0163C7.4679 14.2461 7.62817 13.3365 8.2505 12.7142L13.4108 7.55378L12.8036 6.94659C12.6359 6.77893 12.6359 6.50715 12.8036 6.3395C12.9712 6.17186 13.243 6.17186 13.4106 6.3395L14.6248 7.55367L16.1423 6.03617L15.8389 5.73282C15.6713 5.56518 15.6713 5.29337 15.8389 5.12573C16.0065 4.95809 16.2783 4.95809 16.446 5.12573L18.8743 7.55408ZM15.1494 8.07836L16.6669 6.56083L17.4388 7.33275L15.9213 8.85028L15.1494 8.07836ZM13.9354 8.07847L15.9215 10.0646L14.2869 11.6992L12.3008 9.71305L13.9354 8.07847ZM13.6799 12.3063L12.7692 13.2169L12.0797 12.5273C11.912 12.3597 11.6402 12.3597 11.4726 12.5273C11.3049 12.695 11.3049 12.9668 11.4726 13.1344L12.1621 13.824L11.5552 14.4309L10.8656 13.7413C10.698 13.5736 10.4262 13.5736 10.2585 13.7413C10.0909 13.9089 10.0909 14.1807 10.2585 14.3484L10.9481 15.038L10.7612 15.225C10.3538 15.6323 9.75842 15.7371 9.25432 15.5393L8.46085 14.7458C8.263 14.2416 8.36777 13.6462 8.77516 13.2389L11.6938 10.3201L13.6799 12.3063ZM7.85432 15.9826C7.85744 15.9784 7.86089 15.9745 7.8646 15.9708L8.17033 15.665C8.19615 15.6938 8.22286 15.722 8.2505 15.7496C8.27818 15.7773 8.30641 15.804 8.3352 15.8299L8.02947 16.1356C8.02568 16.1394 8.02171 16.1428 8.0176 16.146C7.99886 16.1127 7.9753 16.0813 7.94696 16.053C7.91869 16.0248 7.88749 16.0012 7.85432 15.9826Z" fill="#1A5961"/>
</svg>
