<svg width="24" height="24" viewBox="0 0 24 24" fill="none" xmlns="http://www.w3.org/2000/svg">
<path fill-rule="evenodd" clip-rule="evenodd" d="M18.0007 18.7078C16.4083 20.1332 14.3054 21 12 21C7.02945 21 3 16.9706 3 12C3 9.631 3.91531 7.47575 5.41155 5.86865L6.89645 7.35355C7.0917 7.5488 7.4083 7.5488 7.60355 7.35355C7.7988 7.1583 7.7988 6.8417 7.60355 6.64645L6.1325 5.1754C7.70805 3.81956 9.7583 3 12 3C16.9706 3 21 7.02945 21 12C21 14.3054 20.1332 16.4083 18.7078 18.0007L15.8111 15.1039C15.9343 14.7447 16 14.3622 16 13.9692V13C16 12.8296 15.9133 12.6711 15.7699 12.5791C15.7285 12.5525 15.684 12.5326 15.638 12.5194C15.8718 12.0463 16 11.5179 16 10.9692V10C16 9.82965 15.9133 9.67105 15.7699 9.5791C15.6265 9.48715 15.4462 9.47455 15.2914 9.5456L15.2618 9.5592C15.4164 9.16205 15.5 8.7329 15.5 8.2897V7.5C15.5 7.33555 15.4191 7.1816 15.2837 7.0883C15.1483 6.995 14.9757 6.9742 14.822 7.03275L13.754 7.4396C13.712 7.4556 13.6705 7.47235 13.6294 7.4898C13.611 6.6021 13.2882 5.7346 12.6952 5.04275L12.3797 4.6746C12.2846 4.56378 12.146 4.5 12 4.5C11.854 4.5 11.7154 4.56378 11.6203 4.6746L11.3048 5.04275C10.7118 5.7346 10.389 6.6021 10.3706 7.4898C10.3295 7.47235 10.288 7.4556 10.246 7.4396L9.178 7.03275C9.0243 6.9742 8.8517 6.995 8.71625 7.0883C8.58085 7.1816 8.5 7.33555 8.5 7.5V8.2897C8.5 8.7329 8.58355 9.16205 8.7382 9.5592L8.70865 9.5456C8.55385 9.47455 8.3735 9.48715 8.2301 9.5791C8.0867 9.67105 8 9.82965 8 10V10.9692C8 11.5179 8.1282 12.0463 8.362 12.5194C8.31595 12.5326 8.2715 12.5525 8.2301 12.5791C8.0867 12.6711 8 12.8296 8 13V13.9692C8 15.3369 8.7966 16.5793 10.0394 17.15L11.5 17.8206V19H12.5V17.8206L13.9606 17.15C14.515 16.8954 14.9807 16.507 15.3265 16.0336L18.0007 18.7078ZM22 12C22 17.5229 17.5229 22 12 22C6.47715 22 2 17.5229 2 12C2 6.47715 6.47715 2 12 2C17.5229 2 22 6.47715 22 12ZM12 5.771C12.546 6.4547 12.7513 7.34885 12.5605 8.20035C12.3436 8.4113 12.1553 8.64915 12 8.9075C11.8447 8.64915 11.6564 8.4113 11.4395 8.20035C11.2487 7.34885 11.454 6.4547 12 5.771ZM11.5 10.7745V10.7103C11.5 9.67295 10.8594 8.7434 9.89 8.3741L9.5 8.22555V8.2897C9.5 9.32705 10.1406 10.2566 11.11 10.6259L11.5 10.7745ZM12.5 10.7745L12.89 10.6259C13.8594 10.2566 14.5 9.32705 14.5 8.2897V8.22555L14.11 8.3741C13.1406 8.7434 12.5 9.67295 12.5 10.7103V10.7745ZM12.5 13.0535C12.5 12.3675 12.8996 11.7442 13.5231 11.4579L15 10.7798V10.9692C15 11.9461 14.431 12.8336 13.5433 13.2412L12.5 13.7202V13.0535ZM10.0433 11.2588C10.931 11.6664 11.5 12.5539 11.5 13.5308V13.7202L10.4567 13.2412C9.569 12.8336 9 11.9461 9 10.9692V10.7798L10.0433 11.2588ZM11.5 16.7202V16.5308C11.5 15.5539 10.931 14.6664 10.0433 14.2588L9 13.7798V13.9692C9 14.9461 9.569 15.8335 10.4567 16.2412L11.5 16.7202ZM12.5 16.7202L13.5433 16.2412C14.431 15.8335 15 14.9461 15 13.9692V13.7798L13.5231 14.4579C12.8996 14.7442 12.5 15.3675 12.5 16.0536V16.7202Z" fill="#1A5961"/>
</svg>
