<svg width="24" height="24" viewBox="0 0 24 24" fill="none" xmlns="http://www.w3.org/2000/svg">
<path fill-rule="evenodd" clip-rule="evenodd" d="M12 21.9C17.4676 21.9 21.9 17.4676 21.9 12C21.9 6.53238 17.4676 2.1 12 2.1C6.53238 2.1 2.1 6.53238 2.1 12C2.1 17.4676 6.53238 21.9 12 21.9ZM12 23C18.0751 23 23 18.0751 23 12C23 5.92487 18.0751 1 12 1C5.92487 1 1 5.92487 1 12C1 18.0751 5.92487 23 12 23Z" fill="#1A5961"/>
<path fill-rule="evenodd" clip-rule="evenodd" d="M15.4611 15.4611C15.6759 15.2463 16.0241 15.2463 16.2389 15.4611L19.8139 19.0361L19.0361 19.8139L15.4611 16.2389C15.2463 16.0241 15.2463 15.6759 15.4611 15.4611Z" fill="#1A5961"/>
<path fill-rule="evenodd" clip-rule="evenodd" d="M4.96391 3.91109L6.88891 5.83609C7.1037 6.05088 7.1037 6.39912 6.88891 6.61391C6.67412 6.8287 6.32588 6.8287 6.11109 6.61391L4.18609 4.68891L4.96391 3.91109Z" fill="#1A5961"/>
<path d="M16.4 16.8837V18.6393C16.4 18.7747 16.3485 18.9046 16.2568 19.0004C16.1651 19.0962 16.0407 19.15 15.9111 19.15C15.7814 19.15 15.6571 19.0962 15.5654 19.0004C15.4737 18.9046 15.4222 18.7747 15.4222 18.6393V16.8837C15.4246 16.1243 15.2233 15.3795 14.8412 14.7335C14.459 14.0875 13.9113 13.5663 13.2601 13.2289L10.3023 11.6846C9.48837 11.2629 8.80377 10.6114 8.32615 9.80395C7.84852 8.99651 7.59698 8.06545 7.60003 7.11629V5.36071C7.60003 5.22526 7.65154 5.09536 7.74322 4.99958C7.8349 4.90381 7.95925 4.85 8.08891 4.85C8.21857 4.85 8.34292 4.90381 8.43461 4.99958C8.52629 5.09536 8.5778 5.22526 8.5778 5.36071V7.11629C8.5754 7.87566 8.77668 8.62054 9.15882 9.2665C9.54096 9.91247 10.0887 10.4337 10.7399 10.7711L13.6977 12.3154C14.5116 12.7371 15.1962 13.3886 15.6739 14.1961C16.1515 15.0035 16.403 15.9346 16.4 16.8837ZM13.9555 16.5964H8.58819C8.61171 16.2485 8.67805 15.9052 8.78558 15.575H13.2289C13.3586 15.575 13.4829 15.5212 13.5746 15.4254C13.6663 15.3296 13.7178 15.1997 13.7178 15.0643C13.7178 14.9288 13.6663 14.7989 13.5746 14.7032C13.4829 14.6074 13.3586 14.5536 13.2289 14.5536H9.27813C9.52346 14.1831 9.826 13.8578 10.1734 13.5909C10.2252 13.5512 10.2691 13.5012 10.3024 13.4438C10.3358 13.3864 10.358 13.3227 10.3678 13.2563C10.3776 13.19 10.3748 13.1222 10.3595 13.057C10.3442 12.9918 10.3168 12.9304 10.2788 12.8762C10.2408 12.822 10.193 12.7762 10.138 12.7414C10.0831 12.7065 10.0221 12.6833 9.95858 12.6731C9.89505 12.6629 9.83022 12.6658 9.76778 12.6818C9.70534 12.6977 9.64652 12.7264 9.59468 12.7661C8.97712 13.2416 8.47495 13.8619 8.12853 14.577C7.78211 15.2922 7.60109 16.0822 7.60003 16.8837V18.6393C7.60003 18.7747 7.65154 18.9046 7.74322 19.0004C7.8349 19.0962 7.95925 19.15 8.08891 19.15C8.21857 19.15 8.34292 19.0962 8.43461 19.0004C8.52629 18.9046 8.5778 18.7747 8.5778 18.6393V17.6179H13.9555C14.0852 17.6179 14.2096 17.5641 14.3012 17.4683C14.3929 17.3725 14.4444 17.2426 14.4444 17.1071C14.4444 16.9717 14.3929 16.8418 14.3012 16.746C14.2096 16.6502 14.0852 16.5964 13.9555 16.5964ZM15.9111 4.85C15.7814 4.85 15.6571 4.90381 15.5654 4.99958C15.4737 5.09536 15.4222 5.22526 15.4222 5.36071V6.38214H10.0445C9.9148 6.38214 9.79045 6.43595 9.69876 6.53173C9.60708 6.62751 9.55557 6.75741 9.55557 6.89286C9.55557 7.02831 9.60708 7.15821 9.69876 7.25399C9.79045 7.34976 9.9148 7.40357 10.0445 7.40357H15.4118C15.3883 7.75149 15.322 8.0948 15.2144 8.425H10.7711C10.6414 8.425 10.5171 8.47881 10.4254 8.57458C10.3337 8.67036 10.2822 8.80026 10.2822 8.93571C10.2822 9.07116 10.3337 9.20107 10.4254 9.29684C10.5171 9.39262 10.6414 9.44643 10.7711 9.44643H14.7219C14.4765 9.81691 14.174 10.1422 13.8266 10.4091C13.7748 10.4488 13.7311 10.4988 13.6978 10.5561C13.6645 10.6135 13.6424 10.6772 13.6326 10.7435C13.6229 10.8098 13.6258 10.8774 13.6411 10.9426C13.6564 11.0077 13.6838 11.0691 13.7218 11.1232C13.7985 11.2324 13.9137 11.3053 14.0419 11.3258C14.1053 11.336 14.1701 11.333 14.2325 11.317C14.2948 11.301 14.3536 11.2723 14.4053 11.2327C15.0227 10.7572 15.5248 10.1371 15.8712 9.42224C16.2176 8.70735 16.3987 7.91756 16.4 7.11629V5.36071C16.4 5.22526 16.3485 5.09536 16.2568 4.99958C16.1651 4.90381 16.0407 4.85 15.9111 4.85Z" fill="#1A5961"/>
</svg>
