<svg width="24" height="24" viewBox="0 0 24 24" fill="none" xmlns="http://www.w3.org/2000/svg">
<path fill-rule="evenodd" clip-rule="evenodd" d="M12 2C17.5228 2 22 6.47715 22 12C22 17.5228 17.5228 22 12 22C6.47715 22 2 17.5228 2 12C2 6.47715 6.47715 2 12 2ZM12 3C9.75835 3 7.70934 3.82096 6.13379 5.17676L7.35352 6.39648C7.54878 6.59175 7.54878 6.90825 7.35352 7.10352C7.15825 7.29878 6.84175 7.29878 6.64648 7.10352L5.41211 5.86914C3.91584 7.47624 3 9.63098 3 12C3 16.9706 7.02944 21 12 21C14.2949 21 16.3878 20.1395 17.9775 18.7256L16.3086 17.2217C16.2008 17.3067 16.0898 17.3874 16.0059 17.4365C15.8541 17.5252 15.5665 17.6562 15.3643 17.7295C15.1618 17.8028 14.8343 17.8921 14.6436 17.9307C14.3946 17.9808 14.1261 18 13.71 18C13.2623 17.9961 13.036 17.9767 12.7363 17.9111C12.5223 17.8648 12.1877 17.7765 11.9971 17.7109C11.8065 17.6454 11.4719 17.5026 11.2578 17.3984C11.0437 17.2943 10.7005 17.097 10.498 16.9619C10.2957 16.8269 9.9886 16.5997 9.81738 16.457C9.64611 16.3104 9.36954 16.0516 9.20605 15.8818C9.04257 15.7121 8.80914 15.4532 8.68848 15.3027C8.5678 15.1522 8.37651 14.8943 8.26367 14.7246C8.15079 14.5548 7.96836 14.2495 7.85938 14.0488C7.7543 13.8482 7.58265 13.4823 7.48535 13.2393C7.38804 12.9962 7.25955 12.5867 7.19727 12.332C7.13112 12.0774 7.06143 11.6956 7.03418 11.4834C7.00304 11.2326 6.99127 10.8658 7.00684 10.4414C7.02241 9.92068 7.05008 9.70418 7.12402 9.39941C7.17854 9.18723 7.27568 8.88267 7.3418 8.72461C7.40798 8.56642 7.53253 8.32344 7.61426 8.18457C7.696 8.04567 7.85979 7.82151 7.97656 7.68262C8.09347 7.54369 8.33481 7.32045 8.51758 7.18555C8.69662 7.05052 8.94184 6.89185 9.05859 6.83398C9.17538 6.77613 9.35792 6.6987 9.4668 6.66016C9.57189 6.62543 9.76706 6.57188 9.89551 6.54102C10.0551 6.50635 10.2965 6.49424 10.6543 6.50195C11.0356 6.51353 11.2497 6.54072 11.4326 6.59473C11.5727 6.63717 11.7562 6.70258 11.8418 6.7373C11.9276 6.77599 12.1218 6.88408 12.2695 6.97656C12.4213 7.07302 12.6665 7.27824 12.8145 7.42871C12.9663 7.57923 13.188 7.84902 13.3086 8.03027C13.4293 8.21161 13.5891 8.48927 13.6631 8.64746C13.737 8.80565 13.8538 9.09513 13.9238 9.28418C13.99 9.47311 14.0792 9.77762 14.126 9.95898C14.1688 10.1403 14.259 10.3912 14.3252 10.5146C14.3952 10.6419 14.5267 10.8273 14.624 10.9238C14.7213 11.0203 14.9205 11.1709 15.0723 11.252C15.2241 11.333 15.4497 11.4717 15.5781 11.5527C15.7066 11.6376 15.9518 11.8231 16.123 11.9658C16.2943 12.1047 16.5552 12.3666 16.6992 12.5479C16.8432 12.7253 17.0374 13.0188 17.1309 13.2002C17.2242 13.3813 17.3409 13.6473 17.3877 13.7979C17.4539 14.0023 17.4815 14.1957 17.4932 14.6084C17.5087 15.0598 17.5007 15.2027 17.4346 15.4766C17.3918 15.6579 17.3103 15.9088 17.252 16.0361C17.2004 16.1566 17.0844 16.3553 16.9932 16.4941C16.9953 16.4962 16.9979 16.4979 17 16.5L18.6875 18.0215C20.1245 16.4266 21 14.3158 21 12C21 7.02944 16.9706 3 12 3ZM10.7129 7.32031C10.5222 7.30874 10.2963 7.32072 10.1289 7.35156C9.98106 7.37856 9.74367 7.45185 9.60352 7.50586C9.46339 7.56373 9.24466 7.68279 9.11621 7.77539C8.98774 7.86804 8.77387 8.06146 8.6377 8.20801C8.4782 8.38158 8.33451 8.59376 8.22168 8.82129C8.12447 9.01014 8.01167 9.30671 7.96875 9.47656C7.92595 9.64627 7.87104 9.97067 7.85156 10.2021C7.82433 10.4798 7.82435 10.7577 7.85156 11.0508C7.87491 11.2861 7.92594 11.6489 7.96875 11.8496C8.01157 12.0502 8.11653 12.425 8.20605 12.6797C8.29167 12.9342 8.46238 13.3311 8.5791 13.5664C8.69977 13.8018 8.89496 14.1379 9.01562 14.3154C9.13634 14.4968 9.39333 14.8251 9.58789 15.0488C9.78254 15.2726 10.0935 15.589 10.2803 15.7471C10.4671 15.9052 10.7555 16.1283 10.9189 16.2402C11.0823 16.352 11.3855 16.5296 11.5879 16.6338C11.7903 16.738 12.1257 16.8768 12.3281 16.9424C12.5305 17.008 12.865 17.0892 13.0674 17.1201C13.3321 17.1664 13.5735 17.1746 13.9043 17.1592C14.2313 17.1437 14.4843 17.1085 14.7412 17.0391C14.9436 16.9812 15.2437 16.8731 15.4033 16.7959C15.6171 16.6918 15.7726 16.5761 15.9863 16.3643C16.2043 16.1521 16.3178 15.9974 16.4229 15.7852C16.5006 15.6272 16.5859 15.4 16.6133 15.2842C16.6444 15.1684 16.6641 14.8978 16.6641 14.6855C16.6602 14.3578 16.6441 14.25 16.5391 13.9531C16.469 13.7641 16.3562 13.5133 16.29 13.3975C16.22 13.2817 16.0336 13.0536 15.8818 12.8877L15.5977 12.583C15.2357 12.7605 15.0289 12.8412 14.9082 12.8721C14.7836 12.9029 14.5501 12.9307 14.3906 12.9307C14.231 12.9306 13.9936 12.9029 13.8652 12.8721C13.7368 12.8373 13.519 12.7569 13.3789 12.6914C13.2116 12.6104 13.0325 12.4752 12.8496 12.2979C12.6706 12.1165 12.5339 11.9384 12.4521 11.7725C12.386 11.6336 12.3045 11.4173 12.2695 11.29C12.2384 11.1627 12.211 10.9355 12.2109 10.7891C12.2109 10.6424 12.2384 10.4144 12.2695 10.2871C12.3046 10.1598 12.3782 9.9515 12.4404 9.82422C12.5027 9.69695 12.6469 9.49262 12.7637 9.36914L12.9697 9.1416C12.7673 8.7442 12.6354 8.52381 12.542 8.39648C12.4486 8.26916 12.2808 8.0767 12.1641 7.96484C12.0512 7.85682 11.853 7.70216 11.7246 7.625C11.5963 7.54792 11.3863 7.45565 11.2578 7.41699C11.1295 7.37458 10.8841 7.33193 10.7129 7.32031ZM13.2227 9.89355C13.207 9.86324 13.1686 9.89013 13.1221 9.9707C13.0793 10.0402 13.0165 10.1641 12.9814 10.249C12.9465 10.3341 12.9081 10.5076 12.8926 10.6348C12.8731 10.8006 12.881 10.9359 12.9277 11.1172C12.9628 11.2558 13.0325 11.4366 13.083 11.5215C13.1336 11.6063 13.2504 11.7531 13.3438 11.8457C13.4372 11.9383 13.6284 12.0701 13.7686 12.1318C13.9396 12.2127 14.1033 12.255 14.2744 12.2666C14.4145 12.2781 14.6206 12.2662 14.7334 12.2393C14.8424 12.2161 14.9355 12.1813 14.9355 12.1582C14.9342 12.1345 14.7984 12.0464 14.6357 11.9619C14.4257 11.8501 14.2354 11.7032 14.0176 11.4873C13.7646 11.2365 13.6704 11.109 13.542 10.8467C13.4564 10.6654 13.3553 10.3876 13.3203 10.2295C13.2814 10.0713 13.2382 9.92056 13.2227 9.89355Z" fill="#1A5961"/>
</svg>
