<svg width="24" height="24" viewBox="0 0 24 24" fill="none" xmlns="http://www.w3.org/2000/svg">
<path d="M13.5 5.5C13.5 5.77615 13.2761 6 13 6C12.7239 6 12.5 5.77615 12.5 5.5C12.5 5.22385 12.7239 5 13 5C13.2761 5 13.5 5.22385 13.5 5.5Z" fill="#1A5961"/>
<path d="M14.5 5.5C14.7761 5.5 15 5.27615 15 5C15 4.72386 14.7761 4.5 14.5 4.5C14.2239 4.5 14 4.72386 14 5C14 5.27615 14.2239 5.5 14.5 5.5Z" fill="#1A5961"/>
<path d="M15.5 6.5C15.5 6.77615 15.2761 7 15 7C14.7239 7 14.5 6.77615 14.5 6.5C14.5 6.22385 14.7239 6 15 6C15.2761 6 15.5 6.22385 15.5 6.5Z" fill="#1A5961"/>
<path d="M11.5 12C11.5 11.7239 11.2761 11.5 11 11.5C10.7239 11.5 10.5 11.7239 10.5 12V16.5C10.5 16.7761 10.7239 17 11 17C11.2761 17 11.5 16.7761 11.5 16.5V12Z" fill="#1A5961"/>
<path d="M13 11.5C13.2761 11.5 13.5 11.7239 13.5 12V16.5C13.5 16.7761 13.2761 17 13 17C12.7239 17 12.5 16.7761 12.5 16.5V12C12.5 11.7239 12.7239 11.5 13 11.5Z" fill="#1A5961"/>
<path fill-rule="evenodd" clip-rule="evenodd" d="M22 12C22 17.5229 17.5229 22 12 22C6.47715 22 2 17.5229 2 12C2 6.47715 6.47715 2 12 2C17.5229 2 22 6.47715 22 12ZM18.0007 18.7078C16.4083 20.1332 14.3054 21 12 21C7.02945 21 3 16.9706 3 12C3 9.631 3.91531 7.47575 5.41155 5.86865L7.39645 7.85355C7.5917 8.0488 7.9083 8.0488 8.10355 7.85355C8.2988 7.6583 8.2988 7.3417 8.10355 7.14645L6.1325 5.1754C7.70805 3.81956 9.7583 3 12 3C16.9706 3 21 7.02945 21 12C21 14.3054 20.1332 16.4083 18.7078 18.0007L15.1653 14.4583L14.9024 10.8897C14.8713 10.4673 14.6672 10.0964 14.3626 9.84425C14.4478 9.7546 14.5 9.6334 14.5 9.5V9C14.5 7.6193 13.3807 6.5 12 6.5C10.6193 6.5 9.5 7.6193 9.5 9V9.5C9.5 9.6334 9.55225 9.7546 9.63735 9.84425C9.33275 10.0964 9.1287 10.4673 9.0976 10.8897L8.61865 17.3897C8.55455 18.2592 9.24275 19 10.1146 19H13.8854C14.7572 19 15.4454 18.2592 15.3813 17.3897L15.2779 15.985L18.0007 18.7078ZM13.4065 10.5H10.5935C10.3316 10.5 10.1142 10.7021 10.0949 10.9633L9.61595 17.4632C9.5946 17.7531 9.82395 18 10.1146 18H13.8854C14.176 18 14.4054 17.7531 14.3841 17.4632L13.9051 10.9633C13.8858 10.7021 13.6684 10.5 13.4065 10.5ZM13.5 9H10.5C10.5 8.17155 11.1715 7.5 12 7.5C12.8285 7.5 13.5 8.17155 13.5 9Z" fill="#1A5961"/>
</svg>
