<svg width="24" height="24" viewBox="0 0 24 24" fill="none" xmlns="http://www.w3.org/2000/svg">
<path fill-rule="evenodd" clip-rule="evenodd" d="M12 21C16.9706 21 21 16.9706 21 12C21 7.02944 16.9706 3 12 3C7.02944 3 3 7.02944 3 12C3 16.9706 7.02944 21 12 21ZM12 22C17.5228 22 22 17.5228 22 12C22 6.47715 17.5228 2 12 2C6.47715 2 2 6.47715 2 12C2 17.5228 6.47715 22 12 22Z" fill="#1A5961"/>
<path fill-rule="evenodd" clip-rule="evenodd" d="M14.8964 14.8964C15.0917 14.7012 15.4083 14.7012 15.6036 14.8964L19.1036 18.3964L18.3964 19.1036L14.8964 15.6036C14.7012 15.4083 14.7012 15.0917 14.8964 14.8964Z" fill="#1A5961"/>
<path fill-rule="evenodd" clip-rule="evenodd" d="M5.60355 4.64645L7.60355 6.64645C7.79882 6.84171 7.79882 7.15829 7.60355 7.35355C7.40829 7.54882 7.09171 7.54882 6.89645 7.35355L4.89645 5.35355L5.60355 4.64645Z" fill="#1A5961"/>
<path d="M17.5 10.7C17.4992 9.89577 17.1869 9.12473 16.6317 8.55606C16.0764 7.98739 15.3237 7.66753 14.5385 7.66667H12.4231C12.4231 7.32189 12.5568 6.99123 12.7948 6.74743C13.0329 6.50363 13.3557 6.36667 13.6923 6.36667C13.8045 6.36667 13.9121 6.32101 13.9915 6.23975C14.0708 6.15848 14.1154 6.04826 14.1154 5.93333C14.1154 5.81841 14.0708 5.70819 13.9915 5.62692C13.9121 5.54565 13.8045 5.5 13.6923 5.5C13.1313 5.5 12.5932 5.72827 12.1965 6.1346C11.7998 6.54093 11.5769 7.09203 11.5769 7.66667H9.46154C8.67635 7.66753 7.92356 7.98739 7.36834 8.55606C6.81313 9.12473 6.50084 9.89577 6.5 10.7C6.50025 10.8519 6.53946 11.001 6.61371 11.1325C6.68796 11.264 6.79465 11.3732 6.92308 11.4491V12C6.92308 13.9245 8.67461 15.3648 10.0824 16.5224C10.7128 17.0413 11.5769 17.7514 11.5769 18.0667C11.5769 18.1816 11.6215 18.2918 11.7008 18.3731C11.7802 18.4543 11.8878 18.5 12 18.5C12.1122 18.5 12.2198 18.4543 12.2992 18.3731C12.3785 18.2918 12.4231 18.1816 12.4231 18.0667C12.4231 17.7514 13.2872 17.0413 13.9176 16.5224C15.3254 15.3648 17.0769 13.9245 17.0769 12V11.4491C17.2053 11.3732 17.312 11.264 17.3863 11.1325C17.4605 11.001 17.4998 10.8519 17.5 10.7ZM9.46154 8.53333H14.5385C15.0992 8.53419 15.6368 8.76274 16.0333 9.16889C16.4299 9.57503 16.653 10.1256 16.6538 10.7H7.34615C7.34615 10.1254 7.56902 9.57426 7.96574 9.16794C8.36245 8.76161 8.9005 8.53333 9.46154 8.53333ZM13.3882 15.8458C12.8266 16.3073 12.3305 16.7125 12 17.1117C11.6695 16.7152 11.1734 16.3073 10.6118 15.8458C9.34519 14.8053 7.76923 13.5091 7.76923 12V11.5667H16.2308V12C16.2308 13.5091 14.6548 14.8053 13.3882 15.8458Z" fill="#1A5961"/>
</svg>
