<svg width="24" height="24" viewBox="0 0 24 24" fill="none" xmlns="http://www.w3.org/2000/svg">
<path d="M16.7895 12L18.9429 8.18298C18.9803 8.11722 19 8.04261 19 7.96668C19 7.89074 18.9802 7.81616 18.9426 7.75044C18.9051 7.68472 18.8511 7.63018 18.7862 7.59233C18.7212 7.55447 18.6475 7.53464 18.5726 7.53481H14.2722L12.1203 3.71779C12.083 3.65163 12.0291 3.59664 11.9641 3.55839C11.899 3.52015 11.8252 3.5 11.75 3.5C11.6748 3.5 11.601 3.52015 11.5359 3.55839C11.4709 3.59664 11.417 3.65163 11.3797 3.71779L9.22706 7.53481H4.9274C4.85246 7.53464 4.77881 7.55447 4.71385 7.59233C4.64889 7.63018 4.59492 7.68472 4.55737 7.75044C4.51983 7.81616 4.50004 7.89074 4.5 7.96668C4.49996 8.04261 4.51966 8.11722 4.55713 8.18298L6.70909 12L4.55713 15.817C4.51966 15.8828 4.49996 15.9574 4.5 16.0333C4.50004 16.1093 4.51983 16.1838 4.55737 16.2496C4.59492 16.3153 4.64889 16.3698 4.71385 16.4077C4.77881 16.4455 4.85246 16.4654 4.9274 16.4652H9.22706L11.3797 20.2822C11.417 20.3484 11.4709 20.4034 11.5359 20.4416C11.601 20.4799 11.6748 20.5 11.75 20.5C11.8252 20.5 11.899 20.4799 11.9641 20.4416C12.0291 20.4034 12.083 20.3484 12.1203 20.2822L14.2722 16.4652H18.5726C18.6475 16.4654 18.7212 16.4455 18.7862 16.4077C18.8511 16.3698 18.9051 16.3153 18.9426 16.2496C18.9802 16.1838 19 16.1093 19 16.0333C19 15.9574 18.9803 15.8828 18.9429 15.817L16.7895 12ZM17.8378 8.39904L16.2984 11.1293L14.7591 8.39904H17.8378ZM15.8073 12L13.7776 15.601H9.7217L7.69197 12L9.7217 8.39904H13.7776L15.8073 12ZM11.75 4.80456L13.2901 7.53481H10.2092L11.75 4.80456ZM5.66225 8.39904H8.73953L7.2016 11.1293L5.66225 8.39904ZM5.66225 15.5952L7.2016 12.8707L8.73953 15.601L5.66225 15.5952ZM11.75 19.1954L10.2092 16.4652H13.2901L11.75 19.1954ZM14.7591 15.601L16.2984 12.8707L17.8378 15.601H14.7591Z" fill="#1A5961"/>
</svg>
