<svg width="24" height="24" viewBox="0 0 24 24" fill="none" xmlns="http://www.w3.org/2000/svg">
<path fill-rule="evenodd" clip-rule="evenodd" d="M12 21C16.9706 21 21 16.9706 21 12C21 7.02944 16.9706 3 12 3C7.02944 3 3 7.02944 3 12C3 16.9706 7.02944 21 12 21ZM12 22C17.5228 22 22 17.5228 22 12C22 6.47715 17.5228 2 12 2C6.47715 2 2 6.47715 2 12C2 17.5228 6.47715 22 12 22Z" fill="#1A5961"/>
<path fill-rule="evenodd" clip-rule="evenodd" d="M5.60355 4.64645L7.85355 6.89645C8.04882 7.09171 8.04882 7.40829 7.85355 7.60355C7.65829 7.79882 7.34171 7.79882 7.14645 7.60355L4.89645 5.35355L5.60355 4.64645Z" fill="#1A5961"/>
<path d="M15.333 8.02804C14.2994 6.4454 13.0534 5.5 12 5.5C10.9466 5.5 9.70057 6.4454 8.66705 8.02804C7.60795 9.65188 7 11.6071 7 13.3929C7 14.7474 7.52678 16.0464 8.46447 17.0042C9.40215 17.9619 10.6739 18.5 12 18.5C13.3261 18.5 14.5979 17.9619 15.5355 17.0042C16.4732 16.0464 17 14.7474 17 13.3929C17 11.6071 16.392 9.65188 15.333 8.02804ZM12 17.5714C10.9154 17.5702 9.87555 17.1296 9.10862 16.3462C8.34169 15.5628 7.91029 14.5007 7.90909 13.3929C7.90909 11.7858 8.46136 10.0181 9.42386 8.54339C10.2494 7.27821 11.2847 6.42857 12 6.42857C12.7153 6.42857 13.7506 7.27821 14.5761 8.54339C15.5386 10.0181 16.0909 11.7858 16.0909 13.3929C16.0897 14.5007 15.6583 15.5628 14.8914 16.3462C14.1244 17.1296 13.0846 17.5702 12 17.5714Z" fill="#1A5961"/>
<path fill-rule="evenodd" clip-rule="evenodd" d="M15.6464 15.6464C15.8417 15.4512 16.1583 15.4512 16.3536 15.6464L19.1036 18.3964L18.3964 19.1036L15.6464 16.3536C15.4512 16.1583 15.4512 15.8417 15.6464 15.6464Z" fill="#1A5961"/>
<path fill-rule="evenodd" clip-rule="evenodd" d="M5.60355 4.64645L7.10355 6.14645C7.29882 6.34171 7.29882 6.65829 7.10355 6.85355C6.90829 7.04882 6.59171 7.04882 6.39645 6.85355L4.89645 5.35355L5.60355 4.64645Z" fill="#1A5961"/>
</svg>
