<svg width="24" height="24" viewBox="0 0 24 24" fill="none" xmlns="http://www.w3.org/2000/svg">
<path fill-rule="evenodd" clip-rule="evenodd" d="M5.32397 2.75355C6.05268 2.26779 7.00173 2 8 2C8.99827 2 9.94732 2.26779 10.676 2.75355C11.1328 3.05805 11.5417 3.48005 11.7804 4H20C20.5523 4 21 4.44772 21 5C21 5.55228 20.5523 6 20 6H11.7804C11.5417 6.51995 11.1328 6.94195 10.676 7.24645C9.94732 7.73221 8.99827 8 8 8C7.00173 8 6.05268 7.73221 5.32397 7.24645C4.60215 6.7653 4 5.99078 4 5C4 4.00922 4.60215 3.2347 5.32397 2.75355ZM6.43328 4.4177C6.06935 4.6603 6 4.88578 6 5C6 5.11422 6.06935 5.3397 6.43328 5.5823C6.79032 5.82029 7.34127 6 8 6C8.65873 6 9.20968 5.82029 9.56672 5.5823C9.93065 5.3397 10 5.11422 10 5C10 4.88578 9.93065 4.6603 9.56672 4.4177C9.20968 4.17971 8.65873 4 8 4C7.34127 4 6.79032 4.17971 6.43328 4.4177ZM2.58579 10.5858C2.96086 10.2107 3.46957 10 4 10H20C20.5304 10 21.0391 10.2107 21.4142 10.5858C21.7893 10.9609 22 11.4696 22 12V12.5C22 13.0894 21.7711 13.783 21.5033 14.4106C21.2204 15.0735 20.8344 15.7968 20.4074 16.4896C19.9799 17.1831 19.4995 17.8653 19.0202 18.4428C18.6984 18.8305 18.3516 19.2026 18 19.5003V20C18 20.5304 17.7893 21.0391 17.4142 21.4142C17.0391 21.7893 16.5304 22 16 22H8C7.46957 22 6.96086 21.7893 6.58579 21.4142C6.21071 21.0391 6 20.5304 6 20V19.508C5.09662 18.7697 4.19642 17.5678 3.51153 16.4345C3.09542 15.7459 2.72819 15.0321 2.46159 14.3773C2.20732 13.7528 2 13.0764 2 12.5V12C2 11.4696 2.21071 10.9609 2.58579 10.5858ZM4 12V12.5C4 12.6736 4.0818 13.053 4.31394 13.6231C4.53375 14.163 4.85021 14.7828 5.22322 15.4C5.99756 16.6813 6.89702 17.7565 7.52986 18.1519C7.82232 18.3346 8 18.6552 8 19V20H16V19C16 18.6552 16.1776 18.3348 16.4699 18.152C16.7032 18.0062 17.0568 17.6769 17.4811 17.1656C17.8908 16.6719 18.3177 16.0683 18.7048 15.4402C19.0924 14.8113 19.4284 14.1772 19.6638 13.6256C19.9143 13.0386 20 12.6606 20 12.5V12H4Z" fill="#2E3030"/>
</svg>
