<svg width="24" height="24" viewBox="0 0 24 24" fill="none" xmlns="http://www.w3.org/2000/svg">
<path fill-rule="evenodd" clip-rule="evenodd" d="M0.600098 2.59176C0.600098 2.3494 0.691972 2.11696 0.855511 1.94558C1.01905 1.7742 1.24085 1.67792 1.47213 1.67792H2.8453C3.47617 1.67789 4.33817 1.67789 4.77185 1.94557C4.94424 2.05197 5.17617 2.29131 5.25617 2.69493C5.37617 3.18296 5.39859 3.73709 5.44617 4.03808L5.50674 4.56811H20.744C21.1782 4.56812 22.1257 4.56811 22.5762 4.56811C23.0762 4.56811 23.8762 4.99973 23.8762 5.99973C23.8762 6.3958 23.6462 6.99973 23.6462 6.99973C23.5696 7.23131 23.316 7.98665 23.1427 8.40383L20.0406 15.8706C19.8373 16.3601 19.502 16.7767 19.0758 17.0694C18.6497 17.362 18.1514 17.5179 17.6419 17.5179H7.75776C7.127 17.5179 6.51748 17.279 6.04147 16.8453C5.56545 16.4117 5.25498 15.8123 5.16723 15.1578L3.70919 4.29274C3.68002 4.0744 3.70919 3.77391 3.47617 3.62C3.24315 3.46609 3.05567 3.50554 2.8453 3.50561H1.47329C1.24202 3.50561 1.02021 3.40933 0.856673 3.23795C0.693135 3.06657 0.60126 2.83413 0.60126 2.59176M5.75324 6.3958L6.89502 14.9031C6.9242 15.1214 7.02771 15.3214 7.18647 15.466C7.34523 15.6107 7.54854 15.6903 7.75892 15.6902H17.6431C17.8129 15.6904 17.979 15.6386 18.1211 15.5412C18.2632 15.4438 18.3751 15.305 18.443 15.1419L21.544 7.67275C21.6014 7.53383 21.704 7.29639 21.7362 7.23131C21.7869 7.1289 21.8762 6.918 21.8762 6.79951C21.8762 6.5542 21.6777 6.3958 21.2949 6.3958C21.041 6.3958 20.8896 6.39605 20.7452 6.3958H5.75324Z" fill="#2E3030"/>
<path d="M5.87998 20.9505C5.87998 20.3904 6.10241 19.8532 6.49833 19.4571C6.89425 19.061 7.43123 18.8385 7.99115 18.8385C8.55106 18.8385 9.08805 19.061 9.48397 19.4571C9.87989 19.8532 10.1023 20.3904 10.1023 20.9505C10.1023 21.5106 9.87989 22.0478 9.48397 22.4439C9.08805 22.84 8.55106 23.0625 7.99115 23.0625C7.43123 23.0625 6.89425 22.84 6.49833 22.4439C6.10241 22.0478 5.87998 21.5106 5.87998 20.9505ZM17.2888 18.8385C16.7289 18.8385 16.1919 19.061 15.796 19.4571C15.4001 19.8532 15.1776 20.3904 15.1776 20.9505C15.1776 21.5106 15.4001 22.0478 15.796 22.4439C16.1919 22.84 16.7289 23.0625 17.2888 23.0625C17.8487 23.0625 18.3857 22.84 18.7816 22.4439C19.1776 22.0478 19.4 21.5106 19.4 20.9505C19.4 20.3904 19.1776 19.8532 18.7816 19.4571C18.3857 19.061 17.8487 18.8385 17.2888 18.8385Z" fill="#2E3030"/>
</svg>
