<svg width="24" height="24" viewBox="0 0 24 24" fill="none" xmlns="http://www.w3.org/2000/svg">
<path fill-rule="evenodd" clip-rule="evenodd" d="M10.8501 3.07899C9.97085 4.16581 8.70804 4.88505 7.31433 5.0928C6.38069 5.23196 5.81976 6.1904 6.16441 7.05762C6.6789 8.35219 6.67889 9.79067 6.16441 11.0852C5.81976 11.9525 6.38069 12.9109 7.31433 13.0501C8.70804 13.2578 9.97085 13.977 10.8501 15.0639C11.4391 15.7919 12.5609 15.7919 13.1499 15.0639C14.0292 13.977 15.292 13.2578 16.6857 13.0501C17.6193 12.9109 18.1802 11.9525 17.8356 11.0852C17.3211 9.79067 17.3211 8.35219 17.8356 7.05762C18.1802 6.1904 17.6193 5.23196 16.6857 5.0928C15.292 4.88505 14.0291 4.16581 13.1499 3.07899C12.5609 2.35093 11.4391 2.35093 10.8501 3.07899ZM14.7606 1.81089C13.3466 0.063038 10.6534 0.0630382 9.23938 1.81089C8.68412 2.49725 7.88662 2.95147 7.00644 3.08267C4.76505 3.41676 3.41842 5.7177 4.24582 7.79965C4.57073 8.61721 4.57073 9.52565 4.24582 10.3432C3.41842 12.4252 4.76505 14.7261 7.00644 15.0602C7.88662 15.1914 8.68412 15.6456 9.23938 16.332C10.6534 18.0798 13.3466 18.0798 14.7606 16.332C15.3159 15.6456 16.1134 15.1914 16.9936 15.0602C19.235 14.7261 20.5816 12.4252 19.7542 10.3432C19.4293 9.52565 19.4293 8.61721 19.7542 7.79965C20.5816 5.7177 19.2349 3.41676 16.9936 3.08267C16.1134 2.95147 15.3159 2.49725 14.7606 1.81089Z" fill="#2E3030"/>
<path fill-rule="evenodd" clip-rule="evenodd" d="M15.2257 6.88198C15.518 7.19475 15.4917 7.6765 15.1669 7.95799L11.6504 11.0056C11.3495 11.2664 10.8928 11.2664 10.5919 11.0056L8.83362 9.4818C8.50882 9.2003 8.48249 8.71856 8.77481 8.40579C9.06713 8.09302 9.5674 8.06767 9.8922 8.34916L11.1211 9.41425L14.1083 6.82535C14.4331 6.54386 14.9334 6.56922 15.2257 6.88198Z" fill="#2E3030"/>
<path fill-rule="evenodd" clip-rule="evenodd" d="M15.1298 13.6512C15.6512 13.582 16.13 13.9487 16.1991 14.4701L17.2555 22.2034C17.3036 22.5659 17.1399 22.924 16.8342 23.1247C16.5286 23.3255 16.135 23.3335 15.8214 23.1453L11.9463 20.8203L8.07121 23.1453C7.75762 23.3335 7.36398 23.3255 7.05833 23.1247C6.75267 22.9239 6.58898 22.5658 6.63713 22.2033L7.69348 14.4787C7.76273 13.9573 8.24156 13.5907 8.76296 13.66C9.28437 13.7292 9.65091 14.0938 9.58166 14.6152L8.78545 20.4955L11.4563 18.893C11.7579 18.712 12.1347 18.712 12.4363 18.893L15.1075 20.4957L14.3109 14.7206C14.2417 14.1992 14.6084 13.7204 15.1298 13.6512Z" fill="#2E3030"/>
</svg>
