<svg width="24" height="24" viewBox="0 0 24 24" fill="none" xmlns="http://www.w3.org/2000/svg">
<path d="M5.80381 7.37919C8.58281 4.30047 13.542 2.35025 19.5401 2.94267L20.1241 3.0081L20.2931 3.04325C20.673 3.15939 20.9546 3.49446 20.9952 3.90067C21.7711 11.6602 19.2419 16.5651 15.7628 18.9495C12.6092 21.1105 8.63187 21.1496 6.26182 19.1517L4.20713 21.2073C3.81664 21.5976 3.18355 21.5976 2.79307 21.2073C2.40259 20.8168 2.40268 20.1838 2.79307 19.7933L4.93369 17.6517C3.87934 16.1515 3.39288 14.5188 3.44248 12.885C3.50342 10.8821 4.36739 8.97065 5.80381 7.37919ZM19.0724 4.90946C13.7167 4.45178 9.52834 6.23728 7.28818 8.71903C6.11481 10.0191 5.48572 11.4921 5.4415 12.9456C5.40898 14.0158 5.6922 15.1269 6.37607 16.2093L14.2931 8.29325C14.6836 7.90273 15.3166 7.90273 15.7071 8.29325C16.0975 8.68379 16.0976 9.31684 15.7071 9.70731L7.68564 17.7278C9.25082 18.906 12.084 19.0461 14.6319 17.3001C17.2513 15.5051 19.5467 11.6468 19.0724 4.90946Z" fill="#2E3030"/>
</svg>
