<svg width="24" height="24" viewBox="0 0 24 24" fill="none" xmlns="http://www.w3.org/2000/svg">
<path d="M16.8749 21.75C16.8749 22.0484 16.7564 22.3345 16.5454 22.5455C16.3344 22.7565 16.0483 22.875 15.7499 22.875H8.24988C7.95151 22.875 7.66537 22.7565 7.45439 22.5455C7.24341 22.3345 7.12488 22.0484 7.12488 21.75C7.12488 21.4516 7.24341 21.1655 7.45439 20.9545C7.66537 20.7435 7.95151 20.625 8.24988 20.625H15.7499C16.0483 20.625 16.3344 20.7435 16.5454 20.9545C16.7564 21.1655 16.8749 21.4516 16.8749 21.75ZM20.6249 9.74999C20.6283 11.057 20.333 12.3476 19.7616 13.5231C19.1902 14.6987 18.3577 15.7281 17.3277 16.5328C17.1882 16.6391 17.0749 16.7758 16.9964 16.9326C16.9179 17.0895 16.8763 17.2621 16.8749 17.4375V17.625C16.8749 18.1223 16.6773 18.5992 16.3257 18.9508C15.9741 19.3024 15.4972 19.5 14.9999 19.5H8.99988C8.5026 19.5 8.02569 19.3024 7.67406 18.9508C7.32243 18.5992 7.12488 18.1223 7.12488 17.625V17.4375C7.12468 17.265 7.08484 17.095 7.00844 16.9404C6.93204 16.7858 6.82112 16.6508 6.68426 16.5459C5.6571 15.7459 4.82538 14.7226 4.25204 13.5537C3.67869 12.3848 3.37874 11.1007 3.37488 9.79874C3.34957 5.12717 7.12488 1.23749 11.7927 1.12499C12.9427 1.09735 14.0865 1.30003 15.157 1.72109C16.2275 2.14215 17.2029 2.77308 18.0259 3.57675C18.8489 4.38043 19.5028 5.3406 19.9491 6.40077C20.3954 7.46095 20.6252 8.59969 20.6249 9.74999ZM18.3749 9.74999C18.3751 8.89963 18.2053 8.05782 17.8753 7.27411C17.5452 6.4904 17.0618 5.78064 16.4533 5.1866C15.8449 4.59256 15.1237 4.12625 14.3323 3.81513C13.5409 3.504 12.6953 3.35435 11.8452 3.37499C8.39613 3.45749 5.60613 6.3328 5.62488 9.78561C5.6281 10.7479 5.85005 11.6968 6.27395 12.5607C6.69785 13.4246 7.31261 14.1808 8.07176 14.7722C8.4542 15.0673 8.76856 15.4414 8.99343 15.869C9.2183 16.2966 9.3484 16.7676 9.37488 17.25H14.6343C14.6613 16.7667 14.7915 16.2947 15.0163 15.866C15.2411 15.4373 15.5552 15.0618 15.9374 14.7647C16.6987 14.1696 17.314 13.4085 17.7365 12.5394C18.1589 11.6704 18.3773 10.7163 18.3749 9.74999ZM16.4933 9.25124C16.3938 8.40945 16.0609 7.61225 15.5323 6.94962C15.0037 6.28699 14.3004 5.78532 13.5018 5.50124C13.2226 5.41003 12.9189 5.43159 12.6554 5.56131C12.3919 5.69103 12.1897 5.91863 12.0917 6.19549C11.9938 6.47235 12.008 6.77653 12.1314 7.04305C12.2547 7.30956 12.4773 7.51729 12.7518 7.62186C13.1531 7.76253 13.5071 8.01269 13.7736 8.34404C14.0402 8.67539 14.2087 9.07472 14.2602 9.49686C14.293 9.79349 14.4423 10.0649 14.6753 10.2515C14.7906 10.3438 14.923 10.4126 15.065 10.4538C15.2069 10.495 15.3555 10.5078 15.5024 10.4915C15.6493 10.4753 15.7915 10.4303 15.921 10.3591C16.0504 10.2878 16.1646 10.1918 16.257 10.0765C16.3494 9.96111 16.4181 9.8287 16.4593 9.68679C16.5005 9.54488 16.5133 9.39624 16.4971 9.24936L16.4933 9.25124Z" fill="#2E3030"/>
</svg>
