<svg width="24" height="24" viewBox="0 0 24 24" fill="none" xmlns="http://www.w3.org/2000/svg">
<path fill-rule="evenodd" clip-rule="evenodd" d="M19.7821 1.05702C21.667 0.665076 23.335 2.33307 22.9431 4.21795L22.042 8.55359C21.737 10.0209 21.0103 11.367 19.9501 12.4261C19.95 12.4263 19.9503 12.426 19.9501 12.4261L17.4348 14.9415L17.4082 17.9938C17.4082 17.9942 17.4082 17.9945 17.4082 17.9949C17.4037 18.552 17.1792 19.0822 16.7886 19.4728L13.7175 22.544L13.7162 22.5452C12.8547 23.4036 11.3812 22.9887 11.1004 21.8002L10.3996 18.8334C9.32249 18.9157 8.25458 18.6376 7.36068 18.0536L6.14777 19.2665C5.75725 19.657 5.12408 19.657 4.73356 19.2665C4.34303 18.876 4.34303 18.2428 4.73356 17.8523L5.94664 16.6392C5.36233 15.7448 5.08388 14.6769 5.16592 13.5992L2.19985 12.8985C1.01141 12.6178 0.596467 11.1442 1.45482 10.2828L4.52725 7.21033C4.91783 6.81975 5.44809 6.59525 6.00518 6.59073C6.00554 6.59072 6.00589 6.59072 6.00625 6.59072L9.05895 6.56417L11.5735 4.05039C11.5735 4.05043 11.5736 4.05035 11.5735 4.05039C12.6327 2.98999 13.979 2.26309 15.4464 1.95805L19.7821 1.05702ZM7.16189 8.58074L6.02146 8.59066C5.99237 8.59088 5.96325 8.60276 5.94147 8.62454L3.43156 11.1344L5.56964 11.6395C5.9177 10.5357 6.45636 9.5001 7.16189 8.58074ZM7.26373 13.0717C7.26407 13.0703 7.26441 13.0688 7.26475 13.0674C7.26984 13.0459 7.27419 13.0243 7.27782 13.0028C7.59258 11.4976 8.33904 10.1122 9.43069 9.02053C9.43066 9.02057 9.43073 9.0205 9.43069 9.02053L12.9881 5.46428C13.2375 5.21458 13.509 4.98931 13.7976 4.79169C15.878 6.2934 17.7067 8.12206 19.2084 10.2025C19.0108 10.4911 18.786 10.7621 18.5363 11.0115L15.7317 13.8161C15.7314 13.8164 15.7311 13.8167 15.7307 13.8171L14.9797 14.5682C13.8814 15.6664 12.4864 16.4158 10.9718 16.7267C10.9654 16.7279 10.959 16.7292 10.9525 16.7306C10.8114 16.7592 10.6692 16.784 10.5261 16.8049L10.5218 16.8056L10.4446 16.8172C10.444 16.8173 10.4433 16.8174 10.4427 16.8175C9.88625 16.8985 9.3265 16.8139 8.82863 16.5857L14.032 11.3823C14.4225 10.9918 14.4225 10.3586 14.032 9.96812C13.6414 9.57759 13.0083 9.57759 12.6177 9.96812L7.41452 15.1713C7.18593 14.6732 7.10111 14.1136 7.18153 13.557C7.18165 13.5562 7.18177 13.5554 7.18188 13.5546L7.19339 13.4783L7.19395 13.4745C7.21378 13.3394 7.23706 13.2051 7.26373 13.0717ZM12.3594 18.4302C13.4634 18.0823 14.4989 17.5435 15.4182 16.838L15.4083 17.9786C15.4081 18.0077 15.3962 18.0368 15.3744 18.0586L12.8645 20.5685L12.3594 18.4302ZM20.1001 8.06872C18.8733 6.52597 17.4741 5.12674 15.9314 3.90001L20.1892 3.01516C20.664 2.91643 21.0837 3.33599 20.9849 3.81079L20.1001 8.06872Z" fill="#2E3030"/>
</svg>
