<svg width="24" height="24" viewBox="0 0 24 24" fill="none" xmlns="http://www.w3.org/2000/svg">
<path d="M14.435 8.55548L12.4385 4.61225H12.4375C12.347 4.45859 12.181 4.36365 12 4.36365C11.82 4.36365 11.653 4.45859 11.5635 4.61225L9.56598 8.55548C9.50334 8.6788 9.38403 8.76297 9.24682 8.78255L4.78148 9.41577C4.59754 9.43828 4.44343 9.56454 4.38774 9.73876C4.33007 9.90808 4.37779 10.095 4.51103 10.2174L7.74135 13.2867C7.84277 13.3836 7.88851 13.5225 7.86465 13.6586L7.10104 17.9934C7.06822 18.1686 7.1428 18.3468 7.28995 18.4505C7.44108 18.5611 7.64391 18.5758 7.80997 18.4887L11.8031 16.4421V16.4431C11.9264 16.3795 12.0726 16.3795 12.1949 16.4431L16.1881 18.4897V18.4887C16.3551 18.5768 16.5569 18.5611 16.7081 18.4505C16.8562 18.3468 16.9298 18.1686 16.897 17.9934L16.1354 13.6596C16.1115 13.5236 16.1573 13.3836 16.2587 13.2877L19.489 10.2184C19.6222 10.096 19.67 9.90909 19.6123 9.73977C19.5566 9.56555 19.4025 9.4393 19.2185 9.41678L14.7532 8.78257C14.616 8.763 14.4967 8.6788 14.435 8.55548Z" fill="white"/>
</svg>
