<svg width="24" height="24" viewBox="0 0 24 24" fill="none" xmlns="http://www.w3.org/2000/svg">
<path d="M15.5076 8.03823L12.6316 2.3581H12.6302C12.4998 2.13676 12.2607 2 12 2C11.7407 2 11.5001 2.13676 11.3712 2.3581L8.49383 8.03823C8.4036 8.21588 8.23174 8.33712 8.03409 8.36532L1.60188 9.27747C1.33691 9.30989 1.11492 9.49176 1.0347 9.74273C0.951631 9.98663 1.02038 10.2559 1.2123 10.4322L5.86551 14.8534C6.0116 14.993 6.07748 15.1932 6.0431 15.3892L4.94314 21.6334C4.89588 21.8858 5.0033 22.1424 5.21527 22.2918C5.43297 22.4511 5.72514 22.4722 5.96434 22.3468L11.7164 19.3988V19.4002C11.894 19.3086 12.1046 19.3086 12.2807 19.4002L18.0328 22.3482V22.3468C18.2734 22.4737 18.5642 22.4511 18.7819 22.2918C18.9953 22.1424 19.1013 21.8858 19.054 21.6334L17.9569 15.3906C17.9225 15.1946 17.9884 14.993 18.1345 14.8549L22.7877 10.4336C22.9796 10.2574 23.0484 9.98808 22.9653 9.74417C22.8851 9.49322 22.6631 9.31136 22.3981 9.27891L15.9659 8.36535C15.7683 8.33716 15.5964 8.21588 15.5076 8.03823Z" fill="#0AB38A"/>
</svg>
