<svg width="24" height="24" viewBox="0 0 24 24" fill="none" xmlns="http://www.w3.org/2000/svg">
<path d="M2.60974 2C1.71789 2 1 2.70859 1 3.58889V14.1815C1 15.0618 1.71789 15.7704 2.60974 15.7704H5.02435L4.4794 21.0667L9.85351 15.7704H18.1705C19.0623 15.7704 19.7802 15.0618 19.7802 14.1815V3.58889C19.7802 2.70859 19.0623 2 18.1705 2H2.60974ZM5.02435 7.56111C5.76528 7.56111 6.3658 8.15385 6.3658 8.88519C6.3658 9.61652 5.76528 10.2093 5.02435 10.2093C4.28341 10.2093 3.6829 9.61652 3.6829 8.88519C3.6829 8.15385 4.28341 7.56111 5.02435 7.56111ZM10.3985 7.56111C11.1394 7.56111 11.7399 8.15385 11.7399 8.88519C11.7399 9.61652 11.1394 10.2093 10.3985 10.2093C9.65752 10.2093 9.05701 9.61652 9.05701 8.88519C9.05701 8.15385 9.65752 7.56111 10.3985 7.56111ZM15.7559 7.56111C16.4969 7.56111 17.0974 8.15385 17.0974 8.88519C17.0974 9.61652 16.4969 10.2093 15.7559 10.2093C15.015 10.2093 14.4145 9.61652 14.4145 8.88519C14.4145 8.15385 15.015 7.56111 15.7559 7.56111ZM20.3169 11.0037V14.1815C20.3169 15.3462 19.3506 16.3 18.1705 16.3H13.073V17.111C13.073 17.6882 13.5488 18.1537 14.1378 18.1537H18.3886L21.3902 21.0667L20.8704 18.1537H21.9352C22.5242 18.1537 23 17.6882 23 17.111V12.0464C23 11.4692 22.5242 11.0037 21.9352 11.0037H20.3169Z" fill="#00A8CF"/>
</svg>
