<svg width="24" height="24" viewBox="0 0 24 24" fill="none" xmlns="http://www.w3.org/2000/svg">
<path d="M4.47003 5.45453C3.80667 5.45453 3.27271 5.98158 3.27271 6.63635V14.5151C3.27271 15.1699 3.80667 15.697 4.47003 15.697H6.26602L5.86069 19.6363L9.85796 15.697H16.0441C16.7075 15.697 17.2415 15.1699 17.2415 14.5151V6.63635C17.2415 5.98158 16.7075 5.45453 16.0441 5.45453H4.47003ZM6.26602 9.59089C6.81713 9.59089 7.26379 10.0318 7.26379 10.5757C7.26379 11.1197 6.81713 11.5606 6.26602 11.5606C5.71491 11.5606 5.26825 11.1197 5.26825 10.5757C5.26825 10.0318 5.71491 9.59089 6.26602 9.59089ZM10.2633 9.59089C10.8144 9.59089 11.2611 10.0318 11.2611 10.5757C11.2611 11.1197 10.8144 11.5606 10.2633 11.5606C9.71218 11.5606 9.26552 11.1197 9.26552 10.5757C9.26552 10.0318 9.71218 9.59089 10.2633 9.59089ZM14.2482 9.59089C14.7993 9.59089 15.246 10.0318 15.246 10.5757C15.246 11.1197 14.7993 11.5606 14.2482 11.5606C13.6971 11.5606 13.2504 11.1197 13.2504 10.5757C13.2504 10.0318 13.6971 9.59089 14.2482 9.59089ZM17.6406 12.1515V14.5151C17.6406 15.3815 16.9219 16.0909 16.0442 16.0909H12.2527V16.6941C12.2527 17.1234 12.6065 17.4697 13.0446 17.4697H16.2064L18.439 19.6363L18.0524 17.4697H18.8443C19.2824 17.4697 19.6363 17.1234 19.6363 16.6941V12.9271C19.6363 12.4977 19.2824 12.1515 18.8443 12.1515H17.6406Z" fill="#00A8CF"/>
</svg>
