<svg width="24" height="24" viewBox="0 0 24 24" fill="none" xmlns="http://www.w3.org/2000/svg">
<path fill-rule="evenodd" clip-rule="evenodd" d="M5.19658 1.02566C4.87514 1.0918 4.66337 1.2023 4.42326 1.42916C4.16733 1.67089 4.07125 1.84861 3.74151 2.69056C3.52901 3.23315 3.50795 3.3234 3.5095 3.68512C3.51237 4.33587 3.79867 4.81619 4.35537 5.10416C4.76702 5.31715 5.7178 5.6293 6.42217 5.78281C7.00356 5.90952 7.126 5.91872 8.25827 5.92071C9.42218 5.9228 9.48124 5.91826 9.71227 5.80911C10.0113 5.66788 10.1031 5.58375 10.2624 5.30522C10.362 5.13098 10.3887 5.01729 10.3908 4.75815C10.3943 4.32626 10.2758 4.12204 9.64424 3.47169C8.83647 2.63984 7.99748 2.02267 7.00356 1.52902C6.10786 1.0842 5.59979 0.942667 5.19658 1.02566ZM18.2483 1.02656C17.797 1.11806 16.5225 1.73856 15.8865 2.17642C15.0956 2.72084 13.9498 3.80506 13.7362 4.21109C13.6176 4.43641 13.6118 5.06125 13.7261 5.27747C13.8455 5.50314 14.0569 5.7025 14.2904 5.80941C14.6712 5.98381 16.2796 6.00599 17.2157 5.8497C17.9736 5.72314 19.2556 5.33142 19.7237 5.08343C19.9508 4.96308 20.2016 4.6876 20.3531 4.39211C20.4699 4.16426 20.4859 4.07823 20.4848 3.68512C20.4835 3.26089 20.4701 3.20386 20.2269 2.5911C19.9209 1.82017 19.7897 1.57834 19.5781 1.39495C19.2297 1.093 18.6764 0.939736 18.2483 1.02656ZM10.8787 3.60213L10.8633 4.39793C10.8397 5.61309 10.8736 5.64939 12.0301 5.64939C12.6516 5.64939 12.7937 5.63546 12.8939 5.56465C13.1254 5.40109 13.132 5.37091 13.1336 4.46452L13.1352 3.60287L12.8515 3.31216H11.1957L10.8787 3.60213ZM10.8925 6.39108C9.72853 6.65131 8.86301 7.1294 8.06009 7.95563C7.38202 8.65341 6.91107 9.45473 6.66257 10.3334C6.47676 10.9906 6.43852 11.4195 6.43837 12.8511C6.43808 14.8601 6.34142 15.6605 5.95655 16.8402C5.59178 17.9581 4.98155 19.0793 4.25953 19.9583L3.96366 20.3184V22.0114L4.12137 22.1109C4.89431 22.5986 7.55192 22.9316 11.1213 22.9881C15.0717 23.0506 18.7038 22.7024 19.662 22.1695L19.9047 22.0345L19.9312 20.3246L19.6058 19.9117C18.6429 18.6896 17.9272 17.1709 17.6537 15.7691C17.5069 15.0168 17.4544 14.256 17.4542 12.876C17.4541 11.5163 17.4143 11.0846 17.2289 10.4291C16.68 8.48792 15.1687 6.96425 13.2942 6.4621C12.6344 6.28531 11.5138 6.25219 10.8925 6.39108ZM5.8562 6.56597C4.23633 6.86295 2.68586 7.74339 1.40388 9.0942C1.08487 9.43032 1.00354 9.54598 1.00354 9.66359C1.00354 9.92123 1.09996 9.95873 2.3108 10.172C2.93412 10.2818 3.45734 10.3848 3.4734 10.4009C3.48951 10.417 3.63543 10.837 3.7977 11.3343C4.11827 12.3165 4.1848 12.4164 4.46941 12.3432C4.57995 12.3148 4.63188 12.2435 4.75572 11.9502C5.11413 11.1011 5.8364 9.69846 6.23417 9.07899C6.76486 8.25266 7.14919 7.75513 7.73714 7.13347L8.1913 6.6533L7.95789 6.59496C7.59952 6.50545 6.28518 6.48735 5.8562 6.56597ZM16.4593 6.52589C16.4059 6.53664 16.2468 6.56941 16.1058 6.59865L15.8494 6.65185L16.2358 7.07008C17.3991 8.32954 18.4201 9.96365 19.2007 11.8157C19.2872 12.0208 19.3915 12.2278 19.4325 12.2757C19.5261 12.3846 19.7242 12.388 19.838 12.2824C19.8856 12.2383 20.0584 11.7907 20.2219 11.2879C20.3855 10.785 20.5339 10.3735 20.5517 10.3734C20.6383 10.373 22.7784 9.97937 22.8493 9.95087C22.9614 9.90572 23.0313 9.67966 22.9784 9.53326C22.9144 9.35603 22.0903 8.54805 21.5406 8.12376C20.4762 7.30201 19.338 6.77871 18.1635 6.571C17.7752 6.50232 16.7151 6.47428 16.4593 6.52589Z" fill="#C7404F"/>
<path fill-rule="evenodd" clip-rule="evenodd" d="M10.8857 6.39823C9.72174 6.65846 8.85622 7.13654 8.0533 7.96277C7.37523 8.66056 6.90428 9.46188 6.65578 10.3405C6.46997 10.9977 6.43173 11.4267 6.43158 12.8583C6.43129 14.8672 6.33463 15.6677 5.94976 16.8474C5.58499 17.9653 4.97476 19.0865 4.25274 19.9654L3.95687 20.3255V22.0185L4.11458 22.1181C4.88752 22.6057 7.54513 22.9388 11.1145 22.9952C15.0649 23.0577 18.697 22.7096 19.6552 22.1766L19.8979 22.0417L19.9244 20.3318L19.599 19.9188C18.6361 18.6967 17.9205 17.1781 17.6469 15.7762C17.5001 15.0239 17.4476 14.2632 17.4474 12.8831C17.4473 11.5234 17.4075 11.0917 17.2222 10.4363C16.6732 8.49506 15.162 6.9714 13.2874 6.46924C12.6277 6.29246 11.507 6.25934 10.8857 6.39823Z" fill="white"/>
</svg>
