<svg width="24" height="24" viewBox="0 0 24 24" fill="none" xmlns="http://www.w3.org/2000/svg">
<path d="M18.6602 18.4215H16.7394C16.3682 18.4215 16.0671 18.1204 16.0671 17.7492V12.4589C16.0671 12.0875 16.3682 11.7866 16.7394 11.7866H20.2449C21.2248 11.7866 22.0218 12.5837 22.0218 13.5635V15.0601C22.0218 16.9134 20.5137 18.4215 18.6602 18.4215ZM17.4118 17.0768H18.6604C19.7726 17.0768 20.6773 16.1719 20.6773 15.0599V13.5633C20.6773 13.325 20.4834 13.1311 20.2451 13.1311H17.412L17.4118 17.0768Z" fill="white"/>
<path d="M12.202 21.3666H10.9042C6.91301 21.3666 3.67762 18.1313 3.67762 14.1401V9.53995C3.67762 9.26005 3.90447 9.03321 4.18436 9.03321H18.9218C19.2017 9.03321 19.4285 9.26005 19.4285 9.53995V14.1401C19.4285 18.1311 16.1931 21.3666 12.202 21.3666Z" fill="white"/>
<path d="M6.59521 14.1401V9.53995C6.59521 9.26005 6.82206 9.03321 7.10195 9.03321H4.18436C3.90447 9.03321 3.67762 9.26005 3.67762 9.53995V14.1401C3.67762 18.1313 6.91301 21.3666 10.9042 21.3666H12.202C12.4759 21.3666 12.7459 21.3499 13.0119 21.3203C9.40229 20.9174 6.59521 17.8572 6.59521 14.1401Z" fill="white"/>
<path d="M18.6609 22.5046H4.44523C3.68574 22.5046 3.07007 21.889 3.07007 21.1295V20.9872C3.07007 20.8716 3.16383 20.7778 3.27928 20.7778H19.8267C19.9423 20.7778 20.0361 20.8716 20.0361 20.9872V21.1295C20.0361 21.889 19.4204 22.5046 18.6609 22.5046Z" fill="white"/>
<path d="M13.5272 4.02946C13.9298 3.62688 14.1078 3.42948 14.1076 2.96786C14.1076 2.50642 13.9296 2.30901 13.527 1.90644C13.2063 1.58582 13.2063 1.06586 13.5269 0.745252C13.8475 0.424464 14.3674 0.424464 14.6881 0.745076C15.1361 1.19312 15.75 1.80667 15.7498 2.96786C15.75 4.12904 15.1365 4.7426 14.6882 5.19064C14.2857 5.59321 14.1076 5.7908 14.1076 6.25224C14.1076 6.70557 13.74 7.07342 13.2865 7.07342C12.8329 7.07342 12.4654 6.70575 12.4654 6.25224C12.4654 5.09106 13.079 4.47733 13.5272 4.02946Z" fill="white"/>
<path d="M9.14794 4.02946C9.55052 3.62688 9.72854 3.42948 9.72836 2.96786C9.72836 2.50642 9.55034 2.30901 9.14777 1.90644C8.82698 1.58582 8.82698 1.06586 9.14759 0.745252C9.4682 0.424464 9.98816 0.424464 10.3088 0.745076C10.757 1.19312 11.3707 1.80667 11.3705 2.96786C11.3707 4.12904 10.7572 4.74277 10.309 5.19064C9.90638 5.59321 9.72836 5.7908 9.72836 6.25224C9.72836 6.70557 9.36068 7.07342 8.90717 7.07342C8.45366 7.07342 8.08599 6.70575 8.08599 6.25224C8.08634 5.09106 8.6999 4.47733 9.14794 4.02946Z" fill="white"/>
</svg>
