<svg width="24" height="24" viewBox="0 0 24 24" fill="none" xmlns="http://www.w3.org/2000/svg">
<path d="M17.9229 19.6152V22.5732C17.9229 22.8083 17.6618 23 17.3408 23H6.6582C6.33742 22.9999 6.07715 22.8082 6.07715 22.5732V19.6152H17.9229ZM12.1074 1C14.9132 1 17.3445 2.77903 18.1572 5.42578C18.2056 5.58231 18.3199 5.70919 18.4678 5.77441L18.5332 5.79883C21.1617 6.59215 22.9978 9.0575 22.999 11.7949C22.999 14.6297 21.0556 17.1316 18.2734 17.8789C18.2555 17.8834 18.2385 17.8888 18.2217 17.8955C18.1845 17.9 18.1473 17.9096 18.1123 17.9219H15.002L15.9297 14.6309C16.0128 14.3336 15.8379 14.0253 15.5381 13.9424C15.238 13.8596 14.9264 14.0327 14.8428 14.3301L13.8291 17.9229H12.5635V13.3623C12.5633 13.0537 12.3104 12.8037 11.999 12.8037C11.6877 12.8039 11.4347 13.0538 11.4346 13.3623V17.9229H10.1514L9.14941 14.8682C9.05337 14.5741 8.73521 14.4147 8.43848 14.5098C8.14172 14.6048 7.9804 14.9197 8.07617 15.2139L8.96387 17.9229H5.88867C5.87189 17.9173 5.85384 17.9117 5.83594 17.9072C2.98953 17.2159 1 14.7023 1 11.7959C1.00011 10.429 1.47007 9.06878 2.32324 7.96582C2.81648 7.38631 3.32871 6.92514 3.88965 6.55371C3.89641 6.54924 3.90257 6.54646 3.9082 6.54199C4.01451 6.47706 4.45568 6.29628 4.74902 6.17773C5.72049 5.78295 5.96929 5.68237 6.05957 5.36133C6.91398 2.75249 9.34238 1.00015 12.1074 1Z" fill="#C7404F"/>
</svg>
