<svg width="24" height="24" viewBox="0 0 24 24" fill="none" xmlns="http://www.w3.org/2000/svg">
<path d="M16.1123 17.2871V19.3408C16.1122 19.504 15.9308 19.6367 15.708 19.6367H8.29199C8.06921 19.6367 7.88776 19.504 7.8877 19.3408V17.2871H16.1123ZM12.0752 4.36328C14.0231 4.36339 15.7112 5.59896 16.2754 7.43652C16.3139 7.5606 16.4117 7.6571 16.5361 7.69434C18.361 8.24517 19.6359 9.95792 19.6367 11.8584C19.6365 13.8262 18.2868 15.5623 16.3555 16.0811C16.3429 16.0842 16.3311 16.0881 16.3193 16.0928C16.2935 16.0959 16.2674 16.1028 16.2432 16.1113H14.084L14.7285 13.8271C14.7865 13.6206 14.6645 13.4061 14.4561 13.3486C14.2476 13.2912 14.0316 13.4116 13.9736 13.6182L13.2695 16.1123H12.3916V12.9463C12.3916 12.7321 12.2161 12.5578 12 12.5576C11.7837 12.5576 11.6074 12.7319 11.6074 12.9463V16.1123H10.7168L10.0215 13.9912C9.95481 13.7871 9.73335 13.6762 9.52734 13.7422C9.32131 13.8082 9.20977 14.0272 9.27637 14.2314L9.89258 16.1123H7.75684C7.74521 16.1085 7.7331 16.1037 7.7207 16.1006C5.74459 15.6206 4.36328 13.8761 4.36328 11.8584C4.36336 10.9094 4.68992 9.96494 5.28223 9.19922C5.62458 8.79702 5.97982 8.47656 6.36914 8.21875C6.37371 8.21573 6.37803 8.21392 6.38184 8.21094C6.45549 8.1659 6.76209 8.04034 6.96582 7.95801C7.64024 7.68394 7.81323 7.61432 7.87598 7.3916C8.46914 5.58029 10.1554 4.36328 12.0752 4.36328Z" fill="#C7404F"/>
</svg>
