<svg width="24" height="24" viewBox="0 0 24 24" fill="none" xmlns="http://www.w3.org/2000/svg">
<path d="M21.3272 14.8636H20.8363V11.6391C20.8363 11.2602 20.6798 10.8963 20.4037 10.6279L17.3386 7.64788C17.0624 7.37941 16.6881 7.22728 16.2985 7.22728H14.9454V5.79547C14.9454 5.00498 14.2857 4.36365 13.4727 4.36365H3.65449C2.84142 4.36365 2.18176 5.00498 2.18176 5.79547V15.3409C2.18176 16.1314 2.84142 16.7727 3.65449 16.7727H4.1454C4.1454 18.3537 5.46472 19.6364 7.09085 19.6364C8.71699 19.6364 10.0363 18.3537 10.0363 16.7727H13.9636C13.9636 18.3537 15.2829 19.6364 16.909 19.6364C18.5352 19.6364 19.8545 18.3537 19.8545 16.7727H21.3272C21.5972 16.7727 21.8181 16.558 21.8181 16.2955V15.3409C21.8181 15.0784 21.5972 14.8636 21.3272 14.8636ZM7.09085 18.2046C6.27779 18.2046 5.61813 17.5632 5.61813 16.7727C5.61813 15.9823 6.27779 15.3409 7.09085 15.3409C7.90392 15.3409 8.56358 15.9823 8.56358 16.7727C8.56358 17.5632 7.90392 18.2046 7.09085 18.2046ZM16.909 18.2046C16.096 18.2046 15.4363 17.5632 15.4363 16.7727C15.4363 15.9823 16.096 15.3409 16.909 15.3409C17.7221 15.3409 18.3818 15.9823 18.3818 16.7727C18.3818 17.5632 17.7221 18.2046 16.909 18.2046ZM19.3636 12H14.9454V8.6591H16.2985L19.3636 11.6391V12Z" fill="white"/>
</svg>
