<svg width="24" height="24" viewBox="0 0 24 24" fill="none" xmlns="http://www.w3.org/2000/svg">
<path d="M22.45 15.2083H21.9V11.5956C21.9 11.1712 21.7247 10.7635 21.4153 10.4627L17.9813 7.12402C17.6719 6.82323 17.2525 6.65279 16.8159 6.65279H15.3V5.04862C15.3 4.16299 14.5609 3.44446 13.65 3.44446H2.65C1.73906 3.44446 1 4.16299 1 5.04862V15.7431C1 16.6287 1.73906 17.3472 2.65 17.3472H3.2C3.2 19.1185 4.67813 20.5556 6.5 20.5556C8.32188 20.5556 9.8 19.1185 9.8 17.3472H14.2C14.2 19.1185 15.6781 20.5556 17.5 20.5556C19.3219 20.5556 20.8 19.1185 20.8 17.3472H22.45C22.7525 17.3472 23 17.1066 23 16.8125V15.7431C23 15.449 22.7525 15.2083 22.45 15.2083ZM6.5 18.9514C5.58906 18.9514 4.85 18.2329 4.85 17.3472C4.85 16.4616 5.58906 15.7431 6.5 15.7431C7.41094 15.7431 8.15 16.4616 8.15 17.3472C8.15 18.2329 7.41094 18.9514 6.5 18.9514ZM17.5 18.9514C16.5891 18.9514 15.85 18.2329 15.85 17.3472C15.85 16.4616 16.5891 15.7431 17.5 15.7431C18.4109 15.7431 19.15 16.4616 19.15 17.3472C19.15 18.2329 18.4109 18.9514 17.5 18.9514ZM20.25 12H15.3V8.25696H16.8159L20.25 11.5956V12Z" fill="white"/>
</svg>
