<svg width="24" height="24" viewBox="0 0 24 24" fill="none" xmlns="http://www.w3.org/2000/svg">
<path d="M21.0906 13.7524C21.0906 14.5607 21.0199 15.3187 20.8858 16.0254L20.2909 16.3192L18.3107 15.3414L18.081 15.4549C18.1299 14.915 18.1555 14.3471 18.1555 13.7524C18.1555 13.2526 18.1375 12.7478 18.1029 12.2421C18.0915 12.0753 18.0784 11.9092 18.0627 11.7423L18.311 11.6201L20.2911 12.5978L21.0114 12.2421C21.0633 12.7478 21.0906 13.2524 21.0906 13.7524Z" fill="#FAC761"/>
<path d="M21.0114 12.2422L20.2911 12.598L18.311 11.6202L18.0627 11.7425C17.9759 10.7737 17.8285 9.8074 17.6287 8.87404C17.5874 8.68111 17.544 8.49007 17.4984 8.30046L18.3112 7.89893L20.2914 8.8769L20.2968 8.87428C20.649 9.96806 20.8939 11.1074 21.0114 12.2422Z" fill="#E66EB0"/>
<path d="M20.291 16.3193L20.8859 16.0255C20.6213 17.4211 20.1101 18.6174 19.4077 19.6044L18.3108 19.0629L16.9843 19.7181C17.0028 19.6806 17.0213 19.6426 17.0391 19.6047C17.5051 18.6177 17.8443 17.4214 18.0196 16.0257C18.0431 15.8394 18.0636 15.6494 18.0811 15.4552L18.3108 15.3418L20.291 16.3193Z" fill="#E66EB0"/>
<path d="M20.2964 8.87437L20.291 8.87699L18.3108 7.89901L17.498 8.30055C17.2225 7.15218 16.868 6.06458 16.4496 5.09705L17.9869 4.33765C18.9632 5.6284 19.7565 7.19894 20.2964 8.87437Z" fill="#FAC761"/>
<path d="M18.3107 19.062L19.4076 19.6036C17.8207 21.8336 15.2605 23 12.3719 23C14.2553 23 15.9281 21.8732 16.9841 19.7172L18.3107 19.062Z" fill="#FAC761"/>
<path d="M18.1558 13.7524C18.1558 14.3473 18.1302 14.915 18.0813 15.4549L16.3308 16.3192L14.3512 15.3414L12.371 16.3192L10.3913 15.3414L8.41166 16.3192L6.66195 15.4549C6.61354 14.915 6.58813 14.3471 6.58813 13.7524C6.58813 13.2526 6.60618 12.7478 6.64083 12.2426C6.65222 12.0758 6.66575 11.9096 6.68046 11.7428L8.41166 12.5978L10.3913 11.6201L12.371 12.5978L14.3512 11.6201L16.3308 12.5978L18.0628 11.7423C18.0784 11.9092 18.0915 12.0753 18.1029 12.2421C18.1377 12.7478 18.1558 13.2524 18.1558 13.7524Z" fill="#FAC761"/>
<path d="M16.3306 16.3189L18.0811 15.4546C18.0637 15.6485 18.0431 15.8386 18.0196 16.0251C17.8442 17.4208 17.5051 18.6171 17.039 19.6041C17.021 19.642 17.0027 19.68 16.9842 19.7175L16.3306 20.0402L14.351 19.0625L12.3708 20.0402L10.3911 19.0625L8.41146 20.0402L7.75909 19.7182C7.74058 19.6807 7.72206 19.6427 7.70426 19.6041C7.23818 18.6171 6.89905 17.4212 6.72368 16.0256C6.70042 15.8388 6.67978 15.6485 6.66174 15.4546L8.41146 16.3189L10.3911 15.3412L12.3708 16.3189L14.351 15.3412L16.3306 16.3189Z" fill="#E66EB0"/>
<path d="M18.0625 11.7427L16.3305 12.5982L14.3509 11.6205L12.3707 12.5982L10.391 11.6205L8.41138 12.5982L6.68018 11.7432C6.76751 10.7752 6.91488 9.80859 7.1147 8.87476C7.15599 8.68182 7.19942 8.49007 7.24451 8.30046L8.41138 8.8769L10.391 7.89893L12.3707 8.8769L14.3509 7.89893L16.3305 8.8769L17.4979 8.30046C17.5435 8.49007 17.5869 8.68135 17.6282 8.87405C17.8282 9.80764 17.9756 10.774 18.0625 11.7427Z" fill="#E66EB0"/>
<path d="M17.9872 4.33711L16.4498 5.09651C16.3369 4.83404 16.2189 4.58036 16.0967 4.33711C15.0905 2.33086 13.7912 1 12.3723 1C14.5115 1 16.4705 2.33086 17.9872 4.33711Z" fill="#E66EB0"/>
<path d="M17.4982 8.29998L16.3308 8.87642L14.3511 7.89844L12.371 8.87642L10.3913 7.89844L8.41164 8.87642L7.24475 8.29998C7.52075 7.15209 7.87602 6.06448 8.29369 5.09695L8.41164 5.1551L10.3913 4.17712L12.371 5.1551L14.3511 4.17712L16.3308 5.1551L16.4497 5.09648C16.8678 6.06401 17.2226 7.15138 17.4982 8.29998Z" fill="#FAC761"/>
<path d="M16.3305 20.04L16.984 19.7172C15.928 21.8735 14.2554 23 12.3718 23C10.4883 23 8.81568 21.8732 7.75916 19.7177L8.41154 20.0397L10.3912 19.062L12.3709 20.0397L14.351 19.062L16.3305 20.04Z" fill="#FAC761"/>
<path d="M16.45 5.09724L16.3311 5.15586L14.3514 4.17789L12.3712 5.15586L10.3916 4.17789L8.41189 5.15586L8.29395 5.09772C8.40691 4.83525 8.52485 4.58156 8.64706 4.33832C9.65327 2.33206 10.953 1.00073 12.3722 1.00073C13.7913 1.00073 15.0906 2.33158 16.0966 4.33784C16.219 4.58108 16.3368 4.83478 16.45 5.09724Z" fill="#E66EB0"/>
<path d="M12.3719 1C10.953 1 9.653 2.33157 8.64679 4.33758C8.52458 4.58107 8.40664 4.83476 8.29367 5.09699L6.75635 4.33758C8.27373 2.33157 10.2325 1 12.3719 1Z" fill="#E66EB0"/>
<path d="M7.75926 19.7177C8.81578 21.8732 10.4886 23 12.3719 23C9.48287 23 6.9225 21.8336 5.33582 19.6036L6.4322 19.062L7.75926 19.7177Z" fill="#FAC761"/>
<path d="M6.75632 4.33765L8.29364 5.09705C7.87597 6.06458 7.5207 7.15219 7.2447 8.30008L6.43191 7.89854L4.45176 8.87652L4.44678 8.87438C4.9869 7.19894 5.78024 5.62863 6.75632 4.33765Z" fill="#FAC761"/>
<path d="M7.75922 19.7182L6.43216 19.0625L5.33577 19.6041C4.63332 18.6171 4.12215 17.4212 3.85754 16.0256L4.45177 16.3189L6.43192 15.3412L6.66164 15.4546C6.67968 15.6485 6.70032 15.8386 6.72358 16.0256C6.89895 17.4212 7.23808 18.6168 7.70416 19.6041C7.7222 19.6427 7.74071 19.6807 7.75922 19.7182Z" fill="#E66EB0"/>
<path d="M6.43248 7.89893L7.24528 8.30046C7.20019 8.49007 7.15676 8.68182 7.11547 8.87476C6.91565 9.80859 6.76828 10.7749 6.68095 11.7432L6.43271 11.6205L4.45257 12.5982L3.73279 12.243C3.85026 11.1081 4.09469 9.96902 4.44782 8.87476L4.4528 8.8769L6.43248 7.89893Z" fill="#E66EB0"/>
<path d="M6.43238 11.6201L6.6806 11.7428C6.66589 11.9096 6.65236 12.0758 6.64097 12.2426C6.60633 12.7478 6.58829 13.2524 6.58829 13.7524C6.58829 14.3473 6.61392 14.915 6.66209 15.4549L6.43238 15.3414L4.45222 16.3192L3.85799 16.0259C3.72391 15.3191 3.6532 14.5607 3.6532 13.7524C3.6532 13.2526 3.68049 12.7478 3.73246 12.2426L4.45222 12.5978L6.43238 11.6201Z" fill="#FAC761"/>
</svg>
