<svg width="24" height="24" viewBox="0 0 24 24" fill="none" xmlns="http://www.w3.org/2000/svg">
<path d="M21.0905 13.7525C21.0905 14.5608 21.0198 15.3188 20.8857 16.0255L20.2908 16.3193L18.3106 15.3416L18.0809 15.455C18.1298 14.9151 18.1554 14.3472 18.1554 13.7525C18.1554 13.2527 18.1374 12.748 18.1027 12.2422C18.0913 12.0754 18.0783 11.9093 18.0626 11.7425L18.3109 11.6202L20.291 12.598L21.0112 12.2422C21.0632 12.748 21.0905 13.2525 21.0905 13.7525Z" fill="white"/>
<path d="M21.0114 12.242L20.2911 12.5977L18.311 11.62L18.0627 11.7422C17.9759 10.7735 17.8285 9.80716 17.6287 8.8738C17.5874 8.68086 17.544 8.48983 17.4984 8.30021L18.3112 7.89868L20.2914 8.87665L20.2968 8.87404C20.649 9.96782 20.8939 11.1072 21.0114 12.242Z" fill="#E66EB0"/>
<path d="M20.2911 16.3193L20.8861 16.0255C20.6214 17.4211 20.1103 18.6174 19.4078 19.6044L18.311 19.0629L16.9844 19.7181C17.0029 19.6806 17.0214 19.6426 17.0392 19.6047C17.5053 18.6177 17.8444 17.4214 18.0198 16.0257C18.0433 15.8394 18.0637 15.6494 18.0812 15.4552L18.311 15.3418L20.2911 16.3193Z" fill="#E66EB0"/>
<path d="M20.2964 8.87437L20.291 8.87699L18.3108 7.89902L17.498 8.30055C17.2225 7.15219 16.868 6.06458 16.4496 5.09705L17.9869 4.33765C18.9632 5.6284 19.7565 7.19894 20.2964 8.87437Z" fill="white"/>
<path d="M18.3107 19.062L19.4076 19.6036C17.8207 21.8336 15.2605 23 12.3719 23C14.2553 23 15.9281 21.8732 16.9841 19.7172L18.3107 19.062Z" fill="white"/>
<path d="M18.1555 13.7525C18.1555 14.3474 18.1299 14.9151 18.081 15.455L16.3306 16.3193L14.3509 15.3416L12.3708 16.3193L10.3911 15.3416L8.41142 16.3193L6.6617 15.455C6.61329 14.9151 6.58789 14.3472 6.58789 13.7525C6.58789 13.2527 6.60594 12.748 6.64059 12.2427C6.65198 12.0759 6.6655 11.9098 6.68021 11.7429L8.41142 12.598L10.3911 11.6202L12.3708 12.598L14.3509 11.6202L16.3306 12.598L18.0625 11.7425C18.0782 11.9093 18.0912 12.0754 18.1026 12.2422C18.1375 12.748 18.1555 13.2525 18.1555 13.7525Z" fill="white"/>
<path d="M16.3305 16.3189L18.0809 15.4546C18.0636 15.6485 18.043 15.8386 18.0195 16.0251C17.8441 17.4208 17.505 18.6171 17.0389 19.6041C17.0208 19.642 17.0026 19.68 16.9841 19.7175L16.3305 20.0402L14.3508 19.0625L12.3707 20.0402L10.391 19.0625L8.41133 20.0402L7.75897 19.7182C7.74046 19.6807 7.72194 19.6427 7.70414 19.6041C7.23806 18.6171 6.89893 17.4212 6.72356 16.0256C6.7003 15.8388 6.67966 15.6485 6.66162 15.4546L8.41133 16.3189L10.391 15.3412L12.3707 16.3189L14.3508 15.3412L16.3305 16.3189Z" fill="#E66EB0"/>
<path d="M18.0625 11.7425L16.3306 12.598L14.3509 11.6202L12.3707 12.598L10.391 11.6202L8.41138 12.598L6.68018 11.7429C6.76751 10.7749 6.91488 9.80835 7.1147 8.87452C7.15599 8.68158 7.19942 8.48983 7.24451 8.30021L8.41138 8.87665L10.391 7.89868L12.3707 8.87665L14.3509 7.89868L16.3306 8.87665L17.4979 8.30021C17.5435 8.48983 17.5869 8.68111 17.6282 8.87381C17.8282 9.8074 17.9756 10.7737 18.0625 11.7425Z" fill="#E66EB0"/>
<path d="M17.9872 4.33711L16.4498 5.09652C16.3369 4.83405 16.2189 4.58036 16.0967 4.33711C15.0905 2.33086 13.7912 1 12.3723 1C14.5115 1 16.4705 2.33086 17.9872 4.33711Z" fill="#E66EB0"/>
<path d="M17.4982 8.29998L16.3308 8.87642L14.3511 7.89845L12.371 8.87642L10.3913 7.89845L8.41164 8.87642L7.24475 8.29998C7.52075 7.15209 7.87602 6.06448 8.29369 5.09695L8.41164 5.1551L10.3913 4.17712L12.371 5.1551L14.3511 4.17712L16.3308 5.1551L16.4497 5.09648C16.8678 6.06401 17.2226 7.15138 17.4982 8.29998Z" fill="white"/>
<path d="M16.3306 20.04L16.9842 19.7172C15.9281 21.8735 14.2555 23 12.372 23C10.4884 23 8.8158 21.8732 7.75928 19.7177L8.41166 20.0397L10.3913 19.062L12.371 20.0397L14.3511 19.062L16.3306 20.04Z" fill="white"/>
<path d="M16.45 5.09713L16.3311 5.15574L14.3514 4.17777L12.3712 5.15574L10.3916 4.17777L8.41189 5.15574L8.29395 5.0976C8.40691 4.83513 8.52485 4.58144 8.64706 4.33819C9.65328 2.33194 10.953 1.00061 12.3722 1.00061C13.7913 1.00061 15.0906 2.33146 16.0966 4.33772C16.219 4.58096 16.3368 4.83466 16.45 5.09713Z" fill="#E66EB0"/>
<path d="M12.3719 1C10.953 1 9.653 2.33157 8.64679 4.33759C8.52458 4.58107 8.40664 4.83476 8.29368 5.09699L6.75635 4.33759C8.27373 2.33157 10.2325 1 12.3719 1Z" fill="#E66EB0"/>
<path d="M7.75926 19.7177C8.81578 21.8732 10.4886 23 12.3719 23C9.48288 23 6.9225 21.8336 5.33582 19.6036L6.43221 19.062L7.75926 19.7177Z" fill="white"/>
<path d="M6.75632 4.33765L8.29365 5.09705C7.87597 6.06458 7.5207 7.15219 7.24471 8.30008L6.43191 7.89855L4.45176 8.87652L4.44678 8.87438C4.9869 7.19894 5.78024 5.62864 6.75632 4.33765Z" fill="white"/>
<path d="M7.75922 19.7182L6.43216 19.0625L5.33577 19.6041C4.63332 18.6171 4.12215 17.4212 3.85754 16.0256L4.45177 16.3189L6.43192 15.3412L6.66164 15.4546C6.67968 15.6485 6.70032 15.8386 6.72358 16.0256C6.89895 17.4212 7.23808 18.6168 7.70416 19.6041C7.7222 19.6427 7.74071 19.6807 7.75922 19.7182Z" fill="#E66EB0"/>
<path d="M6.43248 7.89868L7.24528 8.30021C7.20019 8.48983 7.15676 8.68158 7.11547 8.87452C6.91565 9.80835 6.76828 10.7747 6.68095 11.7429L6.43271 11.6202L4.45257 12.598L3.73279 12.2427C3.85026 11.1079 4.09469 9.96877 4.44782 8.87452L4.4528 8.87665L6.43248 7.89868Z" fill="#E66EB0"/>
<path d="M6.43226 11.6202L6.68048 11.7429C6.66577 11.9098 6.65224 12.0759 6.64085 12.2427C6.60621 12.748 6.58817 13.2525 6.58817 13.7525C6.58817 14.3474 6.6138 14.9151 6.66197 15.455L6.43226 15.3416L4.4521 16.3193L3.85787 16.026C3.72379 15.3193 3.65308 14.5608 3.65308 13.7525C3.65308 13.2527 3.68036 12.748 3.73234 12.2427L4.4521 12.598L6.43226 11.6202Z" fill="white"/>
</svg>
