<svg width="24" height="24" viewBox="0 0 24 24" fill="none" xmlns="http://www.w3.org/2000/svg">
<path d="M22.4558 10.2499C22.3546 10.1242 22.1647 10.2344 22.2061 10.3935C22.342 10.911 22.172 11.5122 21.5494 11.7274C18.6949 12.7153 17.5324 8.48205 15.5728 7.8256C14.4054 7.43456 13.3035 7.66353 12.5455 8.383C11.788 7.66353 10.6856 7.43456 9.51816 7.8256C7.55863 8.48205 6.39608 12.7149 3.54156 11.7274C2.91901 11.5122 2.74945 10.911 2.88486 10.3935C2.92674 10.2344 2.73644 10.1242 2.63519 10.2499C1.93782 11.1151 2.11024 12.3247 2.70961 13.1912C3.36631 14.1401 4.56301 14.6705 5.61211 14.9561C7.56351 15.4873 9.82964 15.4187 11.5537 14.2164C11.9189 13.9617 12.2568 13.6432 12.5451 13.28C12.8334 13.6432 13.1713 13.9617 13.5369 14.2164C15.2605 15.4187 17.5271 15.4877 19.4785 14.9561C20.5276 14.6705 21.7247 14.1397 22.381 13.1912C22.9808 12.3247 23.1528 11.1151 22.4558 10.2499Z" fill="white"/>
</svg>
