<svg width="24" height="24" viewBox="0 0 24 24" fill="none" xmlns="http://www.w3.org/2000/svg">
<path d="M23.0644 10.1759C22.9569 10.0425 22.7553 10.1595 22.7994 10.3283C22.9435 10.8776 22.7631 11.5157 22.1023 11.7441C19.0725 12.7927 17.8386 8.29948 15.7587 7.60272C14.5196 7.18767 13.35 7.4307 12.5455 8.19435C11.7415 7.4307 10.5714 7.18767 9.33229 7.60272C7.25243 8.29948 6.0185 12.7922 2.9887 11.7441C2.32793 11.5157 2.14796 10.8776 2.29168 10.3283C2.33614 10.1595 2.13414 10.0425 2.02668 10.1759C1.28649 11.0942 1.46949 12.3781 2.10566 13.2978C2.80269 14.305 4.07288 14.8679 5.18639 15.171C7.25762 15.7349 9.6629 15.6621 11.4929 14.386C11.8804 14.1156 12.2391 13.7775 12.5451 13.392C12.8511 13.7775 13.2097 14.1156 13.5977 14.386C15.4273 15.6621 17.833 15.7353 19.9042 15.171C21.0177 14.8679 22.2884 14.3045 22.9849 13.2978C23.6215 12.3781 23.8041 11.0942 23.0644 10.1759Z" fill="#00ADAD"/>
</svg>
