<svg width="24" height="24" viewBox="0 0 24 24" fill="none" xmlns="http://www.w3.org/2000/svg">
<path d="M16.9642 2.57141C14.9094 2.57141 13.1019 3.71051 12.0127 5.21615C10.9235 3.71615 9.09832 2.57141 7.04352 2.57141C3.717 2.57141 0.684854 5.18231 1.02634 8.35149C1.73286 14.859 8.30937 17.1203 12.0127 21.4286C15.9339 16.9286 22.9108 12.9135 22.9991 8.35149C23.058 5.1654 20.2908 2.57141 16.9642 2.57141ZM19.8021 9.27066C19.4076 9.27066 19.1073 8.98307 19.1073 8.60525C19.1073 7.3872 18.0711 6.39472 16.7994 6.39472C16.4049 6.39472 16.1046 6.10712 16.1046 5.72931C16.1046 5.35149 16.4049 5.06389 16.7994 5.06389C18.8306 5.06389 20.4968 6.65412 20.4968 8.60525C20.4968 8.98307 20.1966 9.27066 19.8021 9.27066Z" fill="white"/>
</svg>
