<svg width="24" height="24" viewBox="0 0 24 24" fill="none" xmlns="http://www.w3.org/2000/svg">
<path d="M21.172 5.41964C21.0622 4.77229 20.7537 4.17512 20.2894 3.71083C19.8251 3.24655 19.228 2.93813 18.5806 2.82831C15.4671 2.30042 9.60063 2.05908 5.28516 6.37637C0.969704 10.6937 1.20913 16.559 1.73703 19.6715C1.84714 20.3195 2.15627 20.9172 2.6215 21.3816C3.08673 21.8459 3.68499 22.1539 4.33322 22.2628C5.42377 22.4488 6.52795 22.5434 7.63424 22.5455C10.7199 22.5455 14.5622 21.7763 17.6238 18.7148C21.9403 14.3994 21.6999 8.53213 21.172 5.41964ZM4.58515 20.7475C4.25228 20.6909 3.94522 20.5322 3.70647 20.2934C3.46771 20.0547 3.30905 19.7476 3.25244 19.4148C2.98852 17.9268 2.92031 16.4108 3.04955 14.9052L9.09485 20.9503C7.5892 21.0796 6.07311 21.0114 4.58515 20.7475ZM15.0738 10.0139L13.6949 11.3917L14.3046 12.0013C14.3806 12.0717 14.4416 12.1566 14.484 12.2511C14.5264 12.3456 14.5492 12.4477 14.5512 12.5512C14.5532 12.6547 14.5343 12.7576 14.4955 12.8537C14.4568 12.9497 14.3991 13.0369 14.3258 13.1101C14.2526 13.1833 14.1653 13.241 14.0692 13.2796C13.9731 13.3183 13.8702 13.3371 13.7667 13.335C13.6632 13.333 13.5611 13.31 13.4667 13.2675C13.3722 13.2251 13.2873 13.164 13.217 13.0879L12.6084 12.4792L11.3882 13.6994L11.9978 14.309C12.0739 14.3793 12.135 14.4642 12.1774 14.5586C12.2199 14.6531 12.2429 14.7551 12.2449 14.8587C12.247 14.9622 12.2282 15.0651 12.1895 15.1612C12.1509 15.2572 12.0932 15.3445 12.02 15.4178C11.9468 15.491 11.8596 15.5488 11.7636 15.5875C11.6675 15.6262 11.5646 15.6452 11.4611 15.6432C11.3576 15.6412 11.2555 15.6183 11.161 15.5759C11.0665 15.5336 10.9816 15.4725 10.9112 15.3965L10.3006 14.7859L8.92177 16.1648C8.85105 16.2392 8.76614 16.2988 8.67205 16.3399C8.57796 16.381 8.4766 16.4028 8.37393 16.4041C8.27126 16.4054 8.16937 16.3862 8.07426 16.3475C7.97915 16.3088 7.89275 16.2515 7.82014 16.1789C7.74754 16.1063 7.69021 16.0199 7.65152 15.9248C7.61284 15.8297 7.59359 15.7278 7.5949 15.6251C7.59621 15.5225 7.61807 15.4211 7.65918 15.327C7.70028 15.2329 7.75981 15.148 7.83425 15.0773L9.21408 13.6994L8.60445 13.0898C8.46957 12.9438 8.39646 12.7512 8.40045 12.5525C8.40444 12.3537 8.48521 12.1642 8.62584 12.0237C8.76647 11.8832 8.95603 11.8026 9.15479 11.7988C9.35355 11.795 9.54606 11.8683 9.69197 12.0033L10.3016 12.6129L11.5209 11.3917L10.9112 10.7821C10.7762 10.6362 10.7029 10.4437 10.7067 10.2449C10.7106 10.0462 10.7912 9.85664 10.9317 9.71601C11.0722 9.57539 11.2617 9.49461 11.4604 9.49063C11.6592 9.48664 11.8517 9.55975 11.9978 9.69462L12.6084 10.3052L13.9872 8.92636C14.058 8.85192 14.1429 8.7924 14.237 8.75129C14.331 8.71018 14.4324 8.68833 14.5351 8.68702C14.6377 8.6857 14.7396 8.70495 14.8347 8.74364C14.9299 8.78232 15.0163 8.83965 15.0889 8.91225C15.1615 8.98486 15.2188 9.07126 15.2575 9.16637C15.2962 9.26147 15.3154 9.36336 15.3141 9.46603C15.3128 9.56869 15.2909 9.67006 15.2498 9.76414C15.2087 9.85823 15.1492 9.94313 15.0748 10.0139H15.0738ZM19.8595 10.186L13.8142 4.1408C14.2719 4.09849 14.7488 4.07446 15.2478 4.07446C16.2792 4.07809 17.3085 4.16815 18.3248 4.34369C18.6575 4.40048 18.9644 4.55921 19.2029 4.79795C19.4415 5.03669 19.6 5.34364 19.6566 5.67637C19.9205 7.1643 19.9887 8.68035 19.8595 10.186Z" fill="white"/>
</svg>
