<svg width="24" height="24" viewBox="0 0 24 24" fill="none" xmlns="http://www.w3.org/2000/svg">
<g clip-path="url(#clip0_6910_36454)">
<path fill-rule="evenodd" clip-rule="evenodd" d="M6.64658 5.68356C6.99473 5.21732 7.35536 4.76678 7.88008 4.48323C8.74876 4.01451 9.62328 4.05502 10.4695 4.51713C10.7743 4.68412 10.8393 4.57334 10.8826 4.31046C11.0192 3.48213 11.2291 2.66786 11.6821 1.95361C12.4234 0.78056 12.7715 0.721043 13.8743 1.6031C13.9684 1.67916 14.0533 1.76926 14.1333 1.86268C14.5456 2.35041 14.5056 2.65133 13.985 3.03739C13.417 3.45651 13.118 4.02196 13.0122 4.71388C13.2338 4.74447 13.3246 4.59235 13.4528 4.52374C14.7455 3.84752 16.1297 4.13521 17.0067 5.30744C17.2416 5.62405 17.3724 5.66704 17.5739 5.30413C18.2852 4.03105 19.457 3.70368 20.788 3.90456C21.8416 4.06163 22.6311 4.7205 23.1792 5.60752C23.9038 6.77727 24.1953 8.08423 24.4043 9.43584C24.5809 10.5618 24.6142 11.6869 24.5201 12.7971C24.2527 15.9476 23.3532 18.8798 21.072 21.2226C20.11 22.2088 18.9123 22.7866 17.5014 22.704C16.6319 22.6544 15.7607 22.47 15.1602 21.7343C14.9928 21.5284 14.8962 21.6111 14.7796 21.7558C14.0267 22.6866 13.0114 23.0198 11.8562 22.9991C10.6752 22.9784 9.69907 22.5097 8.97114 21.6045C7.98418 22.5775 6.82232 22.8643 5.48556 22.6188C3.34923 22.227 2.20486 20.6852 1.20374 18.9963C0.381692 17.6092 -0.0788835 16.0807 -0.389546 14.5116C-0.586938 13.5081 -0.576114 12.4797 -0.567785 11.4637C-0.558624 10.6469 -0.582773 9.82025 -0.425359 9.00598C-0.140516 7.51962 0.250096 6.07376 1.28786 4.90236C2.548 3.48048 5.30398 3.35236 6.39422 5.34381C6.45918 5.46699 6.51249 5.59015 6.64658 5.68356ZM19.193 15.3176C19.193 15.1498 19.198 14.982 19.1922 14.8158C19.1847 14.5868 19.0856 14.4943 18.8765 14.6497C18.0112 15.2945 17.0334 15.7268 16.0206 16.0757C15.3476 16.308 14.6647 16.5684 14.035 15.9162C13.5994 15.4631 13.5011 15.4805 12.9839 15.8277C12.8832 15.8955 12.7815 15.9649 12.6766 16.0277C11.8837 16.5122 11.259 16.6974 10.6277 15.7872C10.3079 15.3251 10.1613 15.3499 9.67741 15.6706C9.58913 15.7301 9.50085 15.793 9.41589 15.8575C8.65881 16.4336 7.86008 16.4675 7.01721 16.0451C6.21765 15.645 5.5297 15.0845 4.84424 14.5273C4.5544 14.2934 4.41364 14.3182 4.372 14.6828C4.3112 15.216 4.34201 15.7417 4.57438 16.2419C4.85673 16.8445 5.28317 17.3364 5.75458 17.7968C6.59495 18.6152 6.81566 18.6533 7.87591 18.1424C7.94504 18.1093 8.01166 18.0655 8.08162 18.044C8.7346 17.8539 9.37091 17.7414 9.89979 18.3383C10.1638 18.6351 10.4745 18.7244 10.821 18.4549C10.9659 18.3416 11.1183 18.2416 11.2574 18.1242C11.9345 17.5447 12.3293 17.5645 12.9356 18.2193C13.4986 18.8293 13.5769 18.831 14.1716 18.2532C14.5406 17.8969 14.9345 17.5993 15.4834 17.5786C15.8898 17.5637 16.188 17.7109 16.2754 18.1126C16.3654 18.5326 16.5903 18.5408 16.9059 18.3755C17.0409 18.3044 17.18 18.2366 17.3049 18.1482C18.2893 17.4381 19.1922 16.6742 19.193 15.3176ZM18.0878 12.4821C18.3418 12.4474 18.7508 12.645 18.5492 12.1076C18.1011 10.9015 17.6589 9.69377 17.2149 8.486C17.135 8.26859 17.0542 8.26196 16.9176 8.4554C16.1222 9.58464 15.3243 10.7106 14.5198 11.8332C14.4107 11.987 14.3907 12.0688 14.6164 12.0936C15.7824 12.2217 16.9484 12.354 18.0878 12.4821ZM5.9961 12.4706C7.01638 12.3532 8.13659 12.2217 9.25931 12.0936C9.48835 12.0671 9.51251 11.9704 9.38591 11.7943C8.60051 10.694 7.81344 9.59291 7.03387 8.48764C6.87479 8.26279 6.79317 8.24543 6.69323 8.53063C6.29594 9.66152 5.88533 10.7875 5.48305 11.9167C5.28316 12.4772 5.29149 12.4871 5.9961 12.4706ZM11.957 12.2598C11.8029 12.5036 11.6697 12.7054 11.5447 12.912C11.3773 13.1898 10.995 13.5262 11.1424 13.7527C11.3132 14.0148 11.7929 13.8528 12.1361 13.8412C12.5284 13.8247 12.6008 13.6734 12.4367 13.2973C12.2918 12.9633 12.1319 12.6376 11.957 12.2598Z" fill="white"/>
</g>
<defs>
<clipPath id="clip0_6910_36454">
<rect width="24" height="24" fill="white"/>
</clipPath>
</defs>
</svg>
