<svg width="24" height="24" viewBox="0 0 24 24" fill="none" xmlns="http://www.w3.org/2000/svg">
<path d="M19.6239 3.5072C19.3785 3.5072 19.1636 3.65061 19.0328 3.84123C18.9038 3.65243 18.6852 3.5072 18.4398 3.5072C18.0421 3.5072 17.6803 3.83578 17.7215 4.23697C17.8057 5.05751 18.5903 5.34252 19.031 5.88712C19.4985 5.31892 20.3315 4.81244 20.3405 4.23697C20.3477 3.83396 20.0181 3.5072 19.6204 3.5072H19.6239Z" fill="#C7404F"/>
<path d="M17.5405 7.86761C17.1321 7.86761 16.7738 8.10724 16.5588 8.42311C16.3421 8.10724 15.9802 7.86761 15.5735 7.86761C14.9125 7.86761 14.3106 8.41585 14.3787 9.08208C14.5184 10.4472 15.8243 10.9228 16.5588 11.8287C17.3381 10.8829 18.7228 10.0406 18.739 9.08208C18.7515 8.41222 18.2015 7.86761 17.5405 7.86761Z" fill="#C7404F"/>
<path d="M11.2039 23.1089H7.72534C7.10373 23.1089 6.60035 22.6446 6.60034 22.0728V13.272H11.2039V23.1089ZM14.866 23.1089H11.7576V13.272H14.866V23.1089ZM20.0212 13.272V22.0728C20.0212 22.6446 19.5161 23.1089 18.8962 23.1089H15.4177V13.272H20.0212ZM14.4001 1.10889C14.5309 1.10889 14.6579 1.16919 14.7439 1.28174L15.7527 2.61377C15.8243 2.70817 15.853 2.82278 15.8386 2.93896C15.8225 3.05332 15.7631 3.15905 15.6736 3.22803L4.10327 12.2339C4.01027 12.3063 3.8974 12.3352 3.78296 12.3208C3.66835 12.3081 3.5675 12.2463 3.49585 12.1538L2.48706 10.8247C2.41551 10.7303 2.3868 10.6156 2.40112 10.4995C2.41374 10.3835 2.47489 10.282 2.56616 10.2095L5.76538 7.72217L9.698 4.65967L14.1365 1.19971C14.2153 1.1398 14.3088 1.10889 14.4001 1.10889Z" fill="white"/>
</svg>
