<svg width="24" height="24" viewBox="0 0 24 24" fill="none" xmlns="http://www.w3.org/2000/svg">
<path d="M18.819 4.34607C18.5975 4.34607 18.4035 4.4755 18.2854 4.64752C18.169 4.47713 17.9718 4.34607 17.7503 4.34607C17.3914 4.34607 17.0648 4.6426 17.102 5.00467C17.178 5.74519 17.8861 6.0024 18.2838 6.49389C18.7058 5.9811 19.4576 5.52401 19.4656 5.00467C19.4721 4.64096 19.1746 4.34607 18.8157 4.34607H18.819Z" fill="#C7404F"/>
<path d="M16.9387 8.28125C16.5701 8.28125 16.2467 8.49751 16.0527 8.78257C15.8571 8.49751 15.5305 8.28125 15.1635 8.28125C14.567 8.28125 14.0238 8.77602 14.0852 9.37728C14.2113 10.6093 15.3899 11.0385 16.0527 11.856C16.756 11.0025 18.0057 10.2423 18.0202 9.37728C18.0316 8.77274 17.5352 8.28125 16.9387 8.28125Z" fill="#C7404F"/>
<path d="M11.2201 22.0361H8.08044C7.51959 22.036 7.0658 21.6166 7.0658 21.1006V13.1582H11.2201V22.0361ZM14.5248 22.0361H11.7201V13.1582H14.5248V22.0361ZM19.1781 13.1582V21.1006C19.1781 21.6167 18.7219 22.0361 18.1625 22.0361H15.0228V13.1582H19.1781ZM14.1049 2.18164C14.2228 2.18172 14.3379 2.23639 14.4154 2.33789L15.3256 3.54004C15.3901 3.62513 15.4156 3.72832 15.4027 3.83301C15.3882 3.93617 15.335 4.03149 15.2543 4.09375L4.81189 12.2217C4.72794 12.2871 4.62613 12.3128 4.52283 12.2998C4.41945 12.2883 4.32869 12.2328 4.26404 12.1494L3.35388 10.9502C3.28931 10.8651 3.26295 10.7619 3.27576 10.6572C3.28706 10.5525 3.34187 10.4601 3.42419 10.3945L6.31189 8.15039L9.86072 5.38672L13.8666 2.26367C13.9377 2.20961 14.0224 2.18164 14.1049 2.18164Z" fill="#73296D"/>
</svg>
