<svg width="24" height="24" viewBox="0 0 24 24" fill="none" xmlns="http://www.w3.org/2000/svg">
<path d="M6.20051 13.6484C6.20051 13.6484 19.7751 19.706 20.2602 19.6963C20.7454 19.6866 21.3244 18.549 21.2235 18.3569C21.1226 18.1648 11.4581 6.67095 11.4581 6.67095C11.4581 6.67095 8.78772 9.05395 6.20051 13.6484Z" fill="#E66EB0"/>
<path d="M11.1278 14.9756C12.1953 14.2772 13.0728 13.3219 13.7313 12.2329C14.0812 11.6542 14.3664 11.0371 14.5883 10.3979C12.8531 8.33026 11.458 6.67119 11.458 6.67119C11.458 6.67119 8.78772 9.05424 6.20039 13.6486C6.20039 13.6486 7.98003 14.4428 10.2731 15.4553C10.5678 15.3141 10.8538 15.1549 11.1278 14.9756Z" fill="#F2D6CC"/>
<path d="M21.2236 18.3571C21.172 18.2589 18.6194 15.2051 16.1371 12.2443C16.0227 12.5001 15.9022 12.7532 15.7735 13.0022C15.2241 14.065 14.5279 15.0326 13.6651 15.8634C13.4013 16.1174 13.1242 16.356 12.8388 16.5843C16.3592 18.1276 20.0129 19.7015 20.2603 19.6965C20.7454 19.6868 21.3245 18.5493 21.2236 18.3571Z" fill="#F2D6CC"/>
<path d="M9.28788 7.38545C9.28788 7.38545 7.5079 7.37441 8.10964 6.53798C8.71127 5.70149 9.62773 6.36064 9.62773 6.36064C9.62773 6.36064 8.98147 5.04966 10.0065 4.72923C11.0315 4.40881 10.8533 5.76135 10.8533 5.76135C10.8533 5.76135 12.3185 4.27675 12.4717 5.44464C12.6249 6.61254 11.7698 6.42051 11.7698 6.42051C11.7698 6.42051 13.3799 6.94388 12.7475 7.54684C12.1152 8.14974 11.3296 7.5848 11.3296 7.5848C11.3296 7.5848 12.299 9.55122 11.3436 9.49868C10.3883 9.44614 10.2043 8.0446 10.2043 8.0446C10.2043 8.0446 9.78952 9.2341 9.20312 8.91452C8.6166 8.5949 8.42431 8.03368 9.28788 7.38545Z" fill="#BF0D3D"/>
<path d="M10.679 7.46115C10.9352 7.56812 11.2296 7.44713 11.3366 7.19091C11.4436 6.93469 11.3226 6.64026 11.0663 6.53329C10.8101 6.42632 10.5157 6.54731 10.4087 6.80353C10.3018 7.05975 10.4227 7.35418 10.679 7.46115Z" fill="white"/>
<path d="M4.63107 8.29374C4.63107 8.29374 3.30853 7.10246 4.314 6.87745C5.31953 6.65232 5.56605 7.75394 5.56605 7.75394C5.56605 7.75394 5.95459 6.34493 6.93335 6.7868C7.91224 7.22872 6.87996 8.12084 6.87996 8.12084C6.87996 8.12084 8.96133 7.98545 8.29963 8.95988C7.63793 9.93431 7.12659 9.22251 7.12659 9.22251C7.12659 9.22251 7.9817 10.6837 7.10847 10.7139C6.23535 10.7441 6.02394 9.79989 6.02394 9.79989C6.02394 9.79989 5.44125 11.9135 4.76228 11.2391C4.08343 10.5648 4.87754 9.39548 4.87754 9.39548C4.87754 9.39548 3.77709 10.0085 3.55128 9.37995C3.32568 8.75118 3.55517 8.20413 4.63107 8.29374Z" fill="#BF0D3D"/>
<path d="M5.91377 8.95793C5.84959 9.11167 5.67294 9.18426 5.5192 9.12007C5.36546 9.05589 5.29287 8.87925 5.35705 8.7255C5.42124 8.57176 5.59788 8.49917 5.75163 8.56336C5.90537 8.62754 5.97796 8.80419 5.91377 8.95793Z" fill="white"/>
<path d="M6.77276 6.37221C6.77276 6.37221 5.52627 5.2495 6.47397 5.03733C7.42167 4.82516 7.65394 5.86346 7.65394 5.86346C7.65394 5.86346 8.02011 4.53545 8.94255 4.95201C9.86504 5.36845 8.89224 6.20928 8.89224 6.20928C8.89224 6.20928 10.8539 6.08171 10.2302 6.99998C9.60652 7.9183 9.12456 7.24746 9.12456 7.24746C9.12456 7.24746 9.9304 8.62452 9.10749 8.65307C8.28463 8.68151 8.08542 7.79163 8.08542 7.79163C8.08542 7.79163 7.53625 9.78361 6.89639 9.14808C6.25653 8.51255 7.00503 7.4105 7.00503 7.4105C7.00503 7.4105 5.96789 7.9882 5.7551 7.39581C5.54242 6.80346 5.75871 6.28773 6.77276 6.37221Z" fill="#E66EB0"/>
<path d="M8.29756 6.90202C8.23337 7.05576 8.05673 7.12835 7.90299 7.06417C7.74924 6.99998 7.67666 6.82334 7.74084 6.66959C7.80503 6.51585 7.98167 6.44326 8.13541 6.50745C8.28916 6.57164 8.36175 6.74828 8.29756 6.90202Z" fill="white"/>
<path d="M7.25069 9.43736C7.25069 9.43736 5.97281 9.42948 6.40478 8.8289C6.83674 8.22833 7.49468 8.70162 7.49468 8.70162C7.49468 8.70162 7.03073 7.76038 7.76658 7.53038C8.50243 7.30038 8.37455 8.27135 8.37455 8.27135C8.37455 8.27135 9.42641 7.20548 9.53647 8.04393C9.64653 8.88239 9.03254 8.74453 9.03254 8.74453C9.03254 8.74453 10.1884 9.12034 9.73448 9.55314C9.28056 9.98594 8.71653 9.5804 8.71653 9.5804C8.71653 9.5804 9.41257 10.9922 8.72657 10.9544C8.04068 10.9168 7.90867 9.91054 7.90867 9.91054C7.90867 9.91054 7.6109 10.7645 7.18989 10.5351C6.76875 10.3056 6.63068 9.90261 7.25069 9.43736Z" fill="#BF0D3D"/>
<path d="M8.58199 9.09135C8.5178 9.2451 8.34116 9.31768 8.18741 9.2535C8.03367 9.18931 7.96108 9.01267 8.02527 8.85893C8.08945 8.70518 8.2661 8.63259 8.41984 8.69678C8.57358 8.76097 8.64617 8.93761 8.58199 9.09135Z" fill="white"/>
<path d="M5.01747 12.7919C5.01747 12.7919 3.23749 12.7808 3.83923 11.9444C4.44086 11.1079 5.35732 11.7671 5.35732 11.7671C5.35732 11.7671 4.71106 10.4561 5.7361 10.1357C6.76113 9.81524 6.58291 11.1678 6.58291 11.1678C6.58291 11.1678 8.04806 9.68318 8.20131 10.851C8.35451 12.0189 7.49942 11.8268 7.49942 11.8268C7.49942 11.8268 9.1095 12.3502 8.47722 12.9532C7.84498 13.5561 7.05938 12.9912 7.05938 12.9912C7.05938 12.9912 8.02879 14.9576 7.07341 14.905C6.11802 14.8525 5.93409 13.451 5.93409 13.451C5.93409 13.451 5.51928 14.6405 4.93288 14.3209C4.34614 14.0014 4.1539 13.4401 5.01747 12.7919Z" fill="#E66EB0"/>
<path d="M6.7393 12.4615C6.63231 12.7178 6.33796 12.8388 6.08168 12.7318C5.82552 12.6248 5.70444 12.3304 5.81144 12.0742C5.91838 11.818 6.2129 11.697 6.46906 11.8039C6.72534 11.9109 6.84625 12.2054 6.7393 12.4615Z" fill="white"/>
</svg>
