<svg width="24" height="24" viewBox="0 0 24 24" fill="none" xmlns="http://www.w3.org/2000/svg">
<path d="M4.37878 13.9967C4.37878 13.9967 21.1917 21.4994 21.7925 21.4873C22.3934 21.4753 23.1106 20.0663 22.9856 19.8284C22.8607 19.5906 10.8906 5.35474 10.8906 5.35474C10.8906 5.35474 7.58319 8.30621 4.37878 13.9967Z" fill="#E66EB0"/>
<path d="M10.4816 15.6406C11.8036 14.7755 12.8906 13.5923 13.7062 12.2435C14.1395 11.5268 14.4927 10.7625 14.7675 9.97087C12.6184 7.40993 10.8906 5.35474 10.8906 5.35474C10.8906 5.35474 7.58319 8.30621 4.37878 13.9967C4.37878 13.9967 6.58283 14.9806 9.42299 16.2347C9.78796 16.0598 10.1422 15.8626 10.4816 15.6406Z" fill="#F2D6CC"/>
<path d="M22.9856 19.8284C22.9217 19.7067 19.7602 15.9247 16.6858 12.2576C16.5441 12.5744 16.3948 12.8879 16.2354 13.1963C15.555 14.5127 14.6927 15.7111 13.6241 16.7401C13.2973 17.0546 12.9541 17.3502 12.6006 17.6329C16.9608 19.5443 21.4861 21.4935 21.7925 21.4873C22.3934 21.4753 23.1106 20.0663 22.9856 19.8284Z" fill="#F2D6CC"/>
<path d="M8.20267 6.23973C8.20267 6.23973 5.99807 6.22606 6.74336 5.19009C7.48851 4.15406 8.6236 4.97046 8.6236 4.97046C8.6236 4.97046 7.82318 3.34672 9.09274 2.94986C10.3623 2.55299 10.1416 4.2282 10.1416 4.2282C10.1416 4.2282 11.9562 2.38943 12.146 3.83594C12.3357 5.28244 11.2767 5.0446 11.2767 5.0446C11.2767 5.0446 13.2708 5.69283 12.4876 6.43963C11.7045 7.18635 10.7315 6.48664 10.7315 6.48664C10.7315 6.48664 11.9322 8.92217 10.7489 8.85709C9.56557 8.79201 9.33776 7.05613 9.33776 7.05613C9.33776 7.05613 8.82399 8.52939 8.0977 8.13358C7.37126 7.73771 7.1331 7.04261 8.20267 6.23973Z" fill="#BF0D3D"/>
<path d="M9.92567 6.33357C10.243 6.46606 10.6077 6.3162 10.7402 5.99886C10.8727 5.68151 10.7228 5.31685 10.4055 5.18436C10.0881 5.05187 9.72345 5.20172 9.59096 5.51907C9.45847 5.83641 9.60833 6.20108 9.92567 6.33357Z" fill="white"/>
<path d="M2.43487 7.36464C2.43487 7.36464 0.796828 5.88917 2.04216 5.61048C3.28756 5.33165 3.59289 6.69607 3.59289 6.69607C3.59289 6.69607 4.07412 4.95093 5.28637 5.49821C6.49878 6.04555 5.22024 7.1505 5.22024 7.1505C5.22024 7.1505 7.79814 6.9828 6.97858 8.18969C6.15903 9.39657 5.52571 8.51498 5.52571 8.51498C5.52571 8.51498 6.58481 10.3248 5.50327 10.3621C4.42186 10.3996 4.16001 9.23009 4.16001 9.23009C4.16001 9.23009 3.43832 11.8479 2.59738 11.0127C1.75659 10.1775 2.74014 8.72921 2.74014 8.72921C2.74014 8.72921 1.37717 9.48852 1.09748 8.70997C0.818065 7.9312 1.1023 7.25365 2.43487 7.36464Z" fill="#BF0D3D"/>
<path d="M4.02358 8.18723C3.94408 8.37765 3.7253 8.46755 3.53488 8.38805C3.34446 8.30855 3.25455 8.08977 3.33405 7.89935C3.41355 7.70893 3.63233 7.61903 3.82275 7.69853C4.01317 7.77803 4.10307 7.99681 4.02358 8.18723Z" fill="white"/>
<path d="M5.08746 4.98477C5.08746 4.98477 3.54362 3.59423 4.7174 3.33145C5.89118 3.06867 6.17886 4.35466 6.17886 4.35466C6.17886 4.35466 6.63238 2.70985 7.77487 3.22578C8.91743 3.74157 7.71257 4.78297 7.71257 4.78297C7.71257 4.78297 10.1422 4.62497 9.36966 5.7623C8.59723 6.89969 8.00031 6.06882 8.00031 6.06882C8.00031 6.06882 8.99838 7.77438 7.97916 7.80975C6.96 7.84497 6.71327 6.74281 6.71327 6.74281C6.71327 6.74281 6.03309 9.20998 5.24059 8.42284C4.44809 7.63571 5.37514 6.27076 5.37514 6.27076C5.37514 6.27076 4.09059 6.98627 3.82703 6.25256C3.56363 5.5189 3.83151 4.88014 5.08746 4.98477Z" fill="#E66EB0"/>
<path d="M6.976 5.64098C6.8965 5.8314 6.67772 5.9213 6.4873 5.8418C6.29688 5.76231 6.20697 5.54352 6.28647 5.3531C6.36597 5.16268 6.58475 5.07278 6.77517 5.15228C6.96559 5.23178 7.05549 5.45056 6.976 5.64098Z" fill="white"/>
<path d="M5.67951 8.78117C5.67951 8.78117 4.09679 8.77141 4.6318 8.02756C5.16682 7.28372 5.98171 7.86992 5.98171 7.86992C5.98171 7.86992 5.40708 6.70414 6.31847 6.41927C7.22986 6.13441 7.07148 7.33701 7.07148 7.33701C7.07148 7.33701 8.37426 6.01686 8.51058 7.05534C8.6469 8.09381 7.88644 7.92306 7.88644 7.92306C7.88644 7.92306 9.31802 8.38852 8.75582 8.92457C8.19362 9.46062 7.49504 8.95834 7.49504 8.95834C7.49504 8.95834 8.35712 10.7069 7.50747 10.6602C6.65797 10.6135 6.49446 9.36723 6.49446 9.36723C6.49446 9.36723 6.12566 10.4249 5.60421 10.1408C5.08261 9.85655 4.9116 9.35741 5.67951 8.78117Z" fill="#BF0D3D"/>
<path d="M7.32842 8.35262C7.24892 8.54304 7.03014 8.63295 6.83972 8.55345C6.6493 8.47395 6.55939 8.25517 6.63889 8.06475C6.71839 7.87433 6.93717 7.78442 7.12759 7.86392C7.31801 7.94342 7.40792 8.1622 7.32842 8.35262Z" fill="white"/>
<path d="M2.91345 12.936C2.91345 12.936 0.708845 12.9223 1.45414 11.8863C2.19929 10.8503 3.33438 11.6667 3.33438 11.6667C3.33438 11.6667 2.53395 10.0429 3.80351 9.64608C5.07308 9.24922 4.85234 10.9244 4.85234 10.9244C4.85234 10.9244 6.667 9.08566 6.85681 10.532C7.04656 11.9785 5.98749 11.7407 5.98749 11.7407C5.98749 11.7407 7.98166 12.3889 7.19854 13.1358C6.41549 13.8825 5.44248 13.1828 5.44248 13.1828C5.44248 13.1828 6.64314 15.6183 5.45984 15.5532C4.27654 15.4882 4.04874 13.7523 4.04874 13.7523C4.04874 13.7523 3.53497 15.2255 2.80868 14.8297C2.08198 14.4341 1.84387 13.7388 2.91345 12.936Z" fill="#E66EB0"/>
<path d="M5.04606 12.5268C4.91354 12.8442 4.54897 12.994 4.23156 12.8615C3.91429 12.729 3.76433 12.3644 3.89685 12.047C4.02931 11.7297 4.39408 11.5798 4.71135 11.7123C5.02876 11.8448 5.17852 12.2095 5.04606 12.5268Z" fill="white"/>
</svg>
