<svg width="24" height="24" viewBox="0 0 24 24" fill="none" xmlns="http://www.w3.org/2000/svg">
<path d="M11.0708 13.0823V20.7268L4.22412 16.7512C4.18498 16.7286 4.1608 16.6863 4.16064 16.6409V9.06958L11.0708 13.0823ZM18.7485 16.6399C18.7485 16.6854 18.7167 16.7283 18.6772 16.7512L11.8384 20.718V13.0784L15.5024 10.9583C15.512 10.9533 15.5341 10.9473 15.5435 10.9417L18.7485 9.07446V16.6399ZM14.5845 10.6165L11.4868 12.4153L4.53564 8.37817L7.62939 6.5813L14.5845 10.6165ZM11.4194 4.3811C11.459 4.35806 11.5084 4.3578 11.5483 4.3811L18.4233 8.38696L15.3491 10.1731L8.39404 6.13794L11.4194 4.3811Z" fill="white"/>
</svg>
