<svg width="24" height="24" viewBox="0 0 24 24" fill="none" xmlns="http://www.w3.org/2000/svg">
<path d="M10.938 13.2677V23.546L1.73389 18.1993C1.68108 18.1689 1.64795 18.1122 1.64795 18.0509V7.87219L10.938 13.2677ZM21.2612 18.0509C21.2612 18.1122 21.2177 18.1695 21.1646 18.2003L11.9712 23.5343V13.2618L16.897 10.4113C16.91 10.4046 16.9403 10.3965 16.9526 10.3888L21.2612 7.87903V18.0509ZM15.6626 9.95227L11.4985 12.3712L2.15186 6.94348L6.31201 4.52649L15.6626 9.95227ZM11.4067 1.56848C11.4597 1.53759 11.526 1.53742 11.5796 1.56848L20.8237 6.9552L16.6909 9.35559L7.34033 3.92981L11.4067 1.56848Z" fill="#73296D"/>
</svg>
