<svg width="24" height="24" viewBox="0 0 24 24" fill="none" xmlns="http://www.w3.org/2000/svg">
<path d="M9.64072 8.93712C9.52024 8.78954 9.33463 8.71263 9.14452 8.72962C8.95533 8.74751 8.78666 8.85931 8.69654 9.02746L2.25053 20.9739C2.13452 21.1886 2.16754 21.4533 2.33263 21.6331C2.44329 21.7538 2.59678 21.8182 2.75387 21.8182C2.83062 21.8182 2.90826 21.803 2.98143 21.7708L14.9292 16.5566C15.0934 16.485 15.2148 16.3402 15.2567 16.1666C15.2987 15.9922 15.2567 15.808 15.1434 15.6694L9.64072 8.93712Z" fill="#F68D6D"/>
<path d="M15.7942 13.4092C17.2557 13.3307 18.7458 13.9813 19.7854 15.1465C20.0003 15.3868 20.0018 15.7793 19.7903 16.0234C19.6829 16.1455 19.5423 16.208 19.4016 16.208C19.2627 16.2079 19.1244 16.1484 19.0178 16.0293C18.1906 15.1033 17.0037 14.5884 15.844 14.6484C15.5421 14.6659 15.2873 14.3996 15.2737 14.0576C15.2594 13.7158 15.4923 13.4257 15.7932 13.4102L15.7942 13.4092ZM19.9485 13.4033C19.9485 12.1561 21.8186 12.1561 21.8186 13.4033C21.8182 14.6491 19.9489 14.6491 19.9485 13.4033ZM13.9846 9.66406C14.1406 9.67705 14.2854 9.75204 14.387 9.87109L15.1321 10.748C15.2337 10.8672 15.2836 11.0226 15.2708 11.1787C15.2578 11.3349 15.1829 11.4804 15.0637 11.582L14.1868 12.3271C14.0759 12.4214 13.9389 12.4678 13.804 12.4678C13.6368 12.4677 13.4701 12.3965 13.3528 12.2588L12.6086 11.3818C12.397 11.1332 12.4274 10.7595 12.676 10.5479L13.553 9.80273C13.6722 9.70113 13.8284 9.65205 13.9836 9.66406H13.9846ZM17.5413 9.79785C18.5709 9.43409 19.6861 9.35464 20.7659 9.56934C21.015 9.61871 21.178 9.85583 21.1301 10.0986C21.0834 10.3425 20.8429 10.4981 20.594 10.4482C19.6793 10.2662 18.7346 10.3334 17.8625 10.6416C17.6252 10.7258 17.3611 10.6046 17.2717 10.3721H17.2727C17.2383 10.2818 17.2361 10.1873 17.259 10.1016C17.2955 9.96588 17.396 9.84944 17.5413 9.79785ZM9.84106 4.21094C10.0902 4.00918 10.5117 3.99781 10.7795 4.18555C11.5198 4.7038 12.0637 5.39461 12.3098 6.13184C12.5569 6.86905 12.5119 7.67105 12.1848 8.38965C12.0903 8.59693 11.8321 8.72754 11.5559 8.72754C11.4843 8.72753 11.4116 8.71986 11.3411 8.70117C10.9934 8.61236 10.8089 8.32858 10.927 8.06836C11.172 7.52983 11.2055 6.92756 11.0208 6.375L11.0217 6.37402C10.8369 5.82231 10.4297 5.30312 9.87427 4.91504C9.60538 4.72801 9.59084 4.41201 9.84106 4.21094ZM15.7893 4.05273C16.0363 4.06926 16.223 4.28855 16.2063 4.54199C16.1342 5.64057 15.7695 6.69718 15.1516 7.59766C15.0641 7.72476 14.9251 7.79199 14.7844 7.79199C14.6957 7.79191 14.6058 7.7646 14.5276 7.70801V7.70996C14.3262 7.56355 14.2767 7.27684 14.4192 7.06934C14.9425 6.30686 15.2518 5.41195 15.3127 4.48145C15.3288 4.2281 15.5418 4.03503 15.7893 4.05273ZM19.4807 6.85742C19.7387 6.8575 19.9482 7.06626 19.9485 7.32422C19.9485 7.58238 19.7389 7.79191 19.4807 7.79199H18.5452C18.2871 7.79181 18.0784 7.58232 18.0784 7.32422C18.0786 7.06633 18.2873 6.8576 18.5452 6.85742H19.4807ZM13.4026 2.18164C13.9182 2.18164 14.3381 2.60157 14.3381 3.11719C14.338 3.63268 13.9181 4.05176 13.4026 4.05176C12.8871 4.05174 12.4682 3.63265 12.468 3.11719C12.468 2.60156 12.887 2.18166 13.4026 2.18164Z" fill="#C7404F"/>
</svg>
