<svg width="24" height="24" viewBox="0 0 24 24" fill="none" xmlns="http://www.w3.org/2000/svg">
<path d="M9.35674 8.56852C9.22177 8.40318 9.01381 8.31701 8.80083 8.33605C8.58887 8.35609 8.3999 8.48134 8.29893 8.66973L1.07717 22.0539C0.947189 22.2944 0.984182 22.591 1.16915 22.7924C1.29313 22.9277 1.46508 22.9998 1.64108 22.9998C1.72706 22.9998 1.81405 22.9828 1.89603 22.9467L15.2817 17.105C15.4657 17.0248 15.6016 16.8625 15.6486 16.6681C15.6956 16.4727 15.6486 16.2663 15.5217 16.111L9.35674 8.56852Z" fill="#F68D6D"/>
<path d="M16.2507 13.5788C17.8881 13.4909 19.5576 14.2197 20.7222 15.5252C20.963 15.7944 20.9646 16.2342 20.7277 16.5077C20.6073 16.6444 20.4499 16.7145 20.2923 16.7145C20.1366 16.7144 19.9816 16.6477 19.8623 16.5142C18.9355 15.4768 17.6058 14.8999 16.3065 14.9672C15.9683 14.9867 15.6828 14.6884 15.6675 14.3053C15.6515 13.9223 15.9125 13.5973 16.2496 13.5799L16.2507 13.5788Z" fill="#C7404F"/>
<path d="M20.9049 13.5722C20.9049 12.1749 23.0001 12.1749 23.0001 13.5722C22.9997 14.968 20.9054 14.968 20.9049 13.5722Z" fill="#C7404F"/>
<path d="M14.2233 9.38297C14.3981 9.39752 14.5603 9.48153 14.6741 9.61492L15.5089 10.5974C15.6227 10.7309 15.6786 10.905 15.6643 11.0799C15.6498 11.2549 15.5659 11.4179 15.4323 11.5318L14.4498 12.3666C14.3256 12.4722 14.1721 12.5241 14.0209 12.5241C13.8336 12.524 13.6469 12.4442 13.5155 12.29L12.6818 11.3075C12.4447 11.0289 12.4787 10.6103 12.7573 10.3731L13.7398 9.53833C13.8733 9.4245 14.0495 9.36951 14.2233 9.38297Z" fill="#C7404F"/>
<path d="M18.208 9.53286C19.3616 9.12532 20.611 9.03631 21.8207 9.27684C22.0998 9.33216 22.2824 9.59782 22.2288 9.86984C22.1764 10.143 21.907 10.3174 21.6281 10.2615C20.6034 10.0576 19.545 10.1329 18.568 10.4782C18.302 10.5724 18.0062 10.4367 17.906 10.1762C17.8675 10.075 17.8661 9.96919 17.8918 9.87312C17.9327 9.72112 18.0453 9.59066 18.208 9.53286Z" fill="#C7404F"/>
<path d="M9.58112 3.27358C9.86025 3.04754 10.3325 3.0348 10.6325 3.24513C11.4619 3.82576 12.0713 4.5997 12.347 5.42565C12.6238 6.25158 12.5734 7.15011 12.2069 7.95519C12.101 8.18741 11.8117 8.33374 11.5023 8.33374C11.4221 8.33373 11.3407 8.32513 11.2616 8.3042C10.8721 8.2047 10.6655 7.88677 10.7977 7.59523C11.0723 6.99189 11.1098 6.31714 10.9028 5.69808L10.9039 5.69699C10.6968 5.07888 10.2406 4.4972 9.61832 4.06242C9.31707 3.85287 9.30079 3.49885 9.58112 3.27358Z" fill="#C7404F"/>
<path d="M16.2452 3.09634C16.5219 3.11485 16.7311 3.36053 16.7124 3.64447C16.6317 4.87526 16.223 6.05903 15.5308 7.06788C15.4328 7.21028 15.277 7.2856 15.1194 7.2856C15.02 7.28551 14.9193 7.25491 14.8317 7.19151V7.1937C14.606 7.02967 14.5506 6.70845 14.7102 6.47598C15.2966 5.62173 15.643 4.61913 15.7113 3.57664C15.7293 3.29281 15.9679 3.0765 16.2452 3.09634Z" fill="#C7404F"/>
<path d="M20.3809 6.23856C20.6699 6.23865 20.9047 6.47254 20.9049 6.76153C20.9049 7.05076 20.6701 7.28551 20.3809 7.2856H19.3327C19.0436 7.2854 18.8098 7.0507 18.8098 6.76153C18.81 6.47261 19.0438 6.23876 19.3327 6.23856H20.3809Z" fill="#C7404F"/>
<path d="M13.5713 1.00006C14.149 1.00006 14.6194 1.47053 14.6194 2.0482C14.6192 2.62573 14.1488 3.09524 13.5713 3.09524C12.9937 3.09522 12.5244 2.62569 12.5242 2.0482C12.5242 1.47052 12.9936 1.00008 13.5713 1.00006Z" fill="#C7404F"/>
</svg>
