<svg width="24" height="24" viewBox="0 0 24 24" fill="none" xmlns="http://www.w3.org/2000/svg">
<path d="M8.66027 9.77102C8.53654 9.61946 8.34591 9.54046 8.15067 9.55792C7.95637 9.57629 7.78314 9.69111 7.69058 9.8638L1.07038 22.1331C0.951232 22.3535 0.985144 22.6254 1.1547 22.8101C1.26835 22.9341 1.42599 23.0002 1.58732 23.0002C1.66614 23.0002 1.74588 22.9846 1.82104 22.9515L14.0917 17.5964C14.2603 17.5229 14.385 17.3741 14.4281 17.1959C14.4711 17.0168 14.4281 16.8276 14.3117 16.6852L8.66027 9.77102Z" fill="white"/>
<path d="M16.2512 13.5788C17.8888 13.4909 19.5581 14.2206 20.7229 15.5264C20.9634 15.7956 20.9651 16.2344 20.7283 16.5078C20.608 16.6446 20.4505 16.7146 20.2929 16.7146C20.1371 16.7146 19.9823 16.6479 19.8629 16.5144C18.9362 15.4769 17.6062 14.9001 16.307 14.9673C15.9687 14.9868 15.6822 14.6885 15.6669 14.3053C15.6509 13.9226 15.912 13.5975 16.249 13.5799L16.2512 13.5788Z" fill="#F58C6E"/>
<path d="M20.9045 13.5723C20.9045 12.1749 22.9998 12.1749 22.9998 13.5723C22.9993 14.9681 20.9049 14.9681 20.9045 13.5723Z" fill="#F58C6E"/>
<path d="M14.2237 9.38286C14.3985 9.39748 14.5608 9.48141 14.6745 9.61481L15.5093 10.5973C15.6231 10.7308 15.6791 10.905 15.6647 11.0799C15.6502 11.2548 15.5662 11.4178 15.4328 11.5317L14.4502 12.3665C14.326 12.4722 14.1725 12.5241 14.0213 12.5241C13.8339 12.5241 13.6473 12.4443 13.5158 12.29L12.681 11.3074C12.4439 11.0289 12.4791 10.6102 12.7576 10.373L13.7401 9.53822C13.8737 9.42447 14.0499 9.3694 14.2237 9.38286Z" fill="#F58C6E"/>
<path d="M18.2086 9.53275C19.3622 9.1252 20.6116 9.03616 21.8214 9.27672C22.1004 9.3321 22.283 9.59777 22.2295 9.86974C22.1771 10.143 21.9067 10.3175 21.6277 10.2614C20.6031 10.0576 19.5454 10.1329 18.5685 10.4781C18.3026 10.5724 18.0068 10.4365 17.9066 10.1761C17.868 10.0749 17.8655 9.96913 17.8913 9.87302C17.9321 9.72086 18.0457 9.59054 18.2086 9.53275Z" fill="#F58C6E"/>
<path d="M9.58135 3.27324C9.86055 3.04731 10.3328 3.03442 10.6328 3.24479C11.4621 3.82544 12.0716 4.59942 12.3473 5.42539C12.6241 6.25132 12.5737 7.14994 12.2073 7.95502C12.1014 8.18726 11.812 8.33355 11.5026 8.33358C11.4225 8.33358 11.3409 8.32495 11.2619 8.30404C10.8723 8.20452 10.6656 7.88665 10.798 7.59505C11.0726 6.99167 11.109 6.31692 10.902 5.69783L10.9031 5.69673C10.6959 5.07876 10.2406 4.49682 9.61855 4.0621C9.31726 3.85256 9.301 3.49852 9.58135 3.27324Z" fill="#F58C6E"/>
<path d="M16.2457 3.09599C16.5224 3.1145 16.7316 3.36023 16.7129 3.64415C16.6321 4.87491 16.2234 6.05883 15.5312 7.06768C15.4332 7.21008 15.2774 7.28541 15.1198 7.28541C15.0203 7.28537 14.9187 7.25484 14.831 7.19131V7.1935C14.6054 7.02938 14.5509 6.70819 14.7106 6.47575C15.297 5.62145 15.6435 4.61887 15.7118 3.57631C15.7298 3.29238 15.9682 3.07599 16.2457 3.09599Z" fill="#F58C6E"/>
<path d="M20.3815 6.23833C20.6704 6.2386 20.9042 6.47243 20.9045 6.76132C20.9045 7.05045 20.6706 7.28513 20.3815 7.28541H18.8092C18.8094 6.70692 19.2789 6.23833 19.8574 6.23833H20.3815Z" fill="#F58C6E"/>
<path d="M13.5716 0.999634C14.1492 0.99976 14.6187 1.4702 14.6187 2.04781C14.6185 2.62529 14.1491 3.09477 13.5716 3.09489C12.994 3.09489 12.5236 2.62534 12.5235 2.04781C12.5235 1.4701 12.9939 0.999634 13.5716 0.999634Z" fill="#F58C6E"/>
</svg>
