<svg width="24" height="24" viewBox="0 0 24 24" fill="none" xmlns="http://www.w3.org/2000/svg">
<path d="M13.9424 18.2129C13.9424 18.4898 13.2504 19.1462 12.3105 19.3535C12.2538 19.3655 12.3572 19.3714 12.3574 19.4932C12.3574 20.0641 10.8112 20.0732 10.8105 19.4922C10.8105 19.3692 10.9279 19.3656 10.8711 19.3535C9.93115 19.1462 9.24414 18.4907 9.24414 18.2129H13.9424ZM13.9434 17.8955H9.24316L9.25684 16.9395L13.9258 16.9121L13.9434 17.8955ZM13.9258 16.5938L9.25684 16.6211L9.24316 15.6094H13.9434L13.9258 16.5938ZM11.5928 3.27246C14.3801 3.27246 16.6405 5.53296 16.6406 8.32031C16.6406 11.2435 14.2427 10.9472 13.9434 15.291H11.8311V10.0732L13.1182 9.00879L12.8145 8.6416L11.5928 9.65137L10.3721 8.6416L10.0684 9.00879L11.3545 10.0732V15.291H9.24316C8.94388 10.9481 6.5459 11.2435 6.5459 8.32031C6.54598 5.5331 8.8056 3.27268 11.5928 3.27246ZM10.5234 4.57715C9.88789 4.57715 9.31274 4.83573 8.89648 5.25195C8.48024 5.6682 8.2217 6.24335 8.22168 6.87891H8.69922C8.69924 6.37494 8.90316 5.91911 9.2334 5.58887C9.56365 5.25864 10.0195 5.05469 10.5234 5.05469V4.57715Z" fill="white"/>
</svg>
