<svg width="24" height="24" viewBox="0 0 24 24" fill="none" xmlns="http://www.w3.org/2000/svg">
<path d="M14.6974 20.3369C14.6974 20.7027 13.7821 21.5699 12.5402 21.8437C12.4658 21.8596 12.6027 21.8681 12.6027 22.0292C12.6023 22.7835 10.5587 22.7943 10.5587 22.0263C10.559 21.8644 10.7142 21.8595 10.6398 21.8437C9.39785 21.5698 8.48938 20.7039 8.48938 20.3369H14.6974ZM14.6974 19.9179H8.48938L8.50598 18.6542L14.6749 18.6181L14.6974 19.9179ZM14.6749 18.1972L8.50598 18.2343L8.48938 16.8974H14.6974L14.6749 18.1972ZM11.5929 0.598572C15.2754 0.598572 18.2618 3.58499 18.2618 7.26752C18.2618 11.1295 15.093 10.7379 14.6974 16.4765H11.9083V9.58295L13.6075 8.1767L13.2072 7.69135L11.5929 9.02631L9.97961 7.69135L9.57825 8.1767L11.2784 9.58295V16.4765H8.48938C8.09394 10.739 4.92493 11.1295 4.92493 7.26752C4.92498 3.58511 7.91052 0.598771 11.5929 0.598572ZM10.1798 2.3222C9.34015 2.32223 8.58032 2.66388 8.0304 3.21381C7.48048 3.76375 7.13879 4.52355 7.13879 5.36322H7.76965C7.76966 4.69738 8.03941 4.09544 8.47571 3.65912C8.91201 3.22281 9.51398 2.95309 10.1798 2.95306V2.3222Z" fill="white"/>
</svg>
