<svg width="24" height="24" viewBox="0 0 24 24" fill="none" xmlns="http://www.w3.org/2000/svg">
<path d="M14.1711 10.8621H13.0855V5.55172H13.4474C14.1191 5.55172 14.7634 5.83146 15.2384 6.32941C15.7134 6.82735 15.9803 7.5027 15.9803 8.2069C15.9803 8.50869 16.0946 8.79813 16.2982 9.01154C16.5018 9.22494 16.7779 9.34483 17.0658 9.34483C17.3537 9.34483 17.6298 9.22494 17.8334 9.01154C18.0369 8.79813 18.1513 8.50869 18.1513 8.2069C18.1499 6.89957 17.6538 5.64621 16.772 4.72179C15.8901 3.79737 14.6945 3.27737 13.4474 3.27586H13.0855V2.13793C13.0855 1.83613 12.9712 1.5467 12.7676 1.33329C12.564 1.11989 12.2879 1 12 1C11.7121 1 11.436 1.11989 11.2324 1.33329C11.0288 1.5467 10.9145 1.83613 10.9145 2.13793V3.27586H10.5526C9.30507 3.27586 8.1086 3.79538 7.22644 4.72013C6.34428 5.64488 5.84868 6.8991 5.84868 8.2069C5.84868 9.51469 6.34428 10.7689 7.22644 11.6937C8.1086 12.6184 9.30507 13.1379 10.5526 13.1379H10.9145V18.4483H9.82895C9.15718 18.4483 8.51293 18.1685 8.03792 17.6706C7.56291 17.1727 7.29605 16.4973 7.29605 15.7931C7.29605 15.4913 7.18169 15.2019 6.97811 14.9885C6.77453 14.7751 6.49843 14.6552 6.21053 14.6552C5.92263 14.6552 5.64652 14.7751 5.44294 14.9885C5.23937 15.2019 5.125 15.4913 5.125 15.7931C5.12644 17.1004 5.62249 18.3538 6.50434 19.2782C7.38619 20.2026 8.58182 20.7226 9.82895 20.7241H10.9145V21.8621C10.9145 22.1639 11.0288 22.4533 11.2324 22.6667C11.436 22.8801 11.7121 23 12 23C12.2879 23 12.564 22.8801 12.7676 22.6667C12.9712 22.4533 13.0855 22.1639 13.0855 21.8621V20.7241H14.1711C15.4186 20.7241 16.6151 20.2046 17.4972 19.2799C18.3794 18.3551 18.875 17.1009 18.875 15.7931C18.875 14.4853 18.3794 13.2311 17.4972 12.3063C16.6151 11.3816 15.4186 10.8621 14.1711 10.8621ZM10.5526 10.8621C9.88087 10.8621 9.23661 10.5823 8.7616 10.0844C8.28659 9.58644 8.01974 8.91109 8.01974 8.2069C8.01974 7.5027 8.28659 6.82735 8.7616 6.32941C9.23661 5.83146 9.88087 5.55172 10.5526 5.55172H10.9145V10.8621H10.5526ZM14.1711 18.4483H13.0855V13.1379H14.1711C14.8428 13.1379 15.4871 13.4177 15.9621 13.9156C16.4371 14.4136 16.7039 15.0889 16.7039 15.7931C16.7039 16.4973 16.4371 17.1727 15.9621 17.6706C15.4871 18.1685 14.8428 18.4483 14.1711 18.4483Z" fill="white"/>
</svg>
