<svg width="24" height="24" viewBox="0 0 24 24" fill="none" xmlns="http://www.w3.org/2000/svg">
<path d="M11.3192 17C12.1483 17 12.8209 17.6633 12.8212 18.4814C12.8212 19.2998 12.1484 19.9639 11.3192 19.9639C10.4902 19.9637 9.81824 19.2997 9.81824 18.4814C9.81846 17.6634 10.4903 17.0002 11.3192 17ZM11.2714 3.27246C14.0103 3.30237 16.2462 5.44757 16.3602 8.15625C16.4373 10.3657 15.0431 12.3632 12.9276 13.0732C12.8891 13.0865 12.7899 13.1381 12.7899 13.2012V14.3818C12.7899 15.2029 12.1177 15.868 11.288 15.8682C10.4598 15.8682 9.78601 15.203 9.78601 14.3818V13.2139C9.80121 11.8804 10.6724 10.7029 11.953 10.2881C12.8297 9.99786 13.4079 9.1717 13.3778 8.25781C13.3191 7.14142 12.3942 6.26005 11.2626 6.24512C10.4679 6.24513 9.74185 6.69147 9.39148 7.39648C9.22216 7.75308 8.9173 8.0284 8.54187 8.16113C8.16816 8.29379 7.75405 8.2742 7.39539 8.10352C7.03661 7.93433 6.75955 7.62841 6.62878 7.25684C6.49821 6.88381 6.52201 6.47619 6.69617 6.12305C7.53278 4.38793 9.2998 3.2791 11.2411 3.27246H11.2714Z" fill="#1A5961"/>
</svg>
