<svg width="24" height="24" viewBox="0 0 24 24" fill="none" xmlns="http://www.w3.org/2000/svg">
<path d="M11.2931 18.0674C12.2865 18.0675 13.0919 18.8623 13.0919 19.8428C13.0917 20.8231 12.2864 21.618 11.2931 21.6182C10.2997 21.6182 9.49446 20.8232 9.49426 19.8428C9.49426 18.8622 10.2995 18.0674 11.2931 18.0674ZM11.2345 1.61816C14.5164 1.65378 17.1963 4.22411 17.3331 7.46973C17.4255 10.1172 15.7539 12.5106 13.2189 13.3613C13.1725 13.3774 13.0548 13.4393 13.0548 13.5146V14.9297C13.0548 15.9135 12.2492 16.7108 11.255 16.7109C10.2627 16.7109 9.4552 15.9136 9.4552 14.9297V13.5303C9.47336 11.9324 10.5174 10.5214 12.0519 10.0244C13.1023 9.67667 13.7958 8.68679 13.7599 7.5918C13.6896 6.25416 12.5806 5.19862 11.2247 5.18066C10.2726 5.18066 9.40237 5.71481 8.98254 6.55957C8.77963 6.98692 8.41395 7.31657 7.96399 7.47559C7.51609 7.63451 7.01977 7.61094 6.58997 7.40625C6.16029 7.20349 5.82862 6.83765 5.672 6.39258C5.51543 5.94544 5.54419 5.45648 5.75305 5.0332C6.75551 2.95426 8.87237 1.62617 11.1984 1.61816H11.2345Z" fill="#1A5961"/>
</svg>
