<svg width="24" height="24" viewBox="0 0 24 24" fill="none" xmlns="http://www.w3.org/2000/svg">
<path fill-rule="evenodd" clip-rule="evenodd" d="M6.01501 19.7047H5.22793C4.52386 19.7047 3.84849 19.437 3.34938 18.9603C2.85131 18.4837 2.57153 17.8364 2.57153 17.1626V3.54208C2.57153 2.86831 2.85131 2.22103 3.34938 1.74538C3.84847 1.26777 4.52386 1 5.22793 1H15.3288C16.0329 1 16.7082 1.26774 17.2074 1.74538C17.7054 2.22103 17.9852 2.86834 17.9852 3.54208V4.29529H18.7723C19.4763 4.29529 20.1517 4.56303 20.6508 5.03966C21.1489 5.51727 21.4287 6.16262 21.4287 6.83738V20.4579C21.4287 21.1327 21.1489 21.778 20.6508 22.2556C20.1517 22.7323 19.4763 23 18.7723 23H8.67141C7.96734 23 7.29197 22.7323 6.79286 22.2556C6.29479 21.778 6.01501 21.1327 6.01501 20.4579V19.7047ZM7.65476 19.7047V20.4579C7.65476 20.7158 7.76237 20.963 7.95299 21.1454C8.14361 21.3288 8.40186 21.4308 8.67141 21.4308H18.7723C19.0418 21.4308 19.3001 21.3288 19.4907 21.1454C19.6813 20.963 19.7889 20.7159 19.7889 20.4579V6.83738C19.7889 6.57945 19.6813 6.3323 19.4907 6.14987C19.3001 5.96647 19.0418 5.86448 18.7723 5.86448H17.9852V17.1626C17.9852 17.8364 17.7054 18.4837 17.2074 18.9603C16.7083 19.437 16.0329 19.7047 15.3288 19.7047H7.65476ZM6.14619 6.08417H14.4105C14.8635 6.08417 15.2304 5.73209 15.2304 5.29957C15.2304 4.86607 14.8635 4.51498 14.4105 4.51498H6.14619C5.6932 4.51498 5.32632 4.86607 5.32632 5.29957C5.32632 5.73209 5.6932 6.08417 6.14619 6.08417ZM6.14619 9.59914H14.4105C14.8635 9.59914 15.2304 9.24707 15.2304 8.81455C15.2304 8.38105 14.8635 8.02996 14.4105 8.02996H6.14619C5.6932 8.02996 5.32632 8.38105 5.32632 8.81455C5.32632 9.24707 5.6932 9.59914 6.14619 9.59914ZM6.14619 13.1141H14.4105C14.8635 13.1141 15.2304 12.762 15.2304 12.3295C15.2304 11.896 14.8635 11.5449 14.4105 11.5449H6.14619C5.6932 11.5449 5.32632 11.896 5.32632 12.3295C5.32632 12.762 5.6932 13.1141 6.14619 13.1141ZM6.14619 16.6291H14.4105C14.8635 16.6291 15.2304 16.277 15.2304 15.8445C15.2304 15.411 14.8635 15.0599 14.4105 15.0599H6.14619C5.6932 15.0599 5.32632 15.411 5.32632 15.8445C5.32632 16.277 5.6932 16.6291 6.14619 16.6291Z" fill="#73296D"/>
</svg>
