<svg width="24" height="24" viewBox="0 0 24 24" fill="none" xmlns="http://www.w3.org/2000/svg">
<path fill-rule="evenodd" clip-rule="evenodd" d="M7.8451 17.3487H7.2987C6.80992 17.3487 6.34107 17.1629 5.99458 16.832C5.64882 16.5011 5.45459 16.0517 5.45459 15.584V6.1284C5.45459 5.66066 5.64882 5.2113 5.99458 4.8811C6.34106 4.54953 6.80992 4.36365 7.2987 4.36365H14.3109C14.7997 4.36365 15.2685 4.54952 15.615 4.8811C15.9608 5.2113 16.155 5.66067 16.155 6.1284V6.65129H16.7014C17.1902 6.65129 17.659 6.83716 18.0055 7.16804C18.3513 7.49961 18.5455 7.94762 18.5455 8.41604V17.8716C18.5455 18.34 18.3513 18.788 18.0055 19.1196C17.659 19.4505 17.1902 19.6364 16.7014 19.6364H9.68921C9.20044 19.6364 8.73159 19.4505 8.3851 19.1196C8.03933 18.7881 7.8451 18.34 7.8451 17.8716V17.3487ZM8.98344 17.3487V17.8716C8.98344 18.0507 9.05815 18.2223 9.19048 18.3489C9.32281 18.4762 9.50209 18.547 9.68921 18.547H16.7014C16.8885 18.547 17.0678 18.4762 17.2001 18.3489C17.3325 18.2223 17.4072 18.0507 17.4072 17.8716V8.41604C17.4072 8.23699 17.3325 8.06541 17.2001 7.93876C17.0678 7.81145 16.8885 7.74064 16.7014 7.74064H16.155V15.584C16.155 16.0517 15.9608 16.5011 15.615 16.832C15.2685 17.1629 14.7997 17.3487 14.3109 17.3487H8.98344ZM7.93617 7.89315H13.6734C13.9879 7.89315 14.2426 7.64873 14.2426 7.34847C14.2426 7.04753 13.9879 6.8038 13.6734 6.8038H7.93617C7.6217 6.8038 7.367 7.04753 7.367 7.34847C7.367 7.64873 7.6217 7.89315 7.93617 7.89315ZM7.93617 10.3333H13.6734C13.9879 10.3333 14.2426 10.0889 14.2426 9.78862C14.2426 9.48768 13.9879 9.24395 13.6734 9.24395H7.93617C7.6217 9.24395 7.367 9.48768 7.367 9.78862C7.367 10.0889 7.6217 10.3333 7.93617 10.3333ZM7.93617 12.7735H13.6734C13.9879 12.7735 14.2426 12.529 14.2426 12.2288C14.2426 11.9278 13.9879 11.6841 13.6734 11.6841H7.93617C7.6217 11.6841 7.367 11.9278 7.367 12.2288C7.367 12.529 7.6217 12.7735 7.93617 12.7735ZM7.93617 15.2136H13.6734C13.9879 15.2136 14.2426 14.9692 14.2426 14.6689C14.2426 14.368 13.9879 14.1242 13.6734 14.1242H7.93617C7.6217 14.1242 7.367 14.368 7.367 14.6689C7.367 14.9692 7.6217 15.2136 7.93617 15.2136Z" fill="white"/>
</svg>
