<svg width="24" height="24" viewBox="0 0 24 24" fill="none" xmlns="http://www.w3.org/2000/svg">
<path d="M15.8273 4.23799C16.0617 3.53486 15.6298 2.7838 14.8953 2.57073C14.4413 2.43934 13.9633 2.57783 13.6201 2.84062C13.4835 2.43756 13.1587 2.06825 12.7066 1.93685C11.9721 1.72556 11.1213 2.11086 10.9774 2.83529C10.6839 4.32322 11.9776 5.24474 12.498 6.43614C13.6754 5.68685 15.4932 5.24296 15.8273 4.23621V4.23799Z" fill="#C7404F"/>
<path d="M15.2813 7.16239C14.2607 7.16239 13.2882 7.3648 12.4042 7.73057C11.2028 6.21068 9.30376 5.22702 7.17038 5.22702C3.5477 5.22702 0.600464 8.0626 0.600464 11.5498C0.600464 15.037 3.5477 17.8708 7.17038 17.8708C7.76832 17.8708 8.34596 17.7927 8.89591 17.6471C10.1508 19.7938 12.5426 21.2497 15.2794 21.2497C19.3155 21.2497 22.6005 18.091 22.6005 14.2061C22.6005 10.3211 19.3173 7.16239 15.2794 7.16239H15.2813ZM7.17038 16.4486C4.36156 16.4486 2.07685 14.2504 2.07685 11.548C2.07685 8.84562 4.36156 6.6457 7.17038 6.6457C8.75012 6.6457 10.1638 7.33994 11.0976 8.42837C9.20226 9.70322 7.9584 11.8161 7.9584 14.2043C7.9584 14.9429 8.07836 15.6549 8.29797 16.3243C7.93441 16.4042 7.55609 16.4468 7.16854 16.4468L7.17038 16.4486ZM12.2658 11.548C12.2658 13.3733 11.2231 14.9678 9.68024 15.8112C9.52153 15.3016 9.43664 14.7636 9.43664 14.2061C9.43664 12.3311 10.3963 10.6691 11.8653 9.6464C12.1218 10.2306 12.2639 10.8733 12.2639 11.548H12.2658ZM15.2813 19.8275C13.1645 19.8275 11.308 18.7391 10.2819 17.1144C12.3396 16.0455 13.7421 13.9522 13.7421 11.548C13.7421 10.6283 13.5355 9.75471 13.1664 8.96636C13.8233 8.71956 14.5357 8.58462 15.2813 8.58462C18.5035 8.58462 21.1259 11.1077 21.1259 14.2078C21.1259 17.308 18.5035 19.8311 15.2813 19.8311V19.8275Z" fill="#F68D6D"/>
</svg>
