<svg width="24" height="24" viewBox="0 0 24 24" fill="none" xmlns="http://www.w3.org/2000/svg">
<path d="M15.8274 4.23799C16.0618 3.53486 15.6299 2.7838 14.8954 2.57073C14.4414 2.43934 13.9634 2.57783 13.6202 2.84062C13.4836 2.43756 13.1588 2.06825 12.7067 1.93685C11.9722 1.72556 11.1214 2.11086 10.9775 2.83529C10.684 4.32322 11.9777 5.24474 12.4981 6.43614C13.6756 5.68685 15.4934 5.24296 15.8274 4.23621V4.23799Z" fill="#F68D6D"/>
<path d="M15.2813 7.16236C14.2607 7.16236 13.2882 7.36477 12.4042 7.73054C11.2028 6.21066 9.30376 5.22699 7.17038 5.22699C3.5477 5.22699 0.600464 8.06257 0.600464 11.5498C0.600464 15.037 3.5477 17.8708 7.17038 17.8708C7.76832 17.8708 8.34596 17.7927 8.89591 17.6471C10.1508 19.7937 12.5426 21.2497 15.2794 21.2497C19.3155 21.2497 22.6005 18.091 22.6005 14.206C22.6005 10.3211 19.3173 7.16236 15.2794 7.16236H15.2813ZM7.17038 16.4486C4.36156 16.4486 2.07685 14.2504 2.07685 11.548C2.07685 8.8456 4.36156 6.64567 7.17038 6.64567C8.75012 6.64567 10.1638 7.33992 11.0976 8.42834C9.20226 9.7032 7.9584 11.8161 7.9584 14.2043C7.9584 14.9429 8.07836 15.6549 8.29797 16.3243C7.93441 16.4042 7.55609 16.4468 7.16854 16.4468L7.17038 16.4486ZM12.2658 11.548C12.2658 13.3733 11.2231 14.9678 9.68024 15.8111C9.52153 15.3016 9.43664 14.7636 9.43664 14.206C9.43664 12.331 10.3963 10.6691 11.8653 9.64638C12.1218 10.2305 12.2639 10.8733 12.2639 11.548H12.2658ZM15.2813 19.8275C13.1645 19.8275 11.308 18.7391 10.2819 17.1144C12.3396 16.0455 13.7421 13.9521 13.7421 11.548C13.7421 10.6283 13.5355 9.75469 13.1664 8.96633C13.8233 8.71953 14.5357 8.58459 15.2813 8.58459C18.5035 8.58459 21.1259 11.1077 21.1259 14.2078C21.1259 17.3079 18.5035 19.831 15.2813 19.831V19.8275Z" fill="white"/>
</svg>
