<svg width="24" height="24" viewBox="0 0 24 24" fill="none" xmlns="http://www.w3.org/2000/svg">
<path d="M12 4.36365C7.79979 4.36365 4.36365 7.79979 4.36365 12C4.36365 16.2002 7.79979 19.6364 12 19.6364C16.2002 19.6364 19.6364 16.2002 19.6364 12C19.6364 7.79979 16.2002 4.36365 12 4.36365ZM7.63446 9.81947C7.63446 9.22071 8.12598 8.7292 8.72473 8.7292C9.32349 8.7292 9.815 9.22071 9.815 9.81947C9.815 10.4182 9.32349 10.9097 8.72473 10.9097C8.12598 10.9097 7.63446 10.4182 7.63446 9.81947ZM15.6551 15.3289C14.6721 16.3119 13.3092 16.8571 12 16.8571C10.6908 16.8571 9.32796 16.3656 8.34492 15.3289C8.12598 15.11 8.12598 14.7838 8.34492 14.5648C8.56387 14.3459 8.89006 14.3459 9.10901 14.5648C10.6908 16.1466 13.3092 16.1466 14.891 14.5648C15.11 14.3459 15.4362 14.3459 15.6551 14.5648C15.874 14.7838 15.874 15.11 15.6551 15.3289ZM15.2753 10.9097C14.6765 10.9097 14.185 10.4182 14.185 9.81947C14.185 9.22071 14.6765 8.7292 15.2753 8.7292C15.874 8.7292 16.3656 9.22071 16.3656 9.81947C16.3656 10.4182 15.874 10.9097 15.2753 10.9097Z" fill="white"/>
</svg>
