<svg width="24" height="24" viewBox="0 0 24 24" fill="none" xmlns="http://www.w3.org/2000/svg">
<path d="M12 1C5.94968 1 1 5.94968 1 12C1 18.0503 5.94968 23 12 23C18.0503 23 23 18.0503 23 12C23 5.94968 18.0503 1 12 1ZM5.71153 8.85898C5.71153 7.99649 6.41954 7.28847 7.28204 7.28847C8.14453 7.28847 8.85255 7.99649 8.85255 8.85898C8.85255 9.72147 8.14453 10.4295 7.28204 10.4295C6.41954 10.4295 5.71153 9.72147 5.71153 8.85898ZM17.2651 16.7952C15.849 18.2112 13.8859 18.9965 12 18.9965C10.1141 18.9965 8.15097 18.2885 6.73493 16.7952C6.41955 16.4798 6.41955 16.0099 6.73493 15.6946C7.05032 15.3792 7.52019 15.3792 7.83558 15.6946C10.1141 17.9731 13.8859 17.9731 16.1644 15.6946C16.4798 15.3792 16.9497 15.3792 17.2651 15.6946C17.5805 16.0099 17.5805 16.4798 17.2651 16.7952ZM16.718 10.4295C15.8555 10.4295 15.1475 9.72147 15.1475 8.85898C15.1475 7.99649 15.8555 7.28847 16.718 7.28847C17.5805 7.28847 18.2885 7.99649 18.2885 8.85898C18.2885 9.72147 17.5805 10.4295 16.718 10.4295Z" fill="#00A8CF"/>
</svg>
