<svg width="24" height="24" viewBox="0 0 24 24" fill="none" xmlns="http://www.w3.org/2000/svg">
<path d="M14.1436 20.7272C14.0341 20.7272 13.9233 20.7018 13.8248 20.6485C13.7279 20.5962 11.4546 19.3362 11.4546 16.6198V11.3889C11.4546 11.124 11.7159 10.9091 12.0381 10.9091C12.3602 10.9091 12.6216 11.124 12.6216 11.3889V16.6198C12.6216 18.8024 14.3928 19.8064 14.4683 19.848C14.7348 19.9952 14.8078 20.2926 14.6302 20.5125C14.5174 20.6515 14.3324 20.7272 14.1436 20.7272Z" fill="white"/>
<path d="M13.873 3.31098C12.7027 3.49824 12.1978 5.88262 12.0002 7.25035C11.8025 5.88262 11.2977 3.49824 10.1274 3.31098C7.74668 2.93012 7.6992 5.5171 7.6992 5.5171C7.6992 5.5171 5.11188 5.56472 5.49289 7.94542C5.68015 9.11572 8.06458 9.62058 9.43234 9.81816C8.06458 10.0159 5.68015 10.5206 5.49289 11.691C5.11202 14.0716 7.69905 14.1192 7.69905 14.1192C7.69905 14.1192 7.74668 16.7062 10.1273 16.3253C11.2976 16.1381 11.8025 13.7537 12.0001 12.386C12.1978 13.7537 12.7025 16.1381 13.8728 16.3253C16.2536 16.7062 16.3011 14.1192 16.3011 14.1192C16.3011 14.1192 18.8881 14.0716 18.5072 11.691C18.32 10.5207 15.9355 10.0159 14.5678 9.81816C15.9355 9.62058 18.32 9.11572 18.5072 7.94542C18.8881 5.56472 16.3011 5.51725 16.3011 5.51725C16.3011 5.51725 16.2536 2.93012 13.873 3.31098Z" fill="white"/>
</svg>
