<svg width="24" height="24" viewBox="0 0 24 24" fill="none" xmlns="http://www.w3.org/2000/svg">
<path d="M14.7017 23C14.5638 23 14.4241 22.968 14.3 22.9008C14.1779 22.8349 11.3125 21.2467 11.3125 17.8229V11.2298C11.3125 10.8959 11.6419 10.625 12.0479 10.625C12.454 10.625 12.7834 10.8959 12.7834 11.2298V17.8229C12.7834 20.5739 15.0158 21.8393 15.1111 21.8918C15.447 22.0774 15.5389 22.4522 15.3151 22.7293C15.1729 22.9045 14.9397 23 14.7017 23Z" fill="#A3D161"/>
<path d="M14.3607 1.04824C12.8856 1.28427 12.2492 4.28958 12.0002 6.01349C11.751 4.28958 11.1148 1.28427 9.63972 1.04824C6.63899 0.568201 6.57915 3.82887 6.57915 3.82887C6.57915 3.82887 3.31804 3.8889 3.79827 6.88957C4.0343 8.36463 7.03968 9.00097 8.76363 9.25C7.03968 9.49922 4.0343 10.1354 3.79827 11.6106C3.31822 14.6111 6.57896 14.6711 6.57896 14.6711C6.57896 14.6711 6.63899 17.9318 9.63954 17.4518C11.1146 17.2157 11.751 14.2104 12 12.4865C12.2492 14.2104 12.8854 17.2157 14.3605 17.4518C17.3612 17.9318 17.4211 14.6711 17.4211 14.6711C17.4211 14.6711 20.6818 14.6111 20.2018 11.6106C19.9657 10.1356 16.9603 9.49922 15.2364 9.25C16.9603 9.00097 19.9657 8.36463 20.2018 6.88957C20.6818 3.8889 17.4211 3.82906 17.4211 3.82906C17.4211 3.82906 17.3612 0.568201 14.3607 1.04824Z" fill="#12B76A"/>
</svg>
