<svg width="24" height="24" viewBox="0 0 24 24" fill="none" xmlns="http://www.w3.org/2000/svg">
<path fill-rule="evenodd" clip-rule="evenodd" d="M18.3708 4.38534C17.9737 4.51557 17.6619 4.79278 17.4863 5.17178C17.4027 5.35238 17.3866 5.44063 17.3879 5.71377C17.3888 5.92515 17.4105 6.08732 17.4495 6.17437L17.5097 6.30872L16.3145 7.51815L18.2448 9.45562L19.4212 8.2767L19.6841 8.34298C20.3426 8.50911 21.0098 8.19386 21.2899 7.58437C21.3836 7.38043 21.3998 7.29687 21.4 7.01882C21.4001 6.74165 21.3841 6.65789 21.2931 6.46225C21.2342 6.33558 21.1137 6.15652 21.0254 6.06436C20.8519 5.88335 20.5053 5.69576 20.2709 5.656C20.1375 5.63339 20.1227 5.6185 20.1001 5.48461C20.0605 5.24932 19.8736 4.90141 19.6933 4.72734C19.3562 4.40196 18.7769 4.25215 18.3708 4.38534ZM15.3579 8.33005C15.1434 8.4746 14.7629 8.6329 14.4289 8.71654C14.14 8.78885 14.0047 8.79879 13.4075 8.7915C13.0289 8.78686 12.5901 8.8024 12.4323 8.82605C11.6084 8.94945 10.8013 9.35839 10.2224 9.94586C9.84862 10.3251 9.66774 10.578 9.44631 11.0308C8.8464 12.2578 8.91291 13.6519 9.62911 14.8636C9.87857 15.2857 10.5059 15.9154 10.9264 16.1657C12.1052 16.8677 13.4786 16.9486 14.6741 16.3866C15.6918 15.9081 16.466 15.0209 16.8027 13.9471C16.947 13.487 16.9848 13.138 16.9756 12.3542C16.9682 11.7236 16.9769 11.6083 17.0529 11.3241C17.1384 11.0039 17.2838 10.6585 17.4477 10.3859L17.5349 10.2408L16.5423 9.24397C15.9963 8.69569 15.5323 8.24837 15.5111 8.2499C15.4899 8.25144 15.421 8.28752 15.3579 8.33005ZM7.47992 8.96446C6.54333 9.08644 5.6626 9.41413 4.9368 9.91062C4.56531 10.1648 3.82395 10.9099 3.56841 11.2861C3.16442 11.8808 2.85809 12.618 2.69365 13.3915C2.58921 13.8825 2.59824 14.9261 2.71143 15.4513C2.94643 16.5416 3.41418 17.4201 4.17386 18.1979L4.57732 18.6109L19.329 18.5916L19.5493 18.2725C19.7903 17.9237 19.9652 17.5378 20.0889 17.0821C20.2057 16.6516 20.2059 15.8421 20.0892 15.375C19.9888 14.9728 19.8044 14.5587 19.5645 14.1966C19.323 13.8319 18.7849 13.3335 18.3925 13.1108L18.0731 12.9297L18.0242 13.3233C17.8686 14.5751 17.3398 15.6325 16.4524 16.4663C14.1755 18.6054 10.5438 18.1825 8.81558 15.577C7.50157 13.5959 7.72624 11.0066 9.36187 9.28151L9.68755 8.93801L8.64112 8.94377C8.06557 8.94692 7.54302 8.95624 7.47992 8.96446ZM2.30079 19.7527C2.01772 19.8976 1.93985 20.1778 2.04445 20.6751C2.22017 21.5104 2.92135 22.2183 3.74689 22.394C4.13011 22.4755 19.2874 22.4742 19.6711 22.3926C20.098 22.3018 20.4043 22.1278 20.7512 21.7791C21.1005 21.428 21.2744 21.1148 21.3685 20.6679C21.4716 20.178 21.3924 19.8969 21.1106 19.7527C20.9869 19.6894 20.4593 19.6856 11.7057 19.6856C2.95217 19.6856 2.42458 19.6894 2.30079 19.7527Z" fill="#C7404F"/>
<path d="M12.6893 3.92659C13.0972 3.53004 13.2776 3.33558 13.2774 2.88087C13.2774 2.42632 13.097 2.23186 12.6891 1.83531C12.3641 1.51949 12.3641 1.0073 12.689 0.691484C13.0138 0.375491 13.5406 0.375491 13.8654 0.691311C14.3194 1.13266 14.9414 1.73704 14.9412 2.88087C14.9414 4.02469 14.3197 4.62907 13.8656 5.07042C13.4577 5.46698 13.2774 5.66161 13.2774 6.11615C13.2774 6.56271 12.9049 6.92506 12.4454 6.92506C11.9859 6.92506 11.6136 6.56288 11.6136 6.11615C11.6136 4.97232 12.2352 4.36777 12.6893 3.92659Z" fill="#C7404F"/>
<path d="M8.2524 3.92659C8.66027 3.53004 8.84064 3.33558 8.84046 2.88087C8.84046 2.42632 8.66009 2.23186 8.25222 1.83531C7.92721 1.51949 7.92721 1.0073 8.25204 0.691484C8.57688 0.375491 9.10368 0.375491 9.42851 0.691311C9.88263 1.13266 10.5044 1.73704 10.5043 2.88087C10.5044 4.02469 9.88281 4.62925 9.42869 5.07042C9.02082 5.46698 8.84046 5.66161 8.84046 6.11615C8.84046 6.56271 8.46794 6.92506 8.00846 6.92506C7.54898 6.92506 7.17647 6.56288 7.17647 6.11615C7.17683 4.97232 7.79846 4.36777 8.2524 3.92659Z" fill="#C7404F"/>
</svg>
