<svg width="24" height="24" viewBox="0 0 24 24" fill="none" xmlns="http://www.w3.org/2000/svg">
<path d="M9.01914 10.0105C8.9087 9.87524 8.73855 9.80473 8.56429 9.82031C8.39087 9.8367 8.23626 9.93919 8.15364 10.0933L2.2448 21.0442C2.13845 21.241 2.16872 21.4837 2.32006 21.6485C2.4215 21.7591 2.56219 21.8182 2.70619 21.8182C2.77654 21.8182 2.84772 21.8042 2.91479 21.7747L13.8669 16.995C14.0175 16.9294 14.1287 16.7966 14.1672 16.6376C14.2056 16.4777 14.1672 16.3088 14.0633 16.1817L9.01914 10.0105Z" fill="white"/>
<path d="M15.7944 13.4092C17.2561 13.3307 18.7461 13.982 19.7856 15.1475C20.0003 15.3877 20.0019 15.7794 19.7905 16.0234C19.6831 16.1455 19.5426 16.208 19.4019 16.208C19.2629 16.208 19.1247 16.1485 19.0181 16.0293C18.1909 15.1033 17.0039 14.5885 15.8442 14.6484C15.5423 14.6659 15.2866 14.3996 15.2729 14.0576C15.2587 13.716 15.4917 13.4258 15.7925 13.4102L15.7944 13.4092ZM19.9478 13.4033C19.9478 12.1561 21.8179 12.1561 21.8179 13.4033C21.8175 14.6491 19.9481 14.6491 19.9478 13.4033ZM13.9849 9.66406C14.1408 9.67711 14.2857 9.75203 14.3872 9.87109L15.1323 10.748C15.2339 10.8672 15.2838 11.0226 15.271 11.1787C15.2581 11.3348 15.1831 11.4804 15.064 11.582L14.187 12.3271C14.0761 12.4214 13.9391 12.4678 13.8042 12.4678C13.6369 12.4678 13.4704 12.3965 13.353 12.2588L12.6079 11.3818C12.3963 11.1332 12.4277 10.7595 12.6763 10.5479L13.5532 9.80273C13.6724 9.70121 13.8287 9.65206 13.9839 9.66406H13.9849ZM17.5415 9.79785C18.5712 9.43409 19.6863 9.35462 20.7661 9.56934C21.0152 9.61876 21.1782 9.85589 21.1304 10.0986C21.0836 10.3426 20.8423 10.4983 20.5933 10.4482C19.6788 10.2663 18.7347 10.3335 17.8628 10.6416C17.6255 10.7258 17.3614 10.6045 17.272 10.3721H17.2729C17.2385 10.2817 17.2353 10.1873 17.2583 10.1016C17.2947 9.96575 17.3961 9.84943 17.5415 9.79785ZM9.84131 4.21094C10.0905 4.00929 10.512 3.99778 10.7798 4.18555C11.52 4.7038 12.064 5.39462 12.3101 6.13184C12.5572 6.86901 12.5121 7.67108 12.1851 8.38965C12.0906 8.59694 11.8323 8.72751 11.5562 8.72754C11.4846 8.72754 11.4118 8.71983 11.3413 8.70117C10.9936 8.61235 10.809 8.32863 10.9272 8.06836C11.1723 7.52981 11.2048 6.92757 11.02 6.375L11.021 6.37402C10.8361 5.82245 10.4298 5.30304 9.87451 4.91504C9.60559 4.72801 9.59108 4.41201 9.84131 4.21094ZM15.7896 4.05273C16.0365 4.06926 16.2232 4.28858 16.2065 4.54199C16.1345 5.64051 15.7697 6.69721 15.1519 7.59766C15.0644 7.72476 14.9253 7.79199 14.7847 7.79199C14.6958 7.79196 14.6052 7.7647 14.5269 7.70801V7.70996C14.3255 7.56348 14.2769 7.2768 14.4194 7.06934C14.9428 6.30683 15.2521 5.41198 15.313 4.48145C15.3291 4.22802 15.5419 4.03489 15.7896 4.05273ZM19.481 6.85742C19.7388 6.85767 19.9475 7.06637 19.9478 7.32422C19.9478 7.58228 19.739 7.79175 19.481 7.79199H18.0776C18.0778 7.27567 18.4968 6.85742 19.0132 6.85742H19.481ZM13.4028 2.18164C13.9184 2.18175 14.3374 2.60164 14.3374 3.11719C14.3372 3.63261 13.9182 4.05164 13.4028 4.05176C12.8873 4.05176 12.4675 3.63266 12.4673 3.11719C12.4673 2.60155 12.8872 2.18164 13.4028 2.18164Z" fill="#F58C6E"/>
</svg>
