<svg width="24" height="24" viewBox="0 0 24 24" fill="none" xmlns="http://www.w3.org/2000/svg">
<path d="M19.2893 13.3903C19.2893 14.0316 19.2331 14.633 19.1268 15.1937L18.6547 15.4268L17.0837 14.6511L16.9015 14.7411C16.9403 14.3127 16.9606 13.8622 16.9606 13.3903C16.9606 12.9938 16.9463 12.5933 16.9188 12.1921C16.9097 12.0597 16.8994 11.9279 16.887 11.7956L17.0839 11.6986L18.6549 12.4743L19.2264 12.1921C19.2676 12.5933 19.2893 12.9936 19.2893 13.3903Z" fill="#FAC761"/>
<path d="M19.2263 12.1922L18.6549 12.4744L17.0839 11.6987L16.8869 11.7956C16.818 11.0271 16.7011 10.2604 16.5426 9.51986C16.5098 9.36679 16.4754 9.21522 16.4392 9.06479L17.0841 8.74622L18.6551 9.52213L18.6594 9.52005C18.9388 10.3878 19.1331 11.2918 19.2263 12.1922Z" fill="#E66EB0"/>
<path d="M18.6548 15.4269L19.1268 15.1938C18.9169 16.3011 18.5113 17.2502 17.954 18.0333L17.0837 17.6036L16.0312 18.1235C16.0459 18.0937 16.0606 18.0636 16.0747 18.0335C16.4445 17.2504 16.7136 16.3013 16.8527 15.194C16.8714 15.0462 16.8876 14.8954 16.9015 14.7414L17.0837 14.6514L18.6548 15.4269Z" fill="#E66EB0"/>
<path d="M18.6591 9.52016L18.6548 9.52224L17.0837 8.74633L16.4389 9.0649C16.2203 8.1538 15.939 7.2909 15.6071 6.52328L16.8267 5.92078C17.6013 6.94484 18.2308 8.19089 18.6591 9.52016Z" fill="#FAC761"/>
<path d="M17.0837 17.6029L17.9539 18.0326C16.6949 19.8019 14.6637 20.7273 12.3719 20.7273C13.8662 20.7273 15.1934 19.8333 16.0312 18.1228L17.0837 17.6029Z" fill="#FAC761"/>
<path d="M16.9607 13.3903C16.9607 13.8623 16.9404 14.3127 16.9016 14.7411L15.5128 15.4268L13.9422 14.6511L12.3712 15.4268L10.8005 14.6511L9.22985 15.4268L7.84164 14.7411C7.80323 14.3127 7.78308 13.8622 7.78308 13.3903C7.78308 12.9938 7.7974 12.5933 7.82489 12.1925C7.83393 12.0601 7.84466 11.9283 7.85633 11.796L9.22985 12.4743L10.8005 11.6986L12.3712 12.4743L13.9422 11.6986L15.5128 12.4743L16.8869 11.7956C16.8993 11.9279 16.9097 12.0597 16.9187 12.1921C16.9464 12.5933 16.9607 12.9936 16.9607 13.3903Z" fill="#FAC761"/>
<path d="M15.5127 15.4266L16.9015 14.7409C16.8878 14.8947 16.8714 15.0455 16.8527 15.1935C16.7136 16.3008 16.4445 17.2499 16.0748 18.033C16.0604 18.0631 16.046 18.0932 16.0313 18.123L15.5127 18.3791L13.9421 17.6033L12.3711 18.3791L10.8004 17.6033L9.22976 18.3791L8.71217 18.1236C8.69749 18.0938 8.6828 18.0637 8.66868 18.033C8.29889 17.2499 8.02983 16.3012 7.89069 15.1939C7.87224 15.0457 7.85586 14.8947 7.84155 14.7409L9.22976 15.4266L10.8004 14.6509L12.3711 15.4266L13.9421 14.6509L15.5127 15.4266Z" fill="#E66EB0"/>
<path d="M16.8868 11.7958L15.5127 12.4746L13.942 11.6989L12.371 12.4746L10.8004 11.6989L9.22972 12.4746L7.8562 11.7962C7.92549 11.0282 8.04241 10.2613 8.20094 9.52043C8.23371 9.36736 8.26816 9.21522 8.30393 9.06479L9.22972 9.52213L10.8004 8.74622L12.371 9.52213L13.942 8.74622L15.5127 9.52213L16.4389 9.06479C16.475 9.21522 16.5095 9.36698 16.5422 9.51987C16.701 10.2606 16.8179 11.0273 16.8868 11.7958Z" fill="#E66EB0"/>
<path d="M16.827 5.92033L15.6073 6.52283C15.5176 6.31459 15.4241 6.11332 15.3271 5.92033C14.5288 4.32859 13.4979 3.27271 12.3722 3.27271C14.0694 3.27271 15.6236 4.32859 16.827 5.92033Z" fill="#E66EB0"/>
<path d="M16.439 9.06448L15.5129 9.52182L13.9422 8.74591L12.3712 9.52182L10.8005 8.74591L9.22987 9.52182L8.30408 9.06448C8.52305 8.15376 8.80492 7.29086 9.13629 6.52323L9.22987 6.56937L10.8005 5.79346L12.3712 6.56937L13.9422 5.79346L15.5129 6.56937L15.6072 6.52286C15.9389 7.29049 16.2204 8.1532 16.439 9.06448Z" fill="#FAC761"/>
<path d="M15.5125 18.3788L16.0311 18.1228C15.1932 19.8335 13.8662 20.7273 12.3718 20.7273C10.8774 20.7273 9.55039 19.8333 8.71216 18.1231L9.22975 18.3786L10.8004 17.6029L12.371 18.3786L13.9421 17.6029L15.5125 18.3788Z" fill="#FAC761"/>
<path d="M15.6074 6.52344L15.513 6.56995L13.9424 5.79404L12.3713 6.56995L10.8007 5.79404L9.23005 6.56995L9.13647 6.52382C9.2261 6.31558 9.31967 6.11431 9.41663 5.92132C10.215 4.32958 11.2462 3.27332 12.3721 3.27332C13.498 3.27332 14.5289 4.3292 15.327 5.92094C15.4242 6.11393 15.5175 6.3152 15.6074 6.52344Z" fill="#E66EB0"/>
<path d="M12.372 3.27271C11.2462 3.27271 10.2148 4.32916 9.41648 5.92071C9.31952 6.11388 9.22595 6.31516 9.13632 6.52321L7.91663 5.92071C9.1205 4.32916 10.6746 3.27271 12.372 3.27271Z" fill="#E66EB0"/>
<path d="M8.71228 18.1231C9.55052 19.8333 10.8777 20.7273 12.3719 20.7273C10.0798 20.7273 8.04841 19.8019 6.78955 18.0326L7.65941 17.6029L8.71228 18.1231Z" fill="#FAC761"/>
<path d="M7.91659 5.92078L9.13629 6.52328C8.80491 7.29091 8.52305 8.1538 8.30407 9.06452L7.65921 8.74595L6.08818 9.52186L6.08423 9.52017C6.51276 8.1909 7.14219 6.94503 7.91659 5.92078Z" fill="#FAC761"/>
<path d="M8.71224 18.1236L7.65937 17.6033L6.78951 18.033C6.23219 17.2499 5.82663 16.3012 5.6167 15.1939L6.08815 15.4266L7.65918 14.6509L7.84144 14.7409C7.85575 14.8947 7.87213 15.0455 7.89058 15.1939C8.02972 16.3012 8.29878 17.2497 8.66856 18.033C8.68287 18.0637 8.69756 18.0938 8.71224 18.1236Z" fill="#E66EB0"/>
<path d="M7.65961 8.74622L8.30447 9.06479C8.2687 9.21522 8.23424 9.36736 8.20148 9.52043C8.04295 10.2613 7.92603 11.028 7.85674 11.7962L7.65979 11.6989L6.08876 12.4746L5.5177 12.1927C5.6109 11.2924 5.80483 10.3886 6.08499 9.52043L6.08895 9.52213L7.65961 8.74622Z" fill="#E66EB0"/>
<path d="M7.65956 11.6986L7.8565 11.796C7.84483 11.9283 7.8341 12.0601 7.82506 12.1925C7.79757 12.5933 7.78326 12.9936 7.78326 13.3903C7.78326 13.8623 7.80359 14.3127 7.84181 14.7411L7.65956 14.6511L6.08853 15.4268L5.61707 15.1941C5.51069 14.6334 5.45459 14.0316 5.45459 13.3903C5.45459 12.9938 5.47624 12.5933 5.51747 12.1925L6.08853 12.4743L7.65956 11.6986Z" fill="#FAC761"/>
</svg>
