<svg width="24" height="24" viewBox="0 0 24 24" fill="none" xmlns="http://www.w3.org/2000/svg">
<path d="M19.2891 13.3904C19.2891 14.0317 19.233 14.6331 19.1266 15.1938L18.6546 15.4269L17.0836 14.6512L16.9013 14.7412C16.9401 14.3128 16.9605 13.8623 16.9605 13.3904C16.9605 12.9939 16.9462 12.5934 16.9187 12.1922C16.9096 12.0599 16.8993 11.9281 16.8868 11.7957L17.0838 11.6987L18.6548 12.4745L19.2262 12.1922C19.2675 12.5934 19.2891 12.9937 19.2891 13.3904Z" fill="white"/>
<path d="M19.2263 12.192L18.6549 12.4743L17.0839 11.6985L16.8869 11.7955C16.818 11.0269 16.7011 10.2603 16.5426 9.51974C16.5098 9.36667 16.4754 9.2151 16.4392 9.06466L17.0841 8.74609L18.6551 9.52201L18.6594 9.51993C18.9388 10.3877 19.1331 11.2917 19.2263 12.192Z" fill="#E66EB0"/>
<path d="M18.6549 15.4269L19.1269 15.1938C18.917 16.3011 18.5114 17.2502 17.9541 18.0333L17.0839 17.6036L16.0314 18.1235C16.0461 18.0937 16.0607 18.0636 16.0749 18.0335C16.4446 17.2504 16.7137 16.3013 16.8528 15.194C16.8715 15.0462 16.8877 14.8954 16.9016 14.7414L17.0839 14.6514L18.6549 15.4269Z" fill="#E66EB0"/>
<path d="M18.6591 9.52016L18.6548 9.52224L17.0837 8.74633L16.4389 9.0649C16.2203 8.1538 15.939 7.2909 15.6071 6.52328L16.8267 5.92078C17.6013 6.94484 18.2308 8.19089 18.6591 9.52016Z" fill="white"/>
<path d="M17.0837 17.6029L17.9539 18.0326C16.6949 19.8019 14.6637 20.7273 12.3719 20.7273C13.8662 20.7273 15.1934 19.8333 16.0312 18.1228L17.0837 17.6029Z" fill="white"/>
<path d="M16.9606 13.3904C16.9606 13.8625 16.9403 14.3128 16.9015 14.7412L15.5127 15.4269L13.9421 14.6512L12.371 15.4269L10.8004 14.6512L9.22972 15.4269L7.84152 14.7412C7.80311 14.3128 7.78296 13.8623 7.78296 13.3904C7.78296 12.9939 7.79728 12.5934 7.82477 12.1926C7.8338 12.0602 7.84453 11.9284 7.85621 11.7961L9.22972 12.4745L10.8004 11.6987L12.371 12.4745L13.9421 11.6987L15.5127 12.4745L16.8868 11.7957C16.8992 11.9281 16.9096 12.0599 16.9186 12.1922C16.9463 12.5934 16.9606 12.9937 16.9606 13.3904Z" fill="white"/>
<path d="M15.5126 15.4266L16.9014 14.7409C16.8876 14.8947 16.8713 15.0455 16.8526 15.1935C16.7135 16.3008 16.4444 17.2499 16.0746 18.033C16.0603 18.0631 16.0458 18.0932 16.0311 18.123L15.5126 18.3791L13.942 17.6033L12.3709 18.3791L10.8003 17.6033L9.22963 18.3791L8.71205 18.1236C8.69737 18.0938 8.68268 18.0637 8.66856 18.033C8.29877 17.2499 8.02971 16.3012 7.89057 15.1939C7.87212 15.0457 7.85574 14.8947 7.84143 14.7409L9.22963 15.4266L10.8003 14.6509L12.3709 15.4266L13.942 14.6509L15.5126 15.4266Z" fill="#E66EB0"/>
<path d="M16.8868 11.7957L15.5127 12.4745L13.942 11.6987L12.371 12.4745L10.8004 11.6987L9.22972 12.4745L7.8562 11.7961C7.92549 11.0281 8.04241 10.2612 8.20094 9.52031C8.23371 9.36724 8.26816 9.2151 8.30393 9.06466L9.22972 9.52201L10.8004 8.74609L12.371 9.52201L13.942 8.74609L15.5127 9.52201L16.4389 9.06466C16.475 9.2151 16.5095 9.36686 16.5422 9.51975C16.701 10.2604 16.8179 11.0271 16.8868 11.7957Z" fill="#E66EB0"/>
<path d="M16.827 5.92033L15.6073 6.52283C15.5176 6.31459 15.4241 6.11332 15.3271 5.92033C14.5288 4.32859 13.4979 3.27271 12.3722 3.27271C14.0694 3.27271 15.6236 4.32859 16.827 5.92033Z" fill="#E66EB0"/>
<path d="M16.439 9.06448L15.5129 9.52182L13.9422 8.74591L12.3712 9.52182L10.8005 8.74591L9.22987 9.52182L8.30408 9.06448C8.52305 8.15376 8.80492 7.29086 9.13629 6.52323L9.22987 6.56937L10.8005 5.79346L12.3712 6.56937L13.9422 5.79346L15.5129 6.56937L15.6072 6.52286C15.9389 7.29049 16.2204 8.1532 16.439 9.06448Z" fill="white"/>
<path d="M15.5127 18.3788L16.0312 18.1228C15.1933 19.8335 13.8663 20.7273 12.3719 20.7273C10.8775 20.7273 9.55051 19.8333 8.71228 18.1231L9.22987 18.3786L10.8005 17.6029L12.3712 18.3786L13.9422 17.6029L15.5127 18.3788Z" fill="white"/>
<path d="M15.6074 6.52332L15.513 6.56983L13.9424 5.79392L12.3713 6.56983L10.8007 5.79392L9.23005 6.56983L9.13647 6.52369C9.2261 6.31545 9.31967 6.11418 9.41663 5.92119C10.215 4.32946 11.2462 3.27319 12.3721 3.27319C13.498 3.27319 14.5289 4.32908 15.327 5.92082C15.4242 6.1138 15.5175 6.31508 15.6074 6.52332Z" fill="#E66EB0"/>
<path d="M12.372 3.27271C11.2462 3.27271 10.2148 4.32916 9.41648 5.92071C9.31952 6.11388 9.22595 6.31516 9.13632 6.52321L7.91663 5.92071C9.1205 4.32916 10.6746 3.27271 12.372 3.27271Z" fill="#E66EB0"/>
<path d="M8.71228 18.1231C9.55052 19.8333 10.8777 20.7273 12.3719 20.7273C10.0798 20.7273 8.04841 19.8019 6.78955 18.0326L7.65941 17.6029L8.71228 18.1231Z" fill="white"/>
<path d="M7.91659 5.92078L9.13629 6.52328C8.80491 7.29091 8.52305 8.1538 8.30407 9.06452L7.65921 8.74595L6.08818 9.52186L6.08423 9.52017C6.51276 8.1909 7.14219 6.94503 7.91659 5.92078Z" fill="white"/>
<path d="M8.71224 18.1236L7.65937 17.6033L6.78951 18.033C6.23219 17.2499 5.82663 16.3012 5.6167 15.1939L6.08815 15.4266L7.65918 14.6509L7.84144 14.7409C7.85575 14.8947 7.87213 15.0455 7.89058 15.1939C8.02972 16.3012 8.29878 17.2497 8.66856 18.033C8.68287 18.0637 8.69756 18.0938 8.71224 18.1236Z" fill="#E66EB0"/>
<path d="M7.65961 8.74609L8.30447 9.06466C8.2687 9.2151 8.23424 9.36724 8.20148 9.52031C8.04295 10.2612 7.92603 11.0279 7.85674 11.7961L7.65979 11.6987L6.08876 12.4745L5.5177 12.1926C5.6109 11.2922 5.80483 10.3885 6.08499 9.52031L6.08895 9.52201L7.65961 8.74609Z" fill="#E66EB0"/>
<path d="M7.65944 11.6987L7.85638 11.7961C7.8447 11.9284 7.83397 12.0602 7.82494 12.1926C7.79745 12.5934 7.78314 12.9937 7.78314 13.3904C7.78314 13.8625 7.80347 14.3128 7.84169 14.7412L7.65944 14.6512L6.0884 15.4269L5.61695 15.1942C5.51057 14.6335 5.45447 14.0317 5.45447 13.3904C5.45447 12.9939 5.47612 12.5934 5.51735 12.1926L6.0884 12.4745L7.65944 11.6987Z" fill="white"/>
</svg>
