<svg width="24" height="24" viewBox="0 0 24 24" fill="none" xmlns="http://www.w3.org/2000/svg">
<path d="M13.7224 11.0972H12.8612V6.88399H13.1483C13.6813 6.88399 14.1924 7.10593 14.5693 7.50099C14.9461 7.89606 15.1579 8.43187 15.1579 8.99057C15.1579 9.23002 15.2486 9.45965 15.4101 9.62896C15.5716 9.79828 15.7907 9.89339 16.0191 9.89339C16.2475 9.89339 16.4666 9.79828 16.6281 9.62896C16.7896 9.45965 16.8803 9.23002 16.8803 8.99057C16.8792 7.95335 16.4856 6.95896 15.786 6.22553C15.0863 5.49211 14.1377 5.07954 13.1483 5.07835H12.8612V4.17553C12.8612 3.93608 12.7705 3.70645 12.6089 3.53714C12.4474 3.36782 12.2284 3.27271 12 3.27271C11.7715 3.27271 11.5525 3.36782 11.391 3.53714C11.2294 3.70645 11.1387 3.93608 11.1387 4.17553V5.07835H10.8516C9.86183 5.07835 8.91256 5.49053 8.21267 6.22421C7.51277 6.9579 7.11957 7.95299 7.11957 8.99057C7.11957 10.0282 7.51277 11.0233 8.21267 11.7569C8.91256 12.4906 9.86183 12.9028 10.8516 12.9028H11.1387V17.116H10.2775C9.7445 17.116 9.23335 16.894 8.85649 16.499C8.47962 16.1039 8.2679 15.5681 8.2679 15.0094C8.2679 14.7699 8.17716 14.5403 8.01565 14.371C7.85413 14.2017 7.63507 14.1066 7.40665 14.1066C7.17824 14.1066 6.95918 14.2017 6.79766 14.371C6.63615 14.5403 6.54541 14.7699 6.54541 15.0094C6.54655 16.0466 6.94011 17.041 7.63976 17.7744C8.33941 18.5079 9.28801 18.9204 10.2775 18.9216H11.1387V19.8244C11.1387 20.0639 11.2294 20.2935 11.391 20.4628C11.5525 20.6321 11.7715 20.7273 12 20.7273C12.2284 20.7273 12.4474 20.6321 12.6089 20.4628C12.7705 20.2935 12.8612 20.0639 12.8612 19.8244V18.9216H13.7224C14.7122 18.9216 15.6615 18.5094 16.3614 17.7757C17.0613 17.0421 17.4545 16.047 17.4545 15.0094C17.4545 13.9718 17.0613 12.9767 16.3614 12.243C15.6615 11.5093 14.7122 11.0972 13.7224 11.0972ZM10.8516 11.0972C10.3187 11.0972 9.80752 10.8752 9.43065 10.4802C9.05378 10.0851 8.84206 9.54927 8.84206 8.99057C8.84206 8.43187 9.05378 7.89606 9.43065 7.50099C9.80752 7.10593 10.3187 6.88399 10.8516 6.88399H11.1387V11.0972H10.8516ZM13.7224 17.116H12.8612V12.9028H13.7224C14.2554 12.9028 14.7666 13.1247 15.1434 13.5198C15.5203 13.9149 15.732 14.4507 15.732 15.0094C15.732 15.5681 15.5203 16.1039 15.1434 16.499C14.7666 16.894 14.2554 17.116 13.7224 17.116Z" fill="#1A5961"/>
</svg>
