<svg width="24" height="24" viewBox="0 0 24 24" fill="none" xmlns="http://www.w3.org/2000/svg">
<path d="M15.1238 5.45731C15.3192 4.8712 14.9592 4.24513 14.347 4.06752C13.9685 3.958 13.5701 4.07344 13.284 4.29249C13.1701 3.95652 12.8994 3.64866 12.5225 3.53914C11.9102 3.36301 11.2011 3.68419 11.0811 4.28805C10.8365 5.52835 11.9149 6.29651 12.3487 7.28963C13.3301 6.66504 14.8454 6.29503 15.1238 5.45583V5.45731Z" fill="#F68D6D"/>
<path d="M14.6687 7.89501C13.818 7.89501 13.0073 8.06374 12.2704 8.36863C11.269 7.1017 9.68601 6.28174 7.90767 6.28174C4.8879 6.28174 2.43115 8.64541 2.43115 11.5523C2.43115 14.4591 4.8879 16.8213 7.90767 16.8213C8.4061 16.8213 8.8876 16.7562 9.34603 16.6348C10.3921 18.4242 12.3858 19.6379 14.6672 19.6379C18.0315 19.6379 20.7698 17.0048 20.7698 13.7664C20.7698 10.5281 18.0331 7.89501 14.6672 7.89501H14.6687ZM7.90767 15.6358C5.56631 15.6358 3.66183 13.8034 3.66183 11.5508C3.66183 9.29812 5.56631 7.46431 7.90767 7.46431C9.2245 7.46431 10.4029 8.04302 11.1813 8.9503C9.6014 10.013 8.56455 11.7743 8.56455 13.765C8.56455 14.3807 8.66454 14.9742 8.84761 15.5322C8.54455 15.5988 8.22919 15.6343 7.90614 15.6343L7.90767 15.6358ZM12.1551 11.5508C12.1551 13.0723 11.2859 14.4014 9.99983 15.1044C9.86753 14.6796 9.79677 14.2312 9.79677 13.7664C9.79677 12.2035 10.5967 10.8181 11.8212 9.96563C12.0351 10.4526 12.1535 10.9884 12.1535 11.5508H12.1551ZM14.6687 18.4523C12.9042 18.4523 11.3567 17.5451 10.5013 16.1908C12.2166 15.2998 13.3857 13.5548 13.3857 11.5508C13.3857 10.7841 13.2134 10.0559 12.9058 9.39876C13.4534 9.19303 14.0472 9.08055 14.6687 9.08055C17.3547 9.08055 19.5407 11.1837 19.5407 13.7679C19.5407 16.3521 17.3547 18.4553 14.6687 18.4553V18.4523Z" fill="white"/>
</svg>
