<svg width="24" height="24" viewBox="0 0 24 24" fill="none" xmlns="http://www.w3.org/2000/svg">
<path d="M17.1216 16.6809H15.6841C15.4063 16.6809 15.181 16.4556 15.181 16.1778V12.2187C15.181 11.9408 15.4063 11.7156 15.6841 11.7156H18.3075C19.0407 11.7156 19.6372 12.3121 19.6372 13.0453V14.1653C19.6372 15.5523 18.5086 16.6809 17.1216 16.6809ZM16.1873 15.6746H17.1217C17.954 15.6746 18.6311 14.9974 18.6311 14.1652V13.0452C18.6311 12.8669 18.486 12.7218 18.3076 12.7218H16.1874L16.1873 15.6746Z" fill="white"/>
<path d="M12.2885 18.8849H11.3173C8.33047 18.8849 5.90926 16.4637 5.90926 13.4769V10.0343C5.90926 9.82486 6.07902 9.6551 6.28848 9.6551H17.3173C17.5268 9.6551 17.6965 9.82486 17.6965 10.0343V13.4769C17.6965 16.4635 15.2753 18.8849 12.2885 18.8849Z" fill="white"/>
<path d="M8.09265 13.4769V10.0343C8.09265 9.82486 8.26241 9.6551 8.47187 9.6551H6.28848C6.07902 9.6551 5.90926 9.82486 5.90926 10.0343V13.4769C5.90926 16.4637 8.33047 18.8849 11.3173 18.8849H12.2885C12.4935 18.8849 12.6955 18.8724 12.8946 18.8502C10.1933 18.5487 8.09265 16.2586 8.09265 13.4769Z" fill="white"/>
<path d="M17.1221 19.7365H6.4837C5.91533 19.7365 5.45459 19.2758 5.45459 18.7074V18.601C5.45459 18.5144 5.52476 18.4443 5.61116 18.4443H17.9945C18.081 18.4443 18.1512 18.5144 18.1512 18.601V18.7074C18.1512 19.2758 17.6904 19.7365 17.1221 19.7365Z" fill="white"/>
<path d="M13.2803 5.91052C13.5815 5.60925 13.7147 5.46152 13.7146 5.11607C13.7146 4.77075 13.5814 4.62301 13.2801 4.32175C13.0401 4.08181 13.0401 3.6927 13.28 3.45277C13.5199 3.21271 13.909 3.21271 14.149 3.45264C14.4843 3.78794 14.9437 4.24709 14.9435 5.11607C14.9437 5.98504 14.4845 6.4442 14.1491 6.7795C13.8478 7.08076 13.7146 7.22863 13.7146 7.57395C13.7146 7.9132 13.4395 8.18849 13.1001 8.18849C12.7607 8.18849 12.4857 7.91334 12.4857 7.57395C12.4857 6.70497 12.9448 6.24568 13.2803 5.91052Z" fill="white"/>
<path d="M10.003 5.91052C10.3043 5.60925 10.4375 5.46152 10.4374 5.11607C10.4374 4.77075 10.3041 4.62301 10.0029 4.32175C9.7628 4.08181 9.7628 3.6927 10.0027 3.45277C10.2427 3.21271 10.6318 3.21271 10.8717 3.45264C11.2071 3.78794 11.6664 4.24709 11.6663 5.11607C11.6664 5.98504 11.2073 6.44433 10.8718 6.7795C10.5706 7.08076 10.4374 7.22863 10.4374 7.57395C10.4374 7.9132 10.1622 8.18849 9.82281 8.18849C9.48343 8.18849 9.20828 7.91334 9.20828 7.57395C9.20854 6.70497 9.6677 6.24568 10.003 5.91052Z" fill="white"/>
</svg>
