<svg width="24" height="24" viewBox="0 0 24 24" fill="none" xmlns="http://www.w3.org/2000/svg">
<path d="M13.2802 4.81958C13.5815 4.51831 13.7147 4.37058 13.7146 4.02512C13.7146 3.6798 13.5814 3.53207 13.2801 3.2308C13.04 2.99087 13.04 2.60176 13.28 2.36183C13.5199 2.12176 13.909 2.12176 14.1489 2.3617C14.4842 2.69699 14.9437 3.15615 14.9435 4.02512C14.9437 4.8941 14.4845 5.35326 14.1491 5.68856C13.8478 5.98982 13.7146 6.13769 13.7146 6.48301C13.7146 6.82226 13.4394 7.09754 13.1 7.09754C12.7607 7.09754 12.4856 6.82239 12.4856 6.48301C12.4856 5.61403 12.9448 5.15474 13.2802 4.81958Z" fill="white"/>
<path d="M10.003 4.81958C10.3042 4.51831 10.4375 4.37058 10.4373 4.02512C10.4373 3.6798 10.3041 3.53207 10.0028 3.2308C9.76277 2.99087 9.76277 2.60176 10.0027 2.36183C10.2426 2.12176 10.6318 2.12176 10.8717 2.3617C11.2071 2.69699 11.6664 3.15615 11.6663 4.02512C11.6664 4.8941 11.2072 5.35339 10.8718 5.68856C10.5705 5.98982 10.4373 6.13769 10.4373 6.48301C10.4373 6.82226 10.1622 7.09754 9.82279 7.09754C9.4834 7.09754 9.20825 6.82239 9.20825 6.48301C9.20852 5.61403 9.66767 5.15474 10.003 4.81958Z" fill="white"/>
<path fill-rule="evenodd" clip-rule="evenodd" d="M18.1639 5.49549C17.8291 5.60527 17.5663 5.83895 17.4182 6.15844C17.3477 6.31068 17.3342 6.38507 17.3352 6.61532C17.336 6.79351 17.3543 6.93022 17.3872 7.0036L17.4379 7.11685L16.9342 7.62663L16.4304 8.13637L17.244 8.95299L18.0576 9.76961L18.5535 9.27271L19.0493 8.77581L19.2709 8.83169C19.826 8.97173 20.3885 8.70598 20.6245 8.19219C20.7035 8.02028 20.7172 7.94984 20.7174 7.71545C20.7175 7.4818 20.7039 7.4112 20.6272 7.24627C20.5776 7.1395 20.476 6.98855 20.4016 6.91087C20.2554 6.75827 19.9632 6.60014 19.7655 6.56662C19.6531 6.54757 19.6406 6.53501 19.6216 6.42215C19.5882 6.2238 19.4307 5.93052 19.2786 5.78379C18.9945 5.5095 18.5062 5.38321 18.1639 5.49549ZM15.624 8.82078C15.4432 8.94264 15.1225 9.07608 14.8409 9.14658C14.5974 9.20754 14.4833 9.21592 13.9799 9.20977C13.6607 9.20586 13.2908 9.21896 13.1578 9.23889C12.4633 9.34292 11.7829 9.68765 11.2949 10.1829C10.9798 10.5025 10.8274 10.7157 10.6407 11.0975C10.135 12.1317 10.1911 13.3069 10.7948 14.3284C11.0051 14.6842 11.5339 15.215 11.8884 15.4261C12.8821 16.0178 14.0398 16.086 15.0476 15.6123C15.9055 15.2089 16.5581 14.461 16.8419 13.5558C16.9636 13.168 16.9955 12.8738 16.9877 12.213C16.9815 11.6814 16.9888 11.5842 17.0528 11.3447C17.125 11.0748 17.2475 10.7836 17.3857 10.5538L17.4592 10.4315L16.6224 9.59119C16.1622 9.12901 15.771 8.75193 15.7532 8.75322C15.7353 8.75452 15.6772 8.78493 15.624 8.82078ZM8.98309 9.35557C8.19356 9.4584 7.45113 9.73463 6.8393 10.1532C6.52614 10.3674 5.90119 10.9956 5.68578 11.3127C5.34522 11.814 5.087 12.4354 4.94838 13.0874C4.86034 13.5014 4.86795 14.3811 4.96337 14.8238C5.16147 15.7429 5.55576 16.4835 6.19616 17.1391L6.53627 17.4873L12.7539 17.4792L18.9716 17.471L19.1573 17.2021C19.3605 16.908 19.5079 16.5827 19.6121 16.1986C19.7106 15.8356 19.7107 15.1532 19.6124 14.7595C19.5277 14.4205 19.3723 14.0714 19.1701 13.7661C18.9665 13.4587 18.5129 13.0386 18.1821 12.8509L17.9129 12.6982L17.8716 13.0299C17.7405 14.0852 17.2947 14.9766 16.5466 15.6794C14.6273 17.4827 11.5658 17.1262 10.109 14.9298C9.00133 13.2597 9.19073 11.0771 10.5695 9.62284L10.8441 9.33328L9.96195 9.33813C9.47677 9.34079 9.03628 9.34865 8.98309 9.35557ZM4.6172 18.4498C4.37858 18.5719 4.31295 18.8082 4.40112 19.2273C4.54925 19.9315 5.14032 20.5283 5.83623 20.6763C6.15928 20.7451 18.9365 20.744 19.26 20.6752C19.6198 20.5986 19.878 20.452 20.1705 20.158C20.4649 19.862 20.6115 19.598 20.6908 19.2213C20.7777 18.8083 20.7109 18.5714 20.4734 18.4498C20.3691 18.3964 19.9243 18.3932 12.5453 18.3932C5.1663 18.3932 4.72156 18.3964 4.6172 18.4498Z" fill="white"/>
</svg>
