<svg width="24" height="24" viewBox="0 0 24 24" fill="none" xmlns="http://www.w3.org/2000/svg">
<path d="M18.3451 7.4926C18.2672 7.03357 18.0485 6.61011 17.7193 6.28089C17.39 5.95167 16.9666 5.73298 16.5075 5.6551C14.2998 5.28079 10.1399 5.10965 7.07987 8.171C4.01982 11.2324 4.1896 15.3914 4.56392 17.5985C4.642 18.058 4.8612 18.4818 5.19109 18.811C5.52098 19.1403 5.9452 19.3587 6.40486 19.436C7.17816 19.5678 7.96112 19.6349 8.74558 19.6364C10.9336 19.6364 13.6582 19.091 15.8291 16.9201C18.8899 13.8601 18.7194 9.69963 18.3451 7.4926ZM6.5835 18.3614C6.34746 18.3213 6.12973 18.2088 5.96043 18.0395C5.79113 17.8702 5.67863 17.6525 5.63848 17.4164C5.45134 16.3613 5.40298 15.2863 5.49462 14.2187L9.78128 18.5053C8.71364 18.5969 7.6386 18.5486 6.5835 18.3614ZM14.0209 10.7503L13.0432 11.7273L13.4754 12.1596C13.5293 12.2095 13.5726 12.2697 13.6027 12.3367C13.6327 12.4037 13.6489 12.4761 13.6504 12.5495C13.6518 12.6229 13.6383 12.6959 13.6109 12.764C13.5834 12.8321 13.5425 12.8939 13.4905 12.9458C13.4386 12.9977 13.3767 13.0386 13.3085 13.066C13.2404 13.0934 13.1675 13.1068 13.094 13.1053C13.0206 13.1039 12.9483 13.0876 12.8813 13.0575C12.8143 13.0273 12.7541 12.984 12.7043 12.9301L12.2727 12.4985L11.4074 13.3637L11.8397 13.796C11.8937 13.8458 11.937 13.906 11.9671 13.973C11.9972 14.0399 12.0135 14.1123 12.015 14.1857C12.0165 14.2591 12.0031 14.3321 11.9757 14.4002C11.9483 14.4684 11.9074 14.5302 11.8555 14.5822C11.8036 14.6341 11.7417 14.6751 11.6736 14.7025C11.6055 14.73 11.5326 14.7434 11.4592 14.742C11.3858 14.7406 11.3134 14.7244 11.2464 14.6943C11.1794 14.6643 11.1191 14.621 11.0693 14.5671L10.6363 14.1342L9.65855 15.1119C9.60841 15.1647 9.5482 15.2069 9.48148 15.236C9.41477 15.2652 9.34289 15.2807 9.27009 15.2816C9.19729 15.2825 9.12504 15.2689 9.05759 15.2414C8.99015 15.214 8.92889 15.1734 8.8774 15.1219C8.82592 15.0704 8.78527 15.0091 8.75784 14.9417C8.73041 14.8743 8.71675 14.802 8.71769 14.7292C8.71862 14.6564 8.73411 14.5845 8.76326 14.5178C8.79241 14.4511 8.83462 14.3909 8.8874 14.3407L9.86583 13.3637L9.43355 12.9314C9.33791 12.8279 9.28607 12.6913 9.28889 12.5504C9.29172 12.4095 9.349 12.2751 9.44872 12.1755C9.54844 12.0759 9.68285 12.0187 9.82379 12.016C9.96473 12.0133 10.1012 12.0653 10.2047 12.161L10.637 12.5933L11.5015 11.7273L11.0693 11.2951C10.9735 11.1916 10.9216 11.0551 10.9243 10.9142C10.927 10.7732 10.9841 10.6388 11.0838 10.5391C11.1834 10.4394 11.3178 10.3821 11.4587 10.3793C11.5996 10.3765 11.7362 10.4283 11.8397 10.5239L12.2727 10.9569L13.2504 9.97918C13.3006 9.92639 13.3608 9.88418 13.4275 9.85504C13.4942 9.82589 13.5661 9.81039 13.6389 9.80946C13.7117 9.80853 13.784 9.82218 13.8514 9.84961C13.9188 9.87704 13.9801 9.91769 14.0316 9.96917C14.0831 10.0207 14.1237 10.0819 14.1512 10.1494C14.1786 10.2168 14.1922 10.2891 14.1913 10.3619C14.1904 10.4346 14.1749 10.5065 14.1457 10.5732C14.1166 10.64 14.0744 10.7002 14.0216 10.7503H14.0209ZM17.4144 10.8724L13.1277 6.58578C13.4523 6.55578 13.7904 6.53874 14.1443 6.53874C14.8757 6.54132 15.6055 6.60518 16.3262 6.72964C16.5621 6.76991 16.7797 6.88247 16.9488 7.05176C17.118 7.22105 17.2304 7.4387 17.2705 7.67464C17.4576 8.72972 17.506 9.80473 17.4144 10.8724Z" fill="white"/>
</svg>
