<svg width="24" height="24" viewBox="0 0 24 24" fill="none" xmlns="http://www.w3.org/2000/svg">
<path d="M15.4463 5.45453C14.0198 5.45453 12.765 6.24531 12.0088 7.29054C11.2527 6.24922 9.98562 5.45453 8.55915 5.45453C6.24983 5.45453 4.14487 7.26706 4.38193 9.46714C4.87241 13.9848 9.43792 15.5546 12.0088 18.5454C14.731 15.4215 19.5744 12.6342 19.6357 9.46714C19.6766 7.25531 17.7556 5.45453 15.4463 5.45453ZM17.4163 10.1052C17.1425 10.1052 16.934 9.90559 16.934 9.64331C16.934 8.79772 16.2147 8.10873 15.3318 8.10873C15.058 8.10873 14.8495 7.90907 14.8495 7.64679C14.8495 7.3845 15.058 7.18485 15.3318 7.18485C16.7419 7.18485 17.8986 8.28881 17.8986 9.64331C17.8986 9.90559 17.6902 10.1052 17.4163 10.1052Z" fill="white"/>
</svg>
