<svg width="24" height="24" viewBox="0 0 24 24" fill="none" xmlns="http://www.w3.org/2000/svg">
<path fill-rule="evenodd" clip-rule="evenodd" d="M7.27546 4.37977C7.05224 4.4257 6.90518 4.50244 6.73844 4.65998C6.56071 4.82784 6.49399 4.95126 6.265 5.53595C6.11744 5.91274 6.10281 5.97542 6.10389 6.22661C6.10588 6.67851 6.3047 7.01207 6.69129 7.21205C6.97716 7.35995 7.63742 7.57673 8.12656 7.68333C8.53031 7.77132 8.61533 7.77771 9.40162 7.77909C10.2099 7.78054 10.2509 7.77739 10.4113 7.70159C10.619 7.60352 10.6828 7.54509 10.7934 7.35167C10.8626 7.23067 10.8811 7.15172 10.8826 6.97177C10.8849 6.67184 10.8027 6.53002 10.3641 6.07839C9.80315 5.50072 9.22052 5.07213 8.5303 4.72932C7.90829 4.42042 7.55547 4.32214 7.27546 4.37977ZM16.3391 4.3804C16.0257 4.44394 15.1407 4.87484 14.699 5.1789C14.1498 5.55697 13.3541 6.3099 13.2057 6.59187C13.1234 6.74834 13.1193 7.18225 13.1987 7.3324C13.2816 7.48911 13.4284 7.62756 13.5906 7.7018C13.855 7.82291 14.972 7.83832 15.622 7.72978C16.1484 7.64189 17.0386 7.36987 17.3637 7.19765C17.5214 7.11408 17.6955 6.92277 17.8008 6.71757C17.8819 6.55934 17.893 6.4996 17.8922 6.22661C17.8913 5.93201 17.882 5.8924 17.7131 5.46688C17.5006 4.93151 17.4095 4.76358 17.2626 4.63622C17.0206 4.42653 16.6364 4.3201 16.3391 4.3804ZM11.3314 6.06831L11.2214 6.16898L11.2106 6.72161C11.1943 7.56546 11.2178 7.59067 12.021 7.59067C12.4525 7.59067 12.5512 7.581 12.6208 7.53183C12.7816 7.41825 12.7862 7.39729 12.7873 6.76785L12.7884 6.16949L12.6899 6.06856L12.5914 5.96761H12.0164H11.4415L11.3314 6.06831ZM11.231 8.10574C10.4226 8.28645 9.82158 8.61845 9.264 9.19222C8.79313 9.67679 8.46608 10.2333 8.2935 10.8434C8.16447 11.2998 8.13792 11.5977 8.13782 12.5919C8.13761 13.987 8.07049 14.5428 7.80322 15.362C7.54991 16.1383 7.12614 16.917 6.62474 17.5273L6.41928 17.7774V18.3653V18.9531L6.5288 19.0222C7.06555 19.3609 8.9111 19.5922 11.3899 19.6313C14.1331 19.6748 16.6554 19.433 17.3209 19.0629L17.4893 18.9692L17.4985 18.3755L17.5078 17.7817L17.2818 17.495C16.6131 16.6463 16.1162 15.5917 15.9262 14.6182C15.8242 14.0958 15.7878 13.5675 15.7877 12.6091C15.7876 11.6649 15.76 11.3651 15.6312 10.9099C15.25 9.56187 14.2005 8.50377 12.8988 8.15505C12.4406 8.03229 11.6624 8.00929 11.231 8.10574ZM7.73353 8.22719C6.60863 8.43342 5.53192 9.04483 4.64166 9.98289C4.42013 10.2163 4.36365 10.2966 4.36365 10.3783C4.36365 10.5572 4.43061 10.5833 5.27146 10.7314C5.70432 10.8076 6.06766 10.8791 6.07882 10.8903C6.09 10.9015 6.19134 11.1932 6.30403 11.5385C6.52664 12.2206 6.57284 12.29 6.77049 12.2392C6.84725 12.2194 6.88331 12.1699 6.96931 11.9662C7.21821 11.3766 7.71978 10.4025 7.99601 9.97233C8.36454 9.39849 8.63144 9.05298 9.03973 8.62128L9.35512 8.28783L9.19303 8.24732C8.94416 8.18516 8.03143 8.17259 7.73353 8.22719ZM15.0967 8.19936C15.0597 8.20682 14.9492 8.22958 14.8513 8.24988L14.6732 8.28683L14.9415 8.57726C15.7494 9.45188 16.4584 10.5867 17.0005 11.8728C17.0605 12.0152 17.133 12.159 17.1615 12.1922C17.2264 12.2679 17.364 12.2702 17.443 12.1969C17.4761 12.1663 17.5961 11.8555 17.7097 11.5063C17.8233 11.1571 17.9263 10.8713 17.9387 10.8712C17.9988 10.8709 19.485 10.5976 19.5342 10.5778C19.612 10.5464 19.6606 10.3895 19.6239 10.2878C19.5795 10.1647 19.0071 9.60362 18.6254 9.30898C17.8862 8.73832 17.0958 8.37492 16.2802 8.23068C16.0106 8.18299 15.2744 8.16351 15.0967 8.19936Z" fill="#C7404F"/>
<path fill-rule="evenodd" clip-rule="evenodd" d="M11.2262 8.11068C10.4179 8.29139 9.81685 8.62339 9.25927 9.19716C8.7884 9.68173 8.46135 10.2382 8.28878 10.8484C8.15974 11.3048 8.13319 11.6026 8.13309 12.5968C8.13289 13.9919 8.06576 14.5477 7.79849 15.367C7.54518 16.1433 7.12142 16.9219 6.62001 17.5323L6.41455 17.7824V18.3702V18.9581L6.52407 19.0272C7.06083 19.3658 8.90638 19.5971 11.3851 19.6363C14.1284 19.6797 16.6507 19.4379 17.3161 19.0678L17.4846 18.9741L17.4938 18.3804L17.5031 17.7867L17.2771 17.4999C16.6084 16.6512 16.1114 15.5966 15.9214 14.6231C15.8195 14.1007 15.7831 13.5724 15.7829 12.6141C15.7828 11.6698 15.7552 11.37 15.6265 10.9148C15.2453 9.5668 14.1958 8.50871 12.8941 8.15999C12.4359 8.03723 11.6577 8.01423 11.2262 8.11068Z" fill="#FAC761"/>
</svg>
