<svg width="24" height="24" viewBox="0 0 24 24" fill="none" xmlns="http://www.w3.org/2000/svg">
<path d="M20.7687 6.63818C20.7441 7.19537 20.8367 7.86248 21.3888 8.33838L21.5646 8.48975L19.6505 8.28369L19.6261 8.28174L19.6007 8.28076H19.5841C19.5766 8.28086 19.5671 8.28132 19.5558 8.28174C19.5329 8.28259 19.5012 8.28482 19.465 8.28857C19.4177 8.29348 19.3399 8.30381 19.255 8.32959L19.1681 8.36084C19.0681 8.40337 18.9023 8.4712 18.7277 8.54248C18.5558 8.61264 18.3758 8.68631 18.257 8.73682L18.2316 8.74658L18.2081 8.76025C18.1233 8.80773 18.0325 8.87737 17.963 8.97998C17.89 9.08801 17.8593 9.20465 17.8566 9.31201C17.8541 9.41041 17.8755 9.49017 17.8878 9.53076C17.894 9.55124 17.9013 9.57035 17.9034 9.57666C17.9031 9.57549 17.9029 9.57414 17.9025 9.57275V9.57178C17.9692 9.81023 18.0109 10.0581 18.0245 10.311C18.0795 11.3267 17.7567 12.0976 17.2628 12.8413C16.7748 13.5762 15.4132 14.8923 14.007 16.0483C13.3125 16.6192 12.6266 17.1344 12.0597 17.5044C11.7755 17.6899 11.5304 17.8335 11.3341 17.9282C11.2361 17.9755 11.1574 18.0068 11.0978 18.0259C11.0338 18.0464 11.0132 18.0454 11.0236 18.0454C11.033 18.0454 10.9859 18.0436 10.8575 17.9907C10.7397 17.9421 10.5887 17.8659 10.4083 17.7612C10.0485 17.5523 9.60449 17.2496 9.11731 16.8872C8.14393 16.1632 7.03437 15.224 6.15051 14.3726H6.14954C6.21342 14.4343 6.06797 14.2649 5.90344 14.1997C5.69668 14.1179 5.49506 14.1595 5.3302 14.2388V14.2378L3.81653 14.8813C3.6382 14.9572 3.51977 15.1027 3.4718 15.2681C3.43625 15.3907 3.44653 15.5014 3.45911 15.5728L2.0304 15.5786L3.0177 14.5571C3.05907 14.6137 3.13353 14.7017 3.2511 14.7632C3.39809 14.84 3.58402 14.8606 3.76575 14.7837L3.76672 14.7827C4.16191 14.6146 4.45798 14.4894 4.9259 14.2905L4.96692 14.2729L5.00403 14.2485C5.10072 14.1852 5.21162 14.0799 5.26477 13.9185C5.31839 13.7554 5.28873 13.6097 5.25208 13.5142C5.21765 13.4244 5.16906 13.357 5.14172 13.3218C5.12655 13.3022 5.11243 13.2853 5.10266 13.2739C5.0895 13.2586 5.08878 13.258 5.08411 13.2524C5.01829 13.1739 4.95872 13.1003 4.90637 13.0317L4.76965 12.8413C4.27731 12.1017 3.95318 11.327 4.00793 10.311C4.10516 8.51522 5.58984 7.04639 7.38098 7.04639C8.26101 7.0465 8.98613 7.51025 9.55774 8.0376C9.84109 8.29901 10.0715 8.56149 10.2609 8.7749C10.3507 8.87619 10.4433 8.98053 10.5236 9.05811C10.5633 9.09651 10.6151 9.14315 10.674 9.18311C10.7175 9.21266 10.8439 9.29443 11.0167 9.29443C11.1753 9.29434 11.2954 9.228 11.3478 9.1958C11.4111 9.15683 11.4669 9.11024 11.5109 9.0708C11.5991 8.9917 11.6974 8.88667 11.7931 8.78369C11.9946 8.5669 12.2324 8.30355 12.5216 8.03955C13.1067 7.50555 13.8214 7.04655 14.6515 7.04639C15.7423 7.04639 16.7185 7.58898 17.34 8.42627C17.3413 8.42805 17.3413 8.42827 17.3448 8.43311C17.3475 8.43677 17.3518 8.44249 17.3566 8.44873C17.366 8.46114 17.3806 8.47866 17.3986 8.49854C17.4357 8.5395 17.4919 8.59235 17.5714 8.63525C17.7468 8.7298 17.9332 8.72572 18.0919 8.68213L18.1241 8.67334L18.1544 8.66064C18.275 8.60945 18.4567 8.53535 18.6398 8.46045C18.82 8.3867 19.0033 8.31149 19.1193 8.26221C19.2331 8.21369 19.327 8.13892 19.3712 8.10205C19.3982 8.07951 19.4205 8.05855 19.4366 8.04346C19.4448 8.03588 19.452 8.0299 19.4572 8.0249L19.4669 8.01514V8.01416H19.4679L19.4865 7.99463L19.504 7.97412L20.7794 6.37646L20.7687 6.63818Z" fill="white" stroke="white"/>
</svg>
