<svg width="24" height="24" viewBox="0 0 24 24" fill="none" xmlns="http://www.w3.org/2000/svg">
<path fill-rule="evenodd" clip-rule="evenodd" d="M8.28354 7.61505C8.52523 7.29137 8.77559 6.9786 9.13985 6.78176C9.74291 6.45636 10.35 6.48449 10.9375 6.80529C11.1491 6.92122 11.1942 6.84431 11.2242 6.66182C11.3191 6.08678 11.4648 5.5215 11.7793 5.02566C12.2939 4.21131 12.5356 4.16999 13.3011 4.78233C13.3664 4.83513 13.4254 4.89768 13.4809 4.96253C13.7671 5.30113 13.7394 5.51002 13.378 5.77803C12.9837 6.06899 12.7761 6.46153 12.7027 6.94188C12.8565 6.96311 12.9195 6.85751 13.0085 6.80988C13.9059 6.34044 14.8669 6.54016 15.4757 7.35393C15.6388 7.57373 15.7295 7.60358 15.8695 7.35164C16.3632 6.46785 17.1767 6.24058 18.1007 6.38004C18.8321 6.48908 19.3802 6.94648 19.7607 7.56226C20.2637 8.37431 20.4661 9.28162 20.6112 10.2199C20.7338 11.0016 20.7569 11.7826 20.6916 12.5534C20.506 14.7405 19.8815 16.776 18.2979 18.4025C17.6301 19.0871 16.7986 19.4883 15.8191 19.4309C15.2155 19.3964 14.6107 19.2685 14.1938 18.7577C14.0776 18.6148 14.0106 18.6722 13.9296 18.7726C13.4069 19.4188 12.7021 19.6501 11.9001 19.6358C11.0803 19.6214 10.4026 19.296 9.89729 18.6676C9.21213 19.3431 8.40555 19.5422 7.47754 19.3717C5.99447 19.0997 5.20003 18.0294 4.50504 16.857C3.93436 15.894 3.61463 14.8329 3.39896 13.7436C3.26193 13.0469 3.26944 12.333 3.27522 11.6277C3.28158 11.0607 3.26482 10.4868 3.3741 9.92152C3.57184 8.88966 3.84301 7.88593 4.56344 7.07272C5.43825 6.08563 7.35149 5.99669 8.10835 7.37919C8.15345 7.4647 8.19045 7.5502 8.28354 7.61505ZM16.9935 14.3032C16.9935 14.1867 16.9969 14.0702 16.9929 13.9548C16.9877 13.7958 16.9189 13.7316 16.7737 13.8395C16.173 14.2871 15.4942 14.5872 14.7911 14.8294C14.3239 14.9907 13.8498 15.1715 13.4127 14.7187C13.1103 14.4042 13.0421 14.4162 12.683 14.6572C12.6131 14.7043 12.5425 14.7525 12.4697 14.7961C11.9192 15.1324 11.4856 15.261 11.0473 14.6291C10.8253 14.3083 10.7235 14.3255 10.3876 14.5482C10.3263 14.5895 10.265 14.6331 10.206 14.6779C9.68046 15.0779 9.12597 15.1014 8.54084 14.8082C7.98577 14.5304 7.50818 14.1413 7.03233 13.7545C6.83112 13.5921 6.7334 13.6093 6.70449 13.8624C6.66229 14.2326 6.68368 14.5976 6.84499 14.9448C7.041 15.3631 7.33704 15.7046 7.6643 16.0243C8.2477 16.5924 8.40092 16.6188 9.13696 16.2641C9.18495 16.2412 9.2312 16.2108 9.27977 16.1958C9.73307 16.0639 10.1748 15.9858 10.542 16.4002C10.7253 16.6062 10.9409 16.6682 11.1815 16.4811C11.2821 16.4025 11.3879 16.333 11.4844 16.2515C11.9545 15.8492 12.2286 15.863 12.6495 16.3175C13.0403 16.741 13.0947 16.7422 13.5075 16.3411C13.7637 16.0937 14.0372 15.8871 14.4182 15.8728C14.7003 15.8624 14.9073 15.9646 14.968 16.2435C15.0305 16.535 15.1866 16.5408 15.4057 16.426C15.4994 16.3766 15.596 16.3296 15.6827 16.2682C16.3661 15.7752 16.9929 15.2449 16.9935 14.3032ZM16.2262 12.3347C16.4026 12.3106 16.6864 12.4478 16.5465 12.0747C16.2355 11.2374 15.9284 10.399 15.6203 9.56054C15.5647 9.40961 15.5087 9.40501 15.4138 9.5393C14.8617 10.3232 14.3078 11.1049 13.7492 11.8842C13.6735 11.991 13.6596 12.0478 13.8163 12.065C14.6258 12.1539 15.4352 12.2458 16.2262 12.3347ZM7.83197 12.3267C8.54026 12.2452 9.31793 12.1539 10.0973 12.065C10.2563 12.0466 10.2731 11.9795 10.1852 11.8572C9.63999 11.0934 9.09359 10.329 8.5524 9.56168C8.44197 9.40558 8.38531 9.39353 8.31592 9.59152C8.04012 10.3766 7.75507 11.1582 7.4758 11.9422C7.33704 12.3313 7.34282 12.3382 7.83197 12.3267ZM11.9701 12.1803C11.8631 12.3496 11.7706 12.4897 11.6839 12.6331C11.5677 12.826 11.3023 13.0595 11.4046 13.2168C11.5232 13.3987 11.8562 13.2862 12.0944 13.2782C12.3668 13.2667 12.4171 13.1617 12.3032 12.9006C12.2025 12.6687 12.0915 12.4426 11.9701 12.1803Z" fill="#F58C6E"/>
</svg>
