<svg width="24" height="24" viewBox="0 0 24 24" fill="none" xmlns="http://www.w3.org/2000/svg">
<path d="M21.0106 6.49268C20.9853 7.06504 21.0811 7.75086 21.6483 8.23975L21.829 8.396L19.8622 8.18408L19.8368 8.18115L19.8114 8.18018H19.8046C19.8018 8.18018 19.7986 8.18111 19.7948 8.18115C19.787 8.18125 19.7765 8.18071 19.7645 8.18115C19.741 8.18203 19.7089 8.18414 19.6718 8.18799C19.607 8.19471 19.4866 8.2113 19.3671 8.26221C19.2643 8.3059 19.0934 8.37545 18.9139 8.44873C18.7378 8.52066 18.5535 8.59612 18.4315 8.64795L18.4052 8.65869L18.3807 8.67236C18.2937 8.72108 18.201 8.79274 18.1298 8.89795C18.0545 9.00908 18.0231 9.1293 18.0204 9.23975C18.0179 9.34096 18.04 9.42272 18.0526 9.46436C18.059 9.48531 18.066 9.50477 18.0682 9.51123L18.1132 9.69189C18.1549 9.87882 18.1818 10.0704 18.1923 10.2651C18.2487 11.3082 17.9172 12.1 17.41 12.8638C16.9088 13.6185 15.5105 14.9704 14.0663 16.1577C13.3532 16.744 12.6495 17.2738 12.0673 17.6538C11.7754 17.8443 11.5227 17.9911 11.3212 18.0884C11.2207 18.1369 11.1402 18.1693 11.079 18.189C11.0334 18.2036 11.0089 18.2074 11.0018 18.2085C10.9918 18.2065 10.9399 18.1964 10.8319 18.1519C10.7108 18.1019 10.5562 18.024 10.371 17.9165C10.0014 17.7019 9.54427 17.3913 9.04382 17.019C8.16926 16.3685 7.18816 15.5485 6.34851 14.7681L5.99792 14.437C6.06354 14.5005 5.91299 14.3262 5.74402 14.2593C5.53158 14.1752 5.3245 14.2179 5.15515 14.2993V14.2983L3.60144 14.9585C3.41789 15.0364 3.29623 15.1869 3.24695 15.3569C3.21051 15.4829 3.22133 15.5962 3.23425 15.6694L1.76746 15.6753L2.78113 14.6265C2.82364 14.6845 2.89927 14.7744 3.01941 14.8374C3.17042 14.9164 3.36194 14.9379 3.54871 14.8589L3.54968 14.8579C3.95557 14.6853 4.2595 14.5564 4.74011 14.3521L4.7821 14.3345L4.82117 14.3091C4.92042 14.244 5.03321 14.1359 5.08777 13.9702C5.14285 13.8028 5.11271 13.6534 5.07507 13.5552C5.03978 13.4632 4.9899 13.3942 4.96179 13.3579C4.94617 13.3378 4.9318 13.3198 4.92175 13.3081C4.90802 13.2921 4.9073 13.2917 4.90222 13.2856H4.90125C4.76637 13.1246 4.65911 12.9828 4.57996 12.8638L4.39929 12.5767C3.99762 11.9013 3.74853 11.1781 3.79773 10.2651C3.89773 8.42096 5.42219 6.9126 7.2616 6.9126C8.16537 6.91273 8.90991 7.38957 9.49695 7.93115C9.78795 8.19965 10.0251 8.46882 10.2196 8.68799C10.3119 8.79199 10.4067 8.89838 10.4891 8.97803C10.53 9.0175 10.5829 9.06582 10.6434 9.10693C10.6882 9.13728 10.8176 9.22212 10.995 9.22217C11.158 9.22217 11.281 9.15274 11.3348 9.11963C11.3999 9.07961 11.4576 9.03223 11.5028 8.9917C11.5934 8.91046 11.6945 8.80253 11.7928 8.69678C11.9999 8.47411 12.2448 8.20425 12.5419 7.93311C13.1427 7.38472 13.8759 6.91277 14.7284 6.9126C15.8482 6.9126 16.8509 7.46923 17.4891 8.32861V8.32959C17.4906 8.33158 17.4912 8.33131 17.495 8.33643C17.4977 8.34015 17.5019 8.34574 17.5067 8.35205C17.5165 8.36486 17.531 8.38415 17.5497 8.40479C17.5879 8.44687 17.6457 8.50041 17.7274 8.54443C17.9075 8.64152 18.0986 8.63801 18.2616 8.59326L18.2948 8.5835L18.326 8.5708C18.4498 8.51824 18.6362 8.44165 18.8241 8.36475C19.0091 8.28903 19.1972 8.21224 19.3163 8.16162C19.4333 8.11179 19.5296 8.03447 19.5751 7.99658C19.6029 7.97335 19.6268 7.95255 19.6434 7.93701C19.6518 7.92923 19.6587 7.9226 19.6639 7.91748L19.6942 7.88721L19.7118 7.86475L21.0223 6.22314L21.0106 6.49268Z" fill="white" stroke="white" stroke-width="1.02701"/>
</svg>
