<svg width="24" height="16" viewBox="0 0 24 16" fill="none" xmlns="http://www.w3.org/2000/svg">
<g clip-path="url(#clip0_16421_4596)">
<path d="M5.62875 0H18.3675V16H5.625L5.62875 0Z" fill="white"/>
<path d="M-0.73877 0H5.62873V16H-0.73877V0ZM18.3675 0H24.735V16H18.3712L18.3675 0Z" fill="#ED2224"/>
<path d="M7.45215 7.88033L7.90934 7.73366C8.18434 7.46366 7.74434 6.63699 7.59996 6.14366C8.0159 6.22699 8.63809 6.45366 8.82371 6.37699C9.00934 6.29699 9.10559 5.94366 9.24309 5.72699L10.3156 6.90366C10.4187 6.95699 10.5081 6.93033 10.5459 6.83033L10.075 4.36033L10.8621 4.78366C10.9103 4.82366 10.9721 4.81699 11.034 4.76033L11.8453 3.16699L12.6359 4.70033C12.6771 4.77699 12.7459 4.80366 12.8146 4.77366L13.6328 4.32699L13.1171 6.82033C13.1481 6.92033 13.1996 6.96699 13.32 6.93699L14.4406 5.74366L14.7568 6.32699C14.8359 6.54366 16.0631 6.13366 16.0631 6.13366C16.0012 6.67699 15.5681 7.53699 15.8706 7.76366L16.2384 7.89699L14.1312 9.59699C14.0006 10.0603 14.1278 10.2137 14.2687 10.5037L11.9759 10.237L12.0825 12.457L11.6046 12.467L11.6596 10.2337L9.37027 10.5137C9.50777 10.2737 9.72434 10.137 9.56277 9.68033L7.45215 7.88033Z" fill="#ED2224"/>
</g>
<defs>
<clipPath id="clip0_16421_4596">
<rect width="24" height="16" rx="2" fill="white"/>
</clipPath>
</defs>
</svg>
