<svg width="24" height="16" viewBox="0 0 24 16" fill="none" xmlns="http://www.w3.org/2000/svg">
<g clip-path="url(#clip0_16421_4589)">
<path fill-rule="evenodd" clip-rule="evenodd" d="M0 0H34.2V1.23333H0V0ZM0 2.46333H34.2V3.69667H0V2.46333ZM0 4.92333H34.2V6.15667H0V4.92333ZM0 7.38333H34.2V8.61667H0V7.38333ZM0 9.85H34.2V11.0767H0V9.85ZM0 12.3067H34.2V13.54H0V12.3067ZM0 14.7667H34.2V16H0V14.7667Z" fill="#BF2033"/>
<path fill-rule="evenodd" clip-rule="evenodd" d="M0 1.23334H34.2V2.46334H0V1.23334ZM0 3.69334H34.2V4.92334H0V3.69334ZM0 6.15334H34.2V7.38667H0V6.15334ZM0 8.61667H34.2V9.85H0V8.61667ZM0 11.0767H34.2V12.31H0V11.0767ZM0 13.5367H34.2V14.77H0V13.5367Z" fill="white"/>
<path fill-rule="evenodd" clip-rule="evenodd" d="M0 0H13.68V8.61667H0V0Z" fill="#192F5D"/>
<path fill-rule="evenodd" clip-rule="evenodd" d="M1.14002 0.366638L1.26752 0.709972H1.66502L1.34252 0.919972L1.46627 1.2633L1.14002 1.04997L0.817517 1.25997L0.937517 0.919972L0.611267 0.709972H1.02002L1.14002 0.366638ZM3.42002 0.366638L3.54377 0.709972H3.94877L3.62252 0.919972L3.74252 1.2633L3.42002 1.04997L3.09377 1.25997L3.21752 0.919972L2.89502 0.709972H3.29252L3.42002 0.366638ZM5.70002 0.366638L5.82377 0.709972H6.22502L5.90252 0.919972L6.02627 1.2633L5.70002 1.04997L5.37377 1.25997L5.49752 0.919972L5.17127 0.709972H5.57627L5.70002 0.366638ZM7.98002 0.366638L8.10377 0.709972H8.50877L8.18252 0.919972L8.30627 1.2633L7.98002 1.04997L7.65377 1.25997L7.78127 0.919972L7.45127 0.709972H7.85252L7.98002 0.366638ZM10.26 0.366638L10.3838 0.709972H10.785L10.4625 0.919972L10.5863 1.2633L10.26 1.04997L9.93377 1.25997L10.0575 0.919972L9.73502 0.709972H10.1363L10.26 0.366638ZM12.54 0.366638L12.6638 0.709972H13.0688L12.7388 0.919972L12.8663 1.2633L12.54 1.04997L12.2138 1.25997L12.3413 0.919972L12.0113 0.709972H12.4163L12.54 0.366638ZM2.28002 1.2333L2.40377 1.5733H2.81252L2.48627 1.77997L2.60627 2.1233L2.28752 1.9133L1.96127 2.1233L2.07752 1.77997L1.76252 1.5733H2.16377L2.28002 1.2333ZM4.56002 1.2333L4.68752 1.5733H5.08877L4.75877 1.77997L4.88627 2.1233L4.56002 1.9133L4.23377 2.1233L4.35752 1.77997L4.03127 1.5733H4.43627L4.56002 1.2333ZM6.84002 1.2333L6.96377 1.5733H7.36877L7.04252 1.77997L7.16627 2.1233L6.84002 1.9133L6.51377 2.1233L6.63752 1.77997L6.31502 1.5733H6.71252L6.84002 1.2333ZM9.12002 1.2333L9.24752 1.5733H9.64877L9.31877 1.77997L9.44627 2.1233L9.12002 1.9133L8.79752 2.1233L8.91752 1.77997L8.59127 1.5733H9.00002L9.12002 1.2333ZM11.4 1.2333L11.5238 1.5733H11.9288L11.6025 1.77997L11.7263 2.1233L11.4 1.9133L11.0738 2.1233L11.1975 1.77997L10.875 1.5733H11.2763L11.4 1.2333ZM1.14002 2.08664L1.26752 2.4333H1.66502L1.34252 2.64331L1.46627 2.9833L1.14002 2.7733L0.817517 2.9833L0.937517 2.64331L0.611267 2.4333H1.02002L1.14002 2.08664ZM3.42002 2.08664L3.54377 2.4333H3.94877L3.62252 2.64331L3.74252 2.9833L3.42002 2.7733L3.09377 2.9833L3.21752 2.63997L2.89502 2.42997H3.29252L3.42002 2.08664ZM5.70002 2.08664L5.82377 2.42997H6.22502L5.90252 2.63997L6.02627 2.97997L5.70002 2.76997L5.37377 2.97997L5.49752 2.63664L5.17127 2.42664H5.57627L5.70002 2.08664ZM7.98002 2.08664L8.10377 2.42997H8.50877L8.18252 2.63997L8.30627 2.97997L7.98002 2.76997L7.65377 2.97997L7.78127 2.63664L7.45127 2.42664H7.85252L7.98002 2.08664ZM10.26 2.08664L10.3838 2.42997H10.785L10.4625 2.63997L10.5863 2.97997L10.26 2.76997L9.93377 2.97997L10.0575 2.63664L9.73502 2.42664H10.1363L10.26 2.08664ZM12.54 2.08664L12.6638 2.42997H13.0688L12.7388 2.63997L12.8663 2.97997L12.54 2.76997L12.2138 2.97997L12.3413 2.63664L12.0113 2.42664H12.4163L12.54 2.08664ZM2.28002 2.9533L2.40377 3.29331H2.81252L2.48627 3.5033L2.61002 3.84664L2.28377 3.63331L1.95752 3.84331L2.08127 3.5033L1.75877 3.29331H2.16002L2.28002 2.9533ZM4.56002 2.9533L4.68752 3.29331H5.08877L4.75877 3.5033L4.88627 3.84664L4.56002 3.63331L4.23377 3.84331L4.35752 3.5033L4.03127 3.29331H4.43627L4.56002 2.9533ZM6.84002 2.9533L6.96377 3.29331H7.36877L7.04252 3.5033L7.16627 3.84664L6.84002 3.63331L6.51377 3.84331L6.63752 3.5033L6.31502 3.29331H6.71252L6.84002 2.9533ZM9.12002 2.9533L9.24752 3.29331H9.64877L9.32252 3.5033L9.44627 3.84664L9.12002 3.63331L8.79752 3.84331L8.91752 3.5033L8.59127 3.29331H9.00002L9.12002 2.9533ZM11.4 2.9533L11.5238 3.29331H11.9288L11.6025 3.5033L11.7263 3.84664L11.4 3.63331L11.0738 3.84331L11.1975 3.5033L10.875 3.29331H11.2763L11.4 2.9533ZM1.14002 3.81664L1.26752 4.15664H1.66502L1.34252 4.36664L1.46627 4.70997L1.14002 4.49664L0.817517 4.70664L0.937517 4.36664L0.611267 4.15664H1.02002L1.14002 3.81664ZM3.42002 3.81664L3.54377 4.15664H3.94877L3.62252 4.36664L3.74252 4.70664L3.42002 4.49664L3.09377 4.70664L3.21752 4.36664L2.89502 4.15664H3.29252L3.42002 3.81664ZM5.70002 3.81664L5.82377 4.15664H6.22502L5.90252 4.36664L6.02627 4.70997L5.70002 4.49664L5.37377 4.70664L5.49752 4.36664L5.17127 4.15664H5.57627L5.70002 3.81664ZM7.98002 3.81664L8.10377 4.15664H8.50877L8.18252 4.36664L8.30627 4.70997L7.98002 4.49664L7.65377 4.70664L7.78127 4.36664L7.45127 4.15664H7.85252L7.98002 3.81664ZM10.26 3.81664L10.3838 4.15664H10.785L10.4625 4.36664L10.5863 4.70997L10.26 4.49664L9.93377 4.70664L10.0575 4.36664L9.73502 4.15664H10.1363L10.26 3.81664ZM12.54 3.81664L12.6638 4.15664H13.0688L12.7388 4.36664L12.8663 4.70997L12.54 4.49664L12.2138 4.70664L12.3375 4.36664L12.0075 4.15664H12.4125L12.54 3.81664ZM2.28002 4.67664L2.40377 5.01997H2.81252L2.48627 5.22664L2.61002 5.56997L2.28377 5.35664L1.95752 5.56997L2.08127 5.22664L1.75877 5.01664H2.16002L2.28002 4.67664ZM4.56002 4.67664L4.68752 5.01997H5.08877L4.75877 5.22664L4.88627 5.56997L4.56002 5.35664L4.23377 5.56997L4.35752 5.22664L4.03127 5.01664H4.43627L4.56002 4.67664ZM6.84002 4.67664L6.96377 5.01997H7.36877L7.04252 5.22664L7.16627 5.56997L6.84002 5.35664L6.51377 5.56997L6.63752 5.22664L6.31502 5.01664H6.71252L6.84002 4.67664ZM9.12002 4.67664L9.24752 5.01997H9.64877L9.32252 5.22664L9.44627 5.56997L9.12002 5.35664L8.79752 5.56997L8.91752 5.22664L8.59127 5.01664H9.00002L9.12002 4.67664ZM11.4 4.67664L11.5238 5.01997H11.9288L11.6025 5.22664L11.7263 5.56997L11.4 5.35664L11.0738 5.56997L11.1975 5.22664L10.875 5.01664H11.2763L11.4 4.67664ZM1.14002 5.53664L1.26752 5.87997H1.66502L1.34252 6.08997L1.46627 6.42664L1.14002 6.21997L0.817517 6.42664L0.937517 6.08664L0.611267 5.87664H1.02002L1.14002 5.53664ZM3.42002 5.53664L3.54377 5.87997H3.94877L3.62252 6.08997L3.74627 6.42664L3.42002 6.21997L3.09377 6.42664L3.22127 6.08664L2.89502 5.87664H3.29252L3.42002 5.53664ZM5.70002 5.53664L5.82377 5.87997H6.22502L5.90252 6.08997L6.02627 6.42664L5.70002 6.21997L5.37377 6.42664L5.49752 6.08664L5.17127 5.87664H5.57627L5.70002 5.53664ZM7.98002 5.53664L8.10377 5.87997H8.50877L8.18252 6.08997L8.30627 6.42664L7.98002 6.21997L7.65377 6.42664L7.78127 6.08664L7.45127 5.87664H7.85252L7.98002 5.53664ZM10.26 5.53664L10.3838 5.87997H10.785L10.4625 6.08997L10.5863 6.42664L10.26 6.21997L9.93377 6.42664L10.0575 6.08664L9.73502 5.87664H10.1363L10.26 5.53664ZM12.54 5.53664L12.6638 5.87997H13.0688L12.7388 6.08997L12.8663 6.42664L12.54 6.21997L12.2138 6.42664L12.3413 6.08664L12.0113 5.87664H12.4163L12.54 5.53664ZM2.28002 6.39997L2.40377 6.73997H2.81252L2.48627 6.94997L2.61002 7.29331L2.28377 7.07997L1.95752 7.28997L2.08127 6.94997L1.75877 6.73997H2.16002L2.28002 6.39997ZM4.56002 6.39997L4.68752 6.73997H5.08877L4.75877 6.94997L4.88627 7.29331L4.56002 7.07997L4.23377 7.28997L4.35752 6.94997L4.03127 6.73997H4.43627L4.56002 6.39997ZM6.84002 6.39997L6.96377 6.73997H7.36877L7.04252 6.94997L7.16627 7.29331L6.84002 7.07997L6.51377 7.28997L6.63752 6.94997L6.31502 6.73997H6.71252L6.84002 6.39997ZM9.12002 6.39997L9.24752 6.73997H9.64877L9.32252 6.94997L9.44627 7.29331L9.12002 7.07997L8.79752 7.28997L8.91752 6.94997L8.59127 6.73997H9.00002L9.12002 6.39997ZM11.4 6.39997L11.5238 6.73997H11.9288L11.6025 6.94997L11.7263 7.29331L11.4 7.07997L11.0738 7.28997L11.1975 6.94997L10.875 6.73997H11.2763L11.4 6.39997ZM1.14002 7.26331L1.26752 7.60331H1.66502L1.34252 7.81331L1.46627 8.15331L1.14002 7.94331L0.817517 8.15331L0.937517 7.80997L0.611267 7.59997H1.02002L1.14002 7.26331ZM3.42002 7.26331L3.54377 7.60331H3.94877L3.62252 7.81331L3.74627 8.15331L3.42002 7.94331L3.09377 8.15331L3.22127 7.80997L2.89502 7.59997H3.29252L3.42002 7.26331ZM5.70002 7.26331L5.82377 7.60331H6.22502L5.91002 7.81331L6.03377 8.15331L5.70752 7.94331L5.38127 8.15331L5.50502 7.80997L5.17877 7.59997H5.58377L5.70002 7.26331ZM7.98002 7.26331L8.10377 7.60331H8.50877L8.18252 7.81331L8.30627 8.15331L7.98002 7.94331L7.65377 8.15331L7.78127 7.80997L7.45127 7.59997H7.85252L7.98002 7.26331ZM10.26 7.26331L10.3838 7.60331H10.785L10.4625 7.81331L10.5863 8.15331L10.26 7.94331L9.93377 8.15331L10.0575 7.80997L9.73502 7.59997H10.1363L10.26 7.26331ZM12.54 7.26331L12.6638 7.60331H13.0688L12.7388 7.81331L12.8663 8.15331L12.54 7.94331L12.2138 8.15331L12.3413 7.80997L12.0113 7.59997H12.4163L12.54 7.26331Z" fill="white"/>
</g>
<defs>
<clipPath id="clip0_16421_4589">
<rect width="24" height="16" rx="2" fill="white"/>
</clipPath>
</defs>
</svg>
