<svg width="24" height="24" viewBox="0 0 24 24" fill="none" xmlns="http://www.w3.org/2000/svg">
<path d="M21.5528 13.6055C22.0468 13.3585 22.6476 13.5588 22.8946 14.0527C23.1416 14.5467 22.9413 15.1476 22.4473 15.3945L12.4473 20.3945C12.1658 20.5353 11.8343 20.5353 11.5528 20.3945L1.5528 15.3945C1.05882 15.1476 0.858548 14.5467 1.10554 14.0527C1.35253 13.5588 1.95336 13.3585 2.44733 13.6055L12.0001 18.3818L21.5528 13.6055ZM11.6602 3.55958C11.9162 3.46706 12.2009 3.48225 12.4473 3.60548L22.4473 8.60548C22.7861 8.77487 23.0001 9.12124 23.0001 9.50001C23.0001 9.87878 22.7861 10.2251 22.4473 10.3945L12.4473 15.3945C12.1658 15.5353 11.8343 15.5353 11.5528 15.3945L1.5528 10.3945C1.21402 10.2251 1.00007 9.87878 1.00007 9.50001C1.00007 9.12124 1.21402 8.77487 1.5528 8.60548L11.5528 3.60548L11.6602 3.55958ZM4.2364 9.50001L12.0001 13.3818L19.7637 9.50001L12.0001 5.61817L4.2364 9.50001Z" fill="#2E3030"/>
</svg>
