<svg width="24" height="24" viewBox="0 0 24 24" fill="none" xmlns="http://www.w3.org/2000/svg">
<path d="M21.5528 16.1055C22.0468 15.8585 22.6476 16.0588 22.8946 16.5527C23.1416 17.0467 22.9413 17.6475 22.4473 17.8945L12.4473 22.8945C12.1658 23.0353 11.8343 23.0353 11.5528 22.8945L1.5528 17.8945C1.05882 17.6475 0.858548 17.0467 1.10554 16.5527C1.35253 16.0588 1.95336 15.8585 2.44733 16.1055L12.0001 20.8818L21.5528 16.1055ZM21.5528 11.1055C22.0468 10.8585 22.6476 11.0588 22.8946 11.5527C23.1416 12.0467 22.9413 12.6476 22.4473 12.8945L12.4473 17.8945C12.1658 18.0353 11.8343 18.0353 11.5528 17.8945L1.5528 12.8945C1.05882 12.6476 0.858548 12.0467 1.10554 11.5527C1.35253 11.0588 1.95336 10.8585 2.44733 11.1055L12.0001 15.8818L21.5528 11.1055ZM11.6602 1.05958C11.9162 0.967056 12.2009 0.98225 12.4473 1.10548L22.4473 6.10548C22.7861 6.27487 23.0001 6.62124 23.0001 7.00001C23.0001 7.37878 22.7861 7.72515 22.4473 7.89454L12.4473 12.8945C12.1658 13.0353 11.8343 13.0353 11.5528 12.8945L1.5528 7.89454C1.21402 7.72515 1.00007 7.37878 1.00007 7.00001C1.00007 6.62124 1.21402 6.27487 1.5528 6.10548L11.5528 1.10548L11.6602 1.05958ZM4.2364 7.00001L12.0001 10.8818L19.7637 7.00001L12.0001 3.11817L4.2364 7.00001Z" fill="#2E3030"/>
</svg>
