<svg width="24" height="24" viewBox="0 0 24 24" fill="none" xmlns="http://www.w3.org/2000/svg">
<path d="M12 0.897217C12.5155 0.897255 13.0225 1.03004 13.4717 1.28296C13.921 1.53591 14.2971 1.90073 14.5645 2.34155L13.709 2.86011L13.7451 2.83765L14.5645 2.34155L23.0381 16.4861L23.0459 16.4998C23.3079 16.9534 23.4468 17.4681 23.4483 17.9919C23.4497 18.5157 23.3131 19.0311 23.0537 19.4861C22.7943 19.941 22.4201 20.3201 21.9688 20.5857C21.5174 20.8512 21.0042 20.994 20.4805 20.9998H3.51857C2.99484 20.994 2.48169 20.8513 2.03028 20.5857C1.57891 20.3201 1.20471 19.941 0.945324 19.4861C0.685963 19.0311 0.550348 18.5157 0.551769 17.9919C0.553236 17.4681 0.692165 16.9534 0.954113 16.4998C0.956737 16.4952 0.959229 16.4906 0.961925 16.4861L9.43458 2.34155L9.54005 2.17944C9.79739 1.81095 10.1352 1.50427 10.5283 1.28296C10.9775 1.03011 11.4845 0.897217 12 0.897217ZM12 2.89722C11.8281 2.89722 11.6586 2.9418 11.5088 3.02612C11.3592 3.11043 11.2336 3.23185 11.1445 3.37866L2.68556 17.4998C2.59832 17.6508 2.55234 17.8224 2.55177 17.9968C2.55128 18.1713 2.59633 18.3433 2.68263 18.4949C2.7691 18.6466 2.89444 18.7735 3.04493 18.8621C3.19536 18.9505 3.36654 18.9978 3.54103 18.9998H20.459C20.6335 18.9978 20.8047 18.9506 20.9551 18.8621C21.1056 18.7735 21.23 18.6466 21.3164 18.4949C21.4028 18.3432 21.4487 18.1713 21.4483 17.9968C21.4477 17.8224 21.4007 17.6508 21.3135 17.4998L12.8545 3.37866L12.7813 3.27319C12.7014 3.17313 12.6025 3.08934 12.4902 3.02612C12.3405 2.94184 12.1718 2.89726 12 2.89722ZM12.0098 14.9998C12.562 14.9998 13.0097 15.4476 13.0098 15.9998C13.0098 16.552 12.5621 16.9998 12.0098 16.9998H12C11.4477 16.9998 11 16.552 11 15.9998C11.0001 15.4476 11.4478 14.9998 12 14.9998H12.0098ZM11 11.9998V7.99976C11.0001 7.44757 11.4478 6.99976 12 6.99976C12.5521 6.99988 12.9999 7.44764 13 7.99976V11.9998C13 12.552 12.5522 12.9996 12 12.9998C11.4477 12.9998 11 12.552 11 11.9998Z" fill="#2E3030"/>
</svg>
