<svg width="24" height="24" viewBox="0 0 24 24" fill="none" xmlns="http://www.w3.org/2000/svg">
<path d="M12.0001 6.99962C13.1259 6.99962 14.1643 7.3727 15.0001 8.0006V7.99962C15.0003 7.44751 15.4479 6.99963 16.0001 6.99962C16.5522 6.99962 16.9999 7.4475 17.0001 7.99962V12.9996C17.0001 13.5301 17.2109 14.0396 17.586 14.4147C17.961 14.7895 18.4698 14.9996 19.0001 14.9996C19.5303 14.9996 20.0391 14.7895 20.4141 14.4147C20.7892 14.0396 21.0001 13.5301 21.0001 12.9996V11.9996C20.9998 9.9685 20.3124 7.99691 19.0499 6.40587C17.7872 4.81484 16.023 3.69756 14.045 3.23595C12.067 2.77446 9.99074 2.99606 8.15436 3.86388C6.31804 4.73179 4.82891 6.19499 3.92975 8.01622C3.03057 9.83752 2.77462 11.9095 3.20221 13.8951C3.62987 15.8808 4.71605 17.664 6.28522 18.9537C7.8545 20.2435 9.81479 20.9647 11.8458 20.9996C13.8765 21.0344 15.8592 20.3809 17.4717 19.1461C17.9102 18.8104 18.5383 18.8933 18.8741 19.3317C19.2098 19.77 19.1268 20.3982 18.6885 20.734C16.7175 22.2435 14.2929 23.0413 11.8106 22.9986C9.32843 22.9559 6.93361 22.0749 5.01568 20.4986C3.09785 18.9224 1.76991 16.7438 1.24713 14.317C0.724432 11.8901 1.03785 9.35753 2.13678 7.13146C3.23579 4.9054 5.05534 3.11606 7.29986 2.05529C9.54451 0.994529 12.0824 0.724465 14.5001 1.28869C16.9176 1.8529 19.0731 3.21817 20.6163 5.16271C22.1595 7.10737 22.9998 9.51706 23.0001 11.9996V12.9996C23.0001 14.0605 22.5783 15.0786 21.8282 15.8287C21.0781 16.5787 20.0608 16.9996 19.0001 16.9996C17.9393 16.9996 16.922 16.5787 16.1719 15.8287C16.0127 15.6695 15.869 15.4972 15.7403 15.316C14.8243 16.3484 13.4887 16.9996 12.0001 16.9996C9.23864 16.9996 7.00006 14.761 7.00006 11.9996C7.00025 9.23837 9.23876 6.99963 12.0001 6.99962ZM9.00006 11.9996C9.00006 13.6565 10.3432 14.9996 12.0001 14.9996C13.6569 14.9996 15.0001 13.6565 15.0001 11.9996C14.9999 10.3429 13.6568 8.99962 12.0001 8.99962C10.3433 8.99963 9.00025 10.3429 9.00006 11.9996Z" fill="#2E3030"/>
</svg>
