<svg width="24" height="24" viewBox="0 0 24 24" fill="none" xmlns="http://www.w3.org/2000/svg">
<path d="M0 16V8.00003C0 7.20438 0.316297 6.44154 0.878906 5.87893C1.44152 5.31633 2.20435 5.00003 3 5.00003H6.19043C6.74252 5.00026 7.19043 5.44789 7.19043 6.00003C7.19043 6.55217 6.74252 6.9998 6.19043 7.00003H3C2.73478 7.00003 2.4805 7.10546 2.29297 7.293C2.10543 7.48053 2 7.73481 2 8.00003V16C2 16.2652 2.10543 16.5195 2.29297 16.7071C2.48051 16.8946 2.73478 17 3 17H5C5.55228 17 6 17.4477 6 18C6 18.5523 5.55228 19 5 19H3C2.20435 19 1.44151 18.6837 0.878906 18.1211C0.316297 17.5585 0 16.7957 0 16ZM10.168 5.44534C10.4743 4.98581 11.0952 4.86164 11.5547 5.168C12.0142 5.47435 12.1384 6.09519 11.832 6.55472L8.86816 11H13C13.3688 11 13.7078 11.2032 13.8818 11.5283C14.0557 11.8535 14.0366 12.2479 13.832 12.5547L9.83203 18.5547C9.52568 19.0142 8.90484 19.1384 8.44531 18.8321C7.98578 18.5257 7.86162 17.9049 8.16797 17.4453L11.1318 13H7C6.6312 13 6.29218 12.7969 6.11816 12.4717C5.94426 12.1466 5.96344 11.7521 6.16797 11.4453L10.168 5.44534ZM18 16V8.00003C18 7.73481 17.8946 7.48053 17.707 7.293C17.5195 7.10546 17.2652 7.00003 17 7.00003H15C14.4477 7.00003 14 6.55231 14 6.00003C14 5.44774 14.4477 5.00003 15 5.00003H17C17.7957 5.00003 18.5585 5.31633 19.1211 5.87893C19.6837 6.44154 20 7.20438 20 8.00003V16C20 16.7957 19.6837 17.5585 19.1211 18.1211C18.5585 18.6837 17.7957 19 17 19H13.8096C13.2575 18.9998 12.8096 18.5522 12.8096 18C12.8096 17.4479 13.2575 17.0003 13.8096 17H17C17.2652 17 17.5195 16.8946 17.707 16.7071C17.8946 16.5195 18 16.2652 18 16ZM22 13V11C22 10.4477 22.4477 10 23 10C23.5523 10 24 10.4477 24 11V13C24 13.5523 23.5523 14 23 14C22.4477 14 22 13.5523 22 13Z" fill="#2E3030"/>
</svg>
