<svg width="24" height="24" viewBox="0 0 24 24" fill="none" xmlns="http://www.w3.org/2000/svg">
<g clip-path="url(#clip0_1027_7204)">
<path d="M0.292893 0.292954C0.683417 -0.0975701 1.31643 -0.0975701 1.70696 0.292954L23.707 22.293C24.0975 22.6835 24.0975 23.3165 23.707 23.707C23.3164 24.0975 22.6834 24.0975 22.2929 23.707L16.5859 18H2.99992C2.55934 18 2.17067 17.7116 2.04289 17.29C1.91533 16.8687 2.0784 16.4135 2.44426 16.1689L2.44035 16.1709C2.43897 16.1718 2.43748 16.1731 2.43645 16.1738C2.44414 16.1681 2.46164 16.154 2.48821 16.1318C2.54142 16.0875 2.63061 16.0093 2.74309 15.8906C2.96748 15.6537 3.29028 15.2546 3.62199 14.6465C4.28282 13.435 4.99992 11.3526 4.99992 7.99999C4.99895 7.51664 5.04933 7.03518 5.14934 6.56346L0.292893 1.70702C-0.0976311 1.31649 -0.0976311 0.683479 0.292893 0.292954ZM12.8652 20.498C13.1423 20.0206 13.7538 19.858 14.2314 20.1348C14.7091 20.4119 14.8718 21.0242 14.5947 21.5019C14.3309 21.9564 13.9523 22.3334 13.497 22.5957C13.0416 22.858 12.5255 22.9961 11.9999 22.9961C11.4744 22.9961 10.9583 22.858 10.5029 22.5957C10.0475 22.3334 9.66891 21.9564 9.4052 21.5019C9.12808 21.0242 9.29075 20.4119 9.76848 20.1348C10.2461 19.858 10.8576 20.0206 11.1347 20.498C11.2226 20.6496 11.3491 20.7758 11.5009 20.8633C11.6527 20.9506 11.8248 20.9961 11.9999 20.9961C12.175 20.9961 12.3472 20.9506 12.4989 20.8633C12.6508 20.7758 12.7773 20.6496 12.8652 20.498ZM6.99407 8.40819C6.93813 11.8286 6.18526 14.1231 5.37785 15.6035C5.30159 15.7433 5.22364 15.8751 5.14739 16H14.5859L6.99407 8.40819ZM11.663 0.999009C12.9295 0.937982 14.189 1.22235 15.3066 1.82127C16.4242 2.42026 17.3582 3.31191 18.0087 4.40038C18.6591 5.48883 19.0018 6.73394 18.9999 8.00194C18.9999 8.0065 19 8.01105 18.9999 8.01561C18.9745 9.60925 19.1747 11.1988 19.5947 12.7363C19.7402 13.2691 19.4262 13.8193 18.8935 13.9648C18.3607 14.1104 17.8105 13.7964 17.665 13.2637C17.1953 11.5441 16.9715 9.76664 16.9999 7.98436C16.9987 7.08347 16.7542 6.19923 16.2919 5.42577C15.8273 4.64835 15.1595 4.01178 14.3613 3.58397C13.563 3.15626 12.6633 2.95342 11.7587 2.99706C10.8541 3.04075 9.97792 3.32936 9.22453 3.83202C8.76515 4.13823 8.14425 4.01397 7.83782 3.55467C7.53158 3.09529 7.65585 2.4744 8.11516 2.16795C9.16997 1.46426 10.3965 1.06011 11.663 0.999009Z" fill="#2E3030"/>
</g>
<defs>
<clipPath id="clip0_1027_7204">
<rect width="24" height="24" fill="white"/>
</clipPath>
</defs>
</svg>
