<svg width="24" height="24" viewBox="0 0 24 24" fill="none" xmlns="http://www.w3.org/2000/svg">
<g clip-path="url(#clip0_1027_7206)">
<path d="M0.292969 0.292954C0.683493 -0.0975701 1.31651 -0.0975701 1.70703 0.292954L10.4082 8.99413C10.4142 8.99982 10.4199 9.00584 10.4258 9.0117L15.9873 14.5732C15.9935 14.5794 15.9998 14.5855 16.0059 14.5918L23.707 22.293C24.0976 22.6835 24.0976 23.3165 23.707 23.707C23.3165 24.0975 22.6835 24.0975 22.293 23.707L20.5859 22H3C2.20435 22 1.44151 21.6837 0.878906 21.1211C0.316297 20.5585 0 19.7956 0 19V7.99999C0 7.20434 0.316297 6.4415 0.878906 5.87889C1.44152 5.31628 2.20435 4.99999 3 4.99999H3.58594L0.292969 1.70702C-0.0975556 1.31649 -0.0975556 0.683479 0.292969 0.292954ZM22 17.3398V7.99999C22 7.73477 21.8946 7.48049 21.707 7.29295C21.5195 7.10542 21.2652 6.99999 21 6.99999H17C16.6656 6.99999 16.3534 6.83287 16.168 6.55467L14.4648 3.99999H9C8.44772 3.99999 8 3.55227 8 2.99999C8 2.4477 8.44772 1.99999 9 1.99999H15C15.3344 1.99999 15.6466 2.1671 15.832 2.4453L17.5352 4.99999H21C21.7957 4.99999 22.5585 5.31628 23.1211 5.87889C23.6837 6.4415 24 7.20434 24 7.99999V17.3398C24 17.8921 23.5523 18.3398 23 18.3398C22.4477 18.3398 22 17.8921 22 17.3398ZM9.67969 11.0937C9.57329 11.2206 9.47702 11.3564 9.39258 11.5C9.16919 11.8798 9.03302 12.3044 8.99219 12.7431C8.9514 13.1821 9.00758 13.6254 9.15723 14.04C9.30688 14.4545 9.54584 14.831 9.85742 15.1426C10.169 15.4541 10.5455 15.6931 10.96 15.8428C11.3746 15.9924 11.8179 16.0486 12.2568 16.0078C12.6956 15.967 13.1202 15.8308 13.5 15.6074C13.6435 15.523 13.7784 15.4257 13.9053 15.3193L9.67969 11.0937ZM2 19C2 19.2652 2.10543 19.5195 2.29297 19.707C2.48051 19.8946 2.73478 20 3 20H18.5859L15.3223 16.7363C15.0737 16.96 14.8037 17.1605 14.5137 17.331C13.8805 17.7035 13.1729 17.932 12.4414 18C11.7099 18.0679 10.9723 17.974 10.2812 17.7246C9.59022 17.4752 8.96284 17.0761 8.44336 16.5566C7.92388 16.0371 7.5248 15.4098 7.27539 14.7187C7.02599 14.0277 6.93204 13.2901 7 12.5586C7.06797 11.8271 7.29653 11.1195 7.66895 10.4863C7.83953 10.1963 8.03895 9.92536 8.2627 9.67674L5.58594 6.99999H3C2.73478 6.99999 2.4805 7.10542 2.29297 7.29295C2.10543 7.48049 2 7.73477 2 7.99999V19Z" fill="#2E3030"/>
</g>
<defs>
<clipPath id="clip0_1027_7206">
<rect width="24" height="24" fill="white"/>
</clipPath>
</defs>
</svg>
