<svg width="24" height="24" viewBox="0 0 24 24" fill="none" xmlns="http://www.w3.org/2000/svg">
<path d="M2.00987 19C2.56216 19 3.00987 19.4477 3.00987 20C3.00987 20.5523 2.56216 21 2.00987 21H2.0001C1.44782 21 1.0001 20.5523 1.0001 20C1.0001 19.4477 1.44782 19 2.0001 19H2.00987ZM1.02061 15.9004C1.13098 15.3592 1.65915 15.0098 2.2003 15.1201C3.35324 15.3553 4.41122 15.9248 5.24327 16.7568C6.07531 17.5889 6.64478 18.6469 6.87999 19.7998C6.99035 20.341 6.64086 20.8691 6.09971 20.9795C5.55872 21.0897 5.03051 20.7411 4.92003 20.2002C4.76325 19.4315 4.38396 18.7257 3.82921 18.1709C3.27445 17.6161 2.56862 17.2369 1.79991 17.0801C1.25898 16.9696 0.910362 16.4414 1.02061 15.9004ZM2.11046 11.0557C4.36689 11.3066 6.4709 12.3185 8.07628 13.9238C9.68165 15.5292 10.6935 17.6332 10.9444 19.8896C11.0054 20.4385 10.6095 20.9331 10.0607 20.9941C9.51176 21.0552 9.01721 20.6592 8.95616 20.1104C8.75535 18.3053 7.94647 16.6221 6.66221 15.3379C5.37796 14.0536 3.69483 13.2448 1.88975 13.0439C1.34086 12.9829 0.944928 12.4883 1.00596 11.9395C1.067 11.3906 1.56165 10.9948 2.11046 11.0557ZM21.0001 18V6C21.0001 5.73478 20.8947 5.48051 20.7071 5.29297C20.5196 5.10543 20.2653 5 20.0001 5H4.0001C3.73489 5 3.48061 5.10543 3.29307 5.29297C3.10554 5.4805 3.0001 5.73478 3.0001 6V8C3.0001 8.55228 2.55239 9 2.0001 9C1.44782 9 1.0001 8.55228 1.0001 8V6C1.0001 5.20435 1.3164 4.44152 1.87901 3.87891C2.44162 3.3163 3.20446 3 4.0001 3H20.0001C20.7958 3 21.5586 3.3163 22.1212 3.87891C22.6838 4.44152 23.0001 5.20435 23.0001 6V18C23.0001 18.7957 22.6838 19.5585 22.1212 20.1211C21.5586 20.6837 20.7958 21 20.0001 21H14.0001C13.4478 21 13.0001 20.5523 13.0001 20C13.0001 19.4477 13.4478 19 14.0001 19H20.0001C20.2653 19 20.5196 18.8946 20.7071 18.707C20.8947 18.5195 21.0001 18.2652 21.0001 18Z" fill="#2E3030"/>
</svg>
