<svg width="24" height="24" viewBox="0 0 24 24" fill="none" xmlns="http://www.w3.org/2000/svg">
<path d="M16.2929 12.293C16.6834 11.9024 17.3164 11.9024 17.707 12.293C18.0975 12.6835 18.0975 13.3165 17.707 13.707L12.707 18.707C12.3164 19.0975 11.6834 19.0975 11.2929 18.707L6.29289 13.707C5.90237 13.3165 5.90237 12.6835 6.29289 12.293C6.68342 11.9024 7.31643 11.9024 7.70696 12.293L11.9999 16.5859L16.2929 12.293ZM16.2929 5.29295C16.6834 4.90243 17.3164 4.90243 17.707 5.29295C18.0975 5.68348 18.0975 6.31649 17.707 6.70702L12.707 11.707C12.3164 12.0975 11.6834 12.0975 11.2929 11.707L6.29289 6.70702C5.90237 6.31649 5.90237 5.68348 6.29289 5.29295C6.68342 4.90243 7.31643 4.90243 7.70696 5.29295L11.9999 9.58592L16.2929 5.29295Z" fill="#2E3030"/>
</svg>
