<svg width="24" height="24" viewBox="0 0 24 24" fill="none" xmlns="http://www.w3.org/2000/svg">
<g clip-path="url(#clip0_1027_7121)">
<path d="M21.9998 15C21.9998 13.9391 21.5781 12.922 20.828 12.1719C20.0778 11.4217 19.0607 11 17.9998 11H16.7401C16.2841 11 15.8853 10.6915 15.7713 10.25L16.7401 9.99998V9.999L15.7713 10.25C15.4439 8.98214 14.7678 7.83131 13.8192 6.92869C12.8705 6.0261 11.6876 5.40752 10.4051 5.14353C9.12259 4.87958 7.79126 4.98094 6.56331 5.43552C5.33549 5.89016 4.26021 6.68041 3.45882 7.7158C2.65741 8.75121 2.16236 9.99032 2.0301 11.2929C1.89791 12.5957 2.13367 13.9096 2.71077 15.0849C3.28791 16.2604 4.1831 17.2503 5.29475 17.9424C6.40631 18.6343 7.68952 19.0009 8.99885 19H17.9998C19.0607 19 20.0778 18.5782 20.828 17.8281C21.5781 17.078 21.9998 16.0608 21.9998 15ZM23.9998 15C23.9998 16.5911 23.3679 18.117 22.243 19.2422C21.1178 20.3674 19.5911 21 17.9998 21H8.99983C7.31669 21.0011 5.66705 20.53 4.23811 19.6406C2.80884 18.7509 1.6569 17.478 0.91487 15.9668C0.172929 14.4557 -0.130005 12.7666 0.03987 11.0918C0.209838 9.41679 0.846298 7.82257 1.87678 6.49119C2.9072 5.15993 4.29026 4.14405 5.86897 3.55955C7.44781 2.97506 9.15944 2.84514 10.8084 3.18455C12.4574 3.52396 13.9784 4.319 15.1981 5.47947C16.2277 6.45913 17.006 7.66703 17.4774 8.99998H17.9998C19.5911 8.99998 21.1178 9.63257 22.243 10.7578C23.3679 11.883 23.9998 13.4089 23.9998 15Z" fill="#2E3030"/>
</g>
<defs>
<clipPath id="clip0_1027_7121">
<rect width="24" height="24" fill="white"/>
</clipPath>
</defs>
</svg>
