<svg width="24" height="24" viewBox="0 0 24 24" fill="none" xmlns="http://www.w3.org/2000/svg">
<g clip-path="url(#clip0_1027_7234)">
<path d="M12.0096 21.0003C12.5619 21.0003 13.0096 21.448 13.0096 22.0003C13.0095 22.5524 12.5618 23.0003 12.0096 23.0003H11.9999C11.4477 23.0002 11 22.5524 10.9999 22.0003C10.9999 21.448 11.4476 21.0003 11.9999 21.0003H12.0096ZM8.00964 19.0003C8.56193 19.0003 9.00964 19.448 9.00964 20.0003C9.00949 20.5524 8.56183 21.0003 8.00964 21.0003H7.99988C7.4477 21.0002 7.00003 20.5524 6.99988 20.0003C6.99988 19.448 7.44761 19.0003 7.99988 19.0003H8.00964ZM16.0096 19.0003C16.5619 19.0003 17.0096 19.448 17.0096 20.0003C17.0095 20.5524 16.5618 21.0003 16.0096 21.0003H15.9999C15.4477 21.0002 15 20.5524 14.9999 20.0003C14.9999 19.448 15.4476 19.0003 15.9999 19.0003H16.0096ZM12.0096 17.0003C12.5619 17.0003 13.0096 17.448 13.0096 18.0003C13.0095 18.5524 12.5618 19.0003 12.0096 19.0003H11.9999C11.4477 19.0002 11 18.5524 10.9999 18.0003C10.9999 17.448 11.4476 17.0003 11.9999 17.0003H12.0096ZM8.08191 1.04616C9.50064 0.901691 10.9339 1.09662 12.2626 1.61452C13.5914 2.13253 14.7787 2.95899 15.7255 4.02565C16.4982 4.89632 17.0919 5.90733 17.4784 7.00026H18.0009C19.378 7.00188 20.713 7.47677 21.7811 8.34596C22.8493 9.21518 23.5856 10.4256 23.8671 11.7737C24.1485 13.1218 23.9582 14.5262 23.327 15.7503C22.6958 16.9742 21.6627 17.9439 20.4012 18.4964C19.8954 18.7179 19.3054 18.4866 19.0839 17.9807C18.8626 17.475 19.093 16.8859 19.5985 16.6643C20.4395 16.296 21.1289 15.6493 21.5497 14.8333C21.9703 14.0174 22.0975 13.0814 21.91 12.1829C21.7224 11.2841 21.2306 10.4772 20.5184 9.89772C19.8954 9.39074 19.1367 9.08425 18.3417 9.01491L17.9989 9.00026H16.7401C16.2842 9.00026 15.8854 8.69167 15.7714 8.25026L16.7401 8.00026V7.99928L15.7714 8.25026C15.494 7.17627 14.9657 6.18338 14.2294 5.35377C13.493 4.52414 12.5695 3.88167 11.536 3.47877C10.5026 3.07596 9.38848 2.92405 8.28503 3.03639C7.18157 3.14875 6.12036 3.52144 5.18933 4.12428C4.25824 4.72723 3.48358 5.54315 2.92956 6.50417C2.37562 7.46506 2.05805 8.54388 2.0028 9.65163C1.94763 10.7595 2.15645 11.865 2.61218 12.8762C3.06796 13.8875 3.75734 14.7765 4.6239 15.469C5.05535 15.8138 5.1259 16.4428 4.78113 16.8743C4.43643 17.3056 3.80729 17.376 3.37585 17.0315C2.26175 16.1412 1.37495 14.9986 0.788938 13.6985C0.202989 12.3984 -0.0661093 10.9773 0.00475812 9.55299C0.0757014 8.12854 0.484837 6.74074 1.19714 5.50514C1.90943 4.26965 2.90537 3.22074 4.10241 2.44557C5.29936 1.67056 6.66331 1.19066 8.08191 1.04616ZM8.00964 15.0003C8.56193 15.0003 9.00964 15.448 9.00964 16.0003C9.00949 16.5524 8.56183 17.0003 8.00964 17.0003H7.99988C7.4477 17.0002 7.00003 16.5524 6.99988 16.0003C6.99988 15.448 7.44761 15.0003 7.99988 15.0003H8.00964ZM16.0096 15.0003C16.5619 15.0003 17.0096 15.448 17.0096 16.0003C17.0095 16.5524 16.5618 17.0003 16.0096 17.0003H15.9999C15.4477 17.0002 15 16.5524 14.9999 16.0003C14.9999 15.448 15.4476 15.0003 15.9999 15.0003H16.0096Z" fill="#2E3030"/>
</g>
<defs>
<clipPath id="clip0_1027_7234">
<rect width="24" height="24" fill="white"/>
</clipPath>
</defs>
</svg>
