<svg width="24" height="24" viewBox="0 0 24 24" fill="none" xmlns="http://www.w3.org/2000/svg">
<g clip-path="url(#clip0_1027_7059)">
<path d="M0.292944 0.292952C0.683468 -0.0975679 1.31648 -0.0975708 1.70701 0.292952L23.707 22.293C24.0975 22.6835 24.0975 23.3165 23.707 23.707C23.3165 24.0975 22.6835 24.0975 22.2929 23.707L19.4131 20.8271C18.9514 20.9396 18.4777 20.9994 18.001 21H8.99998V20.999C6.99796 21.0277 5.04305 20.3888 3.44529 19.1816C1.84349 17.9713 0.692134 16.2602 0.174779 14.3203C-0.342554 12.3803 -0.195729 10.3229 0.590795 8.47557C1.20603 7.0307 2.18559 5.77948 3.4238 4.83787L0.292944 1.70701C-0.0975808 1.31649 -0.0975807 0.683476 0.292944 0.292952ZM4.85447 6.26854C3.78706 7.01643 2.94509 8.05058 2.43064 9.25877C1.81885 10.6956 1.70502 12.2957 2.1074 13.8047C2.50978 15.3136 3.40534 16.6445 4.65134 17.5859C5.89724 18.5273 7.42205 19.025 8.98337 19H17.5859L4.85447 6.26854ZM9.7783 3.00389C11.6368 3.16812 13.3985 3.906 14.8193 5.11522C16.0395 6.15376 16.9559 7.49622 17.4814 8.99998H18C18.9909 8.99901 19.9664 9.24383 20.8398 9.7119C21.7136 10.1802 22.4579 10.8575 23.0058 11.6836C23.5537 12.5096 23.8888 13.4583 23.9804 14.4453C24.072 15.4323 23.9178 16.4271 23.5312 17.3398C23.3158 17.8484 22.7283 18.0865 22.2197 17.8711C21.7112 17.6556 21.4741 17.0681 21.6894 16.5596C21.947 15.9513 22.0502 15.2886 21.9892 14.6308C21.9282 13.9728 21.7042 13.3398 21.3388 12.789C20.9736 12.2384 20.4779 11.7867 19.8955 11.4746C19.313 11.1624 18.6618 10.9992 18.001 11H16.7402C16.2827 11 15.8831 10.6895 15.7705 10.2461L16.7402 9.99998V9.99901L15.7705 10.2461C15.4133 8.83954 14.6276 7.5792 13.5224 6.63866C12.4173 5.69811 11.0471 5.12377 9.60154 4.99608C9.05164 4.94726 8.64576 4.46207 8.69431 3.91209C8.74291 3.36195 9.22815 2.95529 9.7783 3.00389Z" fill="#2E3030"/>
</g>
<defs>
<clipPath id="clip0_1027_7059">
<rect width="24" height="24" fill="white"/>
</clipPath>
</defs>
</svg>
