<svg width="24" height="24" viewBox="0 0 24 24" fill="none" xmlns="http://www.w3.org/2000/svg">
<g clip-path="url(#clip0_1027_7087)">
<path d="M10.9999 23.0003V15.0003C10.9999 14.448 11.4476 14.0003 11.9999 14.0003C12.5522 14.0003 12.9999 14.448 12.9999 15.0003V23.0003C12.9997 23.5524 12.5521 24.0003 11.9999 24.0003C11.4477 24.0002 11 23.5524 10.9999 23.0003ZM6.99988 21.0003V13.0003C6.99988 12.448 7.44761 12.0003 7.99988 12.0003C8.55216 12.0003 8.99988 12.448 8.99988 13.0003V21.0003C8.99972 21.5524 8.55206 22.0003 7.99988 22.0003C7.4477 22.0002 7.00003 21.5524 6.99988 21.0003ZM14.9999 21.0003V13.0003C14.9999 12.448 15.4476 12.0003 15.9999 12.0003C16.5522 12.0003 16.9999 12.448 16.9999 13.0003V21.0003C16.9997 21.5524 16.5521 22.0003 15.9999 22.0003C15.4477 22.0002 15 21.5524 14.9999 21.0003ZM8.08191 0.0461573C9.50064 -0.0983087 10.9339 0.0966204 12.2626 0.614517C13.5914 1.13253 14.7787 1.95899 15.7255 3.02565C16.4982 3.89632 17.0919 4.90733 17.4784 6.00026H18.0009C19.378 6.00188 20.713 6.47677 21.7811 7.34596C22.8493 8.21518 23.5856 9.42565 23.8671 10.7737C24.1485 12.1218 23.9582 13.5262 23.327 14.7503C22.6958 15.9742 21.6627 16.9439 20.4012 17.4964C19.8954 17.7179 19.3054 17.4866 19.0839 16.9807C18.8626 16.475 19.093 15.8859 19.5985 15.6643C20.4395 15.296 21.1289 14.6493 21.5497 13.8333C21.9703 13.0174 22.0975 12.0814 21.91 11.1829C21.7224 10.2841 21.2306 9.47722 20.5184 8.89772C19.8954 8.39074 19.1367 8.08425 18.3417 8.01491L17.9989 8.00026H16.7401C16.2842 8.00026 15.8854 7.69167 15.7714 7.25026L16.7401 7.00026V6.99928L15.7714 7.25026C15.494 6.17627 14.9657 5.18338 14.2294 4.35377C13.493 3.52414 12.5695 2.88167 11.536 2.47877C10.5026 2.07596 9.38848 1.92405 8.28503 2.03639C7.18157 2.14875 6.12036 2.52144 5.18933 3.12428C4.25824 3.72723 3.48358 4.54315 2.92956 5.50417C2.37562 6.46506 2.05805 7.54388 2.0028 8.65163C1.94763 9.75947 2.15645 10.865 2.61218 11.8762C3.06796 12.8875 3.75734 13.7765 4.6239 14.469C5.05535 14.8138 5.1259 15.4428 4.78113 15.8743C4.43643 16.3056 3.80729 16.376 3.37585 16.0315C2.26175 15.1412 1.37495 13.9986 0.788938 12.6985C0.202989 11.3984 -0.0661093 9.9773 0.00475812 8.55299C0.0757014 7.12854 0.484837 5.74074 1.19714 4.50514C1.90943 3.26965 2.90537 2.22074 4.10241 1.44557C5.29936 0.670561 6.66331 0.190663 8.08191 0.0461573Z" fill="#2E3030"/>
</g>
<defs>
<clipPath id="clip0_1027_7087">
<rect width="24" height="24" fill="white"/>
</clipPath>
</defs>
</svg>
