<svg width="24" height="24" viewBox="0 0 24 24" fill="none" xmlns="http://www.w3.org/2000/svg">
<g clip-path="url(#clip0_1027_7282)">
<path d="M12.1681 10.445C12.4745 9.98569 13.0953 9.86143 13.5548 10.1676C14.0142 10.4739 14.1383 11.0949 13.8321 11.5544L10.8683 15.9997H15.0001C15.3689 15.9997 15.7079 16.2029 15.8819 16.528C16.0559 16.8531 16.0365 17.2475 15.8321 17.5544L11.8321 23.5544C11.5258 24.0139 10.9049 24.1381 10.4454 23.8317C9.98595 23.5253 9.86173 22.9045 10.1681 22.445L13.1319 17.9997H9.00009C8.6313 17.9997 8.29228 17.7965 8.11826 17.4714C7.94448 17.1463 7.96358 16.7517 8.16806 16.445L12.1681 10.445ZM7.51767 0.122727C8.98786 -0.121707 10.4962 0.00278562 11.9063 0.485032C13.3165 0.967282 14.5851 1.79192 15.5978 2.88542C16.4322 3.78651 17.0709 4.84702 17.4786 5.99968H18.0001C19.4877 5.99845 20.9225 6.55046 22.0265 7.54753C23.1307 8.54484 23.8252 9.91676 23.9747 11.3971C24.1242 12.8774 23.7184 14.3604 22.836 15.5583C21.9536 16.7562 20.6574 17.5834 19.1993 17.8796C18.6581 17.9894 18.1296 17.6404 18.0196 17.0993C17.9097 16.5581 18.2597 16.0295 18.8009 15.9196C19.7729 15.7222 20.6374 15.1713 21.2257 14.3727C21.8139 13.5741 22.0841 12.5852 21.9845 11.5983C21.8848 10.6114 21.4218 9.69678 20.6856 9.03191C19.9495 8.36706 18.993 7.99869 18.0011 7.99968H16.7403C16.2844 7.99968 15.8856 7.69116 15.7716 7.24968L16.7403 6.99968V6.9987L15.7716 7.24968C15.4817 6.12753 14.9175 5.09518 14.13 4.2448C13.3424 3.39429 12.3557 2.75269 11.2589 2.37761C10.1621 2.00259 8.9892 1.90528 7.8458 2.09538C6.70251 2.28553 5.62442 2.7568 4.7081 3.46648C3.79178 4.17619 3.06585 5.10236 2.5958 6.16179C2.12575 7.22139 1.92588 8.382 2.01474 9.53777C2.10367 10.6933 2.47821 11.8087 3.10459 12.7839C3.73109 13.7591 4.5904 14.5633 5.60459 15.1247C6.08766 15.3921 6.26245 16.0009 5.99521 16.4841C5.72775 16.9673 5.11904 17.1421 4.63584 16.8747C3.3319 16.1529 2.22747 15.1188 1.42197 13.8649C0.616546 12.6111 0.134921 11.1769 0.0206023 9.69109C-0.093656 8.2051 0.163332 6.71359 0.767673 5.35124C1.37201 3.98893 2.30523 2.79802 3.48349 1.88542C4.66162 0.972966 6.04772 0.367208 7.51767 0.122727Z" fill="#2E3030"/>
</g>
<defs>
<clipPath id="clip0_1027_7282">
<rect width="24" height="24" fill="white"/>
</clipPath>
</defs>
</svg>
