<svg width="24" height="24" viewBox="0 0 24 24" fill="none" xmlns="http://www.w3.org/2000/svg">
<path d="M7.29289 5.29295C7.68342 4.90243 8.31643 4.90243 8.70696 5.29295C9.09748 5.68348 9.09748 6.31649 8.70696 6.70702L3.41399 12L8.70696 17.293C9.09748 17.6835 9.09748 18.3165 8.70696 18.707C8.31643 19.0975 7.68342 19.0975 7.29289 18.707L1.29289 12.707C0.902369 12.3165 0.902369 11.6835 1.29289 11.293L7.29289 5.29295ZM15.2929 5.29295C15.6834 4.90243 16.3164 4.90243 16.707 5.29295L22.707 11.293C23.0975 11.6835 23.0975 12.3165 22.707 12.707L16.707 18.707C16.3164 19.0975 15.6834 19.0975 15.2929 18.707C14.9024 18.3165 14.9024 17.6835 15.2929 17.293L20.5859 12L15.2929 6.70702C14.9024 6.31649 14.9024 5.68348 15.2929 5.29295Z" fill="#2E3030"/>
</svg>
