<svg width="24" height="24" viewBox="0 0 24 24" fill="none" xmlns="http://www.w3.org/2000/svg">
<path d="M8 16H6C5.46957 16 4.96101 16.2109 4.58594 16.5859C4.21087 16.961 4 17.4696 4 18C4 18.5304 4.21086 19.039 4.58594 19.4141C4.96101 19.7891 5.46957 20 6 20C6.53043 20 7.03899 19.7891 7.41406 19.4141C7.78913 19.039 8 18.5304 8 18V16ZM20 18C20 17.4696 19.7891 16.961 19.4141 16.5859C19.039 16.2109 18.5304 16 18 16H16V18C16 18.5304 16.2109 19.039 16.5859 19.4141C16.961 19.7891 17.4696 20 18 20C18.5304 20 19.039 19.7891 19.4141 19.4141C19.7891 19.039 20 18.5304 20 18ZM10 14H14V10H10V14ZM8 6C8 5.46957 7.78913 4.96101 7.41406 4.58594C7.03899 4.21087 6.53043 4 6 4C5.46957 4 4.96101 4.21086 4.58594 4.58594C4.21086 4.96101 4 5.46957 4 6C4 6.53043 4.21087 7.03899 4.58594 7.41406C4.96101 7.78913 5.46957 8 6 8H8V6ZM20 6C20 5.46957 19.7891 4.96101 19.4141 4.58594C19.039 4.21086 18.5304 4 18 4C17.4696 4 16.961 4.21087 16.5859 4.58594C16.2109 4.96101 16 5.46957 16 6V8H18C18.5304 8 19.039 7.78913 19.4141 7.41406C19.7891 7.03899 20 6.53043 20 6ZM22 6C22 7.06087 21.5783 8.07798 20.8281 8.82812C20.078 9.57827 19.0609 10 18 10H16V14H18C19.0609 14 20.078 14.4217 20.8281 15.1719C21.5783 15.922 22 16.9391 22 18C22 19.0609 21.5783 20.078 20.8281 20.8281C20.078 21.5783 19.0609 22 18 22C16.9391 22 15.922 21.5783 15.1719 20.8281C14.4217 20.078 14 19.0609 14 18V16H10V18C10 19.0609 9.57827 20.078 8.82812 20.8281C8.07798 21.5783 7.06087 22 6 22C4.93913 22 3.92202 21.5783 3.17188 20.8281C2.42173 20.078 2 19.0609 2 18C2 16.9391 2.42173 15.922 3.17188 15.1719C3.92202 14.4217 4.93913 14 6 14H8V10H6C4.93913 10 3.92202 9.57827 3.17188 8.82812C2.42173 8.07798 2 7.06087 2 6C2 4.93913 2.42173 3.92202 3.17188 3.17188C3.92202 2.42173 4.93913 2 6 2C7.06087 2 8.07798 2.42173 8.82812 3.17188C9.57827 3.92202 10 4.93913 10 6V8H14V6C14 4.93913 14.4217 3.92202 15.1719 3.17188C15.922 2.42173 16.9391 2 18 2C19.0609 2 20.078 2.42173 20.8281 3.17188C21.5783 3.92202 22 4.93913 22 6Z" fill="#2E3030"/>
</svg>
