<svg width="24" height="24" viewBox="0 0 24 24" fill="none" xmlns="http://www.w3.org/2000/svg">
<path d="M18.9999 20V13C18.9999 12.2044 18.6836 11.4416 18.121 10.879C17.5584 10.3163 16.7956 10 15.9999 10H6.41399L9.70696 13.293C10.0975 13.6835 10.0975 14.3166 9.70696 14.7071C9.31643 15.0976 8.68342 15.0976 8.29289 14.7071L3.29289 9.70708C2.90237 9.31655 2.90237 8.68354 3.29289 8.29302L8.29289 3.29302C8.68342 2.90249 9.31643 2.90249 9.70696 3.29302C10.0975 3.68354 10.0975 4.31655 9.70696 4.70708L6.41399 8.00005H15.9999C17.326 8.00005 18.5974 8.52721 19.5351 9.46489C20.4728 10.4026 20.9999 11.674 20.9999 13V20C20.9999 20.5523 20.5522 21 19.9999 21C19.4476 21 18.9999 20.5523 18.9999 20Z" fill="#2E3030"/>
</svg>
