<svg width="24" height="24" viewBox="0 0 24 24" fill="none" xmlns="http://www.w3.org/2000/svg">
<g clip-path="url(#clip0_1027_7090)">
<path d="M10.9998 12.0001C10.9998 11.4478 11.4476 11.0002 11.9998 11.0001C12.5521 11.0001 12.9998 11.4478 12.9998 12.0001V18.586L15.2928 16.293C15.6833 15.9025 16.3164 15.9026 16.7069 16.293C17.0974 16.6836 17.0974 17.3166 16.7069 17.7071L12.7069 21.7071C12.3163 22.0975 11.6833 22.0976 11.2928 21.7071L7.29282 17.7071C6.90239 17.3166 6.90243 16.6835 7.29282 16.293C7.68332 15.9025 8.31635 15.9026 8.70688 16.293L10.9998 18.586V12.0001ZM8.66782 1.9942C10.0281 1.94531 11.3816 2.20601 12.6268 2.75592C13.8721 3.30594 14.9771 4.13142 15.8573 5.16999C16.5673 6.00793 17.113 6.96823 17.4764 8.00006H17.9998C19.275 7.99919 20.5175 8.40437 21.5467 9.15729C22.576 9.91027 23.3382 10.9719 23.7235 12.1876C24.1087 13.4034 24.0962 14.7106 23.6883 15.919C23.2804 17.1273 22.4982 18.1747 21.4549 18.9083C21.0032 19.2256 20.38 19.1167 20.0623 18.6651C19.7447 18.2133 19.8528 17.5892 20.3045 17.2715C21 16.7825 21.5219 16.0849 21.7938 15.2794C22.0657 14.4738 22.074 13.6025 21.8172 12.7921C21.5604 11.9816 21.0522 11.2736 20.3661 10.7715C19.6798 10.2695 18.8511 9.9994 18.0008 10.0001H16.7401C16.2835 10.0001 15.8848 9.69034 15.7713 9.24811L16.7401 9.00006V8.99909L15.7713 9.24811C15.5081 8.22267 15.0154 7.27061 14.3309 6.46295C13.6463 5.65518 12.7878 5.01282 11.8192 4.58502C10.8506 4.15725 9.79724 3.95517 8.73911 3.99323C7.68109 4.03134 6.64503 4.30855 5.70981 4.80475C4.77473 5.30094 3.96437 6.00288 3.33969 6.85748C2.71491 7.71234 2.29218 8.69843 2.10336 9.7403C1.91459 10.7821 1.96482 11.8534 2.24985 12.8731C2.5349 13.8926 3.04734 14.8342 3.74887 15.627C4.11487 16.0406 4.07653 16.6731 3.66293 17.0391C3.24938 17.4051 2.61684 17.3667 2.25083 16.9532C1.34864 15.9337 0.689582 14.7223 0.323091 13.4112C-0.0433446 12.1002 -0.10709 10.7232 0.135591 9.38385C0.37834 8.0444 0.921252 6.77685 1.72446 5.6778C2.52775 4.57869 3.57071 3.6762 4.77329 3.03815C5.9758 2.40019 7.30744 2.04313 8.66782 1.9942Z" fill="#2E3030"/>
</g>
<defs>
<clipPath id="clip0_1027_7090">
<rect width="24" height="24" fill="white"/>
</clipPath>
</defs>
</svg>
