<svg width="24" height="24" viewBox="0 0 24 24" fill="none" xmlns="http://www.w3.org/2000/svg">
<g clip-path="url(#clip0_1027_7292)">
<path d="M0.292893 0.293015C0.683417 -0.097509 1.31643 -0.097509 1.70696 0.293015L18.6474 17.2325C18.6501 17.2352 18.6525 17.2385 18.6552 17.2413L23.707 22.293C24.0975 22.6835 24.0975 23.3166 23.707 23.7071C23.3164 24.0976 22.6834 24.0976 22.2929 23.7071L17.8251 19.2393C16.0954 20.3525 14.0848 20.9662 12.0165 21C12.0111 21.0001 12.0054 21 11.9999 21C8.10042 21 5.10445 18.7733 3.14543 16.6836C2.15705 15.6293 1.40216 14.5791 0.894456 13.793C0.640037 13.3991 0.446196 13.0684 0.314378 12.834C0.24849 12.7169 0.197794 12.6234 0.16301 12.5577C0.145652 12.5249 0.131528 12.4991 0.121995 12.4805C0.117276 12.4713 0.114039 12.4636 0.111253 12.4581C0.109855 12.4553 0.108249 12.453 0.107346 12.4512L0.10637 12.4493L0.105393 12.4483C0.105209 12.4479 0.105497 12.4473 0.999924 12L0.105393 12.4483C-0.0399169 12.1577 -0.0345644 11.8137 0.119065 11.5274C1.25059 9.41869 2.75947 7.53945 4.56828 5.98247L0.292893 1.70708C-0.0976311 1.31655 -0.0976311 0.68354 0.292893 0.293015ZM5.98625 7.40141C4.44985 8.70125 3.1501 10.2584 2.14348 12.003C2.25249 12.1912 2.39585 12.431 2.57414 12.7071C3.03516 13.4209 3.71805 14.371 4.60442 15.3165C6.39313 17.2244 8.89321 18.9946 11.9882 18.9991C13.5345 18.973 15.0406 18.5512 16.3691 17.7842L14.0478 15.4629C13.8893 15.5622 13.7243 15.6521 13.5527 15.7286C13.0622 15.947 12.5329 16.0647 11.996 16.0743C11.4589 16.0837 10.9248 15.9854 10.4267 15.7842C9.92866 15.583 9.47641 15.2832 9.0966 14.9034C8.7168 14.5236 8.41692 14.0713 8.21574 13.5733C8.01457 13.0752 7.91623 12.541 7.92571 12.004C7.93523 11.4671 8.05293 10.9378 8.27141 10.4473C8.34792 10.2756 8.4367 10.1098 8.53606 9.95122L5.98625 7.40141ZM11.9999 3.00005C15.8994 3.00005 18.8954 5.22683 20.8544 7.31645C21.8428 8.37076 22.5977 9.421 23.1054 10.2071C23.3598 10.601 23.5537 10.9317 23.6855 11.1661C23.7514 11.2832 23.8021 11.3767 23.8368 11.4424C23.8542 11.4752 23.8683 11.501 23.8779 11.5196C23.8826 11.5288 23.8858 11.5365 23.8886 11.542C23.89 11.5448 23.8916 11.5471 23.8925 11.5489L23.8935 11.5508L23.8945 11.5518C23.8946 11.5522 23.8944 11.5528 22.9999 12L23.8945 11.5518C24.0395 11.8419 24.0347 12.1857 23.8818 12.4717C23.242 13.6686 22.4792 14.7956 21.6054 15.834C21.2498 16.2566 20.6188 16.3107 20.1962 15.9551C19.7736 15.5995 19.7195 14.9685 20.0751 14.5459C20.7439 13.7512 21.3392 12.898 21.8564 11.9981C21.7473 11.8097 21.6042 11.5695 21.4257 11.293C20.9647 10.5792 20.2818 9.6291 19.3954 8.68364C17.6045 6.77332 15.1003 5.00005 11.9999 5.00005H11.998C11.3686 4.99857 10.7407 5.07046 10.1279 5.21391C9.59011 5.33977 9.05255 5.00556 8.92668 4.46782C8.80085 3.93017 9.13422 3.39263 9.6718 3.26665C10.4348 3.08804 11.2163 2.99839 11.9999 3.00005ZM10.0273 11.4424C9.96318 11.6347 9.92929 11.8367 9.92571 12.0401C9.92104 12.3085 9.96971 12.5754 10.0702 12.8243C10.1708 13.0732 10.3208 13.2994 10.5107 13.4893C10.7005 13.6792 10.9267 13.8291 11.1757 13.9297C11.4247 14.0303 11.6923 14.079 11.9609 14.0743C12.1639 14.0706 12.3646 14.0356 12.5566 13.9717L10.0273 11.4424Z" fill="#2E3030"/>
</g>
<defs>
<clipPath id="clip0_1027_7292">
<rect width="24" height="24" fill="white"/>
</clipPath>
</defs>
</svg>
