<svg width="24" height="24" viewBox="0 0 24 24" fill="none" xmlns="http://www.w3.org/2000/svg">
<path d="M12.0002 7C14.4211 7.00009 16.4396 8.72082 16.9006 11.0059C16.9366 11.002 16.9731 11 17.01 11H22.9602C23.5124 11.0001 23.9602 11.4478 23.9602 12C23.9602 12.5522 23.5124 12.9999 22.9602 13H17.01C16.973 13 16.9366 12.9971 16.9006 12.9932C16.44 15.2787 14.4215 16.9999 12.0002 17C9.57955 17 7.56024 15.2798 7.09888 12.9951C7.06643 12.9983 7.03353 13 7.00024 13H1.05005C0.497764 13 0.0500488 12.5523 0.0500488 12C0.0500488 11.4477 0.497764 11 1.05005 11H7.00024C7.0335 11 7.06646 11.0007 7.09888 11.0039C7.56061 8.71968 9.57988 7 12.0002 7ZM12.0002 9C10.3434 9 9.00024 10.3431 9.00024 12C9.00024 13.6569 10.3434 15 12.0002 15C13.657 14.9999 15.0002 13.6568 15.0002 12C15.0002 10.3432 13.657 9.00011 12.0002 9Z" fill="#2E3030"/>
</svg>
