<svg width="24" height="24" viewBox="0 0 24 24" fill="none" xmlns="http://www.w3.org/2000/svg">
<g clip-path="url(#clip0_1027_7100)">
<path d="M19.9102 0.998628L20.8292 0.60605C21.3636 1.85288 21.4616 3.23672 21.1202 4.53769C22.0101 5.66813 22.4998 7.0698 22.5001 8.52011C22.5001 11.4662 21.5991 13.4424 20.1016 14.7018C19.0947 15.5484 17.8911 16.005 16.7051 16.2662C16.7207 16.3058 16.7376 16.3453 16.752 16.3853C16.9552 16.9495 17.0387 17.5491 17.0001 18.1471V21.9996C17.0001 22.5519 16.5524 22.9996 16.0001 22.9996C15.4478 22.9996 15.0001 22.5519 15.0001 21.9996V18.1305C15.0001 18.1043 15.0009 18.0775 15.003 18.0514L16.0001 18.1305H16.0059L15.003 18.0514C15.0293 17.7162 14.984 17.3794 14.8702 17.0631C14.7562 16.7466 14.576 16.4579 14.3419 16.2164C14.0763 15.9425 13.9903 15.5412 14.1192 15.1822C14.2482 14.8232 14.5701 14.5682 14.9493 14.526C16.4631 14.3572 17.8276 13.9995 18.8135 13.1705C19.6923 12.4316 20.4055 11.2003 20.4913 8.97812L20.5001 8.52011C20.4998 7.38063 20.0612 6.28486 19.2755 5.45957C19.0117 5.1824 18.9298 4.77897 19.0635 4.4205C19.351 3.65024 19.3947 2.81652 19.2012 2.02792C19.1993 2.02835 19.1973 2.02944 19.1954 2.02988C18.7076 2.13818 17.8441 2.44812 16.5567 3.31113C16.3163 3.47214 16.0176 3.52061 15.7383 3.44492C13.6178 2.87024 11.3824 2.87024 9.26179 3.44492C8.9825 3.52061 8.68384 3.47214 8.44343 3.31113C7.15599 2.44812 6.29252 2.13818 5.80476 2.02988C5.80248 2.02937 5.80018 2.02842 5.79792 2.02792C5.6045 2.81645 5.64917 3.65032 5.93659 4.4205C6.07037 4.77897 5.98843 5.1824 5.72468 5.45957C4.93313 6.29096 4.49401 7.39661 4.50007 8.54453L3.40925 8.55039H3.50007L4.50007 8.54453V8.55039C4.50014 11.0407 5.2473 12.3807 6.18659 13.1705C7.17609 14.0025 8.54477 14.3686 10.0635 14.5572L9.93952 15.5494L10.6583 16.2457C10.4271 16.4847 10.2487 16.7701 10.1348 17.0826C10.021 17.3951 9.9738 17.7284 9.99714 18.0602L9.43171 18.0992H9.43269L9.99714 18.0602C9.99877 18.0834 10.0001 18.1071 10.0001 18.1305V21.9996C10.0001 22.5519 9.55235 22.9996 9.00007 22.9996C8.44778 22.9996 8.00007 22.5519 8.00007 21.9996V20.2506C7.19376 20.374 6.4849 20.356 5.85066 20.2076C4.88605 19.9819 4.19654 19.486 3.66804 18.9576C3.4094 18.699 3.18676 18.4293 2.99421 18.1881C2.78935 17.9315 2.63896 17.7338 2.47273 17.5387C2.14514 17.1542 1.94184 17.0164 1.75788 16.9703C1.22209 16.8364 0.896394 16.2932 1.03034 15.7574C1.16434 15.2218 1.70663 14.8962 2.24226 15.0299C3.05813 15.2338 3.60546 15.7831 3.99616 16.2418C4.18929 16.4685 4.3905 16.7328 4.55671 16.941C4.73515 17.1645 4.90336 17.3638 5.0821 17.5426C5.42847 17.8889 5.80196 18.1424 6.30573 18.2603C6.70599 18.354 7.24811 18.3744 8.00007 18.2213V18.1305C7.96809 17.5417 8.05396 16.9525 8.25593 16.398C8.27012 16.3591 8.28558 16.3203 8.30085 16.2818C7.11343 16.0112 5.9069 15.5497 4.89851 14.7018C3.49654 13.5228 2.61559 11.7223 2.51081 9.08847L2.50007 8.55039C2.49343 7.08978 2.9828 5.67623 3.87898 4.53769C3.53763 3.23679 3.6366 1.85281 4.17097 0.60605L5.08991 0.999604C4.80568 0.0413224 4.80671 0.0409068 4.80769 0.0406201H4.80964C4.81096 0.0402336 4.81218 0.0390589 4.81355 0.038667C4.81627 0.0378832 4.81946 0.0375174 4.82233 0.0367138C4.82791 0.0351577 4.83375 0.0334466 4.83991 0.031831C4.8526 0.0285088 4.86676 0.0245359 4.8819 0.0210888C4.91237 0.014161 4.94802 0.00701642 4.98835 0.000581035C5.06916 -0.0123062 5.16945 -0.0224726 5.28913 -0.0257862C5.52944 -0.0324001 5.84507 -0.00957935 6.23835 0.0777295C6.9526 0.236343 7.92018 0.608587 9.17585 1.40292C11.3611 0.883713 13.638 0.883859 15.8233 1.40292C17.0793 0.608283 18.0474 0.236372 18.7618 0.0777295C19.1551 -0.00957935 19.4707 -0.0324001 19.711 -0.0257862C19.8307 -0.0224726 19.931 -0.0123062 20.0118 0.000581035C20.0521 0.00701645 20.0878 0.014161 20.1182 0.0210888C20.1334 0.0245359 20.1475 0.0285089 20.1602 0.031831C20.1664 0.0334466 20.1722 0.0351576 20.1778 0.0367138C20.1807 0.0375174 20.1839 0.0378832 20.1866 0.038667C20.188 0.0390589 20.1892 0.0402336 20.1905 0.0406201H20.1925C20.1934 0.0409067 20.1942 0.0412433 19.9102 0.998628ZM10.0635 14.5572C10.4397 14.604 10.7568 14.8599 10.8829 15.2174C11.009 15.5749 10.9219 15.9733 10.6583 16.2457L9.9405 15.5504L10.0635 14.5572ZM5.08991 0.999604L4.17097 0.60605C4.28808 0.332832 4.52075 0.126142 4.80573 0.0415967L5.08991 0.999604ZM20.1944 0.0415967C20.4794 0.126142 20.7121 0.332832 20.8292 0.60605L19.9102 0.999604L20.1944 0.0415967Z" fill="#2E3030"/>
</g>
<defs>
<clipPath id="clip0_1027_7100">
<rect width="24" height="24" fill="white"/>
</clipPath>
</defs>
</svg>
