<svg width="24" height="24" viewBox="0 0 24 24" fill="none" xmlns="http://www.w3.org/2000/svg">
<g clip-path="url(#clip0_1027_7163)">
<path d="M19.0232 0.893311C19.3316 0.922171 19.6237 1.05095 19.8542 1.26147C19.8612 1.26781 19.868 1.27448 19.8748 1.28101C20.0439 1.44447 20.1677 1.64789 20.239 1.87183L20.241 1.87085L22.6775 9.36987L23.947 13.1296C23.9515 13.143 23.9558 13.1571 23.9597 13.1707C24.0703 13.5506 24.0558 13.956 23.9177 14.3269C23.7859 14.681 23.5474 14.984 23.2371 15.198L12.5876 22.9392L12.4509 23.0222C12.1675 23.1656 11.8319 23.1657 11.5486 23.0222L11.4119 22.9392L0.762448 15.199L0.757565 15.196L1.35034 14.3904L1.43628 14.2722L0.757565 15.196C0.444819 14.966 0.212512 14.6421 0.0944791 14.2722C-0.0233967 13.9025 -0.021294 13.505 0.100338 13.1365L1.31811 9.36304L2.26831 9.66968L2.10132 9.61499L1.31811 9.36304L1.31909 9.36108L3.75854 1.85132C3.76416 1.83402 3.77054 1.81652 3.7771 1.79956C3.85643 1.59443 3.98277 1.41059 4.14526 1.26245C4.40878 1.02175 4.7532 0.887451 5.1101 0.887451L5.24292 0.893311C5.55139 0.922115 5.84341 1.05097 6.07397 1.26147L5.39917 1.99976H5.40014L6.07397 1.26147C6.08086 1.26776 6.08777 1.27453 6.09448 1.28101C6.26335 1.44423 6.38739 1.6473 6.45874 1.87085L6.46069 1.86987L8.67651 8.66968H15.323L17.5388 1.85132C17.5444 1.83399 17.5508 1.81655 17.5574 1.79956C17.6367 1.59436 17.763 1.41061 17.9255 1.26245V1.26147C18.189 1.02083 18.5335 0.887451 18.8904 0.887451L19.0232 0.893311ZM5.10717 4.17261L3.22046 9.97827L2.03491 13.6511L11.9998 20.8933L22.0027 13.6238L20.783 10.0095L20.779 9.99878L21.6931 9.7019L21.7302 9.68921L20.779 9.99878L18.8865 4.17456L17.0007 9.97925L16.9392 10.1267C16.7701 10.4562 16.4287 10.6697 16.0496 10.6697H7.94995C7.517 10.6697 7.13288 10.3909 6.99878 9.97925L5.10717 4.17261ZM22.1707 13.7302L22.6453 14.3835L22.2126 13.7156L22.1707 13.7302ZM22.1062 13.5505C22.0909 13.5605 22.0781 13.5734 22.0671 13.5876L22.1472 13.697L22.1921 13.6843L22.1062 13.5505ZM5.12866 2.29468V2.29565L5.50952 2.17944L5.12866 2.29468ZM18.8494 2.27612H18.8503L18.6003 1.99976L18.5564 1.95288L18.8494 2.27612Z" fill="#2E3030"/>
</g>
<defs>
<clipPath id="clip0_1027_7163">
<rect width="24" height="24" fill="white"/>
</clipPath>
</defs>
</svg>
