<svg width="24" height="24" viewBox="0 0 24 24" fill="none" xmlns="http://www.w3.org/2000/svg">
<path d="M12 1.00208C12.5249 1.00208 13.0401 1.14078 13.4951 1.40247L13.4961 1.40149L20.4961 5.40149L20.5 5.40442C20.9555 5.66746 21.3344 6.04569 21.5977 6.5011C21.8608 6.95647 21.9995 7.47322 22 7.99915V16.0011C21.9995 16.5271 21.8608 17.0438 21.5977 17.4991C21.3344 17.9546 20.9556 18.3328 20.5 18.5958L20.4961 18.5988L13.4961 22.5988L13.4951 22.5978C13.0401 22.8594 12.5249 22.9982 12 22.9982C11.4748 22.9982 10.9591 22.8597 10.5039 22.5978V22.5988L3.50391 18.5988L3.5 18.5958C3.04444 18.3328 2.6656 17.9546 2.40234 17.4991C2.13918 17.0438 2.00055 16.5271 2 16.0011V7.99915L2.00684 7.80188C2.03742 7.34461 2.17219 6.89942 2.40234 6.5011C2.66559 6.04569 3.04448 5.66746 3.5 5.40442L3.50391 5.40149L10.5039 1.40149V1.40247C10.9591 1.14051 11.4748 1.00208 12 1.00208ZM12 3.00208C11.8245 3.00208 11.652 3.04813 11.5 3.13586L11.4961 3.13782L4.49902 7.13489L4.5 7.13586C4.34813 7.22355 4.22155 7.35025 4.13379 7.50208C4.04623 7.65377 4.00018 7.82594 4 8.0011V15.9991L4.00879 16.13C4.02601 16.2593 4.06815 16.3845 4.13379 16.4982C4.22077 16.6486 4.34602 16.7739 4.49609 16.8615L11.4961 20.8615L11.5 20.8644C11.652 20.9521 11.8245 20.9982 12 20.9982C12.1755 20.9982 12.348 20.9521 12.5 20.8644L12.5039 20.8615L19.5039 16.8615C19.654 16.7739 19.7792 16.6486 19.8662 16.4982C19.9536 16.3468 19.9996 16.175 20 16.0001V8.0011L19.9912 7.87024C19.974 7.74095 19.9318 7.61576 19.8662 7.50208C19.7785 7.35025 19.6519 7.22355 19.5 7.13586V7.13489L12.5039 3.13782L12.5 3.13586C12.348 3.04813 12.1755 3.00208 12 3.00208Z" fill="#2E3030"/>
</svg>
