<svg width="24" height="24" viewBox="0 0 24 24" fill="none" xmlns="http://www.w3.org/2000/svg">
<path d="M20.2927 1.29295C20.6832 0.902468 21.3162 0.90256 21.7068 1.29295C22.0973 1.68347 22.0973 2.31648 21.7068 2.70701L20.4138 3.99998L22.7068 6.29295C23.0973 6.68347 23.0973 7.31648 22.7068 7.70701L19.2068 11.207C18.8162 11.5974 18.1832 11.5975 17.7927 11.207L15.4998 8.91404L12.7527 11.6611C13.0602 12.077 13.318 12.5287 13.5193 13.0078C13.8512 13.798 14.0242 14.6458 14.0271 15.5029C14.03 16.36 13.8634 17.2095 13.5369 18.0019C13.2101 18.7945 12.729 19.5149 12.1228 20.1211C11.5167 20.7271 10.797 21.2075 10.0046 21.5342C9.21218 21.8608 8.36276 22.0282 7.50562 22.0254C6.64836 22.0225 5.79987 21.8496 5.00952 21.5176C4.21928 21.1856 3.50219 20.7009 2.90015 20.0908L3.62964 19.3711L3.6062 19.3935L2.90015 20.0908L2.89233 20.083L2.67651 19.8476C1.62927 18.651 1.05427 17.1082 1.06812 15.5107C1.08292 13.8065 1.76638 12.1758 2.97144 10.9707C4.17655 9.76557 5.80725 9.08221 7.51148 9.06736C8.8842 9.05543 10.216 9.47903 11.323 10.2627L20.2927 1.29295ZM7.52905 11.0674C6.34933 11.0776 5.22078 11.5506 4.38647 12.3847C3.55214 13.2191 3.07837 14.3484 3.06812 15.5283C3.05796 16.7068 3.51088 17.8421 4.32886 18.6904C4.74465 19.1105 5.23897 19.4448 5.78394 19.6738C6.3311 19.9037 6.91897 20.0234 7.51245 20.0254C8.10569 20.0273 8.69347 19.9116 9.24194 19.6855C9.79056 19.4594 10.2891 19.1266 10.7087 18.707C11.1284 18.2874 11.4611 17.7889 11.6873 17.2402C11.9135 16.6915 12.0291 16.1032 12.0271 15.5097C12.0251 14.9163 11.9054 14.3293 11.6755 13.7822C11.4477 13.2399 11.1152 12.7485 10.698 12.334C10.6967 12.3328 10.6953 12.3313 10.6941 12.3301C9.84542 11.5105 8.70882 11.0571 7.52905 11.0674ZM16.9138 7.49998L18.4998 9.08592L20.5857 6.99998L18.9998 5.41404L16.9138 7.49998Z" fill="#2E3030"/>
</svg>
