<svg width="24" height="24" viewBox="0 0 24 24" fill="none" xmlns="http://www.w3.org/2000/svg">
<path d="M10.4245 8.00975C11.2827 8.07121 12.1178 8.31698 12.8728 8.72947C13.6278 9.14198 14.2852 9.7124 14.8005 10.4014C15.1311 10.8435 15.0413 11.4699 14.5993 11.8008C14.1571 12.1316 13.5298 12.0409 13.199 11.5986C12.8554 11.1394 12.417 10.7593 11.9138 10.4844C11.4105 10.2094 10.854 10.0458 10.282 10.0049C9.70994 9.9639 9.1357 10.0467 8.59837 10.2471C8.12805 10.4225 7.69544 10.6849 7.32298 11.0195L7.16673 11.167L4.17942 14.1543L4.04661 14.2988C3.40185 15.0353 3.04783 15.9854 3.05638 16.9687C3.06561 18.0174 3.48673 19.0202 4.22825 19.7617C4.96979 20.5032 5.97259 20.9244 7.02122 20.9336C8.07001 20.9427 9.08126 20.5392 9.83567 19.8105L11.5329 18.1133C11.9235 17.7227 12.5565 17.7227 12.947 18.1133C13.3373 18.5038 13.3375 19.1369 12.947 19.5273L11.237 21.2373L11.0085 21.4482C9.90388 22.4153 8.4795 22.9463 7.00462 22.9336C5.43145 22.9199 3.92663 22.2882 2.81419 21.1758C1.70174 20.0633 1.07005 18.5585 1.05638 16.9853C1.04364 15.5104 1.57464 14.0861 2.54173 12.9814L2.75267 12.7529L5.75267 9.75291L5.98606 9.53123C6.54473 9.02933 7.19372 8.63618 7.89915 8.37303C8.70516 8.07238 9.56648 7.94833 10.4245 8.00975ZM16.9958 1.06639C18.5689 1.08011 20.0739 1.7118 21.1863 2.8242C22.2985 3.93662 22.9294 5.44159 22.9431 7.01463C22.9567 8.58754 22.3522 10.1029 21.2595 11.2344L20.5193 10.5195L20.5398 10.54L21.2595 11.2344L18.2468 14.2471C17.6386 14.8554 16.9063 15.3263 16.1003 15.6269C15.2944 15.9275 14.4329 16.0507 13.5749 15.9892C12.7168 15.9277 11.8816 15.683 11.1267 15.2705C10.3718 14.858 9.71424 14.2875 9.19895 13.5986C8.86842 13.1564 8.95895 12.5299 9.4011 12.1992C9.84335 11.8685 10.4697 11.9591 10.8005 12.4014C11.144 12.8606 11.5824 13.2406 12.0857 13.5156C12.589 13.7906 13.1464 13.9541 13.7185 13.9951C14.2904 14.036 14.8648 13.9533 15.4021 13.7529C15.9394 13.5524 16.4273 13.2386 16.8327 12.833L19.8327 9.83299C20.5538 9.07993 20.9522 8.07428 20.9431 7.03123C20.9339 5.98273 20.5136 4.97977 19.7722 4.23826C19.0306 3.49663 18.027 3.0755 16.9783 3.06639C15.9295 3.05728 14.9192 3.4608 14.1648 4.18944L14.1638 4.18846L12.4548 5.88865C12.0632 6.27804 11.4301 6.27641 11.0408 5.88475C10.6515 5.4931 10.6531 4.86003 11.0447 4.47069L12.7654 2.76072L12.7751 2.75096C13.9067 1.65801 15.4226 1.05272 16.9958 1.06639Z" fill="#2E3030"/>
</svg>
