<svg width="24" height="24" viewBox="0 0 24 24" fill="none" xmlns="http://www.w3.org/2000/svg">
<path d="M22.5039 1.1318C22.8134 0.954964 23.1937 0.955877 23.502 1.13473C23.8103 1.31365 24 1.64349 24 1.99996V18C24 18.3588 23.8077 18.6901 23.4961 18.8681L16.4961 22.8681C16.2058 23.034 15.8518 23.044 15.5527 22.8945L8.03125 19.1338L1.49609 22.8681C1.18663 23.045 0.80634 23.0441 0.498047 22.8652C0.189732 22.6863 0 22.3564 0 22V5.99996C0 5.64111 0.192331 5.30984 0.503906 5.1318L7.50391 1.1318L7.61523 1.07711C7.88163 0.966011 8.18549 0.974546 8.44727 1.10543L15.9688 4.86617L22.5039 1.1318ZM9 17.3818L15 20.3818V6.61813L9 3.61813V17.3818ZM2 6.58004V20.2763L7 17.4189V3.72262L2 6.58004ZM17 6.58004V20.2763L22 17.4189V3.72262L17 6.58004Z" fill="#2E3030"/>
</svg>
