<svg width="24" height="24" viewBox="0 0 24 24" fill="none" xmlns="http://www.w3.org/2000/svg">
<path d="M12.9999 2L13.0546 2.00195C15.3847 2.1305 17.5861 3.11351 19.2362 4.76367C20.8864 6.41384 21.8694 8.61517 21.9979 10.9453C21.9989 10.9635 21.9999 10.9818 21.9999 11V11.4971L21.997 11.7744C21.9598 13.1551 21.6162 14.511 20.9931 15.7461L20.994 15.7471C20.2055 17.3248 18.9932 18.6523 17.4931 19.5801C15.9934 20.5075 14.2651 20.9981 12.5019 20.999L12.5028 21L12.5009 20.999L12.4999 21V20.999C11.1661 21.0021 9.84941 20.72 8.63564 20.1748L3.31631 21.9482C2.95697 22.068 2.5607 21.9749 2.29287 21.707C2.02505 21.4392 1.93188 21.0429 2.05166 20.6836L3.82412 15.3633C3.27895 14.1491 2.99642 12.8313 2.9999 11.4971C3.00106 9.73416 3.49262 8.00626 4.41982 6.50684C5.34756 5.00666 6.67506 3.79444 8.25283 3.00586C9.5698 2.34138 11.0248 1.99754 12.4999 2.00098V2H12.9999ZM12.497 4C11.3347 3.99702 10.1877 4.26896 9.15029 4.79297L9.14736 4.79492C7.9017 5.41748 6.85344 6.37421 6.12099 7.55859C5.38866 8.74284 5.00052 10.1076 4.9999 11.5V11.5029C4.99729 12.5199 5.2053 13.5247 5.6083 14.4551L5.79287 14.8496L5.83291 14.9404C5.91604 15.1561 5.92227 15.395 5.84853 15.6162L4.57998 19.4189L8.38369 18.1514C8.63645 18.0671 8.91242 18.0871 9.15029 18.207C10.1877 18.731 11.3347 19.003 12.497 19H12.4999C13.8923 18.9994 15.2571 18.6112 16.4413 17.8789C17.6257 17.1465 18.5824 16.0982 19.205 14.8525L19.2069 14.8496L19.3915 14.4551C19.7945 13.5247 20.0025 12.5199 19.9999 11.5029V11.0293C19.8927 9.20031 19.1181 7.47367 17.8222 6.17773C16.526 4.88157 14.799 4.10702 12.9696 4H12.497Z" fill="#2E3030"/>
</svg>
