<svg width="24" height="24" viewBox="0 0 24 24" fill="none" xmlns="http://www.w3.org/2000/svg">
<g clip-path="url(#clip0_1027_7306)">
<path d="M17.9999 9.99989C18 9.44764 18.4476 8.99989 18.9999 8.99989C19.5522 8.99989 19.9999 9.44764 19.9999 9.99989V12.0009C19.9995 12.4721 19.9571 12.9423 19.8739 13.4061C19.7764 13.9496 19.2572 14.3119 18.7138 14.2147C18.1703 14.1172 17.8078 13.5971 17.9052 13.0536C17.9676 12.7059 17.9995 12.3531 17.9999 11.9999V9.99989ZM9.9999 11.9989C10.0002 12.3942 10.118 12.7807 10.3378 13.1093C10.5576 13.4378 10.87 13.6944 11.2353 13.8456C11.6003 13.9966 12.002 14.0359 12.3896 13.9589C12.4317 13.9505 12.4732 13.9396 12.5146 13.9286L9.9999 11.4139V11.9989ZM4.9999 11.9999H4.9335L5.9999 12.0077C5.99124 13.2031 6.33965 14.374 7.00088 15.37C7.66224 16.3661 8.60651 17.1416 9.71182 17.5975C10.3505 17.861 11.0262 18.0097 11.7089 18.0429C11.801 18.0149 11.8987 17.9999 11.9999 17.9999C12.1018 17.9999 12.2003 18.0145 12.2929 18.0429C12.598 18.0279 12.9032 17.9905 13.205 17.9286C14.0383 17.7577 14.8207 17.4114 15.5048 16.9188L14.0282 15.4423C13.6433 15.6689 13.222 15.8328 12.7792 15.9208C12.0038 16.0748 11.2 15.9957 10.4696 15.6932C9.73916 15.3908 9.11428 14.8787 8.67471 14.2216C8.23514 13.5644 8.0006 12.7915 7.9999 12.0009V9.41395L0.29287 1.70692C-0.0976081 1.31639 -0.0976388 0.683363 0.29287 0.292854C0.683383 -0.0976085 1.31642 -0.0976085 1.70693 0.292854L17.497 16.0829C17.5691 16.1243 17.6379 16.1743 17.7001 16.2352C17.7671 16.3009 17.8215 16.3746 17.8661 16.452L23.7069 22.2929C24.0974 22.6834 24.0974 23.3164 23.7069 23.7069C23.3164 24.0974 22.6834 24.0974 22.2929 23.7069L16.9325 18.3466C15.9612 19.1076 14.8244 19.6388 13.6063 19.8886C13.4051 19.9298 13.2027 19.9626 12.9999 19.9882V21.9999H15.9999C16.5522 21.9999 16.9999 22.4476 16.9999 22.9999C16.9999 23.5522 16.5522 23.9999 15.9999 23.9999H7.9999C7.44762 23.9999 6.9999 23.5522 6.9999 22.9999C6.99995 22.4476 7.44765 21.9999 7.9999 21.9999H10.9999V19.9872C10.2992 19.8989 9.60915 19.7194 8.94912 19.4472C7.47539 18.8392 6.21668 17.8045 5.33486 16.4764C4.45312 15.1484 3.98832 13.5871 3.9999 11.993V9.99989C3.99995 9.44764 4.44765 8.99989 4.9999 8.99989C5.55216 8.99989 5.99985 9.44764 5.9999 9.99989V12.0077L4.9999 11.9999ZM13.9999 9.33973V3.99891C14.0004 3.50295 13.8167 3.0242 13.4843 2.65614C13.1519 2.28815 12.6944 2.05659 12.2011 2.00672C11.7076 1.95688 11.2127 2.09244 10.8134 2.3866C10.4143 2.68068 10.1387 3.11271 10.0399 3.59852C9.93006 4.13967 9.40238 4.4895 8.86123 4.37977C8.32001 4.26987 7.97011 3.74228 8.07998 3.20106C8.27738 2.22893 8.82917 1.36458 9.62783 0.776253C10.4264 0.188071 11.4154 -0.0822152 12.4022 0.0174637C13.389 0.117233 14.3039 0.580224 14.9687 1.31629C15.6331 2.05214 16.0006 3.00846 15.9999 3.99989V9.33973C15.9999 9.89201 15.5522 10.3397 14.9999 10.3397C14.4476 10.3397 13.9999 9.89201 13.9999 9.33973Z" fill="#2E3030"/>
</g>
<defs>
<clipPath id="clip0_1027_7306">
<rect width="24" height="24" fill="white"/>
</clipPath>
</defs>
</svg>
