<svg width="24" height="24" viewBox="0 0 24 24" fill="none" xmlns="http://www.w3.org/2000/svg">
<path d="M4 12V10C4 9.44771 4.44772 9 5 9C5.55228 9 6 9.44771 6 10V12C6 13.5913 6.63259 15.117 7.75781 16.2422C8.88303 17.3674 10.4087 18 12 18C13.5913 18 15.117 17.3674 16.2422 16.2422C17.3674 15.117 18 13.5913 18 12V10C18 9.44771 18.4477 9 19 9C19.5523 9 20 9.44771 20 10V12C20 14.1217 19.1575 16.1569 17.6572 17.6572C16.3947 18.9198 14.7529 19.7137 13 19.9346V22H16C16.5523 22 17 22.4477 17 23C17 23.5523 16.5523 24 16 24H8C7.44772 24 7 23.5523 7 23C7 22.4477 7.44772 22 8 22H11V19.9346C9.24713 19.7137 7.60532 18.9198 6.34277 17.6572C4.84248 16.1569 4 14.1217 4 12ZM14 4C14 3.46957 13.7891 2.96101 13.4141 2.58594C13.039 2.21087 12.5304 2 12 2C11.4696 2 10.961 2.21087 10.5859 2.58594C10.2109 2.96101 10 3.46957 10 4V12C10 12.5304 10.2109 13.039 10.5859 13.4141C10.961 13.7891 11.4696 14 12 14C12.5304 14 13.039 13.7891 13.4141 13.4141C13.7891 13.039 14 12.5304 14 12V4ZM16 12C16 13.0609 15.5783 14.078 14.8281 14.8281C14.078 15.5783 13.0609 16 12 16C10.9391 16 9.92202 15.5783 9.17188 14.8281C8.42173 14.078 8 13.0609 8 12V4C8 2.93913 8.42173 1.92202 9.17188 1.17188C9.92202 0.421729 10.9391 0 12 0C13.0609 0 14.078 0.421729 14.8281 1.17188C15.5783 1.92202 16 2.93913 16 4V12Z" fill="#2E3030"/>
</svg>
