<svg width="24" height="24" viewBox="0 0 24 24" fill="none" xmlns="http://www.w3.org/2000/svg">
<path d="M11.1181 2.00386C11.5104 1.96773 11.8875 2.16557 12.081 2.50874C12.2746 2.85213 12.2479 3.27771 12.0136 3.59468C11.1596 4.75027 10.7486 6.17443 10.8554 7.60738C10.9624 9.04035 11.5806 10.3872 12.5967 11.4033C13.6128 12.4194 14.9596 13.0376 16.3926 13.1445C17.8257 13.2514 19.2496 12.8395 20.4053 11.9853C20.7222 11.7511 21.1478 11.7254 21.4912 11.9189C21.8343 12.1124 22.0322 12.4895 21.9961 12.8818C21.8213 14.7731 21.1109 16.5755 19.9492 18.0781C18.7874 19.5807 17.2219 20.7219 15.4355 21.3671C13.6491 22.0124 11.7152 22.135 9.86131 21.7216C8.00766 21.3082 6.30972 20.3761 4.96677 19.0332C3.6237 17.6901 2.69069 15.9915 2.27732 14.1376C1.86409 12.2839 1.98758 10.3507 2.63279 8.56441C3.27807 6.77802 4.41923 5.21251 5.92185 4.05074C7.42446 2.88903 9.22689 2.17864 11.1181 2.00386ZM9.31736 4.43941C8.53943 4.72077 7.80547 5.12174 7.14451 5.63277C5.94245 6.56219 5.02985 7.815 4.51365 9.24409C3.99749 10.6732 3.89879 12.22 4.22947 13.7031C4.56018 15.1861 5.30642 16.5447 6.38084 17.6191C7.45528 18.6935 8.8138 19.4398 10.2969 19.7705C11.7799 20.1011 13.3267 20.0025 14.7558 19.4863C16.1849 18.9701 17.4377 18.0575 18.3672 16.8554C18.8783 16.1943 19.2782 15.4597 19.5595 14.6816C18.5066 15.0625 17.3779 15.2232 16.2441 15.1386C14.3333 14.9961 12.5375 14.1722 11.1826 12.8173C9.82771 11.4625 9.00382 9.6666 8.86131 7.75581C8.77674 6.62184 8.93635 5.49253 9.31736 4.43941Z" fill="#2E3030"/>
</svg>
