<svg width="24" height="24" viewBox="0 0 24 24" fill="none" xmlns="http://www.w3.org/2000/svg">
<path d="M2.2928 2.29292C2.57933 2.0064 3.01055 1.92127 3.3846 2.0771L20.3543 9.14644L19.9696 10.0683V10.0693L20.3543 9.14644C20.7383 9.3064 20.9835 9.68777 20.9696 10.1035C20.9556 10.5191 20.6855 10.8826 20.2918 11.0166L14.4237 13.0097L19.7069 18.2929C20.0974 18.6834 20.0974 19.3165 19.7069 19.707C19.3163 20.0975 18.6833 20.0975 18.2928 19.707L13.0096 14.4238L11.0164 20.2919L10.9559 20.4335C10.7909 20.7491 10.467 20.9574 10.1033 20.9697C9.68764 20.9836 9.30628 20.7384 9.14632 20.3544L10.0692 19.9697H10.0682L9.14632 20.3544L2.07698 3.38472C1.92115 3.01067 2.00627 2.57945 2.2928 2.29292ZM9.97444 17.1406L11.6326 12.2587L11.6766 12.1513C11.7918 11.9085 12.0011 11.7202 12.2586 11.6328L17.1405 9.97456L4.85628 4.8564L9.97444 17.1406Z" fill="#2E3030"/>
</svg>
