<svg width="24" height="24" viewBox="0 0 24 24" fill="none" xmlns="http://www.w3.org/2000/svg">
<path d="M21.5723 1.09671C21.9542 0.915877 22.4082 0.994204 22.707 1.293C23.0058 1.5918 23.0842 2.04586 22.9033 2.42777L13.9033 21.4278C13.7225 21.8095 13.3217 22.0368 12.9014 21.9952C12.4811 21.9535 12.1327 21.652 12.0303 21.2422L10.1758 13.8243L2.75782 11.9698C2.34808 11.8673 2.04654 11.5189 2.00489 11.0987C1.96327 10.6783 2.19055 10.2775 2.57227 10.0967L21.5723 1.09671ZM5.95117 10.7071L11.2422 12.0303L11.373 12.0723C11.6678 12.1908 11.8914 12.4444 11.9697 12.7578L13.292 18.0479L19.8984 4.10062L5.95117 10.7071Z" fill="#2E3030"/>
</svg>
