<svg width="24" height="24" viewBox="0 0 24 24" fill="none" xmlns="http://www.w3.org/2000/svg">
<path d="M19.3171 8.92786L10.1169 18.1173L9.89722 18.3165C9.36317 18.7541 8.69137 18.9962 7.99487 18.9962C7.199 18.9962 6.43558 18.6801 5.8728 18.1173C5.31003 17.5545 4.99395 16.7911 4.9939 15.9952C4.9939 15.1994 5.3101 14.436 5.8728 13.8732L7.28687 15.2872C7.09924 15.475 6.9939 15.7298 6.9939 15.9952C6.99395 16.2607 7.09917 16.5155 7.28687 16.7032C7.47457 16.8909 7.72943 16.9962 7.99487 16.9962C8.2603 16.9962 8.51515 16.8909 8.70288 16.7032L17.9031 7.51282L19.3171 8.92786ZM14.363 5.3927C14.7538 5.00243 15.3868 5.00299 15.7771 5.39368C16.1674 5.7844 16.1678 6.41744 15.7771 6.80774L7.28687 15.2872L5.87378 13.8722L14.363 5.3927ZM18.782 5.38977C18.7819 4.59363 18.466 3.82969 17.9031 3.26672C17.3401 2.70379 16.5762 2.38782 15.78 2.38782C14.9839 2.38782 14.22 2.70378 13.657 3.26672L4.46753 12.4572C3.52922 13.3955 3.00171 14.6683 3.00171 15.9952C3.00176 17.3221 3.52927 18.5951 4.46753 19.5333C5.4057 20.4713 6.678 20.9981 8.00464 20.9982C9.33146 20.9982 10.6044 20.4714 11.5427 19.5333L20.7332 10.3429C21.1237 9.9525 21.7567 9.95241 22.1472 10.3429C22.5377 10.7334 22.5376 11.3664 22.1472 11.757L12.9568 20.9474C11.6434 22.2606 9.8619 22.9982 8.00464 22.9982C6.14739 22.9981 4.36577 22.2607 3.05249 20.9474C1.73922 19.6341 1.00176 17.8525 1.00171 15.9952C1.00171 14.138 1.7393 12.3564 3.05249 11.0431L12.2429 1.85266C13.181 0.914645 14.4534 0.387822 15.78 0.387817C17.1066 0.387817 18.3791 0.914652 19.3171 1.85266C20.2552 2.7907 20.7819 4.0632 20.782 5.38977C20.782 6.71638 20.2552 7.98977 19.3171 8.92786L17.9031 7.51282C18.466 6.9498 18.782 6.18595 18.782 5.38977Z" fill="#2E3030"/>
</svg>
