<svg width="24" height="24" viewBox="0 0 24 24" fill="none" xmlns="http://www.w3.org/2000/svg">
<path d="M1.29309 1.29296C1.53938 1.04667 1.8959 0.946644 2.23449 1.02832L16.7345 4.52832L16.8722 4.57226C17.1825 4.69662 17.4137 4.9697 17.4806 5.30371L18.6329 11.0693C18.9921 10.9278 19.4167 11.0026 19.7071 11.293L22.7071 14.293C23.0977 14.6835 23.0977 15.3165 22.7071 15.707L15.7071 22.707C15.3166 23.0975 14.6836 23.0975 14.2931 22.707L11.2931 19.707C11.0027 19.4166 10.9279 18.992 11.0695 18.6328L5.30383 17.4805C4.92209 17.404 4.61979 17.1128 4.52844 16.7344L1.02844 2.23437C0.946766 1.89578 1.04679 1.53926 1.29309 1.29296ZM13.4142 19L15.0001 20.5859L20.5861 15L19.0001 13.4141L13.4142 19ZM12.0001 11C12.0001 10.4477 11.5524 9.99999 11.0001 9.99999C10.4478 9.99999 10.0001 10.4477 10.0001 11C10.0001 11.5523 10.4478 12 11.0001 12C11.5524 12 12.0001 11.5523 12.0001 11ZM14.0001 11C14.0001 12.6568 12.657 14 11.0001 14C9.34326 14 8.00012 12.6568 8.00012 11C8.00012 10.5372 8.10791 10.1004 8.29504 9.70898L3.8048 5.21874L6.32141 15.6445L12.671 16.9141L16.9142 12.6709L15.6446 6.32128L5.21887 3.80468L9.7091 8.29492C10.1005 8.10779 10.5373 7.99999 11.0001 7.99999C12.657 7.99999 14.0001 9.34314 14.0001 11Z" fill="#2E3030"/>
</svg>
