<svg width="24" height="24" viewBox="0 0 24 24" fill="none" xmlns="http://www.w3.org/2000/svg">
<path d="M7.10982 0.999943C7.83428 0.995169 8.53593 1.25302 9.08541 1.72553C9.56827 2.1408 9.9054 2.69702 10.0502 3.31244L10.1001 3.58002L10.101 3.58881C10.2177 4.47341 10.4338 5.34264 10.7456 6.17865L10.8139 6.38178C10.9558 6.86073 10.9762 7.36857 10.8715 7.85932C10.7519 8.4202 10.474 8.93491 10.0708 9.34272L10.0669 9.3476L9.35103 10.0624C10.5269 11.9073 12.0922 13.4714 13.937 14.6474L14.6567 13.9287C15.0644 13.5255 15.5793 13.2475 16.1401 13.1279C16.7 13.0085 17.2827 13.052 17.8188 13.2529C18.6554 13.565 19.5253 13.7816 20.4106 13.8984L20.4194 13.8994C21.1479 14.0021 21.8138 14.3693 22.2895 14.9306C22.7598 15.4857 23.0105 16.193 22.9985 16.9199L22.9995 19.916C23.0012 20.3337 22.9158 20.7471 22.7485 21.1298C22.5811 21.5126 22.3356 21.8562 22.0278 22.1386C21.72 22.421 21.357 22.6366 20.9614 22.7705C20.5657 22.9043 20.146 22.9536 19.7299 22.916C19.7239 22.9154 19.7174 22.9147 19.7114 22.914C16.479 22.5627 13.374 21.4584 10.646 19.6894C8.10945 18.076 5.95851 15.9239 4.34615 13.3867C2.57373 10.648 1.47 7.53006 1.12544 4.28608L2.12252 4.17963L2.09029 4.18256L1.12544 4.28608L1.12349 4.27045L1.11373 4.1142C1.0999 3.75107 1.15277 3.38813 1.269 3.04291C1.40193 2.64824 1.61519 2.28507 1.89595 1.97748C2.17675 1.66988 2.51888 1.42408 2.89986 1.2558C3.28075 1.08759 3.69246 1.00035 4.10884 0.999943H7.10982ZM4.1108 2.99994C3.97198 3.00008 3.83446 3.02882 3.70748 3.0849C3.58051 3.141 3.46707 3.2236 3.37349 3.32611C3.27998 3.42856 3.20883 3.54918 3.16451 3.68061C3.12189 3.80714 3.10481 3.94112 3.1147 4.07416L3.18111 4.62299C3.55346 7.36019 4.52438 9.98435 6.02877 12.3066L6.03365 12.3134C7.4902 14.6056 9.43386 16.5492 11.726 18.0058L11.7338 18.0107C14.1953 19.6069 16.9964 20.6045 19.9126 20.9238C20.0504 20.9359 20.1897 20.9202 20.3208 20.8759C20.4526 20.8313 20.5737 20.7591 20.6762 20.665C20.7787 20.5709 20.8607 20.4565 20.9165 20.329C20.9722 20.2015 21 20.063 20.9995 19.9238V16.9199C20.9995 16.9117 21.0002 16.9036 21.0004 16.8955L20.9985 16.8037C20.9843 16.5911 20.9019 16.3873 20.7631 16.2236C20.6065 16.0389 20.3882 15.9167 20.1489 15.8808C19.2435 15.7614 18.3524 15.5535 17.4887 15.2587L17.1206 15.1269L17.1176 15.1259L17.4702 14.1904L17.559 13.9511L17.1176 15.1259C16.9389 15.0588 16.7448 15.0442 16.5581 15.0839C16.3711 15.1238 16.1989 15.2171 16.0629 15.3515L14.7973 16.6171C14.479 16.9354 13.9865 17.0018 13.5952 16.7792C10.9353 15.2667 8.73263 13.0641 7.22017 10.4042C6.99783 10.013 7.06501 9.52131 7.38326 9.20307L8.64791 7.93647C8.78233 7.80053 8.8756 7.62929 8.91548 7.44233C8.95536 7.25534 8.94076 7.06074 8.87349 6.88178L8.87252 6.87983L9.74068 6.55561L9.86177 6.51069L8.87252 6.87983C8.50871 5.90488 8.25636 4.89186 8.11959 3.86029L8.10298 3.77045C8.05468 3.56554 7.94244 3.38045 7.78169 3.24213C7.59771 3.0839 7.36224 2.99755 7.11959 2.99994H4.1108Z" fill="#2E3030"/>
</svg>
