<svg width="24" height="24" viewBox="0 0 24 24" fill="none" xmlns="http://www.w3.org/2000/svg">
<g clip-path="url(#clip0_1027_7273)">
<path d="M22.2929 0.293015C22.6834 -0.0975089 23.3164 -0.0975089 23.707 0.293015C24.0975 0.683539 24.0975 1.31655 23.707 1.70708L12.122 13.2911C12.6915 13.7892 13.2992 14.2417 13.9374 14.6485L14.6572 13.9288C15.0649 13.5256 15.5797 13.2476 16.1405 13.128C16.7006 13.0086 17.2831 13.052 17.8193 13.253C18.5512 13.5261 19.3083 13.7267 20.079 13.8506L20.4111 13.8985L20.4198 13.8995C21.1406 14.0013 21.7997 14.3623 22.2743 14.9141C22.7468 15.4635 23.0046 16.1653 22.9999 16.8897V19.8858L22.996 20.042C22.9785 20.4062 22.8953 20.7647 22.7489 21.0997C22.5816 21.4823 22.3359 21.8261 22.0282 22.1084C21.7204 22.3909 21.3566 22.6064 20.9609 22.7403C20.5653 22.874 20.1462 22.9233 19.7304 22.8858L19.8222 21.8604L19.7118 22.8838C16.4792 22.5326 13.3736 21.4285 10.6454 19.6592V19.6582C9.66154 19.0328 8.73415 18.3241 7.87199 17.5411L1.70696 23.7071C1.31643 24.0976 0.683417 24.0976 0.292893 23.7071C-0.0976309 23.3166 -0.0976309 22.6835 0.292893 22.293L8.57121 14.0147L9.97063 12.6055C9.99857 12.5774 10.0278 12.5508 10.0585 12.5264L22.2929 0.293015ZM19.7304 22.8858C19.7244 22.8852 19.7178 22.8845 19.7118 22.8838L19.8202 21.8897L19.7304 22.8858ZM20.9999 16.8799C21.0022 16.6374 20.9159 16.4027 20.7577 16.2188C20.6015 16.0372 20.386 15.9166 20.1493 15.8809V15.8819C19.244 15.7625 18.3528 15.5535 17.4892 15.2588L17.12 15.127L17.1181 15.126L16.9814 15.086C16.8424 15.0553 16.6978 15.0541 16.5575 15.084C16.3708 15.1239 16.1993 15.2164 16.0634 15.3506L14.7968 16.6172C14.4785 16.9354 13.9869 17.0018 13.5956 16.7793C12.5616 16.1914 11.5937 15.4961 10.706 14.7071L10.0341 15.3799L9.28996 16.128C10.0489 16.8098 10.8633 17.4281 11.7255 17.9756L11.7343 17.9805L11.7226 17.9991L11.7343 17.9815C14.1988 19.5796 17.0038 20.5766 19.9238 20.8946C20.0579 20.9048 20.1927 20.8888 20.3202 20.8457C20.4521 20.8011 20.5731 20.7289 20.6757 20.6348C20.7783 20.5407 20.8602 20.4264 20.9159 20.2989C20.9717 20.1714 21.0004 20.0337 20.9999 19.8946L22.1113 19.8897H21.9999L20.9999 19.8946V16.8799ZM7.11028 1.00005C7.83463 0.995376 8.53648 1.25317 9.08586 1.72563C9.56862 2.14087 9.90489 2.69722 10.0497 3.31255L10.1005 3.58012L10.1015 3.58891L10.1493 3.92094C10.2731 4.6908 10.4734 5.44667 10.746 6.17778L10.8144 6.38188C10.9562 6.86077 10.9766 7.36874 10.872 7.85942C10.7524 8.42023 10.4743 8.93503 10.0712 9.34282L8.7968 10.6172C8.40626 11.0076 7.77321 11.0077 7.38274 10.6172C6.99226 10.2268 6.99237 9.59371 7.38274 9.20317L8.64934 7.93657C8.78354 7.8007 8.87609 7.6292 8.91594 7.44243C8.94586 7.30214 8.94463 7.15762 8.91399 7.0186L8.87395 6.88188L8.87297 6.87993L8.74113 6.51079C8.44643 5.64716 8.23749 4.75596 8.11809 3.85063V3.84966C8.08217 3.61343 7.96251 3.39818 7.78117 3.24223C7.59726 3.08409 7.36258 2.99773 7.12004 3.00005H4.11125L4.00676 3.00591C3.90387 3.01678 3.80297 3.04306 3.70793 3.08501C3.58094 3.1411 3.46657 3.22368 3.37297 3.32622C3.27955 3.42866 3.20825 3.54932 3.16399 3.68071C3.12001 3.81129 3.10319 3.94972 3.11516 4.08696C3.43439 7.00326 4.43292 9.8041 6.02922 12.2657C6.32972 12.729 6.19767 13.349 5.7343 13.6495C5.27095 13.9499 4.65103 13.8178 4.35051 13.3545C2.58128 10.6263 1.47716 7.52076 1.1259 4.28813L2.14641 4.1768L2.12004 4.17973L1.1259 4.28813C1.12525 4.28213 1.12449 4.27559 1.12395 4.26958C1.08654 3.85493 1.13559 3.43659 1.26848 3.04204C1.40142 2.64746 1.61569 2.2851 1.89641 1.97759C2.17711 1.6701 2.51851 1.42417 2.89934 1.25591C3.28032 1.08762 3.69281 1.00044 4.1093 1.00005H7.11028Z" fill="#2E3030"/>
</g>
<defs>
<clipPath id="clip0_1027_7273">
<rect width="24" height="24" fill="white"/>
</clipPath>
</defs>
</svg>
