<svg width="24" height="24" viewBox="0 0 24 24" fill="none" xmlns="http://www.w3.org/2000/svg">
<g clip-path="url(#clip0_1027_7159)">
<path d="M7.10994 1.00005C7.83443 0.995274 8.53605 1.2531 9.08553 1.72563C9.56842 2.14092 9.90553 2.69709 10.0504 3.31255L10.1002 3.58012L10.1012 3.58891C10.2178 4.47324 10.4341 5.34201 10.7457 6.17778C10.9475 6.71466 10.9913 7.29848 10.8717 7.85942C10.752 8.42033 10.4741 8.935 10.0709 9.34282L9.35116 10.0625C10.527 11.9074 12.0923 13.4715 13.9371 14.6475L14.6568 13.9288C15.0646 13.5256 15.5794 13.2476 16.1402 13.128C16.7002 13.0086 17.2828 13.0521 17.8189 13.253C18.6555 13.5652 19.5255 13.7817 20.4107 13.8985L20.4195 13.8995C21.1481 14.0022 21.8139 14.3694 22.2896 14.9307C22.76 15.4858 23.0106 16.1931 22.9986 16.92L22.9996 19.9161L22.9967 20.0723C22.9791 20.4366 22.8951 20.795 22.7486 21.1299C22.5813 21.5127 22.3357 21.8563 22.0279 22.1387C21.7202 22.421 21.357 22.6357 20.9615 22.7696C20.5658 22.9034 20.1461 22.9537 19.7301 22.9161C19.7241 22.9155 19.7175 22.9148 19.7115 22.9141C16.4792 22.5628 13.3741 21.4585 10.6461 19.6895C8.10958 18.0761 5.95864 15.924 4.34627 13.3868C2.57375 10.648 1.47008 7.52937 1.12557 4.2852L2.12264 4.17876L2.11971 4.17973L1.12557 4.2852C1.12504 4.28015 1.12407 4.27463 1.12362 4.26958C1.08622 3.85494 1.13624 3.43658 1.26912 3.04204C1.40206 2.64758 1.61546 2.28503 1.89608 1.97759C2.17687 1.66998 2.519 1.42419 2.89998 1.25591C3.28089 1.08769 3.69257 1.00045 4.10897 1.00005H7.10994ZM4.00741 3.00591C3.90424 3.01675 3.80288 3.04292 3.7076 3.08501C3.58065 3.1411 3.46719 3.22371 3.37362 3.32622C3.28011 3.42867 3.20894 3.54927 3.16463 3.68071C3.12159 3.80851 3.1043 3.94381 3.11483 4.07817C3.40742 6.82828 4.30349 9.47743 5.73592 11.8379L6.02889 12.3067L6.03377 12.3135L5.22909 12.8243L5.19002 12.8497L6.03377 12.3135C7.49033 14.6057 9.43397 16.5493 11.7262 18.0059L11.734 18.0108L11.2047 18.8262L11.192 18.8467L11.734 18.0108C14.1954 19.607 16.9965 20.6046 19.9127 20.9239C20.0505 20.936 20.1898 20.9194 20.3209 20.875C20.4526 20.8304 20.5739 20.7591 20.6764 20.6651C20.7788 20.571 20.8608 20.4566 20.9166 20.3291C20.9724 20.2016 21.0002 20.0631 20.9996 19.9239V16.92C20.9996 16.9118 21.0004 16.9037 21.0006 16.8956C21.0067 16.6503 20.9218 16.4108 20.7633 16.2237C20.6066 16.0389 20.3884 15.9168 20.149 15.8809C19.2437 15.7615 18.3525 15.5536 17.4889 15.2588L17.1207 15.127L17.1178 15.126L17.4703 14.1905L17.5601 13.9502L17.1178 15.126C16.9391 15.0589 16.7449 15.0443 16.5582 15.084C16.3713 15.1239 16.199 15.2163 16.0631 15.3506L14.7974 16.6172C14.4791 16.9355 13.9866 17.0019 13.5953 16.7793C11.1016 15.3613 9.01023 13.3368 7.51229 10.8975L7.2203 10.4043L7.15096 10.253C7.01912 9.89242 7.10494 9.48161 7.38338 9.20317L8.64803 7.93657C8.78243 7.80066 8.87571 7.62936 8.91561 7.44243C8.95549 7.25545 8.94089 7.06084 8.87362 6.88188L8.87264 6.87993C8.50885 5.90501 8.25649 4.89193 8.11971 3.8604L8.10311 3.77055C8.05482 3.56563 7.94256 3.38057 7.78182 3.24223C7.59784 3.08401 7.36236 2.99766 7.11971 3.00005H4.11092L4.00741 3.00591ZM18.2926 0.293015C18.6831 -0.097509 19.3171 -0.097509 19.7076 0.293015L23.7076 4.29302L23.776 4.36919C24.096 4.76186 24.0734 5.34103 23.7076 5.70708L19.7076 9.70708C19.3171 10.0976 18.6831 10.0976 18.2926 9.70708C17.9023 9.31661 17.9023 8.68349 18.2926 8.29302L20.5855 6.00005H14.9996C14.4475 5.99982 13.9996 5.55219 13.9996 5.00005C13.9996 4.4479 14.4475 4.00027 14.9996 4.00005H20.5855L18.2926 1.70708C17.9023 1.31661 17.9023 0.683486 18.2926 0.293015Z" fill="#2E3030"/>
</g>
<defs>
<clipPath id="clip0_1027_7159">
<rect width="24" height="24" fill="white"/>
</clipPath>
</defs>
</svg>
