<svg width="24" height="24" viewBox="0 0 24 24" fill="none" xmlns="http://www.w3.org/2000/svg">
<path d="M7.10994 1C7.83443 0.995227 8.53605 1.25305 9.08553 1.72559C9.56842 2.14087 9.90553 2.69704 10.0504 3.3125L10.1002 3.58008L10.1012 3.58887C10.2178 4.4732 10.4341 5.34196 10.7457 6.17773C10.9475 6.71461 10.9913 7.29844 10.8717 7.85938C10.752 8.42028 10.4741 8.93495 10.0709 9.34277L9.35116 10.0625C10.527 11.9074 12.0923 13.4715 13.9371 14.6475L14.6568 13.9287C15.0646 13.5255 15.5794 13.2476 16.1402 13.1279C16.7002 13.0085 17.2828 13.0521 17.8189 13.2529C18.6555 13.5651 19.5255 13.7817 20.4107 13.8984L20.4195 13.8994C21.1481 14.0022 21.8139 14.3693 22.2896 14.9307C22.76 15.4858 23.0106 16.193 22.9986 16.9199L22.9996 19.916L22.9967 20.0723C22.9791 20.4365 22.8951 20.7949 22.7486 21.1299C22.5813 21.5127 22.3357 21.8563 22.0279 22.1387C21.7202 22.4209 21.357 22.6357 20.9615 22.7695C20.5658 22.9034 20.1461 22.9536 19.7301 22.916C19.7241 22.9155 19.7175 22.9147 19.7115 22.9141C16.4792 22.5628 13.3741 21.4585 10.6461 19.6895C8.10958 18.076 5.95864 15.924 4.34627 13.3867C2.57375 10.6479 1.47008 7.52932 1.12557 4.28516L2.12264 4.17871L2.11971 4.17969L1.12557 4.28516C1.12504 4.28011 1.12407 4.27459 1.12362 4.26953C1.08622 3.8549 1.13624 3.43653 1.26912 3.04199C1.40206 2.64753 1.61546 2.28499 1.89608 1.97754C2.17687 1.66994 2.519 1.42414 2.89998 1.25586C3.28089 1.08764 3.69257 1.00041 4.10897 1H7.10994ZM4.00741 3.00586C3.90424 3.0167 3.80288 3.04288 3.7076 3.08496C3.58065 3.14105 3.46719 3.22366 3.37362 3.32617C3.28011 3.42863 3.20894 3.54922 3.16463 3.68066C3.122 3.80723 3.10492 3.94114 3.11483 4.07422L3.18123 4.62305C3.52878 7.1778 4.39835 9.6337 5.73592 11.8379L6.02889 12.3066L6.03377 12.3135L5.22909 12.8242L5.19002 12.8496L6.03377 12.3135C7.49033 14.6057 9.43397 16.5493 11.7262 18.0059L11.734 18.0107L11.2047 18.8262L11.192 18.8467L11.734 18.0107C14.1954 19.607 16.9965 20.6045 19.9127 20.9238C20.0505 20.9359 20.1898 20.9193 20.3209 20.875C20.4526 20.8304 20.5739 20.759 20.6764 20.665C20.7788 20.571 20.8608 20.4566 20.9166 20.3291C20.9724 20.2015 21.0002 20.0631 20.9996 19.9238V16.9199C20.9996 16.9118 21.0004 16.9036 21.0006 16.8955C21.0067 16.6503 20.9218 16.4108 20.7633 16.2236C20.6066 16.0389 20.3884 15.9167 20.149 15.8809C19.2437 15.7614 18.3525 15.5535 17.4889 15.2588L17.1207 15.127L17.1178 15.126L17.4703 14.1904L17.5601 13.9502L17.1178 15.126C16.9391 15.0589 16.7449 15.0443 16.5582 15.084C16.3713 15.1238 16.199 15.2163 16.0631 15.3506L14.7974 16.6172C14.4791 16.9355 13.9866 17.0018 13.5953 16.7793C11.1016 15.3613 9.01023 13.3367 7.51229 10.8975L7.2203 10.4043L7.15096 10.2529C7.01912 9.89237 7.10494 9.48157 7.38338 9.20312L8.64803 7.93652C8.78243 7.80061 8.87571 7.62931 8.91561 7.44238C8.95549 7.2554 8.94089 7.0608 8.87362 6.88184L8.87264 6.87988C8.50885 5.90497 8.25649 4.89188 8.11971 3.86035L8.10311 3.77051C8.05482 3.56558 7.94256 3.38053 7.78182 3.24219C7.59784 3.08396 7.36236 2.99761 7.11971 3H4.11092L4.00741 3.00586ZM21.9996 7V3.41504L16.7076 8.70703C16.3171 9.09756 15.6831 9.09756 15.2926 8.70703C14.9023 8.31656 14.9023 7.68344 15.2926 7.29297L20.5855 2H16.9996C16.4475 1.99977 15.9996 1.55214 15.9996 1C15.9996 0.447856 16.4475 0.000227739 16.9996 0H22.9996C23.5519 0 23.9996 0.447715 23.9996 1V7C23.9996 7.55228 23.5519 8 22.9996 8C22.4475 7.99977 21.9996 7.55214 21.9996 7Z" fill="#2E3030"/>
</svg>
