<svg width="24" height="24" viewBox="0 0 24 24" fill="none" xmlns="http://www.w3.org/2000/svg">
<path d="M1.0022 12.0003C1.0022 9.08346 2.16072 6.28573 4.2229 4.22293C4.61337 3.83238 5.24639 3.83247 5.63696 4.22293C6.0275 4.61339 6.02741 5.24642 5.63696 5.63699C3.94983 7.32472 3.0022 9.61387 3.0022 12.0003C3.00228 14.3865 3.95001 16.6749 5.63696 18.3626C6.02743 18.7532 6.02755 19.3871 5.63696 19.7776C5.24636 20.1678 4.61328 20.1671 4.2229 19.7766C2.16088 17.7139 1.00228 14.9169 1.0022 12.0003ZM20.9983 12.0003C20.9983 9.61379 20.0498 7.32474 18.3625 5.63699C17.9722 5.24639 17.973 4.61335 18.3635 4.22293C18.7541 3.8326 19.3872 3.83239 19.7776 4.22293C21.8397 6.28572 22.9983 9.08353 22.9983 12.0003C22.9982 14.9168 21.8395 17.7139 19.7776 19.7766C19.3873 20.1671 18.7541 20.1676 18.3635 19.7776C17.9729 19.3871 17.9721 18.7532 18.3625 18.3626C20.0497 16.6749 20.9982 14.3866 20.9983 12.0003ZM17.0002 12.0052C17.0002 11.3481 16.87 10.6971 16.6184 10.0901C16.3668 9.4832 15.9983 8.93138 15.5334 8.46707C15.1429 8.07675 15.1422 7.4437 15.5325 7.053C15.9227 6.66245 16.5558 6.66208 16.9465 7.05203C17.5974 7.70214 18.1138 8.4747 18.4661 9.32449C18.8183 10.1743 19.0002 11.0853 19.0002 12.0052C19.0002 12.925 18.8183 13.8361 18.4661 14.6858C18.1138 15.5355 17.5973 16.3073 16.9465 16.9573C16.5558 17.3476 15.9228 17.3471 15.5325 16.9563C15.1424 16.5656 15.1428 15.9325 15.5334 15.5423C15.9983 15.0779 16.3668 14.5261 16.6184 13.9192C16.8699 13.3124 17.0002 12.6621 17.0002 12.0052ZM5.00024 11.9954C5.00024 11.0756 5.1813 10.1644 5.53345 9.31472C5.8857 8.46497 6.40218 7.69236 7.05298 7.04226C7.44372 6.65196 8.07771 6.6525 8.46802 7.04324C8.85803 7.43393 8.8575 8.06705 8.46704 8.4573C8.00216 8.92167 7.63272 9.47336 7.3811 10.0803C7.12954 10.6873 7.00024 11.3384 7.00024 11.9954C7.0003 12.6522 7.12962 13.3027 7.3811 13.9094C7.63272 14.5164 8.00216 15.0681 8.46704 15.5325C8.85754 15.9227 8.85799 16.5558 8.46802 16.9466C8.07771 17.3373 7.44372 17.3378 7.05298 16.9475C6.40221 16.2975 5.88569 15.5248 5.53345 14.6751C5.18139 13.8256 5.0003 12.9149 5.00024 11.9954ZM13.0002 12.0003C13.0002 11.448 12.5524 11.0004 12.0002 11.0003C11.448 11.0003 11.0002 11.448 11.0002 12.0003C11.0004 12.5524 11.4481 13.0003 12.0002 13.0003C12.5523 13.0002 13.0001 12.5524 13.0002 12.0003ZM15.0002 12.0003C15.0001 13.6569 13.6569 15.0002 12.0002 15.0003C10.3435 15.0003 9.00041 13.657 9.00024 12.0003C9.00024 10.3434 10.3434 9.00027 12.0002 9.00027C13.657 9.00037 15.0002 10.3435 15.0002 12.0003Z" fill="#2E3030"/>
</svg>
