<svg width="24" height="24" viewBox="0 0 24 24" fill="none" xmlns="http://www.w3.org/2000/svg">
<path d="M9.22656 2.39592C10.8491 1.9266 12.5645 1.87581 14.2119 2.24846C15.8593 2.62121 17.3859 3.40571 18.6484 4.52775C19.911 5.64996 20.8691 7.07397 21.4326 8.66643C21.6169 9.18707 21.3439 9.75855 20.8232 9.94279C20.3027 10.1268 19.7311 9.85395 19.5469 9.33342C19.0961 8.05959 18.3303 6.92056 17.3203 6.02287C16.3104 5.12521 15.0894 4.4979 13.7715 4.19963C12.4534 3.9014 11.0804 3.9423 9.78223 4.31779C8.48431 4.69331 7.30284 5.39146 6.34766 6.34709C6.34037 6.35438 6.33271 6.36151 6.3252 6.36857L3.52441 9.00041H7C7.55228 9.00041 8 9.44813 8 10.0004C7.99978 10.5525 7.55215 11.0004 7 11.0004H1C0.447853 11.0004 0.000222846 10.5525 0 10.0004V4.00041C0 3.44813 0.447715 3.00041 1 3.00041C1.55228 3.00041 2 3.44813 2 4.00041V7.68791L4.95508 4.91154C6.1453 3.72809 7.61391 2.86243 9.22656 2.39592ZM24 20.0004C23.9998 20.5525 23.5521 21.0004 23 21.0004C22.4479 21.0004 22.0002 20.5525 22 20.0004V16.311L19.0449 19.0883C17.8547 20.2718 16.3861 21.1374 14.7734 21.6039C13.1509 22.0732 11.4355 22.124 9.78809 21.7514C8.14063 21.3786 6.6141 20.5942 5.35156 19.4721C4.08897 18.3499 3.1309 16.9259 2.56738 15.3334C2.38323 14.8128 2.65615 14.2413 3.17676 14.0571C3.6973 13.8731 4.26893 14.1459 4.45312 14.6664C4.90393 15.9403 5.66972 17.0793 6.67969 17.977C7.68964 18.8746 8.91063 19.5019 10.2285 19.8002C11.5466 20.0984 12.9196 20.0585 14.2178 19.683C15.5158 19.3075 16.6971 18.6085 17.6523 17.6528C17.6597 17.6454 17.6673 17.6384 17.6748 17.6313L20.4746 15.0004H17C16.4479 15.0004 16.0002 14.5525 16 14.0004C16 13.4481 16.4477 13.0004 17 13.0004H23C23.5523 13.0004 24 13.4481 24 14.0004V20.0004Z" fill="#2E3030"/>
</svg>
