<svg width="24" height="24" viewBox="0 0 24 24" fill="none" xmlns="http://www.w3.org/2000/svg">
<path d="M0 20.0004V14.0004C0 13.4481 0.447715 13.0004 1 13.0004H7C7.55228 13.0004 8 13.4481 8 14.0004C7.99978 14.5525 7.55215 15.0004 7 15.0004H3.52539L6.3252 17.6313L6.34766 17.6528C7.30291 18.6085 8.48419 19.3075 9.78223 19.683C11.0804 20.0585 12.4534 20.0984 13.7715 19.8002C15.0894 19.5019 16.3104 18.8746 17.3203 17.977C18.3303 17.0793 19.0961 15.9403 19.5469 14.6664C19.7311 14.1459 20.3027 13.8731 20.8232 14.0571C21.3438 14.2413 21.6168 14.8128 21.4326 15.3334C20.8691 16.9259 19.911 18.3499 18.6484 19.4721C17.3859 20.5942 15.8594 21.3786 14.2119 21.7514C12.5645 22.124 10.8491 22.0732 9.22656 21.6039C7.61389 21.1374 6.1453 20.2718 4.95508 19.0883L2 16.311V20.0004C1.99978 20.5525 1.55215 21.0004 1 21.0004C0.447853 21.0004 0.000222589 20.5525 0 20.0004ZM9.78809 2.24846C11.4355 1.87581 13.1509 1.9266 14.7734 2.39592C16.3861 2.86243 17.8547 3.72809 19.0449 4.91154L22 7.68791V4.00041C22 3.44813 22.4477 3.00041 23 3.00041C23.5523 3.00041 24 3.44813 24 4.00041V10.0004C23.9998 10.5525 23.5521 11.0004 23 11.0004H17C16.4479 11.0004 16.0002 10.5525 16 10.0004C16 9.44813 16.4477 9.00041 17 9.00041H20.4756L17.6748 6.36857C17.6673 6.36151 17.6596 6.35438 17.6523 6.34709L18.3604 5.64006H18.3594L17.6523 6.34709C16.6972 5.39146 15.5157 4.69331 14.2178 4.31779C12.9196 3.9423 11.5466 3.9014 10.2285 4.19963C8.91062 4.4979 7.68965 5.12521 6.67969 6.02287C5.66972 6.92056 4.90394 8.05959 4.45312 9.33342C4.26893 9.85395 3.69731 10.1268 3.17676 9.94279C2.65611 9.75855 2.38314 9.18707 2.56738 8.66643C3.1309 7.07397 4.08897 5.64996 5.35156 4.52775C6.61409 3.40571 8.14066 2.62121 9.78809 2.24846Z" fill="#2E3030"/>
</svg>
