<svg width="24" height="24" viewBox="0 0 24 24" fill="none" xmlns="http://www.w3.org/2000/svg">
<path d="M6.29297 14.293C6.68349 13.9025 7.31651 13.9025 7.70703 14.293C8.09756 14.6835 8.09756 15.3166 7.70703 15.7071L5.41406 18H17C17.7956 18 18.5585 17.6838 19.1211 17.1211C19.6837 16.5585 20 15.7957 20 15V13C20 12.4478 20.4477 12 21 12C21.5523 12 22 12.4478 22 13V15C22 16.3261 21.4728 17.5975 20.5352 18.5352C19.5975 19.4729 18.3261 20 17 20H5.41406L7.70703 22.293C8.09756 22.6835 8.09756 23.3166 7.70703 23.7071C7.31651 24.0976 6.68349 24.0976 6.29297 23.7071L2.29297 19.7071C1.90244 19.3166 1.90244 18.6835 2.29297 18.293L6.29297 14.293ZM2 11V9.00005C2 7.67396 2.52716 6.40257 3.46484 5.46489C4.40253 4.52721 5.67392 4.00005 7 4.00005H18.5859L16.293 1.70708C15.9024 1.31655 15.9024 0.68354 16.293 0.293015C16.6835 -0.097509 17.3165 -0.097509 17.707 0.293015L21.707 4.29302C22.0976 4.68354 22.0976 5.31655 21.707 5.70708L17.707 9.70708C17.3165 10.0976 16.6835 10.0976 16.293 9.70708C15.9024 9.31655 15.9024 8.68354 16.293 8.29302L18.5859 6.00005H7C6.20435 6.00005 5.44152 6.31634 4.87891 6.87895C4.3163 7.44156 4 8.2044 4 9.00005V11C4 11.5523 3.55228 12 3 12C2.44772 12 2 11.5523 2 11Z" fill="#2E3030"/>
</svg>
