<svg width="24" height="24" viewBox="0 0 24 24" fill="none" xmlns="http://www.w3.org/2000/svg">
<g clip-path="url(#clip0_1027_7152)">
<path d="M7.17591 3.24512C9.0745 2.19833 11.2618 1.79615 13.4083 2.10059C15.5449 2.40364 17.5251 3.39084 19.0548 4.91211H19.0558L22.0001 7.68458V4.00001C22.0001 3.44773 22.4478 3.00001 23.0001 3.00001C23.5524 3.00007 24.0001 3.44777 24.0001 4.00001V10C24.0001 10.5523 23.5524 10.9999 23.0001 11H17.0001C16.4478 11 16.0001 10.5523 16.0001 10C16.0001 9.44773 16.4478 9.00001 17.0001 9.00001H20.4796L17.6847 6.36817L18.3771 5.63184L18.3702 5.63965L17.6847 6.36817C17.6773 6.36124 17.6694 6.35384 17.6622 6.34668C16.4362 5.11997 14.8443 4.32463 13.1271 4.08106C11.4099 3.83759 9.65956 4.15864 8.14075 4.9961C6.62196 5.83361 5.41672 7.14243 4.70618 8.72461C3.99562 10.3069 3.81814 12.0778 4.2013 13.7695C4.58447 15.461 5.50744 16.9819 6.83021 18.1035C8.15323 19.2253 9.80565 19.887 11.5372 19.9883C13.2686 20.0895 14.9862 19.6257 16.4308 18.666C17.8756 17.7062 18.9692 16.3024 19.547 14.667C19.731 14.1463 20.3026 13.8736 20.8234 14.0576C21.3439 14.2417 21.6166 14.8124 21.4327 15.333C20.7105 17.3774 19.3432 19.1313 17.5372 20.3311C15.7313 21.5308 13.5845 22.112 11.4201 21.9854C9.25571 21.8587 7.19096 21.0319 5.53724 19.6299C3.88346 18.2277 2.73006 16.3256 2.25111 14.2109C1.77216 12.0963 1.99376 9.88318 2.88196 7.90528C3.77019 5.92748 5.27731 4.29199 7.17591 3.24512Z" fill="#2E3030"/>
</g>
<defs>
<clipPath id="clip0_1027_7152">
<rect width="24" height="24" fill="white"/>
</clipPath>
</defs>
</svg>
