<svg width="24" height="24" viewBox="0 0 24 24" fill="none" xmlns="http://www.w3.org/2000/svg">
<path d="M21.67 1.0557C22.0325 0.928998 22.4356 1.02146 22.7071 1.293C22.9787 1.56454 23.0711 1.96763 22.9444 2.33011L15.9444 22.3301C15.809 22.717 15.4507 22.9822 15.0411 22.9991C14.6314 23.0158 14.2526 22.781 14.086 22.4063L10.2423 13.7578L1.59385 9.9141C1.21917 9.74757 0.984367 9.3687 1.00108 8.95902C1.0179 8.54945 1.28311 8.19112 1.67003 8.0557L21.67 1.0557ZM12.1925 13.2207L14.8888 19.2871L19.6075 5.8057L12.1925 13.2207ZM4.71202 9.11039L10.7784 11.8067L18.1935 4.39164L4.71202 9.11039Z" fill="#2E3030"/>
</svg>
