<svg width="24" height="24" viewBox="0 0 24 24" fill="none" xmlns="http://www.w3.org/2000/svg">
<g clip-path="url(#clip0_1027_7128)">
<path d="M0.292893 0.293015C0.683417 -0.097509 1.31643 -0.097509 1.70696 0.293015L23.707 22.293C24.0975 22.6835 24.0975 23.3166 23.707 23.7071C23.3164 24.0976 22.6834 24.0976 22.2929 23.7071L17.6396 19.0538C16.1206 20.5839 14.3772 21.8767 12.4667 22.8848C12.1815 23.0353 11.8411 23.0388 11.5527 22.8946L11.9999 22C11.5527 22.8945 11.552 22.8947 11.5517 22.8946V22.8936L11.5488 22.8926L11.5214 22.879C11.5033 22.8697 11.4776 22.8559 11.4452 22.8389C11.3805 22.8049 11.288 22.7558 11.1718 22.6915C10.9395 22.5629 10.6114 22.3738 10.2197 22.129C9.43832 21.6406 8.39233 20.9222 7.34172 20.003C5.28197 18.2007 2.99992 15.4465 2.99992 12V5.00005C2.99992 4.83285 3.0431 4.67356 3.11809 4.53227L0.292893 1.70708C-0.0976311 1.31655 -0.0976311 0.68354 0.292893 0.293015ZM11.7363 1.0352C11.9383 0.979983 12.1539 0.989443 12.3515 1.06352L20.3515 4.06352C20.7416 4.20997 20.9999 4.58332 20.9999 5.00005V12.0069C20.9948 12.7834 20.8756 13.5553 20.6454 14.2969C20.4816 14.8242 19.9208 15.1188 19.3935 14.9551C18.866 14.7914 18.5716 14.2306 18.7353 13.7032C18.9065 13.1515 18.9955 12.5776 18.9999 12V5.69341L11.998 3.06743L9.18938 4.11723C8.67225 4.31006 8.09655 4.04727 7.90324 3.53032C7.71004 3.01293 7.97277 2.43641 8.49016 2.24321L11.6503 1.06352L11.7363 1.0352ZM4.99992 12C4.99992 14.5535 6.71802 16.7994 8.65813 18.4971C9.60724 19.3276 10.5617 19.9846 11.2802 20.4336C11.5621 20.6098 11.8068 20.752 11.998 20.8604C13.5495 19.9864 14.9713 18.902 16.2245 17.6387L4.99992 6.41411V12Z" fill="#2E3030"/>
</g>
<defs>
<clipPath id="clip0_1027_7128">
<rect width="24" height="24" fill="white"/>
</clipPath>
</defs>
</svg>
