<svg width="24" height="24" viewBox="0 0 24 24" fill="none" xmlns="http://www.w3.org/2000/svg">
<path d="M12 1C12.3807 1 12.7281 1.21631 12.8965 1.55762L15.753 7.3457L22.1446 8.28027C22.5211 8.33531 22.8338 8.59991 22.9512 8.96191C23.0685 9.32384 22.9699 9.72087 22.6973 9.98633L18.0743 14.4883L19.1661 20.8506L19.1797 20.9912C19.1892 21.3183 19.0372 21.6333 18.7676 21.8291C18.4981 22.0248 18.1518 22.0719 17.8438 21.9619L17.7149 21.9053L12 18.8994L6.2852 21.9053L6.1563 21.9619C5.84825 22.0719 5.50197 22.0248 5.23247 21.8291C4.92449 21.6054 4.76968 21.2258 4.83403 20.8506L5.92485 14.4883L1.30278 9.98633C1.03024 9.72087 0.931646 9.32384 1.04888 8.96191C1.16625 8.59991 1.47896 8.33531 1.85552 8.28027L8.24614 7.3457L11.1036 1.55762L11.1749 1.43555C11.3595 1.16556 11.667 1 12 1ZM9.80669 8.70215C9.66117 8.99696 9.38004 9.20143 9.05474 9.24902L4.14751 9.96582L7.69731 13.4238C7.93309 13.6535 8.0409 13.9842 7.9854 14.3086L7.14751 19.1914L11.5342 16.8848C11.8256 16.7315 12.1745 16.7315 12.4659 16.8848L16.8516 19.1914L16.0147 14.3086C15.9592 13.9842 16.067 13.6535 16.3028 13.4238L17 14.1396H16.9991L16.3028 13.4238L19.8516 9.96582L14.9454 9.24902C14.6201 9.20143 14.3389 8.99696 14.1934 8.70215L12 4.25781L9.80669 8.70215Z" fill="#2E3030"/>
</svg>
