<svg width="24" height="24" viewBox="0 0 24 24" fill="none" xmlns="http://www.w3.org/2000/svg">
<path d="M18 11.9996H19.6699C19.6757 11.9996 19.6817 12.0005 19.6875 12.0006C20.0085 12.0063 20.3209 11.8933 20.5644 11.6842C20.7956 11.4857 20.9482 11.2129 21 10.9137V4.08557C20.9481 3.78671 20.7953 3.51437 20.5644 3.31604C20.3209 3.10696 20.0085 2.99396 19.6875 2.99963H18V11.9996ZM22 10.9996H21.9961L22.9912 11.1344C22.8824 11.9379 22.4824 12.6736 21.8672 13.2018C21.2562 13.7263 20.4747 14.0086 19.6699 13.9987L17.6504 13.9996L13.9141 22.4059C13.7536 22.767 13.3952 22.9996 13 22.9996C11.9393 22.9996 10.922 22.5787 10.1719 21.8287C9.42172 21.0786 9 20.0605 9 18.9996V15.9996H4.33984C3.90889 16.0029 3.48213 15.9134 3.08886 15.7369C2.69217 15.5589 2.33903 15.2965 2.05371 14.9684C1.76839 14.6402 1.55776 14.2541 1.43652 13.8365C1.31531 13.419 1.28638 12.9802 1.35156 12.5504V12.5485L2.73144 3.54846C2.84022 2.83372 3.20399 2.18273 3.75488 1.71448C4.30322 1.2484 5.00034 0.995258 5.71972 1.00061L19.6699 0.999634V1.00159C20.4747 0.991619 21.2562 1.27399 21.8672 1.79846C22.4054 2.26066 22.7787 2.88167 22.9365 3.56799L22.9912 3.86584L23 3.99963V10.9996C23 11.0445 22.9972 11.09 22.9912 11.1344L22 10.9996ZM11 18.9996C11 19.5301 11.2109 20.0396 11.5859 20.4147C11.8135 20.6421 12.0907 20.8078 12.3916 20.9039L16 12.7867V2.99963H5.70898L5.61914 3.00256C5.41011 3.01897 5.21071 3.10115 5.0498 3.23792C4.86604 3.39411 4.74514 3.61177 4.70898 3.85022L4.708 3.8512L3.32812 12.8492C3.30637 12.9926 3.317 13.1397 3.35742 13.2789C3.39779 13.4179 3.46756 13.5466 3.5625 13.6559C3.65762 13.7653 3.77594 13.8534 3.9082 13.9127C4.04036 13.972 4.18427 14.0013 4.3291 13.9996H10C10.5522 13.9996 10.9998 14.4475 11 14.9996V18.9996Z" fill="#2E3030"/>
</svg>
