<svg width="24" height="24" viewBox="0 0 24 24" fill="none" xmlns="http://www.w3.org/2000/svg">
<path d="M14.7419 1.10969C16.1418 0.854688 17.5863 1.03285 18.8826 1.61945L18.4695 2.52961L19.1775 3.23762L15.4167 6.99738L15.4138 6.99933L16.9998 8.58527L20.7634 4.82258C20.9955 4.59077 21.3265 4.48747 21.6492 4.54621C21.9721 4.60505 22.2462 4.81845 22.3816 5.1175C22.9682 6.41379 23.1454 7.85832 22.8904 9.25812C22.6353 10.6579 21.9599 11.9473 20.9539 12.9534C19.9477 13.9596 18.6584 14.6349 17.2585 14.89C16.091 15.1027 14.8929 15.0135 13.7751 14.638L7.3269 21.0872C6.74156 21.6725 5.94761 22.0013 5.11987 22.0013C4.29213 22.0012 3.49815 21.6725 2.91284 21.0872C2.32754 20.5019 1.99882 19.7079 1.99878 18.8802C1.99878 18.0525 2.3276 17.2585 2.91284 16.6732L9.36108 10.2239C8.98596 9.10654 8.89746 7.90862 9.11011 6.74152C9.3652 5.34169 10.0405 4.05234 11.0466 3.04621C12.0528 2.04014 13.3421 1.36473 14.7419 1.10969ZM18.8826 1.61945C19.1815 1.75484 19.395 2.02806 19.4539 2.3509C19.5127 2.67383 19.4096 3.00551 19.1775 3.23762L18.4695 2.52961L18.8826 1.61945ZM3.99878 18.8802C3.99882 19.1775 4.11668 19.4629 4.3269 19.6732C4.53714 19.8834 4.82256 20.0012 5.11987 20.0013C5.41718 20.0013 5.70257 19.8833 5.91284 19.6732L12.823 12.763L12.9402 12.6624C13.2278 12.4522 13.6105 12.4089 13.9421 12.5589C14.8681 12.9779 15.9002 13.1054 16.9001 12.9232C17.8999 12.741 18.8202 12.2579 19.5388 11.5394C20.2575 10.8207 20.7404 9.89965 20.9226 8.89972C21.0106 8.41654 21.0249 7.92618 20.9705 7.44367L18.4001 10.014C18.0263 10.3804 17.5233 10.5862 16.9998 10.5862C16.5417 10.5862 16.0996 10.4287 15.7458 10.1439L15.6003 10.014L15.5925 10.0071L13.9929 8.40754L13.9861 8.39972C13.6198 8.02594 13.4139 7.52368 13.4138 7.00031C13.4138 6.4768 13.6196 5.97378 13.9861 5.59992L16.5564 3.02863C16.0739 2.97425 15.5835 2.98944 15.1003 3.07746C14.1004 3.25965 13.1794 3.74255 12.4607 4.46125C11.7422 5.17983 11.2601 6.10025 11.0779 7.09992C10.8957 8.09985 11.0221 9.13194 11.4412 10.0579C11.6127 10.4371 11.5313 10.8828 11.2371 11.1771L4.3269 18.0872C4.11673 18.2975 3.99878 18.5829 3.99878 18.8802Z" fill="#2E3030"/>
</svg>
