<svg width="24" height="24" viewBox="0 0 24 24" fill="none" xmlns="http://www.w3.org/2000/svg">
<path d="M0.292893 5.29302C0.683417 4.90249 1.31643 4.90249 1.70696 5.29302L8.49992 12.086L12.7929 7.79302L12.8691 7.72466C13.2618 7.40431 13.8408 7.4269 14.207 7.79302L21.9999 15.586V12C21.9999 11.4478 22.4476 11 22.9999 11C23.5522 11 23.9999 11.4478 23.9999 12V18C23.9999 18.5523 23.5522 19 22.9999 19H16.9999C16.4476 19 15.9999 18.5523 15.9999 18C15.9999 17.4478 16.4476 17 16.9999 17H20.5859L13.4999 9.91411L9.20696 14.2071C8.81643 14.5976 8.18342 14.5976 7.79289 14.2071L0.292893 6.70708C-0.0976311 6.31655 -0.0976311 5.68354 0.292893 5.29302Z" fill="#2E3030"/>
</svg>
