<svg width="24" height="24" viewBox="0 0 24 24" fill="none" xmlns="http://www.w3.org/2000/svg">
<path d="M12.0003 1.89722C12.5158 1.89726 13.0227 2.03004 13.4719 2.28296C13.9212 2.53591 14.2973 2.90073 14.5647 3.34155L13.7092 3.86011L13.7454 3.83765L14.5647 3.34155L23.0383 17.4861L23.0462 17.4998C23.3081 17.9534 23.447 18.4681 23.4485 18.9919C23.4499 19.5157 23.3133 20.0311 23.054 20.4861C22.7946 20.941 22.4203 21.3201 21.969 21.5857C21.5176 21.8512 21.0044 21.994 20.4807 21.9998H3.51881C2.99509 21.994 2.48193 21.8513 2.03053 21.5857C1.57916 21.3201 1.20496 20.941 0.945568 20.4861C0.686208 20.0311 0.550593 19.5157 0.552013 18.9919C0.55348 18.4681 0.692409 17.9534 0.954357 17.4998C0.956982 17.4952 0.959473 17.4906 0.962169 17.4861L9.4319 3.34644L10.2893 3.86011L9.43483 3.34155C9.70223 2.90071 10.0793 2.53591 10.5286 2.28296C10.9778 2.03011 11.4848 1.89722 12.0003 1.89722ZM12.0003 3.89722C11.8284 3.89722 11.6588 3.9418 11.509 4.02612C11.3595 4.11043 11.2338 4.23185 11.1448 4.37866L2.6858 18.4998C2.59856 18.6508 2.55258 18.8224 2.55201 18.9968C2.55152 19.1713 2.59658 19.3433 2.68287 19.4949C2.76934 19.6466 2.89469 19.7735 3.04518 19.8621C3.19561 19.9505 3.36678 19.9978 3.54127 19.9998H20.4592C20.6338 19.9978 20.8049 19.9506 20.9553 19.8621C21.1058 19.7735 21.2302 19.6466 21.3167 19.4949C21.403 19.3432 21.449 19.1713 21.4485 18.9968C21.4479 18.8224 21.401 18.6508 21.3137 18.4998L12.8547 4.37866L12.7815 4.27319C12.7016 4.17313 12.6028 4.08934 12.4905 4.02612C12.3408 3.94184 12.172 3.89726 12.0003 3.89722Z" fill="#2E3030"/>
</svg>
