<svg width="24" height="24" viewBox="0 0 24 24" fill="none" xmlns="http://www.w3.org/2000/svg">
<path d="M10.9999 19V13H0.999888C0.718143 13 0.449176 12.8813 0.259654 12.6729C0.0702197 12.4644 -0.0219175 12.1856 0.00477075 11.9053C0.289614 8.92121 1.67635 6.15021 3.89442 4.13379C6.11247 2.11742 9.0023 1 11.9999 1C14.9975 1 17.8873 2.11742 20.1054 4.13379C22.3234 6.15021 23.7102 8.92121 23.995 11.9053C24.0217 12.1856 23.9296 12.4644 23.7401 12.6729C23.5506 12.8813 23.2816 13 22.9999 13H12.9999V19C12.9999 19.5304 13.2108 20.039 13.5858 20.4141C13.9609 20.7891 14.4695 21 14.9999 21C15.5303 21 16.0389 20.7891 16.4139 20.4141C16.789 20.039 16.9999 19.5304 16.9999 19C16.9999 18.4477 17.4476 18 17.9999 18C18.5522 18 18.9999 18.4477 18.9999 19C18.9999 20.0609 18.5782 21.078 17.828 21.8281C17.0779 22.5783 16.0608 23 14.9999 23C13.939 23 12.9219 22.5783 12.1718 21.8281C11.4216 21.078 10.9999 20.0609 10.9999 19ZM11.9999 3C9.49979 3 7.08907 3.93153 5.23915 5.61328C3.66398 7.04527 2.59444 8.93431 2.16395 11H21.8358C21.4053 8.93431 20.3358 7.04527 18.7606 5.61328C16.9107 3.93153 14.5 3 11.9999 3Z" fill="#2E3030"/>
</svg>
