<svg width="24" height="24" viewBox="0 0 24 24" fill="none" xmlns="http://www.w3.org/2000/svg">
<path d="M12.0098 18.9998C12.562 18.9998 13.0097 19.4476 13.0098 19.9998C13.0098 20.552 12.5621 20.9998 12.0098 20.9998H12C11.4478 20.9998 11 20.552 11 19.9998C11.0002 19.4476 11.4479 18.9998 12 18.9998H12.0098ZM12.0049 14.0017C13.4578 14.0017 14.8752 14.4532 16.0596 15.2947C16.5096 15.6146 16.6148 16.2391 16.295 16.6892C15.9751 17.1393 15.3506 17.2454 14.9004 16.9255C14.0545 16.3245 13.0427 16.0017 12.0049 16.0017C10.9672 16.0017 9.9554 16.3245 9.10942 16.9255C8.65921 17.2454 8.03477 17.1394 7.71489 16.6892C7.39502 16.239 7.50099 15.6145 7.95121 15.2947C9.13554 14.4534 10.5522 14.0017 12.0049 14.0017ZM12.0401 9.00171C14.8463 9.00174 17.5635 9.98601 19.7198 11.782C20.1441 12.1354 20.2021 12.7658 19.8487 13.1902C19.4952 13.6145 18.8639 13.6716 18.4395 13.3181C16.6427 11.8217 14.3784 11.0017 12.0401 11.0017C9.70154 11.0017 7.43657 11.8214 5.63969 13.3181C5.21534 13.6716 4.58495 13.6145 4.23149 13.1902C3.87803 12.7658 3.93603 12.1354 4.36039 11.782C6.51663 9.98603 9.23387 9.00171 12.0401 9.00171ZM12 4.00269C16.1392 4.0027 20.1362 5.51276 23.2413 8.24976C23.6555 8.61489 23.6951 9.24658 23.3301 9.66089C22.9649 10.0752 22.3333 10.115 21.919 9.74976C19.1792 7.33478 15.6522 6.0027 12 6.00269C8.34789 6.00269 4.82085 7.33481 2.0811 9.74976C1.66679 10.115 1.03516 10.0752 0.669964 9.66089C0.304899 9.24658 0.344573 8.61491 0.758831 8.24976C3.86389 5.51279 7.86091 4.00269 12 4.00269Z" fill="#2E3030"/>
</svg>
