<svg width="24" height="24" viewBox="0 0 24 24" fill="none" xmlns="http://www.w3.org/2000/svg">
<g clip-path="url(#clip0_1027_7208)">
<path d="M11.9994 3H12.0794C12.1309 3.0001 12.2066 3.00056 12.3031 3.00098C12.4961 3.0018 12.7737 3.00353 13.1117 3.00684C13.7873 3.01344 14.707 3.02628 15.682 3.05273C16.6555 3.07915 17.6915 3.11938 18.597 3.17969C19.3668 3.23095 20.1023 3.29979 20.6263 3.40234L20.8373 3.44824L20.8724 3.45801C21.5122 3.63908 22.093 3.98564 22.556 4.46289C22.9612 4.88061 23.2642 5.38561 23.4418 5.9375L23.5101 6.17676L23.5238 6.24219C23.8514 8.05819 24.0113 9.90083 24.0003 11.7461L23.9945 12.4287C23.964 14.0212 23.8065 15.6095 23.5238 17.1777L23.5101 17.2432C23.3486 17.8883 23.0191 18.4796 22.556 18.957C22.093 19.4343 21.5123 19.7808 20.8724 19.9619C20.868 19.9632 20.8632 19.9646 20.8587 19.9658C20.3251 20.1085 19.4822 20.1995 18.6029 20.2637C17.6958 20.3298 16.6588 20.3734 15.6849 20.4023C14.7093 20.4313 13.7886 20.4459 13.1126 20.4531C12.7747 20.4567 12.4973 20.4581 12.3041 20.459C12.2074 20.4594 12.131 20.4598 12.0794 20.46H11.9203C11.8687 20.4598 11.7931 20.4594 11.6966 20.459C11.5034 20.4581 11.2253 20.4567 10.8871 20.4531C10.2111 20.4459 9.29038 20.4313 8.3148 20.4023C7.3409 20.3734 6.3039 20.3298 5.39683 20.2637C4.51769 20.1995 3.67561 20.1085 3.14195 19.9658L3.13609 19.9648C2.50902 19.7933 1.93704 19.4622 1.47495 19.0049C1.01289 18.5476 0.676456 17.9788 0.498392 17.3535C0.48942 17.322 0.481763 17.2901 0.475931 17.2578L1.45347 17.0811L1.45445 17.0801L0.475931 17.2578C0.147785 15.4386 -0.0112355 13.5927 0.000345536 11.7441C-0.00804374 9.9129 0.15093 8.08443 0.475931 6.28223C0.479874 6.2604 0.484219 6.23831 0.489603 6.2168L0.557963 5.97754C0.735472 5.42562 1.03849 4.92068 1.4437 4.50293C1.90672 4.02567 2.48749 3.67915 3.1273 3.49805C3.13191 3.49674 3.13731 3.49538 3.14195 3.49414L3.39976 4.45996L3.40074 4.46289L3.14195 3.49414C3.67561 3.35147 4.51769 3.26041 5.39683 3.19629C6.3039 3.13014 7.3409 3.08656 8.3148 3.05762C9.29038 3.02863 10.2111 3.01407 10.8871 3.00684C11.2253 3.00322 11.5034 3.00188 11.6966 3.00098C11.7931 3.00052 11.8687 3.00011 11.9203 3H11.9994ZM11.9242 5C11.8741 5.00011 11.8001 5.00053 11.7054 5.00098C11.5157 5.00187 11.2421 5.00327 10.9085 5.00684C10.2408 5.01398 9.33354 5.02814 8.37437 5.05664C7.41368 5.08519 6.40868 5.12822 5.54234 5.19141C4.65192 5.25635 3.99035 5.33699 3.66245 5.42383C3.36483 5.5098 3.09506 5.67309 2.87925 5.89551C2.66669 6.11464 2.51391 6.38481 2.43589 6.67969C2.13708 8.35135 1.99195 10.0469 2.00035 11.7451V11.7559C1.98965 13.4594 2.13353 15.1608 2.43199 16.8379C2.51799 17.1197 2.67154 17.3765 2.8812 17.584C3.09868 17.7992 3.36833 17.9543 3.66343 18.0352C3.99156 18.1219 4.65251 18.2037 5.54234 18.2686C6.40868 18.3317 7.41368 18.3748 8.37437 18.4033C9.33354 18.4318 10.2408 18.446 10.9085 18.4531C11.2421 18.4567 11.5157 18.4581 11.7054 18.459C11.8001 18.4594 11.8741 18.4599 11.9242 18.46H12.0755C12.1256 18.4599 12.1995 18.4594 12.2943 18.459C12.484 18.4581 12.7575 18.4567 13.0912 18.4531C13.7589 18.446 14.6661 18.4318 15.6253 18.4033C16.586 18.3748 17.591 18.3317 18.4574 18.2686C19.3473 18.2036 20.0082 18.121 20.3363 18.0342C20.6341 17.9483 20.9045 17.787 21.1205 17.5645C21.3332 17.3451 21.4849 17.0744 21.5628 16.7793C21.8592 15.1207 22.0064 13.4388 22.0003 11.7539V11.7441C22.0111 10.0323 21.8643 8.32275 21.5628 6.6377C21.4847 6.34365 21.3325 6.07407 21.1205 5.85547C20.9078 5.6363 20.6425 5.47555 20.35 5.38867C20.0116 5.30823 19.3471 5.2336 18.4642 5.1748C17.5961 5.11699 16.5896 5.07784 15.6283 5.05176C14.6683 5.02571 13.7603 5.01336 13.0921 5.00684C12.7583 5.00357 12.4842 5.00179 12.2943 5.00098C12.1995 5.00057 12.1256 5.0001 12.0755 5H11.9242ZM9.24742 7.61523C9.51668 7.45876 9.8412 7.43765 10.1253 7.55273L10.2445 7.61035L15.9945 10.8809L15.4994 11.75L15.9945 12.6191L10.2445 15.8896L10.1253 15.9473C9.8412 16.0623 9.51668 16.0412 9.24742 15.8848C8.9396 15.7057 8.75035 15.3756 8.75035 15.0195V8.48047C8.75035 8.12437 8.9396 7.79429 9.24742 7.61523ZM10.7503 13.2998L13.4759 11.75L10.7503 10.1992V13.2998ZM15.9945 10.8809C16.3069 11.0587 16.5003 11.3905 16.5003 11.75C16.5003 12.1095 16.3069 12.4413 15.9945 12.6191L15.4994 11.75L15.9945 10.8809Z" fill="#2E3030"/>
</g>
<defs>
<clipPath id="clip0_1027_7208">
<rect width="24" height="24" fill="white"/>
</clipPath>
</defs>
</svg>
