<svg width="24" height="24" viewBox="0 0 24 24" fill="none" xmlns="http://www.w3.org/2000/svg">
<path d="M12.2316 1.35928C12.5158 1.01832 12.9914 0.906157 13.3985 1.08291C13.8056 1.25976 14.0473 1.68354 13.9923 2.12392L13.1329 8.9999H21.0001C21.3881 8.9999 21.7408 9.22469 21.9054 9.57607C22.0699 9.92743 22.017 10.3425 21.7687 10.6405L11.7687 22.6405C11.4845 22.9815 11.0088 23.0936 10.6017 22.9169C10.1946 22.74 9.95287 22.3163 10.0079 21.8759L10.8673 14.9999H3.00011C2.61209 14.9999 2.25942 14.7751 2.09484 14.4237C1.93034 14.0724 1.98319 13.6573 2.23155 13.3593L12.2316 1.35928ZM5.13585 12.9999H12.0001C12.2869 12.9999 12.5603 13.1228 12.7501 13.3378C12.9399 13.5528 13.0279 13.8393 12.9923 14.1239L12.4151 18.7382L18.8644 10.9999H12.0001C11.7133 10.9999 11.4399 10.877 11.2501 10.662C11.0603 10.447 10.9723 10.1605 11.0079 9.87588L11.5841 5.26064L5.13585 12.9999Z" fill="#2E3030"/>
</svg>
